<?xml version="1.0" encoding="utf-8"?>
<!-- Generator: Adobe Illustrator 24.3.0, SVG Export Plug-In . SVG Version: 6.00 Build 0)  -->
<svg version="1.1" id="Layer_1" xmlns="http://www.w3.org/2000/svg" xmlns:xlink="http://www.w3.org/1999/xlink" x="0px" y="0px"
	 viewBox="0 0 323.4 325" style="enable-background:new 0 0 323.4 325;" xml:space="preserve">
<path d="M184.5,281.9c-1.1,0-2.2,0-3.3,0.1c-114.3,4.3-128-85-128-85C32.4,73.3,133.5,50.2,133.5,50.2S196.2,34.1,241,68.7
	c44.8,34.6,35.1,88.6,33.2,99.7c-1.8,11.1-6,33.2-29.5,41.1s-18-24.5-18-24.5l19.4-93.7l-37.4-0.5l-3.7,17.1
	c-11.7-22.2-32.1-24.8-49-22.1c-17.7,2.8-33.7,11.9-45.8,25.2c-29,31.8-27.2,66.9-22.2,88c3.7,15.3,13,28.9,26.4,37.2
	c41.8,25.9,80.4-20.7,80.4-20.7c20.3,66.9,138,12,116.8-92.3C290.4,18.8,190.7,12.8,161.6,12.4C132.6,11.9,8.6,37,9.5,165.9
	s124,148,124,148c117.5,14.8,161.2-47.4,161.2-47.4l-22.2-24.3C233.4,279.4,191.9,281.8,184.5,281.9z M189.9,175.8
	c-8.8,24.7-29.7,39.9-46.6,33.8c-16.9-6.1-23.4-31-14.6-55.7c8.8-24.7,29.7-39.9,46.6-33.8C192.2,126.1,198.8,151,189.9,175.8z"/>
</svg>
