<?xml version="1.0" encoding="utf-8"?>
<!-- Generator: Adobe Illustrator 24.3.0, SVG Export Plug-In . SVG Version: 6.00 Build 0)  -->
<svg version="1.1" id="Layer_1" xmlns="http://www.w3.org/2000/svg" xmlns:xlink="http://www.w3.org/1999/xlink" x="0px" y="0px"
	 viewBox="0 0 356.6 325" style="enable-background:new 0 0 356.6 325;" xml:space="preserve">
<path d="M220,57.6c0,0-64.7-37.3-126.2,5.8c-27.1,19-45.9,48-51.4,80.6c-4.7,27.8-1.2,64.1,30.9,98.9c0.7,0.8,1.4,1.5,2.1,2.3
	c5,5.6,37.7,39.1,96.6,35.4c64.3-4.1,93.7-63.3,93.7-63.3s14-24.9,13.1-55.2h35.7c0,0-1.4,119.5-115.8,149.8
	c0,0-124.4,29.4-178.3-86.9c0,0-50.7-110,49.8-187.3c0,0,75.1-58.8,166.1-8.6L220,57.6z"/>
<path d="M116.4,110.1l61.1,61.1L323.6,25l24.2,24.2L177.5,219.6l-85.1-85.1C92.4,134.5,117.7,111.5,116.4,110.1z"/>
</svg>
