<?xml version="1.0" encoding="utf-8"?>
<!-- Generator: Adobe Illustrator 24.3.0, SVG Export Plug-In . SVG Version: 6.00 Build 0)  -->
<svg version="1.1" id="Layer_1" xmlns="http://www.w3.org/2000/svg" xmlns:xlink="http://www.w3.org/1999/xlink" x="0px" y="0px"
	 viewBox="0 0 334.4 325" style="enable-background:new 0 0 334.4 325;" xml:space="preserve">
<style type="text/css">
	.st0{fill:#666666;}
</style>
<g>
	<g>
		<ellipse class="st0" cx="228.5" cy="41.4" rx="33.6" ry="33.6"/>
		<path class="st0" d="M137.1,105.3l-25.5,35.1c-1.8,2.5-4.2,4.6-7.1,5.8c-4,1.7-9.7,2.3-15.7-3.2c-7.8-7.2-0.6-16.6,4.3-21.5
			c4.4-4.4,8.4-9,12.4-13.7L122.1,88c0,0,6.6-8.9,14.6-8.4c6.6,0.4,46.5,1.4,59.6,1.7c3.8,0.1,7.6,0.6,11.2,1.7
			c10.5,3.2,28.5,11.8,24.4,33.8c-5.8,30.5-25.2,69.9-25.2,69.9l28.8,19.4c1.8,1.2,3.7,2.4,5.5,3.6c3.4,2.1,11.3,8.6,11.3,22.2
			c0,14.5-0.9,52-1.2,63.7c0,1.8,0,3.6,0.1,5.4c0.2,3.6-0.5,11.6-8.2,15.6c-10.8,5.7-24.4-0.3-27.4-12.1c-0.7-2.7-1.1-6-0.9-9.8
			v-58.4c0,0-91.2-21.7-69.9-70.4l23.5-60.6L137.1,105.3z"/>
		<path class="st0" d="M242.9,126.1L232.8,158l9.7,7.4c6.7,5.1,14.9,8,23.4,7.6c2-0.1,4-0.4,5.9-0.9c9.3-2.7,42.9-13.7,42.9-13.7
			s13.3-4,7.5-21.2s-57.6,8.9-57.6,8.9L242.9,126.1z"/>
		<path class="st0" d="M131.8,200c0,0,6.2,21.2,27,27c0,0-15.9,36.7-38.1,37.6c-18.3,0.7-49.3,2.1-59.5,2.5c-4.1,0.2-8.3-1-11.5-3.6
			s-6.1-6.9-5.6-14c0.3-5.2,2.1-9,4.3-11.8c3.6-4.6,9.3-7.2,15.1-7.4l49.6-2L131.8,200z"/>
	</g>
	<path class="st0" d="M113.4,173.1H10.6c-0.2,0-0.4-0.2-0.4-0.4v-13.6c0-0.2,0.2-0.4,0.4-0.4h102.8c0.2,0,0.4,0.2,0.4,0.4v13.6
		C113.8,172.9,113.6,173.1,113.4,173.1z"/>
	<path class="st0" d="M85.2,206h-72c-0.2,0-0.4-0.2-0.4-0.4v-12.9c0-0.2,0.2-0.4,0.4-0.4h72c0.2,0,0.4,0.2,0.4,0.4v12.9
		C85.6,205.9,85.4,206,85.2,206z"/>
</g>
</svg>
