<?xml version="1.0" encoding="utf-8"?>
<!-- Generator: Adobe Illustrator 24.3.0, SVG Export Plug-In . SVG Version: 6.00 Build 0)  -->
<svg version="1.1" id="Layer_1" xmlns="http://www.w3.org/2000/svg" xmlns:xlink="http://www.w3.org/1999/xlink" x="0px" y="0px"
	 viewBox="0 0 324.2 325" style="enable-background:new 0 0 324.2 325;" xml:space="preserve">
<style type="text/css">
	.st0{fill:#666666;}
</style>
<g>
	<path class="st0" d="M57.5,114.8l33.5-40.4c5.9-7.2,14.4-12,23.7-12.7c4.4-0.3,9.4,0.1,14.9,1.9c18.5,5.9,55.5,19.5,67.2,23.8
		c4.3,1.6,8.2,4,11.4,7.3c6.2,6.6,11.9,18.8-2.2,36.4l-45.7,62.5l53.6,5.1c5.5,0.5,10.8,2.2,15.4,5.2c0.4,0.3,0.8,0.5,1.2,0.8
		c10.9,7.7,14.8,21.9,10.7,34.6c-1,3.2-2.6,6.5-4.9,9.9c-1.3,1.9-2.5,4-3.7,6l-17.9,30.3c-2.1,3.6-5.3,6.6-9.2,8
		c-4.8,1.8-11.6,2.1-19.8-3.9c-16.4-12.2,20.1-56.2,20.1-56.2l-98.7-12.2c-3.9-0.5-7.8-1.9-10.9-4.4c-2.7-2.1-5.3-5.3-6.5-9.9
		c-0.6-2.4-0.7-4.9-0.4-7.3c0.4-2.7,1.3-6.1,3.6-9.3c4.6-6.3,60.4-80.5,60.4-80.5l-35.6-12.6L83,138.5c-0.8,1-1.7,1.8-2.7,2.5
		c-0.1,0-0.1,0.1-0.2,0.1c-16.6,11.2-35.8-10.3-23.1-25.8C57.2,115.1,57.3,115,57.5,114.8z"/>
	<path class="st0" d="M221.9,100.9c0,0,5.5,20.5-8.8,36.5l14.8,9.7c5.7,3.7,12,6.2,18.7,7.2c8.1,1.1,18,0.2,25.6-8l38.5-42.5
		c2.5-2.7,4.2-6.1,4.5-9.8c0.1-1,0.1-2.1,0-3.3c-1.3-11.8-14-19.2-24.9-14.7c-3.4,1.4-7.1,4.1-10.5,8.7
		c-12.2,16.4-30.6,34.8-30.6,34.8L221.9,100.9z"/>
	<path class="st0" d="M82.2,214.6l-13.8,35.6l-50.3,32.2c-2.8,1.8-5.2,4-7,6.7c-3.1,4.7-5.5,12.3,1.1,21.1c9.8,13,27.6,1.7,32.4-1.6
		c1.3-0.9,2.6-1.8,3.9-2.7l47.6-32.5l17.6-41.9C113.7,231.4,86.8,233,82.2,214.6z"/>
	<circle class="st0" cx="226.1" cy="44.7" r="37.7"/>
</g>
</svg>
