<?xml version="1.0" encoding="utf-8"?>
<!-- Generator: Adobe Illustrator 24.3.0, SVG Export Plug-In . SVG Version: 6.00 Build 0)  -->
<svg version="1.1" id="Layer_1" xmlns="http://www.w3.org/2000/svg" xmlns:xlink="http://www.w3.org/1999/xlink" x="0px" y="0px"
	 viewBox="0 0 314 325" style="enable-background:new 0 0 314 325;" xml:space="preserve">
<g>
	<path d="M13.2,34c0,0,1.7-23.3,26.1-23.9s192.4,0,192.4,0s30.6-3.7,31.1,28.5v79.1c0,0-1,18.5-12,16.1s-10.2-14.1-10.2-14.1V32.3
		h-205v256.6h89c0,0,14.7-0.5,13.7,10.9s-13,11.3-13,11.3h-86c0,0-24.9,2.6-25.8-26S12.7,34.5,13.2,34z"/>
	<path d="M211.2,131c-50.6-0.1-92.1,41-92.2,91.3c-0.1,50.5,40.9,91.9,91.3,92.2c50.5,0.2,92.1-40.9,92.2-91.3
		C302.6,172.7,261.5,131.1,211.2,131z M210.5,302.2c-43.5,0-79.4-36-79.3-79.6c0.2-43.5,36.2-79.5,79.7-79.3
		c43.5,0.1,79.5,36.2,79.3,79.7C290,266.7,254.2,302.2,210.5,302.2z"/>
	<path d="M271,220.8c-2.9-0.1-5.8-0.4-8.7,0c-4.5,0.7-6.6-1-8-5.4c-3.3-10.3-7.3-20.5-10.9-30.7c-1.2-3.3-2.4-6.6-6.6-6.6
		c-4.3-0.1-5.4,3.4-6.4,6.7c-4.5,14.5-9.1,29.1-13.6,43.6c-1.6,4.8-3.1,9.5-5,15.3c-1.4-2.7-2.1-4.3-2.9-5.9
		c-5.6-12.4-11-24.8-16.6-37.2c-2.6-5.8-7.7-6.2-11.4-1.1c-1.9,2.7-4.2,5.5-5.6,8.5c-4.4,10.4-11.9,14.8-23.1,12.6
		c-0.7-0.1-1.4,0-2,0c-3.8-0.1-6.4,1.8-6.5,5.6c-0.2,4.1,2.5,6,6.5,6c6.1,0,12.3,0.4,18.3-0.2c2.6-0.3,5.6-2,7.4-4.1
		c3.4-3.9,5.9-8.6,9.4-13.7c7,15.8,13.5,30.5,20,45.3c1.6,3.4,2.3,7.5,7.3,7.3c5.2-0.2,5.6-4.7,6.8-8.3c5.3-16.5,10.4-33,15.6-49.5
		c0.6-1.7,1.2-3.3,2.1-6.1c3.3,9.1,5.8,16.8,9.1,24.3c0.9,2,3.5,4.6,5.6,4.8c6.4,0.7,13,0.4,19.4,0.2c3.6-0.1,5.6-2.5,5.5-6
		C276.6,222.7,274.4,220.9,271,220.8z"/>
	<path d="M140.8,93.3c-0.3-25.8-21.5-47.3-48-47.4c-26.6-0.1-48.7,21.9-48.1,49.2c0.6,26.5,22.3,46.8,48,46.9
		C119.5,142,141.1,120.2,140.8,93.3z M71.5,128.2c2.2-5.5,5.3-10.1,9.6-13.8c6.9-5.6,15.6-5.5,22.5,0.2c4.6,3.7,7.5,8.6,9.6,13.9
		C101.6,136,84.2,136.4,71.5,128.2z M120,123.6c-1.3-2.1-2.3-4.4-3.6-6.6c-3.1-4.9-7-9-12.2-11.7c-9.3-4.8-18.3-3.9-26.8,2
		c-3.2,2.2-5.8,5-8,8.3c-1.5,2.4-2.9,4.9-4.4,7.3c-9-7.7-15.9-23.4-11.2-40C58.6,66.1,73.9,54.2,91,53.5c17.4-0.6,34,10,39.9,27.5
		C136.4,97,131.1,113.9,120,123.6z"/>
	<path d="M232.8,70.1c-1.3-2.2-3.2-3.5-5.8-3.5c-11.6,0-23.1,0-34.6,0c-11.4,0-22.9,0-34.3,0c-3.2,0-5.6,1.9-6.5,4.7
		c-1.3,4.3,1.9,8.4,6.6,8.4c15.5,0,30.9,0,46.4,0c7.3,0,14.7,0,22,0c2.5,0,4.6-0.9,5.9-3C233.9,74.5,234,72.3,232.8,70.1z"/>
	<path d="M230.3,94.1c-1.5-0.7-3.1-1-4.7-1c-22.2,0-44.5,0-66.7,0c-0.8,0-1.6,0.1-2.3,0.2c-4.1,0.7-6.4,5-4.8,8.9c1.3,3,3.7,4,6.8,4
		c11.2,0,22.5,0,33.7,0c10.9,0,21.8,0,32.7,0.1c0.9,0,1.7,0,2.5-0.1c2.8-0.2,5.2-2.2,5.8-5C234,98.4,232.9,95.3,230.3,94.1z"/>
	<path d="M92.1,60.7c-10.1,0-18.5,8.6-18.5,18.8c-0.1,10.2,8.5,19.1,19.5,18.7c9.5-0.3,18.1-8,18.1-19
		C111.1,69,102.6,60.7,92.1,60.7z M93.1,90.5c-5.8,0.5-11.2-4.2-11.7-10.1C81,74.2,85.6,69,91.8,68.6c6.3-0.4,11.4,4.6,11.5,10.4
		C103.7,84.6,99,89.9,93.1,90.5z"/>
	<path d="M53.3,182.6c0,3.6-0.1,7.3,0,10.9c0.2,11.6,5.6,16.8,17.3,17.1c3.9,0.1,7.8,0,11.7,0c16.5-0.1,22.1-7.2,19-24
		c-2.7,0-5.5,0-8.1,0c-2.2,14.6-2.2,14.5-21.9,14.1c-4.9-0.1-7.7-1.3-8.1-6.8c-1.6-20-1.5-20.4,14.3-23.4c0-2.6,0-5.5,0-8.1
		C60.1,159.9,53.4,165.5,53.3,182.6z"/>
	<path d="M75.5,193.6c8.4-8.5,16.2-16.4,24.3-24.4c-1.5-1.4-3.4-3.3-5-4.8c-8.3,8.1-16.1,15.9-24.3,24C72.1,189.9,74,192,75.5,193.6
		z"/>
	<path d="M71.3,272.4c3.9,0.1,7.8,0,11.7,0c16.5-0.1,22.1-7.2,19-24c-2.7,0-5.5,0-8.1,0c-2.2,14.6-2.2,14.5-21.9,14.1
		c-4.9-0.1-7.7-1.3-8.1-6.8c-1.6-20-1.5-20.4,14.3-23.4c0-2.6,0-5.5,0-8.1c-17.5-2.6-24.2,2.9-24.3,20.1c0,3.6-0.1,7.3,0,10.9
		C54.1,266.9,59.5,272.1,71.3,272.4z"/>
	<path d="M71.2,250.1c1.6,1.6,3.4,3.6,5,5.3c8.5-8.6,16.3-16.4,24.3-24.4c-1.5-1.4-3.4-3.3-5-4.8C87.1,234.2,79.3,242,71.2,250.1z"
		/>
</g>
</svg>
