<?xml version="1.0" encoding="utf-8"?>
<!-- Generator: Adobe Illustrator 24.3.0, SVG Export Plug-In . SVG Version: 6.00 Build 0)  -->
<svg version="1.1" id="Layer_1" xmlns="http://www.w3.org/2000/svg" xmlns:xlink="http://www.w3.org/1999/xlink" x="0px" y="0px"
	 viewBox="0 0 321.1 325" style="enable-background:new 0 0 321.1 325;" xml:space="preserve">
<style type="text/css">
	.st0{fill:#666666;}
</style>
<g>
	<path class="st0" d="M273.4,28.7c10.3,0,18.8,8.4,18.8,18.8s-8.4,18.8-18.8,18.8c-10.3,0-18.8-8.4-18.8-18.8
		C254.6,37.1,263,28.7,273.4,28.7 M273.4,8.9c-21.3,0-38.5,17.2-38.5,38.5c0,21.3,17.2,38.5,38.5,38.5s38.5-17.2,38.5-38.5
		C311.9,26.2,294.7,8.9,273.4,8.9L273.4,8.9z"/>
	<path class="st0" d="M223,127.9l-31.6,32.1c-2,2.1-3.9,4.2-5.9,6.3c-1.2,1.4-3.5,2.8-6.3-0.2c-3-3.2-14.5-14.4-21.1-20.6
		c-5.1-4.9-11.6-8-18.6-8.6c-0.4,0-0.7-0.1-1.1-0.1c-5.6-0.2-11,2-15.1,6l-42.1,41.3c-1.5,1.5-2.7,3.3-3.4,5.3
		c-1.1,3.4-1.3,8.2,5.1,11.3c0.7,0.3,1.3,0.7,2,1c1.7,0.9,6.3,2.4,13.1-4.1c8.6-8.3,38.5-38.8,38.5-38.8s2.1-2.4,5.2,0
		c2.6,2.1,17.7,18,22.1,22.6c1.2,1.3,2.6,2.5,4.1,3.5c2.6,1.7,6.9,3.8,12,4.2c2.2,0.2,4.4-0.1,6.5-0.6c5.5-1.2,10.5-4.1,14.4-8.1
		l36.6-36.6c0.6-0.6,1.1-1.1,1.7-1.7c2-1.9,8.5-9.3-2.1-17c0,0-3.5-2.5-8.8-0.6C226.2,125.3,224.5,126.5,223,127.9z"/>
	<path class="st0" d="M186.7,32.3c0,0-94.9-22-144.9,72.4c-21.2,40.1-17.2,76.1-5.6,104.1c19.5,47,63.6,79.1,114.1,84.8
		c41.7,4.7,93.8-7.3,131.3-77c0,0,18.8-37.1,9.2-81.2c0,0,0.9-19.3,19.3-7.8c0,0,29.3,93.1-59.6,160.5s-182-0.5-182-0.5
		S-38.2,203.3,29.9,81.6c0,0,52.9-87.1,152.9-71.5c2,0.3,4,0.5,6,0.7c3.8,0.4,11.4,2.3,12.1,12.3C201.9,36.4,186.7,32.3,186.7,32.3z
		"/>
</g>
</svg>
