<?xml version="1.0" encoding="utf-8"?>
<!-- Generator: Adobe Illustrator 24.3.0, SVG Export Plug-In . SVG Version: 6.00 Build 0)  -->
<svg version="1.1" id="Layer_1" xmlns="http://www.w3.org/2000/svg" xmlns:xlink="http://www.w3.org/1999/xlink" x="0px" y="0px"
	 viewBox="0 0 322 325" style="enable-background:new 0 0 322 325;" xml:space="preserve">
<path d="M263.5,86.6h-29c0,0-2.5-45.7-42.3-64.9c-21-10.1-45.7-10-66.4,0.6c-17.4,8.9-36,27.2-40.6,64.3H55.7
	c-8.2,0-16.3,1.8-23.6,5.5c-9.4,4.8-19.4,13.5-19.4,28.8v125.5c0,0-0.4,50.1,51,59.7c5.2,1,10.4,1.4,15.7,1.4h158.7
	c16.8,0,33.4-5.5,46.5-16.1c11.6-9.4,21.8-23.6,21.8-44.5c-0.1-41.6,0-99.2,0-113.4c0-1.6,0-3.2,0.1-4.8c0.2-6-0.6-27.7-23.4-38
	C277,87.9,270.3,86.6,263.5,86.6z M159.5,38.5c48.1-1.6,48.1,48.1,48.1,48.1h-96.3C111.3,86.6,111.5,40.1,159.5,38.5z M281.7,124.7
	c-0.3,3.8-0.5,7.7-0.5,11.5v2.3l-0.2,93.1c0,3,0.1,6,0.1,9c0.9,43.2-37.3,41.7-37.3,41.7s-142.6,0-172.4,0c-15.5,0-24.2-9.5-29-18.6
	c-3.7-7-5.4-14.8-5.4-22.8V126.3c0.6-13.2,10.8-14,14.4-13.9c2.3,0.1,4.5,0.1,6.8,0.1h27v20.1c0,5.7,2.7,11.1,7.4,14.2
	c6.6,4.4,11.4,1,14.5-3.2c2.7-3.8,4.1-8.3,4.1-13v-18.3h96.3v19.2c0,5.2,2,10.3,5.7,13.9c5.4,5.3,10.5,3.8,14.3,0.7
	c4.4-3.5,6.8-9.1,6.6-14.8l-0.6-19.1l33.8,0C280.8,111.8,282,120.1,281.7,124.7z"/>
<g>
	<path d="M106.4,199.6v-18.8h-7.2v18.8c-3.7,0.8-6.5,4.1-6.5,8.1v34.8c0,3.9,2.8,7.3,6.5,8.1v18.3h7.2v-18.3
		c3.7-0.8,6.5-4.1,6.5-8.1v-34.8C112.9,203.7,110.1,200.4,106.4,199.6z"/>
	<path d="M147.3,181.6v-21.1h-6.8v21.1c-3.1,1-5.4,3.9-5.4,7.3v36.5c0,3.4,2.3,6.3,5.4,7.3v15.9h6.8v-15.9c3.1-1,5.4-3.9,5.4-7.3
		v-36.5C152.7,185.5,150.4,182.6,147.3,181.6z"/>
	<path d="M186.1,198.9v-23.7h-6.5v23.7c-3.4,1-5.9,4.2-5.9,7.9v35.9c0,3.7,2.5,6.8,5.9,7.9v12.8h6.5v-12.8c3.4-1,5.9-4.2,5.9-7.9
		v-35.9C192,203.1,189.5,199.9,186.1,198.9z"/>
	<path d="M223.5,175.9v-14.4h-7.1v14.2c-3.2,0.8-5.7,3.7-5.7,7.1v45.4c0,3.5,2.4,6.4,5.7,7.1v14.2h7.1v-14.4c2.9-1,5-3.7,5-6.9
		v-45.4C228.5,179.6,226.4,176.9,223.5,175.9z"/>
</g>
</svg>
