<?xml version="1.0" encoding="utf-8"?>
<!-- Generator: Adobe Illustrator 24.3.0, SVG Export Plug-In . SVG Version: 6.00 Build 0)  -->
<svg version="1.1" id="Layer_1" xmlns="http://www.w3.org/2000/svg" xmlns:xlink="http://www.w3.org/1999/xlink" x="0px" y="0px"
	 viewBox="0 0 376 325" style="enable-background:new 0 0 376 325;" xml:space="preserve">
<g>
	<path d="M256.3,35.1c18.3,17.5,33.8,37.1,46,59.3c1.8,3.3,3.7,8.2,8.7,6c6.6-2.9,2.7-7.8,0.7-11.5C299,65.6,282.9,45.1,263.5,27
		c-0.9-0.9-1.9-1.6-2.8-2.3c-1.4-1-3.3-1.5-5-1.1c-1.6,0.4-2.7,1.4-3.3,2.9C250.8,30.5,253.9,32.8,256.3,35.1z"/>
	<path d="M142.7,149.4l1.3-20.3c-17.7,32.5-63.1,60.5-63.1,60.5l14.5,12.2C128.8,185.8,142.7,149.4,142.7,149.4z"/>
	<path d="M338.5,301.8c-2.2-0.8-4.5-1.1-6.9-1.1h-27.9c5.6-2.8,4-11.4,4-11.4V144.3c0-1.6-0.3-3.2-0.9-4.6c-2.6-6-8.7-5-8.7-5h-8.8
		c0,0-8.5-28.4-31.7-59S207,25.5,202.1,31.4c-3.3,3.9,0.3,7.5,3.1,9.4c3.5,2.4,7,4.8,10.2,7.5c44.4,37,62.3,86.2,62.3,86.2h-34.9
		c-1.1-2.4-3.4-6.5-5.9-10.9c-10-17.2-22.4-33.1-36.9-46.7c-12.6-11.8-24.5-19.9-36-27c-19.4-12-25.6,12.4-25.6,12.4
		c-13.5,46.4-41.8,72.4-41.8,72.4s-13-0.5-21.8,0s-7.5,9.3-7.5,9.3v21.7c-11.7,12.1-16.2,23-14.9,35.8c1.3,12.8,14.5,28.3,14.5,28.3
		s0,51.2,0,60.4c0,9.2,2.9,10,2.9,10S39.5,297,34,305.4c-5.4,8.4,5.2,8.3,5.2,8.3h298.9c0,0,3.9,0.1,5.3-5.8
		C344.1,304.6,341.3,302.8,338.5,301.8z M153,58.9c5-4.2,25.7,8,56.9,45.1c31.2,37.1,39.1,66,37.4,78.2
		c-1.6,12.2-10.9,6.6-38.5-15.6c0,0-4.6-2.5-2.3-10.7c2.3-8.2,5.9-16.4-2.3-32.2c-5.1-9.7-18.9-8.9-27.3-7.9
		c-5.6,0.6-9.6-2.4-11.8-7.6l-14.2-35.5c-0.8-2-1.2-4-1.2-6.2C149.9,64,150.5,60.9,153,58.9z M86.2,145.4L78,154
		C76.1,143.3,86.2,145.4,86.2,145.4z M64.1,203.2c-0.6-1.6-1-3.3-1.1-5c-0.6-6.1,1.4-12.2,5.2-17.1c5.8-7.4,18.3-21.9,36.7-37.2
		c26.3-21.8,37.5-60.2,37.5-60.2c27,65.9,77.6,105,77.6,105c-27.8,2.7-41.8,7.5-55.6,11.1c-2.9,0.8-5.2,1.7-7.1,2.8
		c-5.2,2.9-8,8.8-7.4,14.7c2.2,21,15.2,28.9,20.6,33.6c5.8,5.1,6.4,5.4,1.7,12.8s-8.2,6.4-13.5,1.2c-5.3-5.2-20.3-29.6-25.3-39.1
		c-4.9-9.5-14.1-2.3-14.1-2.3s-14.1,10.8-28.3,9.5S67,211.1,64.1,203.2z M287.6,291.7h-199c-1.3,0-2.5,0-3.8,0.1
		c-1.8,0.1-6.9-0.4-6.6-10.2v-42.1c0,0,11.2,9.1,26.6,2.5c15.4-6.6,17.1-10.2,23-3.6c5.9,6.6,28,60.7,49.5,35.8s3.1-22-16-52.8
		c0,0-4.9-6.9,4.9-10.2c9.9-3.3,38.6-12.9,70.7-11.2s19.8-39.9,10.8-54.4l41.6,0c1.3,0,2.7-0.1,4-0.2c1.4-0.1,3.8,0.4,3.7,5
		c-0.1,6.1,0,115.1,0,131.3c0,0.9,0,1.8,0.1,2.7C297.2,286.1,296.5,291.3,287.6,291.7z"/>
	<path d="M299.1,19.7c13.3,12.6,24.5,26.9,33.3,43c1.3,2.4,2.7,5.9,6.3,4.3c4.8-2.1,2-5.7,0.5-8.3c-9.2-16.8-20.9-31.7-34.9-44.8
		c-0.7-0.6-1.4-1.2-2-1.7c-1-0.8-2.4-1.1-3.6-0.8c-1.2,0.3-1.9,1-2.4,2.1C295.1,16.4,297.4,18.1,299.1,19.7z"/>
</g>
</svg>
