<?xml version="1.0" encoding="utf-8"?>
<!-- Generator: Adobe Illustrator 24.3.0, SVG Export Plug-In . SVG Version: 6.00 Build 0)  -->
<svg version="1.1" id="Layer_1" xmlns="http://www.w3.org/2000/svg" xmlns:xlink="http://www.w3.org/1999/xlink" x="0px" y="0px"
	 viewBox="0 0 376 325" style="enable-background:new 0 0 376 325;" xml:space="preserve">
<path d="M76.5,82.4c14.9,0,26.9,12.1,26.9,26.9s-12.1,26.9-26.9,26.9c-14.9,0-26.9-12.1-26.9-26.9S61.7,82.4,76.5,82.4 M76.5,65.9
	c-24,0-43.4,19.4-43.4,43.4s19.4,43.4,43.4,43.4c24,0,43.4-19.4,43.4-43.4S100.5,65.9,76.5,65.9L76.5,65.9z"/>
<path d="M301.8,80.5c14.9,0,26.9,12.1,26.9,26.9s-12.1,26.9-26.9,26.9c-14.9,0-26.9-12.1-26.9-26.9S287,80.5,301.8,80.5 M301.8,64.1
	c-24,0-43.4,19.4-43.4,43.4s19.4,43.4,43.4,43.4c24,0,43.4-19.4,43.4-43.4S325.8,64.1,301.8,64.1L301.8,64.1z"/>
<path d="M187.3,45c25.3,0,45.8,20.6,45.8,45.8c0,25.3-20.6,45.8-45.8,45.8s-45.8-20.6-45.8-45.8C141.5,65.6,162,45,187.3,45
	 M187.3,28.6c-34.4,0-62.3,27.9-62.3,62.3c0,34.4,27.9,62.3,62.3,62.3c34.4,0,62.3-27.9,62.3-62.3C249.6,56.5,221.7,28.6,187.3,28.6
	L187.3,28.6z"/>
<path d="M9.3,247.9L9,229.7c-0.2-13.6,3.1-27.1,10.3-38.7c6.1-9.7,15.5-19.6,30.3-25.5c15.3-6.1,32.5-6.6,48.3-1.5
	c10,3.2,21,9.4,29.2,18.3c0,0,24.5-23.1,59-22.2s58.3,17.7,63.4,23.8c0,0,22.9-26.1,55-22.4c21.6,2.5,38,11.3,49.4,25
	c8.7,10.4,13.1,23.8,12.9,37.3l-0.3,25.9c0,0-0.8,8.3-8.2,8.3s-6.6-9.8-6.6-9.8v-21.8c0-14-5.1-27.7-14.8-37.8
	c-7.4-7.6-17.9-13.9-32.4-13.6c-35.7,0.7-42.7,20.3-42.7,20.3s15.4,14.3,20.3,47.2c3.1,20.8,0.5,34,0.2,40.4c-0.2,5.3-4,10-9.2,10.5
	c-2.1,0.2-4.5-0.1-7.2-1.6c-2.2-1.2-3.4-3.6-3.4-6c0-6.8,0-21.7,0-32c0-15-3.8-29.8-11.8-42.4c-10.1-16.1-28.6-32.5-62.4-33.9
	c0,0-43.9-1-65.2,40.3c-5.9,11.5-8.6,24.3-8.6,37.2l0,30.1c0,5.9-4.6,11-10.6,11.1c-0.1,0-0.2,0-0.3,0c-9.8,0-8.7-11.9-8.7-11.9
	v-31.5c0-16.4,3.9-32.6,12.1-46.8c2.6-4.5,5.8-9.1,9.6-13.3c0,0-18.2-18.2-43-18.2s-48.3,23.8-49,42.7v35.7c0,0-0.7,5.6-6.6,5.6
	c-2.2,0-4-1-5.4-2.3C10.5,254,9.3,251,9.3,247.9z"/>
<path d="M40,259.7L40,259.7c-4.1,0-7.5-3.4-7.5-7.5V227c0-4.1,3.4-7.5,7.5-7.5h0c4.1,0,7.5,3.4,7.5,7.5v25.2
	C47.5,256.4,44.1,259.7,40,259.7z"/>
<path d="M134.8,295.1L134.8,295.1c-4.3,0-7.9-3.5-7.9-7.9v-35.3c0-4.3,3.5-7.9,7.9-7.9h0c4.3,0,7.9,3.5,7.9,7.9v35.3
	C142.6,291.5,139.1,295.1,134.8,295.1z"/>
<path d="M241.8,295.8L241.8,295.8c-4.1,0-7.5-3.4-7.5-7.5v-39.5c0-4.1,3.4-7.5,7.5-7.5h0c4.1,0,7.5,3.4,7.5,7.5v39.5
	C249.3,292.4,246,295.8,241.8,295.8z"/>
<path d="M337.3,261.1L337.3,261.1c-3.9,0-7.2-3.2-7.2-7.2v-29.4c0-3.9,3.2-7.2,7.2-7.2h0c3.9,0,7.2,3.2,7.2,7.2V254
	C344.5,257.9,341.3,261.1,337.3,261.1z"/>
</svg>
