<?xml version="1.0" encoding="utf-8"?>
<!-- Generator: Adobe Illustrator 24.3.0, SVG Export Plug-In . SVG Version: 6.00 Build 0)  -->
<svg version="1.1" id="Layer_1" xmlns="http://www.w3.org/2000/svg" xmlns:xlink="http://www.w3.org/1999/xlink" x="0px" y="0px"
	 viewBox="0 0 324.5 325" style="enable-background:new 0 0 324.5 325;" xml:space="preserve">
<path d="M131.5,11.9c-66.7,0-120.7,54-120.7,120.7s54.1,120.7,120.7,120.7s120.7-54.1,120.7-120.7S198.2,11.9,131.5,11.9z
	 M131.5,232.1c-54.3,0-98.2-44-98.2-98.2s44-98.2,98.2-98.2s98.2,44,98.2,98.2S185.8,232.1,131.5,232.1z"/>
<path d="M58,155.1h41.6v58.8c0,0-18.6-6.2-35.6-27.2c-3.9-4.9-6-10.9-6-17.2V155.1z"/>
<path d="M110.9,67.8v150.1c0,0,29.6,6.2,41.6,0V67.8H110.9z"/>
<path d="M165.2,123.3v90.6c0,0,9.7-4.9,19.9-12.2c13.7-9.9,21.7-25.9,21.7-42.8v-35.6C206.7,123.3,165.2,123.3,165.2,123.3z"/>
<path d="M307.8,262.4c-2.5-4.4-5.8-8.4-9.6-11.7l-53.1-46.9c0,0-14.9,27-41.9,43.9l46.1,52.9c0,0,13,14.3,25.7,15.3
	c12.7,1,28.3-4.9,34.8-19.2C314.8,285.6,313.9,273.4,307.8,262.4z M291.7,293.2c-15,16.7-31-0.9-31-0.9s-9.9-8.3-35.1-41
	c0,0,15.1-7.7,23.7-24.7l40.3,34.6C289.6,261.2,306.7,276.5,291.7,293.2z"/>
</svg>
