<?xml version="1.0" encoding="utf-8"?>
<!-- Generator: Adobe Illustrator 24.3.0, SVG Export Plug-In . SVG Version: 6.00 Build 0)  -->
<svg version="1.1" id="Layer_1" xmlns="http://www.w3.org/2000/svg" xmlns:xlink="http://www.w3.org/1999/xlink" x="0px" y="0px"
	 viewBox="0 0 360.7 325" style="enable-background:new 0 0 360.7 325;" xml:space="preserve">
<path d="M58.5,116.4l65.8-63.6c1.2-1.2,2.4-2.4,3.6-3.6c3.1-3,14-12,27.9-2.7c16.5,11,55.7,35.5,55.7,35.5l64.1-62.3
	c3.5-3.4,7.9-6,12.7-7c5.2-1.1,11.3-0.5,15,6.3c5.5,10.1,5.9,13,3.1,18.2c-2,3.9-4.7,7.3-7.8,10.4c-13.4,13.4-55.7,55.7-65.5,65.5
	c-1,1-2,2.1-3,3.1c-3.3,3.6-15,14.1-28.4,3.8l-55.1-36.1L83.8,145c-4.6,4.5-10.7,7.3-17.1,7.6c-5,0.2-10.3-1.1-13.7-6.3
	c-5.7-8.8-5.1-13.8-2.5-19.2C52.6,123.1,55.3,119.5,58.5,116.4z"/>
<path d="M54.9,280.2v-49.6c0,0,5.5-18.4,19.6-18.4s17.1,9.2,17.1,20.2c0,11,0,49,0,49h31.2V162.8c0,0-1.8-17.1,19.9-19.9
	c17.4-2.2,18.5,18.9,18.3,27.4c-0.1,4-0.2,8-0.2,12v98h32.4v-77.7c0-3.3,0.7-6.7,2.2-9.6c2.3-4.4,6.9-9.3,16.2-9.3
	c17.1,0,17.7,20.2,17.7,20.2v76.5h34.3V134c0,0,0.6-19.6,16.5-19c15.9,0.6,20.2,6.7,20.2,28.8s0,136.5,0,136.5h27.5
	c0,0,20.2-1.2,19.6,18.4c-0.6,19.6-22,18.4-22,18.4H31.1c-1.5,0-3,0-4.5,0.1c-3.6,0.1-17.9-0.6-16.3-21.5
	C12.1,271.7,32.3,283.9,54.9,280.2z"/>
</svg>
