<?xml version="1.0" encoding="utf-8"?>
<!-- Generator: Adobe Illustrator 24.3.0, SVG Export Plug-In . SVG Version: 6.00 Build 0)  -->
<svg version="1.1" id="Layer_1" xmlns="http://www.w3.org/2000/svg" xmlns:xlink="http://www.w3.org/1999/xlink" x="0px" y="0px"
	 viewBox="0 0 348.4 325" style="enable-background:new 0 0 348.4 325;" xml:space="preserve">
<path d="M206.3,278.4c-3.9-0.9-8.1-0.7-11.9,0.5c-12.9,3.9-63,15.6-108.5-21.7c-48.2-39.5-45.3-92.8-44.4-101.8
	c0.1-0.8,0.2-1.7,0.2-2.5c0.6-8.3,6.4-59.3,52.2-89.7c42.2-28,97.6-27.3,138.6,2.4c11.2,8.1,22.1,18.9,31.4,33.3
	c0.6,0.9,1.2,1.8,1.7,2.7c3.5,5.2,21,34.3,15.5,80.2c0,0-8.6-23.5-22-14.8c-9.7,6.3-6.9,16-4.7,20.8c2.7,5.8,5.2,11.6,7.5,17.5
	l8.8,21.6c0.2,0.5,0.4,1,0.6,1.5c0.8,2.2,5,11.2,16.1,8.4c2.6-0.6,4.9-1.9,7-3.5l35.2-26.9c0.6-0.4,1.1-0.8,1.7-1.3
	c2.1-1.5,9.8-8.4,2.2-19.8c-8.7-13.1-24.8,4-24.8,4s18.8-70.1-43.9-134.2s-151-33.9-151-33.9s-75.4,23-97.6,105.6
	c0,0-24.2,90.6,51.3,152.3c0,0,62.1,53.6,139.2,25.9c4.3-1.5,7.8-4.9,9.3-9.2c0.9-2.6,1.2-5.7,0.1-9.3
	C214.6,281.5,210.3,279.3,206.3,278.4z"/>
<rect x="76.8" y="164.2" width="34.7" height="54.3"/>
<rect x="134.7" y="127.4" width="33.7" height="91.1"/>
<rect x="189.5" y="93.2" width="35.7" height="125.8"/>
</svg>
