<?xml version="1.0" encoding="utf-8"?>
<!-- Generator: Adobe Illustrator 24.3.0, SVG Export Plug-In . SVG Version: 6.00 Build 0)  -->
<svg version="1.1" id="Layer_1" xmlns="http://www.w3.org/2000/svg" xmlns:xlink="http://www.w3.org/1999/xlink" x="0px" y="0px"
	 viewBox="0 0 202.6 326" style="enable-background:new 0 0 202.6 326;" xml:space="preserve">
<path id="Netherlands_Antillean_Guilder" d="M186.1,50.6c-8.7-1.3-16.5-3.1-24.4-3.5c-11.7-0.7-16.2,2.9-19.3,14.2
	c-1.4,5.1-2.3,10.3-3.5,16.1c11.3,0,22,0,33.4,0c-2,11.7-3.9,22.6-5.9,34c-11.1,0-21.8,0-32.9,0c-2.4,13.4-4.8,26.4-7.1,39.4
	c-7.4,41.8-14.7,83.7-22.3,125.5c-0.9,5.2-2.6,10.2-4.4,15.2c-4.6,12.6-13.9,20.3-26.6,23.9c-16.3,4.6-48.8,2.3-65.5-4.6
	c2.9-11.4,5.9-22.9,8.9-34.6c7.7,1,14.9,2.3,22.1,2.9c14.7,1.3,19.9-2.2,22.7-16.6c4.5-23.2,8.3-46.4,12.4-69.7
	c4.4-25.4,8.7-50.8,13-76.2c0.2-1.4,0.4-2.8,0.7-5c-10.7,0-21.1,0-32.3,0c2-11.8,3.9-22.7,5.8-34.1c10.9,0,21.4,0,32.3,0
	c2.1-10.8,4-21.1,6.3-31.4c5.6-25.5,17.7-35.8,43.8-37.4c17.2-1.1,34,0.9,51.3,6.3C191.7,27.1,188.9,38.8,186.1,50.6z"/>
</svg>
