<?xml version="1.0" encoding="utf-8"?>
<!-- Generator: Adobe Illustrator 24.3.0, SVG Export Plug-In . SVG Version: 6.00 Build 0)  -->
<svg version="1.1" id="Layer_1" xmlns="http://www.w3.org/2000/svg" xmlns:xlink="http://www.w3.org/1999/xlink" x="0px" y="0px"
	 viewBox="0 0 326.5 325" style="enable-background:new 0 0 326.5 325;" xml:space="preserve">
<g>
	<path d="M163.4,24.9c36.5,0,70.8,14.2,96.5,40c25.8,25.8,40,60.1,40,96.5c0,36.5-14.2,70.8-40,96.5c-25.8,25.8-60.1,40-96.5,40
		s-70.8-14.2-96.5-40c-25.8-25.8-40-60.1-40-96.5c0-36.5,14.2-70.8,40-96.5C92.6,39.1,126.9,24.9,163.4,24.9 M163.4,8.2
		C78.7,8.2,10.1,76.8,10.1,161.4c0,84.6,68.6,153.2,153.2,153.2c84.6,0,153.2-68.6,153.2-153.2S248,8.2,163.4,8.2L163.4,8.2z"/>
</g>
<ellipse cx="164.7" cy="247.6" rx="59.1" ry="15.8"/>
<path d="M141.6,164.9c-48-5.6-79.1-29.6-79.1-29.6c0,0,0,0-0.1,0c-4.2-2.4-9.3-0.5-10.9,4.1c-2,5.7,1.7,8.4,1.7,8.4
	c12.2,9.4,26.1,16.2,39.3,21.1c-4.9,3.8-8,9.7-7.8,16.4c0.2,10.4,8.6,19.1,19,19.6c11.7,0.6,21.3-8.6,21.3-20.1
	c0-2.4-0.4-4.7-1.2-6.8c10.6,2.3,17.6,3,17.6,3s7.1,0.8,8.2-7.5C150.5,165.3,141.6,164.9,141.6,164.9z"/>
<path d="M183.1,165.4c48-5.6,79.1-29.6,79.1-29.6c0,0,0,0,0.1,0c4.2-2.4,9.3-0.5,10.9,4.1c2,5.7-1.7,8.4-1.7,8.4
	c-12.2,9.4-26.1,16.2-39.3,21.1c4.9,3.8,8,9.7,7.8,16.4c-0.2,10.4-8.6,19.1-19,19.6c-11.7,0.6-21.3-8.6-21.3-20.1
	c0-2.4,0.4-4.7,1.2-6.8c-10.6,2.3-17.6,3-17.6,3s-7.1,0.8-8.2-7.5C174.2,165.8,183.1,165.4,183.1,165.4z"/>
</svg>
