<?xml version="1.0" encoding="utf-8"?>
<!-- Generator: Adobe Illustrator 24.3.0, SVG Export Plug-In . SVG Version: 6.00 Build 0)  -->
<svg version="1.1" id="Layer_1" xmlns="http://www.w3.org/2000/svg" xmlns:xlink="http://www.w3.org/1999/xlink" x="0px" y="0px"
	 viewBox="0 0 302.8 325" style="enable-background:new 0 0 302.8 325;" xml:space="preserve">
<path d="M40.1,158.2c-1.9,1.9-3.3,4.2-4,6.7c-0.8,2.9-0.8,6.4,2.3,9.3c0.2,0.2,0.4,0.3,0.6,0.5c4.7,3.9,11.7,3.4,16-0.9L164.2,65.2
	c4.9-4.9,9.7-9.8,14.5-14.8c6-6.3,21.9-19.5,47.3-17.2c30,2.7,40.2,32.3,41.9,37.8c0.2,0.5,0.3,1,0.5,1.6
	c1.5,4.4,8.2,29.7-17.4,54.1c-3.9,3.8-7.9,7.5-11.8,11.4L114.9,262.7c-4.7,4.8-9.4,9.6-14,14.4c-5.1,5.3-17.5,15.9-34.2,14.4
	c-13.3-1.2-24.8-10.1-29.7-22.6c-4.2-10.8-4.5-26,12.6-42.4l121.1-121.8c4-4.1,9.4-6.6,15.1-7c4.6-0.3,9.6,0.8,13.4,5.5
	c0,0,13.9,13.2-1.5,27.8l-91,91.4c0,0-10.5,9.8-1.5,17.3c6.4,5.4,11.9,1.3,14.5-1.4c2.8-2.9,5.5-5.9,8.4-8.7l80.2-79.6
	c1.8-1.7,3.5-3.4,5.3-5.1c3.7-3.5,13.7-14.8,12-32.2c-1.4-13.6-9.5-25.8-21.7-31.9c-8.9-4.4-21.4-6.4-36.5,2
	c-4.8,2.7-9.2,6.1-13.1,10L30.5,216.7c0,0-23.7,24.8-13.1,57.1c4.4,13.5,13.9,24.9,26.3,31.9c16.6,9.3,44.6,15.4,75.2-18.7
	l151.4-151.9c0,0,47.5-48.7-2.1-102.2c0,0-49.1-52.4-111.8,9.7L40.1,158.2z"/>
</svg>
