<?xml version="1.0" encoding="utf-8"?>
<!-- Generator: Adobe Illustrator 24.3.0, SVG Export Plug-In . SVG Version: 6.00 Build 0)  -->
<svg version="1.1" id="Layer_1" xmlns="http://www.w3.org/2000/svg" xmlns:xlink="http://www.w3.org/1999/xlink" x="0px" y="0px"
	 viewBox="0 0 376 291.6" style="enable-background:new 0 0 376 291.6;" xml:space="preserve">
<g id="Australian_dollar">
	<path d="M5.3,253.1c2.7-7.8,5.2-15.2,7.8-22.6c22.8-65,45.6-130,68.3-195.1c2-5.7,3.6-6.8,9.6-6.8c12.8,0,25.7,0,38.5,0
		c6.2,0,7.4,0.8,9.5,6.7c18.2,52.4,36.4,104.8,54.6,157.2c6.1,17.6,12.3,35.2,18.4,52.8c2.4,6.9,1.7,7.8-5.6,7.8
		c-11.9-0.1-23.9-0.1-35.8,0c-6,0-7.2-0.8-9-6.6c-3.5-11.3-7-22.7-10.5-34c-1.4-4.6-2.8-5.6-7.6-5.6c-22.7,0-45.4,0-68.1,0.1
		c-5.8,0-6.8,0.8-8.6,6.5c-3.8,12-7.7,24.1-11.6,36.1c-0.6,2-1.7,3.5-4,3.5C36.2,253.1,21,253.1,5.3,253.1z M110.1,82.4
		c-0.2,0-0.4,0-0.6,0c-9.2,28.2-18.3,56.5-27.6,84.8c18.4,0,36.6,0,54.9,0C127.8,138.8,118.9,110.6,110.1,82.4z"/>
	<path d="M301.9,61.1c0,1.1,0,2,0,2.9c0,16.4-0.1,32.8-0.1,49.2c0,4.3,0.5,4.8,4.4,6.4c10.6,4.4,21.4,8.4,31.8,13.4
		c24.9,12.1,33.5,32.8,31.9,58.2c-0.6,9.9-2.5,19.5-7,28.3c-7.5,14.7-19.7,23.9-34.8,29.2c-6.6,2.3-13.6,3.6-20.5,5.2
		c-4.8,1.1-5.5,1.7-5.6,6.8c-0.1,4.7,0,9.4-0.1,14.1c0,2.1-0.2,4.2-0.7,6.2c-0.8,3.3-2.9,4.9-6.3,5c-0.5,0-0.9,0-1.4,0
		c-5.9-0.4-6.4-0.9-6.4-6.8c0-6.8,0-13.6,0-20.4c0-3.2-0.5-3.8-3.7-4.4c-7.2-1.4-14.5-2.6-21.6-4.5c-19.2-5-32-17.6-40-35.7
		c-3.9-9-5.6-18.4-4.5-28.3c0.4-4.2,0.8-4.6,4.9-4.6c10.7,0,21.4,0,32.1,0c4,0,4.4,0.5,5,4.5c0.8,5.2,1.8,10.4,3,15.5
		c1.6,6.5,5.7,11.2,11.5,14.3c2.7,1.4,5.5,2.5,8.4,3.5c3.8,1.3,4.9,0.4,5-3.6c0-0.8,0-1.5,0-2.3c0-17.1,0-34.2,0.1-51.2
		c0-5.5-0.7-6.6-6.1-8c-9.5-2.5-18.8-5.6-27.5-10.2c-19.5-10.2-30.3-26.2-31.1-48.7c-0.6-16.4,2.9-31.7,13-44.8
		c10-13,23.1-20.4,39.2-22.4c2.2-0.3,4.4-0.6,6.5-1c4.2-0.9,5.7-2.7,5.7-7c0-2.6-0.1-5.3-0.2-7.9c-0.1-4.3,1-5.5,5.2-5.7
		c1.6-0.1,3.2-0.2,4.8-0.2c3.4,0,4.9,1.4,5.1,4.8c0.1,1.7,0,3.4,0,5.1c0,1.6,0,3.2,0.1,4.9c0.1,3,1.6,5,4.5,5.7
		c4.1,1,8.3,1.8,12.4,2.8c28.1,6.9,46.1,29.2,47.1,58.5c0.2,4.5-0.4,5.1-4.8,5.1c-10,0-20.1,0-30.1,0c-4.3,0-4.7-0.9-5.4-5.2
		c-0.8-5-1.9-10.1-3.8-14.7c-3-7.2-9.5-10.1-16.7-11.3C304.3,61.3,303.2,61.2,301.9,61.1z M302,161.7c0,1.1,0,2,0,3
		c0,16.3,0,32.6,0,48.9c0,6.2,0.5,6.6,6.5,5.3c10.6-2.4,16.2-9.6,18.6-19.9C331.6,179,319.9,165.8,302,161.7z M286.9,61.3
		c-8.2,0.2-15.8,1.7-20.4,9c-5.4,8.4-6.5,17.7-2.3,26.9c4.4,9.6,13.1,13.4,22.7,15.9C286.9,95.7,286.9,78.7,286.9,61.3z"/>
</g>
</svg>
