<?xml version="1.0" encoding="utf-8"?>
<!-- Generator: Adobe Illustrator 24.3.0, SVG Export Plug-In . SVG Version: 6.00 Build 0)  -->
<svg version="1.1" id="Layer_1" xmlns="http://www.w3.org/2000/svg" xmlns:xlink="http://www.w3.org/1999/xlink" x="0px" y="0px"
	 viewBox="0 0 262.7 326" style="enable-background:new 0 0 262.7 326;" xml:space="preserve">
<path id="bangladesh" d="M66.3,166.9c-0.6,0-1.1,0-1.6,0c-9.5,0-19,0-28.5,0c-0.5,0-1.2-0.3-1.6-0.7c-9.5-9.9-18.9-19.7-28.4-29.6
	c-0.2-0.2-0.3-0.4-0.6-0.7c20.3,0,40.4,0,60.6,0c0-0.5,0.1-0.8,0.1-1.2c0-20.1,0-40.2,0-60.3c0-5.7-1.5-10.9-5.7-15
	c-3.1-3-6.9-4.6-10.9-5.8c-5-1.5-9.9-1.6-14.9-0.3c-1.6,0.4-3.2,1.3-4.9,2c-0.8-1.4-1.8-3-2.6-4.7c-2.7-5.9-5.6-11.7-7.8-17.7
	c-1.1-3-0.5-6.4,1.3-9.3c2.1-3.5,5.3-5.7,8.8-7.4c6.8-3.4,13.8-6,21.4-6.8c13.9-1.4,25.2,3.1,33.8,14.4c7.2,9.6,11,20.5,12.8,32.2
	c0.8,5.6,1.2,11.2,1.2,16.9c0,20.5,0,40.9,0,61.4c0,0.5,0,1,0,1.6c0.6,0,1,0,1.4,0c5.3,0,10.6,0,15.9,0c0.5,0,1.1,0.2,1.4,0.6
	c9.8,9.9,19.5,19.9,29.3,29.9c0.1,0.1,0.2,0.3,0.5,0.6c-16.2,0-32.2,0-48.3,0c0,0.5-0.1,0.9-0.1,1.3c0,28.8,0,57.5,0,86.3
	c0,9.6,4.1,17.1,11.9,22.6c3.9,2.8,8.5,3.8,13.1,4.5c13.7,2.1,26-1.8,37.3-9.4c14.8-10,27.1-22.5,36.3-37.8c4.7-7.8,7.8-16.2,9-25.3
	c0.2-1.7,0.4-3.4,0.5-5.3c-1.7,0.1-3.3,0.3-4.8,0.4c-8,0.6-15.7-0.3-23.1-3.3c-8.3-3.4-14.2-9.5-17.4-17.9
	c-4.1-10.7-5.2-21.8-2.5-32.9c2-8.4,6.3-15.5,13.3-20.7c4.7-3.5,10.1-5.2,15.8-6.1c7.8-1.2,15.5-1.4,23.2,0.4
	c8.4,2,15.7,6.1,21.9,12.1c12.1,11.7,19.6,25.9,22.2,42.5c3.2,20.5,0,40.1-8.5,58.9c-6.4,14.1-15.3,26.6-25.7,38.1
	c-7.1,7.9-14.8,15.1-23.5,21.3c-12.4,8.8-26,15-40.8,18.3c-8.8,1.9-17.8,2.9-26.8,2.7c-7.6-0.1-14.7-2.2-21.4-5.4
	c-14.1-6.7-25.8-16.2-35.2-28.7c-3-4-5.3-8.4-6.7-13.2c-0.2-0.8-0.3-1.6-0.3-2.4c0-33.1,0-66.3,0-99.4
	C66.3,168,66.3,167.5,66.3,166.9z"/>
</svg>
