<?xml version="1.0" encoding="utf-8"?>
<!-- Generator: Adobe Illustrator 24.3.0, SVG Export Plug-In . SVG Version: 6.00 Build 0)  -->
<svg version="1.1" id="Layer_1" xmlns="http://www.w3.org/2000/svg" xmlns:xlink="http://www.w3.org/1999/xlink" x="0px" y="0px"
	 viewBox="0 0 589 521.6" style="enable-background:new 0 0 589 521.6;" xml:space="preserve">
<path d="M515,24.7H74.4C42.8,24.7,17,50.6,17,82.1V439c0,31.6,25.8,57.4,57.4,57.4H515c31.6,0,57.4-25.8,57.4-57.4V82.1
	C572.4,50.6,546.6,24.7,515,24.7z M536.6,421.2c0,23.8-19.4,43.2-43.2,43.2h-401c-23.8,0-43.2-19.4-43.2-43.2V102.3
	c0-23.8,19.4-43.2,43.2-43.2h400.8c23.8,0,43.2,19.4,43.2,43.2v318.8h0.2V421.2z"/>
<path d="M491.1,336.6H286.8c-0.5,0-0.8-0.5-0.8-1.1v-34.4c0-0.6,0.4-1.1,0.8-1.1h204.3c0.5,0,0.8,0.5,0.8,1.1v34.5
	C491.9,336.2,491.5,336.6,491.1,336.6z"/>
<path d="M490.4,271.8H286.1c-0.5,0-0.8-0.5-0.8-1.1v-34.4c0-0.6,0.4-1.1,0.8-1.1h204.3c0.5,0,0.8,0.5,0.8,1.1v34.5
	C491.2,271.4,490.8,271.8,490.4,271.8z"/>
<path d="M415.8,406.1H285.6c-0.5,0-0.9-0.5-0.9-1.1v-35c0-0.6,0.4-1.1,0.9-1.1H416c0.5,0,0.9,0.5,0.9,1.1v35.1
	C416.7,405.6,416.3,406.1,415.8,406.1z"/>
<path d="M96.7,189.5v-85.8h41.7c10.6,0.1,18.4,2.1,23.4,6c5,3.9,7.5,9.6,7.5,17.1c0,4.9-1.4,9-4.3,12.5c-2.9,3.5-7.2,5.7-13.1,6.7
	v0.1c6.6,0.9,11.5,3.1,14.8,6.8c3.2,3.7,4.9,8.1,4.9,13.3c0,7.4-2.6,13.1-7.8,17.1c-5.2,4-13,6-23.4,6H96.7z M118.2,138.8h16.2
	c8,0,12-3.1,12-9.4c0-6.2-4-9.4-12-9.4h-16.2V138.8z M118.2,173.7h18.3c4.1,0,7.1-0.8,9.1-2.5c2-1.6,3-4,3-7.1c0-3-1-5.4-3-7
	c-2-1.6-5-2.4-9.1-2.4h-18.3V173.7z"/>
<path d="M200.6,118.8c2.9,0,5.2,0.6,7.1,1.9c1.8,1.3,3.2,2.9,4,5c0.9,2.1,1.3,4.3,1.3,6.6c0,3.4-0.8,6.7-2.3,9.8
	c-1.5,3.1-3.5,5.8-5.8,8c-2.4,2.3-4.8,3.9-7.4,4.9l-8-5.7c1.9-0.8,3.6-1.8,5.4-3c1.7-1.2,3.2-2.4,4.6-3.8c1.3-1.4,2.4-2.8,3-4.2
	l-0.5-0.4c-0.4,0.3-0.9,0.5-1.5,0.7c-0.6,0.2-1.4,0.3-2.3,0.3c-1.4,0-2.7-0.3-4.1-1c-1.4-0.7-2.5-1.7-3.5-3c-1-1.3-1.4-3-1.4-5.1
	c0-2.5,0.5-4.6,1.6-6.2c1.1-1.6,2.5-2.8,4.3-3.6C196.8,119.2,198.7,118.8,200.6,118.8z"/>
<path d="M290.9,169.3c-1.2,5-3.3,9.1-6.2,12.3c-2.9,3.2-6.5,5.4-10.6,6.8c-4.2,1.4-8.7,2.1-13.8,2.1c-7,0-13.1-1.4-18.2-4.2
	c-5.1-2.8-9-6.8-11.8-12c-2.7-5.2-4.1-11.5-4.1-18.8c0-7.3,1.4-13.6,4.1-18.8c2.7-5.2,6.7-9.2,11.8-12c5.1-2.8,11.1-4.2,18.1-4.2
	c4.9,0,9.5,0.7,13.6,2.1c4.2,1.4,7.7,3.5,10.6,6.4c2.9,2.9,4.8,6.6,5.9,11.2l-18.2,7.3c-0.8-4.4-2.1-7.3-4-8.8
	c-1.9-1.4-4.3-2.2-7.3-2.2c-2.7,0-5.1,0.7-7.1,2.1c-2,1.4-3.4,3.5-4.4,6.3c-1,2.8-1.5,6.3-1.5,10.6c0,4.2,0.5,7.7,1.4,10.5
	c0.9,2.8,2.4,4.9,4.3,6.3c2,1.4,4.5,2.1,7.7,2.1c2.8,0,5.2-0.8,7.1-2.5c1.9-1.6,3.2-4.2,3.8-7.7L290.9,169.3z"/>
<path d="M369.8,189.5h-21.6l-3.8-14.1h-20.7l-3.9,14.1h-21l22.9-68h25.2L369.8,189.5z M327.2,161.8H341l-6.9-25.3L327.2,161.8z"/>
<path d="M410.5,120.5c6.5,0,12.2,0.9,17.2,2.6c5,1.8,9.4,4.4,13.2,8l-9.2,13.5c-3.1-2.6-6.4-4.7-9.8-6.1c-3.5-1.5-7.3-2.2-11.5-2.2
	c-2.1,0-3.8,0.2-5.2,0.6s-2.2,1-2.8,1.7c-0.6,0.7-0.9,1.5-0.9,2.4c0,1.1,0.7,2,2,2.7c1.3,0.7,3.2,1.3,5.6,1.9l10.3,2.4
	c6.9,1.6,12,3.9,15.3,7c3.4,3.1,5,7.2,5,12.5c0,5.1-1.3,9.4-3.9,12.9s-6.1,6-10.6,7.7c-4.5,1.7-9.5,2.6-15.1,2.6
	c-4.5,0-8.8-0.4-13-1.3s-8.1-2.2-11.6-3.9c-3.5-1.7-6.5-3.7-9.1-6l9.1-13.9c1.9,1.8,4.1,3.4,6.8,4.8c2.7,1.4,5.5,2.5,8.5,3.3
	s5.9,1.2,8.8,1.2c2,0,3.6-0.2,4.9-0.6c1.3-0.4,2.2-0.9,2.7-1.6c0.5-0.7,0.8-1.5,0.8-2.5c0-1.2-0.4-2.1-1.3-2.8
	c-0.9-0.7-2.6-1.4-5-1.9l-11.3-2.6c-3.7-0.8-7.1-2-10.3-3.4c-3.2-1.4-5.7-3.5-7.6-6c-1.9-2.6-2.8-6-2.8-10.1c0-4.5,1.2-8.4,3.6-11.8
	c2.4-3.4,5.9-6.1,10.5-8C398.5,121.4,404,120.5,410.5,120.5z"/>
<path d="M515.3,121.5v15.8h-21.6v52.2h-21v-52.2h-21.8v-15.8H515.3z"/>
<path d="M79.6,374.7c0-1.1,0.2-2.2,0.2-3.3c0-6.6,2.7-43.4,57.2-47.9c59.9-5,102.3,3.9,108.4,44.3c6.1,40.6-15,39.3-15,39.3H95.6
	C95.6,407.1,78.2,409,79.6,374.7z"/>
<ellipse cx="166.4" cy="262.1" rx="40.6" ry="40.6"/>
</svg>
