<?xml version="1.0" encoding="utf-8"?>
<!-- Generator: Adobe Illustrator 24.3.0, SVG Export Plug-In . SVG Version: 6.00 Build 0)  -->
<svg version="1.1" id="Layer_1" xmlns="http://www.w3.org/2000/svg" xmlns:xlink="http://www.w3.org/1999/xlink" x="0px" y="0px"
	 viewBox="0 0 376 325" style="enable-background:new 0 0 376 325;" xml:space="preserve">
<g>
	<path d="M278,63.8H46.2C29.6,63.8,16,77.4,16,94v187.8c0,16.7,13.5,30.2,30.2,30.2H278c16.7,0,30.2-13.5,30.2-30.2V94
		C308.3,77.4,294.7,63.8,278,63.8z M289.4,272.4c0,12.5-10.2,22.7-22.7,22.7h-211c-12.5,0-22.7-10.2-22.7-22.7V104.6
		C33,92,43.2,81.9,55.7,81.9h210.9c12.5,0,22.7,10.2,22.7,22.7L289.4,272.4L289.4,272.4L289.4,272.4z"/>
	<path d="M265.5,227.9H158.1c-0.3,0-0.4-0.3-0.4-0.6v-18.1c0-0.3,0.3-0.6,0.4-0.6h107.5c0.3,0,0.4,0.3,0.4,0.6v18.2
		C265.9,227.6,265.7,227.9,265.5,227.9z"/>
	<path d="M265.2,193.8H157.7c-0.3,0-0.4-0.3-0.4-0.6v-18.1c0-0.3,0.3-0.6,0.4-0.6h107.5c0.3,0,0.4,0.3,0.4,0.6v18.2
		C265.6,193.5,265.3,193.8,265.2,193.8z"/>
	<path d="M225.9,264.4h-68.5c-0.3,0-0.5-0.3-0.5-0.6v-18.4c0-0.3,0.3-0.6,0.5-0.6H226c0.3,0,0.5,0.3,0.5,0.6v18.4
		C226.4,264.1,226.1,264.4,225.9,264.4z"/>
	<path d="M49,247.9c0-0.6,0.1-1.2,0.1-1.8c0-3.4,1.4-22.8,30.1-25.2c31.6-2.6,53.9,2,57.1,23.3c3.2,21.4-7.9,20.7-7.9,20.7H57.4
		C57.4,265,48.2,265.9,49,247.9z"/>
	<ellipse transform="matrix(1 -2.779874e-03 2.779874e-03 1 -0.524 0.264)" cx="94.7" cy="188.6" rx="21.4" ry="21.4"/>
	<g>
		<path d="M70.4,100.9h21.5c11.9,0,16.4,6.2,16.4,12.6c0,5.6-2.9,9.2-6.3,10.7c3.3,1.3,7.7,4.8,7.7,11.2c0,8.4-6.6,14.7-17.1,14.7
			H70.4V100.9z M90.7,120.3c5.1,0,7.2-2.3,7.2-5.7c0-3.6-2.7-5.5-6.8-5.5H80.8v11.2H90.7z M80.8,141.9h9.6c5.8,0,8.4-2.4,8.4-6.9
			c0-4-2.6-6.5-8.4-6.5h-9.6V141.9z"/>
		<path d="M119.1,150.1V98h10.2v52.2H119.1z"/>
		<path d="M175.4,131.6c0,11.2-6.7,19.4-18.4,19.4c-11.5,0-18.2-8.2-18.2-19.2c0-11.4,6.9-19.5,18.6-19.5
			C168.4,112.3,175.4,120,175.4,131.6z M149.2,131.6c0,7.1,3.1,11.3,8,11.3c5,0,7.8-4.2,7.8-11.3c0-7.7-2.8-11.4-7.9-11.4
			C152.3,120.3,149.2,123.8,149.2,131.6z"/>
		<path d="M217.3,138.2c-1.3,6.2-5.6,12.8-16.6,12.8c-11.5,0-17.4-8-17.4-19.1c0-10.9,6.7-19.6,17.9-19.6c12.5,0,15.9,8.9,16.1,13.1
			h-10c-0.6-3-2.3-5.1-6.3-5.1c-4.7,0-7.3,4.1-7.3,11.3c0,7.9,2.8,11.5,7.3,11.5c3.5,0,5.4-2.1,6.3-4.9H217.3z"/>
		<path d="M236.3,128.8c2.7-3.7,7.6-9.4,12.7-15.6h11.7l-12.9,14l14.1,23h-11.6l-9.4-16.5l-4.7,4.6v11.9H226V98h10.2V128.8z"/>
	</g>
	<path d="M222.9,12.4c-30.3,0-60.5,0-90.8,0c-8.7,0-14.4,7.6-11.9,15.5c1.5,4.7,5.7,8,10.6,8.3c1.1,0.1,2.2,0,3.3,0
		c58.9,0,117.9,0,176.8,0c13,0,22.7,8,24.7,20.5c0.3,1.8,0.3,3.6,0.3,5.4c0,43.2,0,86.4,0,129.6c0,7.6,4.9,12.9,11.9,13
		c6.3,0,11.5-4.8,12-11c0.1-0.7,0-1.4,0-2.1c0-43.7,0-87.4,0-131.1c0-23.2-15.6-42.4-38.4-47.1c-3.5-0.7-7.1-1-10.7-1
		C281.5,12.4,252.2,12.4,222.9,12.4z"/>
</g>
</svg>
