<?xml version="1.0" encoding="utf-8"?>
<!-- Generator: Adobe Illustrator 24.3.0, SVG Export Plug-In . SVG Version: 6.00 Build 0)  -->
<svg version="1.1" id="Layer_1" xmlns="http://www.w3.org/2000/svg" xmlns:xlink="http://www.w3.org/1999/xlink" x="0px" y="0px"
	 viewBox="0 0 322.6 325" style="enable-background:new 0 0 322.6 325;" xml:space="preserve">
<g>
	<path d="M291.8,13.3H28.6c-8.7,0-15.7,7-15.7,15.7v265c0,8.7,7,15.7,15.7,15.7h263.2c8.7,0,15.7-7,15.7-15.7V29
		C307.5,20.3,300.5,13.3,291.8,13.3z M286.6,286.9H35.1V35.5h251.5V286.9z"/>
	<path d="M115,140.9c-0.8,3.1-2,5.5-3.8,7.5c-1.8,1.9-3.9,3.3-6.5,4.2c-2.5,0.9-5.3,1.3-8.4,1.3c-4.3,0-8-0.8-11.1-2.5
		c-3.1-1.7-5.5-4.1-7.2-7.3c-1.7-3.2-2.5-7-2.5-11.5c0-4.5,0.8-8.3,2.5-11.5c1.7-3.2,4.1-5.6,7.2-7.3c3.1-1.7,6.8-2.5,11-2.5
		c3,0,5.8,0.4,8.3,1.3c2.5,0.8,4.7,2.1,6.4,3.9c1.8,1.8,3,4,3.6,6.8l-11.1,4.5c-0.5-2.7-1.3-4.5-2.4-5.3c-1.2-0.9-2.6-1.3-4.4-1.3
		c-1.7,0-3.1,0.4-4.3,1.3c-1.2,0.9-2.1,2.1-2.7,3.8c-0.6,1.7-0.9,3.8-0.9,6.4c0,2.6,0.3,4.7,0.8,6.4c0.6,1.7,1.4,3,2.6,3.9
		c1.2,0.9,2.8,1.3,4.7,1.3c1.7,0,3.2-0.5,4.3-1.5c1.2-1,1.9-2.6,2.3-4.7L115,140.9z"/>
	<path d="M161.3,153.2h-13.2l-2.3-8.6h-12.6l-2.4,8.6H118l13.9-41.5h15.4L161.3,153.2z M135.3,136.3h8.4l-4.2-15.5L135.3,136.3z"/>
	<path d="M184.4,111.1c3.9,0,7.4,0.5,10.5,1.6s5.7,2.7,8,4.9l-5.6,8.2c-1.9-1.6-3.9-2.8-6-3.7c-2.1-0.9-4.5-1.4-7-1.4
		c-1.3,0-2.3,0.1-3.1,0.4c-0.8,0.3-1.4,0.6-1.7,1c-0.4,0.4-0.5,0.9-0.5,1.5c0,0.7,0.4,1.2,1.2,1.6c0.8,0.4,2,0.8,3.4,1.1l6.3,1.4
		c4.2,1,7.3,2.4,9.4,4.2c2.1,1.9,3.1,4.4,3.1,7.6c0,3.1-0.8,5.8-2.4,7.9c-1.6,2.1-3.7,3.7-6.4,4.7s-5.8,1.6-9.2,1.6
		c-2.7,0-5.4-0.3-7.9-0.8s-4.9-1.3-7.1-2.4c-2.1-1-4-2.3-5.5-3.7l5.5-8.5c1.1,1.1,2.5,2.1,4.1,2.9c1.6,0.9,3.4,1.5,5.2,2
		c1.8,0.5,3.6,0.8,5.3,0.8c1.2,0,2.2-0.1,3-0.3c0.8-0.2,1.3-0.6,1.7-1c0.3-0.4,0.5-0.9,0.5-1.5c0-0.7-0.3-1.3-0.8-1.7
		c-0.5-0.4-1.6-0.8-3.1-1.2l-6.9-1.6c-2.3-0.5-4.4-1.2-6.3-2.1c-1.9-0.9-3.5-2.1-4.6-3.7c-1.2-1.6-1.7-3.6-1.7-6.2
		c0-2.7,0.7-5.1,2.2-7.2c1.5-2.1,3.6-3.7,6.4-4.9C177.1,111.7,180.4,111.1,184.4,111.1z"/>
	<path d="M246.6,111.7v9.6h-13.2v31.8h-12.8v-31.8h-13.3v-9.6H246.6z"/>
	<path d="M49.1,95.4V53.9h22c5.2,0,9,1,11.5,2.9c2.5,1.9,3.7,4.6,3.7,8.3c0,2.4-0.7,4.4-2.2,6.2c-1.4,1.7-3.7,2.8-6.8,3.3v0.1
		c3.4,0.4,5.9,1.5,7.5,3.3c1.6,1.8,2.5,3.9,2.5,6.5c0,3.6-1.2,6.3-3.7,8.2c-2.5,1.9-6.3,2.8-11.3,2.8H49.1z M61.4,70.4h7.2
		c3.1,0,4.7-1.2,4.7-3.7c0-2.5-1.6-3.7-4.7-3.7h-7.2V70.4z M61.4,86.7h8.1c1.6,0,2.8-0.3,3.6-1c0.8-0.6,1.2-1.6,1.2-2.8
		c0-1.2-0.4-2.1-1.2-2.8c-0.8-0.6-2-0.9-3.6-0.9h-8.1V86.7z"/>
	<path d="M109.5,85.8h19.7v9.6H96.7V53.9h12.8V85.8z"/>
	<path d="M156.6,53.3c4.3,0,8,0.8,11.1,2.5c3.1,1.7,5.4,4.1,7.1,7.3c1.7,3.2,2.5,7,2.5,11.5c0,4.5-0.8,8.3-2.5,11.5
		c-1.7,3.2-4,5.6-7.1,7.3c-3.1,1.7-6.8,2.5-11.1,2.5c-4.3,0-8-0.8-11.1-2.5c-3.1-1.7-5.5-4.1-7.2-7.3c-1.7-3.2-2.5-7-2.5-11.5
		c0-4.5,0.8-8.3,2.5-11.5c1.7-3.2,4.1-5.6,7.2-7.3C148.6,54.1,152.3,53.3,156.6,53.3z M156.6,63.1c-1.7,0-3.1,0.4-4.2,1.3
		c-1.1,0.9-1.9,2.1-2.5,3.8c-0.6,1.7-0.8,3.8-0.8,6.5c0,2.6,0.3,4.7,0.8,6.4c0.6,1.7,1.4,3,2.5,3.8c1.1,0.9,2.5,1.3,4.2,1.3
		c1.7,0,3.1-0.4,4.2-1.3c1.1-0.9,2-2.1,2.5-3.8c0.5-1.7,0.8-3.8,0.8-6.4c0-2.6-0.3-4.8-0.8-6.5c-0.5-1.7-1.4-2.9-2.5-3.8
		C159.7,63.5,158.2,63.1,156.6,63.1z"/>
	<path d="M225.3,83.1c-0.8,3.1-2,5.5-3.8,7.5c-1.8,1.9-3.9,3.3-6.5,4.2c-2.5,0.9-5.3,1.3-8.4,1.3c-4.3,0-8-0.8-11.1-2.5
		c-3.1-1.7-5.5-4.1-7.2-7.3c-1.7-3.2-2.5-7-2.5-11.5c0-4.5,0.8-8.3,2.5-11.5c1.7-3.2,4.1-5.6,7.2-7.3c3.1-1.7,6.8-2.5,11-2.5
		c3,0,5.8,0.4,8.3,1.3c2.5,0.8,4.7,2.1,6.4,3.9s3,4,3.6,6.8l-11.1,4.5c-0.5-2.7-1.3-4.5-2.4-5.3c-1.2-0.9-2.6-1.3-4.4-1.3
		c-1.7,0-3.1,0.4-4.3,1.3c-1.2,0.9-2.1,2.1-2.7,3.8c-0.6,1.7-0.9,3.8-0.9,6.4c0,2.6,0.3,4.7,0.8,6.4c0.6,1.7,1.4,3,2.6,3.9
		c1.2,0.9,2.8,1.3,4.7,1.3c1.7,0,3.2-0.5,4.3-1.5c1.2-1,1.9-2.6,2.3-4.7L225.3,83.1z"/>
	<path d="M246.9,53.9v41.5h-12.8V53.9H246.9z M273.5,53.9l-19.9,24.9l-0.6-2.5l-9.5,12.2l-2.8-9.5l18.9-25.3H273.5z M258.1,67.1
		l16.3,28.3H260l-11.3-21.2L258.1,67.1z"/>
	<path d="M251.1,188.3h-73.3c-4.9,0-8.9-4-8.9-8.9v0c0-4.9,4-8.9,8.9-8.9h73.3c4.9,0,8.9,4,8.9,8.9v0
		C260.1,184.3,256,188.3,251.1,188.3z"/>
	<path d="M249.9,225.3h-72.1c-4.9,0-8.9-4-8.9-8.9v0c0-4.9,4-8.9,8.9-8.9h72.1c4.9,0,8.9,4,8.9,8.9v0
		C258.8,221.3,254.8,225.3,249.9,225.3z"/>
	<path d="M249.3,263.5h-72.1c-4.9,0-8.9-4-8.9-8.9v0c0-4.9,4-8.9,8.9-8.9h72.1c4.9,0,8.9,4,8.9,8.9v0
		C258.2,259.5,254.2,263.5,249.3,263.5z"/>
	<path d="M50.4,250.3c0-0.6,0.1-1.2,0.1-1.8c0-3.7,1.5-24.2,31.9-26.8c33.4-2.8,57.2,2.2,60.6,24.8c3.4,22.7-8.4,22-8.4,22H59.3
		C59.3,268.4,49.6,269.4,50.4,250.3z"/>
	<ellipse cx="98.9" cy="187.3" rx="22.7" ry="22.7"/>
</g>
</svg>
