<?xml version="1.0" encoding="utf-8"?>
<!-- Generator: Adobe Illustrator 24.3.0, SVG Export Plug-In . SVG Version: 6.00 Build 0)  -->
<svg version="1.1" id="Layer_1" xmlns="http://www.w3.org/2000/svg" xmlns:xlink="http://www.w3.org/1999/xlink" x="0px" y="0px"
	 viewBox="0 0 376 275.5" style="enable-background:new 0 0 376 275.5;" xml:space="preserve">
<path d="M335.4,8.5H42.5C25,8.5,10.8,22.1,10.8,38.8v198.8c0,16.7,14.3,30.3,31.7,30.3h292.9c17.4,0,31.7-13.6,31.7-30.3V38.8
	C367.1,22.1,352.8,8.5,335.4,8.5z M347.1,234.9c0,7.3-6.2,13.2-13.8,13.2H43.8c-7.6,0-13.8-5.9-13.8-13.2V40
	c0-7.3,6.2-13.2,13.8-13.2h289.5c7.6,0,13.8,5.9,13.8,13.2V234.9z"/>
<path d="M53.8,106.8V60.6h22.5c5.7,0,9.9,1.1,12.6,3.3c2.7,2.1,4.1,5.2,4.1,9.2c0,2.6-0.8,4.9-2.3,6.8c-1.5,1.9-3.9,3.1-7.1,3.6v0.1
	c3.5,0.5,6.2,1.7,7.9,3.7c1.8,2,2.6,4.4,2.6,7.2c0,4-1.4,7-4.2,9.2s-7,3.3-12.6,3.3H53.8z M65.4,79.5h8.8c4.3,0,6.4-1.7,6.4-5
	c0-3.4-2.1-5-6.4-5h-8.8V79.5z M65.4,98.3h9.9c2.2,0,3.8-0.4,4.9-1.3c1.1-0.9,1.6-2.2,1.6-3.9c0-1.6-0.5-2.9-1.6-3.7
	c-1.1-0.9-2.7-1.3-4.9-1.3h-9.9V98.3z"/>
<path d="M111.5,58.5c1.7,0,3.1,0.4,4.3,1.2c1.1,0.8,1.9,1.8,2.5,3.1c0.5,1.3,0.8,2.7,0.8,4.3c0,2.1-0.5,4.1-1.4,6.1
	c-0.9,1.9-2.1,3.6-3.6,5.1c-1.5,1.5-3.1,2.6-4.8,3.3l-4.8-3.6c1.3-0.5,2.5-1.2,3.6-2c1.1-0.8,2.1-1.7,2.9-2.6
	c0.8-0.9,1.4-1.9,1.9-2.9l-0.4-0.2c-0.2,0.2-0.5,0.3-0.9,0.4c-0.4,0.1-0.9,0.1-1.5,0.1c-0.8,0-1.7-0.2-2.6-0.6
	c-0.9-0.4-1.6-1-2.2-1.9c-0.6-0.8-0.9-1.9-0.9-3.2c0-1.5,0.3-2.7,1-3.7c0.7-1,1.5-1.7,2.6-2.2C109.1,58.7,110.3,58.5,111.5,58.5z"/>
<path d="M171.8,93.5c-0.9,3.2-2.3,5.9-4.3,7.9c-2,2.1-4.3,3.6-7,4.6c-2.7,1-5.7,1.4-9,1.4c-4.7,0-8.7-0.9-12.1-2.8
	c-3.4-1.9-6-4.6-7.8-8.2c-1.8-3.5-2.7-7.8-2.7-12.8c0-5,0.9-9.3,2.7-12.8c1.8-3.5,4.4-6.3,7.8-8.2c3.4-1.9,7.4-2.8,12-2.8
	c3.2,0,6.2,0.5,8.9,1.4c2.7,0.9,5,2.3,6.9,4.2c1.9,1.9,3.2,4.3,4,7.2l-10.6,4.3c-0.7-2.9-1.7-4.9-3.2-5.9c-1.5-1.1-3.3-1.6-5.6-1.6
	c-2.2,0-4.1,0.5-5.7,1.6c-1.6,1.1-2.8,2.7-3.7,4.8c-0.9,2.1-1.3,4.8-1.3,7.9c0,3.1,0.4,5.8,1.2,7.9c0.8,2.1,2,3.8,3.6,4.8
	c1.6,1.1,3.6,1.6,6,1.6c2.2,0,4.1-0.6,5.7-1.9c1.6-1.2,2.6-3.1,3.2-5.7L171.8,93.5z"/>
<path d="M225,106.8h-12.4l-3.2-10.4h-15.8l-3.3,10.4h-12.1l16.2-46.2h14.4L225,106.8z M195.8,88.1h11.3l-5.7-18.7L195.8,88.1z"/>
<path d="M252.8,59.9c4.3,0,8.1,0.7,11.4,2c3.3,1.3,6.1,3.3,8.6,5.8l-5.8,7.8c-2-2.1-4.2-3.7-6.5-4.7c-2.3-1-4.9-1.6-7.9-1.6
	c-1.7,0-3.1,0.2-4.2,0.6c-1.1,0.4-1.8,0.9-2.3,1.5c-0.5,0.7-0.7,1.4-0.7,2.2c0,1,0.5,1.8,1.4,2.5c0.9,0.7,2.4,1.2,4.4,1.7l7.8,1.8
	c4.6,1.1,8,2.6,10.2,4.7c2.1,2.1,3.2,4.8,3.2,8.2c0,3.3-0.8,6-2.5,8.3c-1.7,2.3-4,4-6.9,5.1s-6.3,1.7-10.1,1.7c-3.1,0-6-0.3-8.8-1
	c-2.8-0.7-5.3-1.6-7.6-2.9c-2.2-1.3-4.1-2.7-5.7-4.3l5.8-8c1.2,1.4,2.6,2.6,4.3,3.6c1.7,1,3.6,1.9,5.6,2.5c2,0.6,4.1,0.9,6.2,0.9
	c1.6,0,3-0.2,4.1-0.5c1.1-0.3,1.9-0.8,2.4-1.5c0.5-0.7,0.8-1.4,0.8-2.3c0-1-0.3-1.8-1-2.5c-0.7-0.7-2-1.2-4-1.7l-8.5-1.9
	c-2.6-0.6-4.9-1.4-7-2.4c-2-1-3.6-2.4-4.8-4.1c-1.2-1.7-1.8-3.8-1.8-6.4c0-2.9,0.8-5.5,2.4-7.7c1.6-2.3,3.9-4,6.9-5.4
	C245,60.5,248.6,59.9,252.8,59.9z"/>
<path d="M322.3,60.6v9.3h-15v36.9h-12V69.9h-15.1v-9.3H322.3z"/>
<path d="M54.8,213c0-0.6,0.1-1.2,0.1-1.8c0-3.6,1.5-23.7,31.2-26.2c32.6-2.7,55.8,2.1,59.1,24.2c3.3,22.1-8.2,21.5-8.2,21.5l-73.5,0
	C63.5,230.6,54,231.7,54.8,213z"/>
<ellipse transform="matrix(0.8864 -0.463 0.463 0.8864 -58.5419 64.5172)" cx="102.2" cy="151.5" rx="22.1" ry="22.1"/>
<path d="M314.5,149.6H196.2c-4.9,0-8.9-4-8.9-8.9v-0.3c0-4.9,4-8.9,8.9-8.9h118.3c4.9,0,8.9,4,8.9,8.9v0.3
	C323.4,145.6,319.4,149.6,314.5,149.6z"/>
<path d="M312.7,187.1H196.2c-4.9,0-8.9-4-8.9-8.9v-0.3c0-4.9,4-8.9,8.9-8.9h116.5c4.9,0,8.9,4,8.9,8.9v0.3
	C321.6,183.1,317.6,187.1,312.7,187.1z"/>
<path d="M311.7,225.9H195.3c-4.9,0-8.9-4-8.9-8.9v-0.3c0-4.9,4-8.9,8.9-8.9h116.5c4.9,0,8.9,4,8.9,8.9v0.3
	C320.6,221.9,316.6,225.9,311.7,225.9z"/>
</svg>
