<?xml version="1.0" encoding="utf-8"?>
<!-- Generator: Adobe Illustrator 24.3.0, SVG Export Plug-In . SVG Version: 6.00 Build 0)  -->
<svg version="1.1" id="Layer_1" xmlns="http://www.w3.org/2000/svg" xmlns:xlink="http://www.w3.org/1999/xlink" x="0px" y="0px"
	 viewBox="0 0 589 508.3" style="enable-background:new 0 0 589 508.3;" xml:space="preserve">
<path d="M516,16.9H75.4C43.8,16.9,18,42.8,18,74.3v356.9c0,31.6,25.8,57.4,57.4,57.4H516c31.6,0,57.4-25.8,57.4-57.4V74.3
	C573.4,42.8,547.6,16.9,516,16.9z M537.6,413.4c0,23.8-19.4,43.2-43.2,43.2h-401c-23.8,0-43.2-19.4-43.2-43.2V94.5
	c0-23.8,19.4-43.2,43.2-43.2h400.8c23.8,0,43.2,19.4,43.2,43.2v318.8h0.2V413.4z"/>
<path d="M492.1,328.8H287.8c-0.5,0-0.8-0.5-0.8-1.1v-34.4c0-0.6,0.4-1.1,0.8-1.1h204.3c0.5,0,0.8,0.5,0.8,1.1v34.5
	C492.9,328.4,492.5,328.8,492.1,328.8z"/>
<path d="M416.8,398.3H286.6c-0.5,0-0.9-0.5-0.9-1.1v-35c0-0.6,0.4-1.1,0.9-1.1H417c0.5,0,0.9,0.5,0.9,1.1v35.1
	C417.7,397.8,417.3,398.3,416.8,398.3z"/>
<path d="M116.7,148.6V83.9h34.4c8.1,0.1,14.1,1.6,18,4.5c3.9,2.9,5.8,7.2,5.8,12.9c0,3.7-1.1,6.9-3.4,9.6c-2.3,2.7-5.8,4.4-10.5,5.1
	v0.1c5.3,0.7,9.2,2.4,11.8,5.1c2.5,2.7,3.8,6.1,3.8,10.2c0,5.6-1.9,9.9-5.8,12.8c-3.9,2.9-9.8,4.4-17.6,4.4H116.7z M135.9,109.6
	h11.2c4.9,0,7.4-1.9,7.4-5.8c0-3.9-2.5-5.8-7.4-5.8h-11.2V109.6z M135.9,135.1h12.6c2.5,0,4.4-0.5,5.7-1.5c1.2-1,1.9-2.5,1.9-4.4
	c0-1.9-0.6-3.3-1.9-4.3c-1.2-1-3.1-1.5-5.7-1.5h-12.6V135.1z"/>
<path d="M211,133.6h30.8v15H191V83.9h20V133.6z"/>
<path d="M284.4,82.9c6.7,0,12.5,1.3,17.3,4c4.8,2.6,8.5,6.5,11.1,11.4c2.6,5,3.9,10.9,3.9,17.9c0,7-1.3,13-3.9,17.9
	c-2.6,5-6.3,8.8-11.1,11.4c-4.8,2.6-10.6,4-17.3,4c-6.7,0-12.4-1.3-17.3-4c-4.9-2.6-8.6-6.5-11.2-11.4c-2.6-5-3.9-10.9-3.9-17.9
	c0-7,1.3-13,3.9-17.9c2.6-5,6.4-8.8,11.2-11.4C271.9,84.3,277.7,82.9,284.4,82.9z M284.4,98.2c-2.7,0-4.9,0.7-6.6,2
	c-1.7,1.3-3,3.3-3.9,5.9c-0.9,2.6-1.3,6-1.3,10.1c0,4.1,0.4,7.4,1.3,10c0.9,2.6,2.2,4.6,3.9,6c1.7,1.3,3.9,2,6.6,2
	c2.6,0,4.8-0.7,6.6-2c1.8-1.3,3.1-3.3,3.9-6c0.8-2.6,1.3-6,1.3-10c0-4.1-0.4-7.5-1.3-10.1c-0.9-2.6-2.2-4.6-3.9-5.9
	C289.2,98.9,287,98.2,284.4,98.2z"/>
<path d="M391.6,129.4c-1.2,4.8-3.2,8.7-5.9,11.7c-2.8,3-6.1,5.2-10.1,6.5c-4,1.3-8.3,2-13.1,2c-6.7,0-12.4-1.3-17.3-4
	c-4.9-2.6-8.6-6.5-11.2-11.4c-2.6-5-3.9-10.9-3.9-17.9c0-7,1.3-13,3.9-17.9c2.6-5,6.4-8.8,11.2-11.4c4.9-2.6,10.6-4,17.2-4
	c4.7,0,9,0.7,13,2c4,1.3,7.3,3.3,10,6.1s4.6,6.3,5.6,10.7l-17.3,7c-0.7-4.2-2-7-3.8-8.3c-1.8-1.4-4.1-2.1-6.9-2.1
	c-2.6,0-4.9,0.7-6.7,2c-1.9,1.3-3.3,3.3-4.2,6c-0.9,2.6-1.4,6-1.4,10c0,4,0.4,7.3,1.3,10c0.9,2.7,2.3,4.7,4.1,6c1.9,1.3,4.3,2,7.3,2
	c2.7,0,4.9-0.8,6.8-2.4c1.8-1.6,3-4,3.6-7.3L391.6,129.4z"/>
<path d="M425.3,83.9v64.7h-20V83.9H425.3z M466.7,83.9l-31.1,38.9l-1-3.8l-14.8,19.1l-4.3-14.8l29.5-39.4H466.7z M442.8,104.4
	l25.5,44.2h-22.6L428,115.5L442.8,104.4z"/>
<path d="M219.4,219.6c-1.2,4.8-3.2,8.7-5.9,11.7c-2.8,3-6.1,5.2-10.1,6.5c-4,1.3-8.3,2-13.1,2c-6.7,0-12.4-1.3-17.3-4
	c-4.9-2.6-8.6-6.5-11.2-11.4c-2.6-5-3.9-10.9-3.9-17.9c0-7,1.3-13,3.9-17.9c2.6-5,6.4-8.8,11.2-11.4c4.9-2.6,10.6-4,17.2-4
	c4.7,0,9,0.7,13,2c4,1.3,7.3,3.3,10,6.1s4.6,6.3,5.6,10.7l-17.3,7c-0.7-4.2-2-7-3.8-8.3c-1.8-1.4-4.1-2.1-6.9-2.1
	c-2.6,0-4.9,0.7-6.7,2c-1.9,1.3-3.3,3.3-4.2,6c-0.9,2.6-1.4,6-1.4,10c0,4,0.4,7.3,1.3,10c0.9,2.7,2.3,4.7,4.1,6c1.9,1.3,4.3,2,7.3,2
	c2.7,0,4.9-0.8,6.8-2.4c1.8-1.6,3-4,3.6-7.3L219.4,219.6z"/>
<path d="M291.8,238.8h-20.6l-3.6-13.4h-19.7l-3.7,13.4h-20l21.8-64.7h24L291.8,238.8z M251.2,212.4h13.1l-6.6-24.1L251.2,212.4z"/>
<path d="M327.7,173.1c6.1,0,11.6,0.8,16.4,2.5c4.8,1.7,9,4.2,12.5,7.6l-8.7,12.8c-2.9-2.5-6.1-4.4-9.4-5.8
	c-3.3-1.4-6.9-2.1-10.9-2.1c-2,0-3.7,0.2-4.9,0.6c-1.2,0.4-2.1,0.9-2.7,1.6c-0.6,0.7-0.8,1.5-0.8,2.3c0,1,0.6,1.9,1.9,2.5
	c1.3,0.7,3.1,1.2,5.3,1.8l9.8,2.3c6.5,1.5,11.4,3.7,14.6,6.6c3.2,2.9,4.8,6.9,4.8,11.9c0,4.9-1.2,9-3.7,12.2
	c-2.5,3.3-5.8,5.7-10,7.4c-4.2,1.6-9,2.5-14.4,2.5c-4.2,0-8.4-0.4-12.4-1.3c-4-0.8-7.7-2.1-11-3.7c-3.3-1.6-6.2-3.5-8.6-5.7
	l8.6-13.2c1.8,1.7,3.9,3.2,6.5,4.6c2.5,1.3,5.3,2.4,8.1,3.2c2.9,0.8,5.7,1.2,8.3,1.2c1.9,0,3.4-0.2,4.7-0.5c1.2-0.4,2.1-0.9,2.6-1.5
	c0.5-0.7,0.8-1.4,0.8-2.4c0-1.1-0.4-2-1.3-2.7c-0.8-0.7-2.4-1.3-4.8-1.8l-10.8-2.5c-3.5-0.8-6.8-1.9-9.8-3.2c-3-1.4-5.4-3.3-7.2-5.7
	c-1.8-2.5-2.7-5.7-2.7-9.7c0-4.2,1.1-8,3.4-11.3c2.3-3.3,5.6-5.8,10-7.6C316.3,174.1,321.6,173.1,327.7,173.1z"/>
<path d="M424.8,174.1v15h-20.6v49.7h-20v-49.7h-20.8v-15H424.8z"/>
<path d="M120.6,380.3c0-0.7,0.1-1.4,0.1-2.1c0-4.2,1.7-27.7,36.5-30.6c38.2-3.2,65.3,2.5,69.2,28.3c3.9,25.9-9.6,25.1-9.6,25.1h-86
	C130.8,401,119.7,402.2,120.6,380.3z"/>
<ellipse cx="176" cy="308.4" rx="25.9" ry="25.9"/>
</svg>
