<?xml version="1.0" encoding="utf-8"?>
<!-- Generator: Adobe Illustrator 24.3.0, SVG Export Plug-In . SVG Version: 6.00 Build 0)  -->
<svg version="1.1" id="Layer_1" xmlns="http://www.w3.org/2000/svg" xmlns:xlink="http://www.w3.org/1999/xlink" x="0px" y="0px"
	 viewBox="0 0 589 521.6" style="enable-background:new 0 0 589 521.6;" xml:space="preserve">
<style type="text/css">
	.st0{display:none;}
	.st1{font-family:'WorkSans-ExtraBold';}
	.st2{font-size:103px;}
	.st3{letter-spacing:6;}
</style>
<path class="st0" d="M109.9,313.8v113h11.6c0.9-20.1,19.2-36.4,42.7-38.9c-11-2.4-19.3-12.2-19.3-24c0-13.6,11-24.5,24.5-24.5
	c13.6,0,24.5,11,24.5,24.5c0,11.5-8,21.2-18.7,23.8c24.3,1.9,43.4,18.6,44.3,39.1h9.9v-113H109.9z"/>
<path d="M515,24.7H74.4C42.8,24.7,17,50.6,17,82.1V439c0,31.6,25.8,57.4,57.4,57.4H515c31.6,0,57.4-25.8,57.4-57.4V82.1
	C572.4,50.6,546.6,24.7,515,24.7z M536.6,421.2c0,23.8-19.4,43.2-43.2,43.2h-401c-23.8,0-43.2-19.4-43.2-43.2V102.3
	c0-23.8,19.4-43.2,43.2-43.2h400.8c23.8,0,43.2,19.4,43.2,43.2v318.8h0.2V421.2z"/>
<path d="M491.1,336.6H286.8c-0.5,0-0.8-0.5-0.8-1.1v-34.4c0-0.6,0.4-1.1,0.8-1.1h204.3c0.5,0,0.8,0.5,0.8,1.1v34.5
	C491.9,336.2,491.5,336.6,491.1,336.6z"/>
<path d="M490.4,271.8H286.1c-0.5,0-0.8-0.5-0.8-1.1v-34.4c0-0.6,0.4-1.1,0.8-1.1h204.3c0.5,0,0.8,0.5,0.8,1.1v34.5
	C491.2,271.4,490.8,271.8,490.4,271.8z"/>
<path d="M415.8,406.1H285.6c-0.5,0-0.9-0.5-0.9-1.1v-35c0-0.6,0.4-1.1,0.9-1.1H416c0.5,0,0.9,0.5,0.9,1.1v35.1
	C416.7,405.6,416.3,406.1,415.8,406.1z"/>
<g>
	<text transform="matrix(1 0 0 1 87.1669 189.4643)" class="st1 st2 st3">B’CAST</text>
</g>
<path d="M79.6,374.7c0-1.1,0.2-2.2,0.2-3.3c0-6.6,2.7-43.4,57.2-47.9c59.9-5,102.3,3.9,108.4,44.3c6.1,40.6-15,39.3-15,39.3H95.6
	C95.6,407.1,78.2,409,79.6,374.7z"/>
<ellipse cx="166.4" cy="262.1" rx="40.6" ry="40.6"/>
</svg>
