<?xml version="1.0" encoding="utf-8"?>
<!-- Generator: Adobe Illustrator 24.3.0, SVG Export Plug-In . SVG Version: 6.00 Build 0)  -->
<svg version="1.1" id="Layer_1" xmlns="http://www.w3.org/2000/svg" xmlns:xlink="http://www.w3.org/1999/xlink" x="0px" y="0px"
	 viewBox="0 0 376 325" style="enable-background:new 0 0 376 325;" xml:space="preserve">
<g>
	<path d="M326.9,13.2H48.2c-20,0-36.3,16.4-36.3,36.3v225.8c0,20,16.3,36.3,36.3,36.3h278.7c20,0,36.3-16.3,36.3-36.3V49.5
		C363.3,29.6,347,13.2,326.9,13.2z M340.6,264c0,15.1-12.2,27.3-27.3,27.3H59.7c-15.1,0-27.3-12.2-27.3-27.3V62.3
		c0-15.1,12.2-27.3,27.3-27.3h253.5c15.1,0,27.3,12.2,27.3,27.3v201.6L340.6,264L340.6,264z"/>
	<path d="M311.9,210.5H182.7c-0.3,0-0.5-0.3-0.5-0.7V188c0-0.4,0.3-0.7,0.5-0.7h129.2c0.3,0,0.5,0.3,0.5,0.7v21.9
		C312.4,210.1,312.1,210.5,311.9,210.5z"/>
	<path d="M311.5,169.5H182.3c-0.3,0-0.5-0.3-0.5-0.7V147c0-0.4,0.3-0.7,0.5-0.7h129.2c0.3,0,0.5,0.3,0.5,0.7v21.9
		C312,169.2,311.7,169.5,311.5,169.5z"/>
	<path d="M264.2,254.4h-82.3c-0.3,0-0.6-0.3-0.6-0.7v-22.2c0-0.4,0.3-0.7,0.6-0.7h82.4c0.3,0,0.6,0.3,0.6,0.7v22.2
		C264.8,254.1,264.5,254.4,264.2,254.4z"/>
	<path d="M51.6,234.5c0-0.7,0.1-1.4,0.1-2.1c0-4.1,1.7-27.4,36.2-30.2c37.9-3.1,64.7,2.4,68.6,28c3.8,25.7-9.5,24.9-9.5,24.9H61.7
		C61.7,255.1,50.7,256.2,51.6,234.5z"/>
	<ellipse transform="matrix(1 -5.970457e-03 5.970457e-03 1 -0.9731 0.6388)" cx="106.5" cy="163.3" rx="25.7" ry="25.7"/>
	<path d="M77.3,57.8h25.9c14.3,0,19.7,7.5,19.7,15.2c0,6.7-3.5,11-7.5,12.8c4,1.5,9.2,5.7,9.2,13.5c0,10.1-8,17.7-20.6,17.7H77.3
		V57.8z M101.7,81.1c6.1,0,8.6-2.7,8.6-6.9c0-4.3-3.3-6.6-8.2-6.6H89.9v13.5H101.7z M89.9,107.1h11.6c6.9,0,10.1-2.9,10.1-8.3
		c0-4.8-3.1-7.8-10.1-7.8H89.9V107.1z"/>
	<path d="M135.9,117V54.3h12.3V117H135.9z"/>
	<path d="M203.6,94.7c0,13.5-8,23.3-22.1,23.3c-13.8,0-21.8-9.8-21.8-23.1c0-13.7,8.3-23.4,22.4-23.4
		C195.1,71.5,203.6,80.7,203.6,94.7z M172.1,94.8c0,8.6,3.7,13.6,9.6,13.6c6,0,9.4-5.1,9.4-13.6c0-9.3-3.4-13.7-9.5-13.7
		C175.8,81.1,172.1,85.4,172.1,94.8z"/>
	<path d="M253.9,102.6c-1.5,7.4-6.7,15.4-20,15.4c-13.8,0-21-9.6-21-22.9c0-13.1,8-23.6,21.5-23.6c15,0,19.2,10.8,19.4,15.8h-12
		c-0.8-3.6-2.8-6.2-7.6-6.2c-5.6,0-8.8,4.9-8.8,13.6c0,9.5,3.4,13.8,8.8,13.8c4.2,0,6.5-2.5,7.6-5.8H253.9z"/>
	<path d="M276.7,91.3c3.3-4.4,9.2-11.3,15.3-18.8h14.1l-15.5,16.8l17,27.7h-13.9l-11.2-19.8l-5.7,5.5V117h-12.3V54.3h12.3V91.3z"/>
</g>
</svg>
