<?xml version="1.0" encoding="utf-8"?>
<!-- Generator: Adobe Illustrator 24.3.0, SVG Export Plug-In . SVG Version: 6.00 Build 0)  -->
<svg version="1.1" id="Layer_1" xmlns="http://www.w3.org/2000/svg" xmlns:xlink="http://www.w3.org/1999/xlink" x="0px" y="0px"
	 viewBox="0 0 589 589" style="enable-background:new 0 0 589 589;" xml:space="preserve">
<style type="text/css">
	.st0{display:none;}
	.st1{font-family:'WorkSans-ExtraBold';}
	.st2{font-size:103px;}
	.st3{letter-spacing:6;}
	.st4{display:inline;}
	.st5{display:none;fill:#FFFFFF;}
	.st6{fill:#FFFFFF;}
</style>
<path class="st0" d="M491.1,373.4H286.8c-0.5,0-0.8-0.5-0.8-1.1v-34.4c0-0.6,0.4-1.1,0.8-1.1h204.3c0.5,0,0.8,0.5,0.8,1.1v34.5
	C491.9,373,491.5,373.4,491.1,373.4z"/>
<path class="st0" d="M490.4,308.6H286.1c-0.5,0-0.8-0.5-0.8-1.1v-34.4c0-0.6,0.4-1.1,0.8-1.1h204.3c0.5,0,0.8,0.5,0.8,1.1v34.5
	C491.2,308.2,490.8,308.6,490.4,308.6z"/>
<path class="st0" d="M415.8,442.9H285.6c-0.5,0-0.9-0.5-0.9-1.1v-35c0-0.6,0.4-1.1,0.9-1.1H416c0.5,0,0.9,0.5,0.9,1.1v35.1
	C416.7,442.4,416.3,442.9,415.8,442.9z"/>
<g>
	<text transform="matrix(1 0 0 1 87.1669 226.3355)" class="st1 st2 st3">B’CAST</text>
</g>
<path d="M100.4,435.9c0-0.8,0.1-1.7,0.1-2.5c0-5.1,2-33.3,43.9-36.8c46-3.9,78.6,3,83.3,34.1c4.7,31.2-11.6,30.2-11.6,30.2H112.7
	C112.7,460.8,99.3,462.2,100.4,435.9z"/>
<ellipse cx="166.4" cy="350.9" rx="31.2" ry="31.2"/>
<ellipse cx="236.8" cy="366.9" rx="24.8" ry="24.8"/>
<path d="M305.9,501.2H92.4c-23.8,0-43.2-19.4-43.2-43.2V139.1c0-23.8,19.4-43.2,43.2-43.2h400.8c23.8,0,43.2,19.4,43.2,43.2V309
	c14.3,11.5,26.5,25.4,36,41.2V118.9c0-31.5-25.8-57.4-57.4-57.4H74.4C42.8,61.5,17,87.4,17,118.9v356.9c0,31.6,25.8,57.4,57.4,57.4
	h254.5C319.9,523.6,312.2,512.9,305.9,501.2z"/>
<g class="st0">
	<circle class="st4" cx="440.8" cy="428.7" r="153.2"/>
</g>
<polygon class="st5" points="465.8,504.9 416.6,504.9 416.6,457.2 362,457.2 362,408 416.6,408 416.6,350.4 465.8,350.4 465.8,408 
	525.3,408 525.3,457.2 465.8,457.2 "/>
<circle cx="443.9" cy="434.8" r="114.6"/>
<polygon class="st5" points="380.5,414.6 357.4,436.4 422.8,500.5 525.8,396.8 502.7,377 423.4,456.3 "/>
<path class="st0" d="M460.1,290.3H278.3c-8.2,0-14.8-6.7-14.8-14.8v-3.3c0-8.2,6.7-14.8,14.8-14.8h181.7c8.2,0,14.8,6.7,14.8,14.8
	v3.3C474.9,283.6,468.2,290.3,460.1,290.3z"/>
<path class="st0" d="M306.1,360h-27c-8.2,0-14.8-6.7-14.8-14.8v-4.8c0-8.2,6.7-14.8,14.8-14.8h27c8.2,0,14.8,6.7,14.8,14.8v4.8
	C321,353.3,314.3,360,306.1,360z"/>
<polygon class="st5" points="442.7,329.5 474.5,393.7 545.4,404 494.1,454.1 506.2,524.7 442.7,491.3 379.3,524.7 391.4,454.1 
	340.1,404 411,393.7 "/>
<polygon class="st6" points="442.2,341.5 462.5,406.7 530.9,405.9 475.1,445.4 497,510.1 442.2,469.3 387.4,510.1 409.4,445.4 
	353.6,405.9 421.9,406.7 "/>
<path d="M237.5,402.4c0,0,30.1-3.9,41.9,17.9c12.7,23.6,11.9,37.8,2,40.9c-10.3,3.2-41.2,0.2-41.2,0.2s11.9-21.8,4.8-35.6
	C237.8,411.9,225.2,403.9,237.5,402.4z"/>
<path d="M471.8,287.5H109.3c-8.2,0-14.8-6.7-14.8-14.8v-4c0-8.2,6.7-14.8,14.8-14.8h362.5c8.2,0,14.8,6.7,14.8,14.8v4
	C486.7,280.8,480,287.5,471.8,287.5z"/>
</svg>
