<?xml version="1.0" encoding="utf-8"?>
<!-- Generator: Adobe Illustrator 24.3.0, SVG Export Plug-In . SVG Version: 6.00 Build 0)  -->
<svg version="1.1" id="Layer_1" xmlns="http://www.w3.org/2000/svg" xmlns:xlink="http://www.w3.org/1999/xlink" x="0px" y="0px"
	 viewBox="0 0 323.15 325" style="enable-background:new 0 0 323.15 325;" xml:space="preserve">
<style type="text/css">
	.st0{stroke:#000000;stroke-miterlimit:10;}
</style>
<path class="st0" d="M218.51,57.41c0.16,0.67,0.25,1.35,0.33,2.03c0.35,3.14,2.26,13.7,12.28,13.69c5.56-0.01,8.49-4.14,10.03-8.49
	c1.89-5.32,1.69-11.16-0.27-16.45c-4.39-11.8-16.99-35.62-46.96-34.58c-2.42,0.08-4.85,0.15-7.28,0.14L61.19,13.38
	c0,0-45.4,1.74-47.58,52.19l0.28,209.08c0,0-1.64,32.51,25.28,39.2c20.75,5.16,34.81-7,40.16-12.84
	c5.14-5.61,10.45-11.07,15.79-16.49l34.2-34.7l49.4,52.06c0,0,17.96,20.16,39.81,12.28s25.18-31.98,25.18-31.98
	s0.99-8.66-6.26-12.36c-6.44-3.29-14.41-0.07-16.96,6.69c-0.5,1.33-0.91,2.87-1.19,4.66c-0.43,2.81-1.73,5.45-3.79,7.39
	c-2.67,2.51-6.99,4.35-13.36,1.13c-2.06-1.04-3.9-2.47-5.52-4.11l-55.73-56.63c-0.9-0.92-1.78-1.85-2.67-2.78
	c-2.07-2.17-9.4-8.38-19.71-0.52c-1.13,0.86-2.18,1.84-3.16,2.87l-56.05,58.41c0,0-9.39,9.01-16.69,1.86
	c-2.31-2.27-3.5-5.45-3.5-8.69L38.84,68.34c0-2.49-0.01-4.98-0.09-7.47c-0.14-4.37,0.68-18.51,16.62-22.51
	c2.51-0.63,5.1-0.88,7.69-0.87l117.55,0.36c3.41,0.01,6.83-0.1,10.24-0.26C197.61,37.29,214.07,38.56,218.51,57.41z"/>
<path d="M231.41,88.26c-44.11,0.06-79.83,36.12-79.77,80.54c0.06,44.42,35.87,80.39,79.98,80.33s79.83-36.12,79.77-80.54
	S275.52,88.21,231.41,88.26z M231.59,224.36c-30.52,0.04-55.3-24.84-55.34-55.58c-0.04-30.74,24.67-55.69,55.19-55.73
	c30.52-0.04,55.3,24.84,55.34,55.58C286.83,199.37,262.11,224.32,231.59,224.36z"/>
<path d="M218.7,157.4l0.2-10.3c0.06-3.11,0.97-6.18,2.77-8.71c1.76-2.47,4.54-4.78,8.75-4.78c3.24,0,5.74,1.22,7.61,2.79
	c3.05,2.57,4.69,6.46,4.7,10.45l0.01,10.78l10.76-0.01c2,0,3.99,0.33,5.84,1.09c3.07,1.26,6.65,3.94,6.65,9.58
	c0.01,4.24-1.81,7.05-3.88,8.89c-2.37,2.1-5.48,3.15-8.64,3.15l-11.51,0.02l0.01,10.42c0,0.82,0.02,1.64,0.03,2.46
	c0.03,2.32-0.57,10.7-10.7,11.18c-6.98,0.33-10.1-4.16-11.49-7.85c-0.75-2-1.08-4.14-1.09-6.27l-0.01-9.37l-10.86,0.01
	c-3,0-5.97-0.95-8.27-2.87c-2.04-1.7-3.89-4.33-4.13-8.34c-0.55-9.35,8.8-12.83,13.07-12.57L218.7,157.4z"/>
</svg>
