<?xml version="1.0" encoding="utf-8"?>
<!-- Generator: Adobe Illustrator 24.3.0, SVG Export Plug-In . SVG Version: 6.00 Build 0)  -->
<svg version="1.1" id="Layer_1" xmlns="http://www.w3.org/2000/svg" xmlns:xlink="http://www.w3.org/1999/xlink" x="0px" y="0px"
	 viewBox="0 0 376 297.9" style="enable-background:new 0 0 376 297.9;" xml:space="preserve">
<g id="Brazilian_real">
	<path d="M296.3,70.6c0,18.8,0,36.9,0,54.7c8.7,0.8,17.1,0.9,25.2,2.3c27.8,5.1,44.9,25.7,47.4,53.8c3.7,42.3-27.7,78.5-64.3,84.1
		c-2.5,0.4-5.1,0.6-8.6,1c0,5.9-0.1,11.8,0,17.7c0.1,4-1.3,5.7-5.5,6c-18.1,1.2-18,1.3-18-16.6c0-2.5,0-5,0-7
		c-8.8-2.4-17.2-3.8-24.8-7c-24.8-10.2-41.6-27.5-45.3-55.1c-1-7.1-0.3-7.8,7-7.8c7.5,0,15-0.4,22.5,0.2c2.3,0.2,5.5,2.4,6.4,4.4
		c6.5,14.8,18.6,20.3,33.9,21.9c0-17.9,0-35.4,0-52.9c-51-2.7-72.2-38.9-72.5-67.8c-0.2-20.2,6.3-37.9,20.7-52.2
		c14.2-14.1,32.1-19.7,52.1-21.2c0-3.2,0-6,0-8.7c0-2.4-0.2-4.7,0-7.1c0.7-6.8,6.2-5.3,9.9-4.7c4.6,0.8,12.1-4.2,13.4,4.9
		c0.7,5,0.1,10.2,0.1,15c9.1,2.3,17.7,3.7,25.9,6.7c19.9,7.3,34.8,20,41.2,41c2.7,8.9,1.7,10.1-7.4,10.2c-8.1,0-16.3-0.1-24.4,0.2
		c-4.2,0.1-7.1-1.1-9.9-4.4C314.9,74.5,306.5,71,296.3,70.6z M272.2,69.7c-10.8,0.4-19.5,4.2-27.4,9.9c-10.3,7.6-13,20.2-6.9,31.4
		c5.9,10.9,20.2,17.1,34.3,14.7C272.2,107.2,272.2,88.7,272.2,69.7z M296.6,169.6c0,18.1,0,35.6,0,53.1c20.1-0.1,33.4-10.4,37-28.4
		c1.9-9.5-1.3-16.9-9.5-20.9C315.3,169,306,169.2,296.6,169.6z"/>
	<path d="M45.9,172.8c0,13.4,0,26.6,0,39.8c0,14.6,0.1,29.1,0,43.7c0,7.7-3.2,11-10.8,11.2c-5.1,0.2-10.3,0-15.4,0
		c-10.6,0.1-13.5-2.7-13.5-13.1c0-54.6,0-109.2,0-163.9c0-16.1,0-32.1,0.1-48.2c0.1-8.2,3.1-11.3,11.3-11.3c27,0,54,0.1,80.9,0.2
		c57.5,0.3,80.2,59.1,62.1,100.1c-8,18.2-21.8,30.9-41.4,37.2c6.9,9,13.8,17.3,20,26.2c13.3,19.2,26.3,38.5,39.3,57.9
		c4.9,7.3,1.1,14.3-7.8,14.7c-7.7,0.3-15.5,0.6-23.1-0.3c-3.3-0.4-7.2-2.9-9.2-5.7c-14-18.7-27.3-37.9-41.4-56.5
		c-6.6-8.7-14.2-16.6-21.8-24.3C67.4,173,57.8,170,45.9,172.8z M46.1,131.2c19,0,37.4,0.8,55.7-0.2c16.2-0.9,26.2-15.2,25.2-33.6
		c-0.7-13.5-13.7-25.2-28.3-25.4c-15.8-0.2-31.7-0.1-47.5-0.1c-1.6,0-3.3,0.3-5,0.5C46.1,92,46.1,111.2,46.1,131.2z"/>
</g>
</svg>
