<?xml version="1.0" encoding="utf-8"?>
<!-- Generator: Adobe Illustrator 24.3.0, SVG Export Plug-In . SVG Version: 6.00 Build 0)  -->
<svg version="1.1" id="Layer_1" xmlns="http://www.w3.org/2000/svg" xmlns:xlink="http://www.w3.org/1999/xlink" x="0px" y="0px"
	 viewBox="0 0 239.7 326" style="enable-background:new 0 0 239.7 326;" xml:space="preserve">
<path d="M144.8,315.5c-9.6,0-18.5,0-27.8,0c0-15.4,0-30.5,0-46.1c-6.5,0-12.6,0-19,0c0,15.2,0,30.4,0,45.9c-9.7,0-19,0-28.8,0
	c0-15.2,0-30.5,0-46.3c-18.6,0-36.7,0-55.1,0c0-10.2,0-19.8,0-30.2c6.5,0,13,0,19.4,0c9-0.1,12.9-3.7,13-12.8
	c0.1-42.2,0.1-84.5,0-126.7c0-7.7-3-10.8-11-11.2c-8-0.4-16-0.1-24.3-0.1c0-10.1,0-19.6,0-29.7c18.9,0,37.6,0,56.9,0
	c0-15.3,0-30.1,0-45.3c9.7,0,18.8,0,28.6,0c0,14.8,0,29.8,0,44.9c6.5,0,12.5,0,19.1,0c0-14.9,0-29.9,0-45.1c9.7,0,18.7,0,28.5,0
	c0,1.9,0,3.7,0,5.5c0,12,0.1,23.9-0.1,35.9c-0.1,3.5,1,4.6,4.5,5c15.7,1.8,30.7,6,44.5,14.1c27.6,16.3,26.5,53.7,6.4,72.3
	c-2.7,2.5-5.7,4.8-7.7,6.4c7,4.4,14.7,8.2,21,13.6c9.9,8.4,15.1,19.9,15.7,32.9c1,24-5,45.2-26.9,58.8
	c-12.5,7.7-26.6,10.3-41.1,11.1c-5.1,0.3-10.2,0-15.7,0C144.8,284.8,144.8,300,144.8,315.5z M96.9,235.6c13.8,0,27.2,0.5,40.5-0.2
	c10.9-0.6,21.1-3.9,28.9-12.4c10.7-11.8,9.8-31.5-2.1-39.8c-3-2.1-6.6-3.7-10.1-4.8c-18.7-6-37.9-2.3-57.1-3.5
	C96.9,195.4,96.9,215.3,96.9,235.6z M96.8,145.5c11.7,0,22.9-0.1,34.1,0c8.6,0.1,15.6-3.3,21.2-9.6c12.5-14,8.8-34.6-7.9-41.7
	c-15.2-6.6-31.4-4-47.4-4.6C96.8,108.6,96.8,126.7,96.8,145.5z"/>
</svg>
