<?xml version="1.0" encoding="utf-8"?>
<!-- Generator: Adobe Illustrator 24.3.0, SVG Export Plug-In . SVG Version: 6.00 Build 0)  -->
<svg version="1.1" id="Layer_1" xmlns="http://www.w3.org/2000/svg" xmlns:xlink="http://www.w3.org/1999/xlink" x="0px" y="0px"
	 viewBox="0 0 376 293.2" style="enable-background:new 0 0 376 293.2;" xml:space="preserve">
<g id="Canadian_Dollar">
	<path d="M284.1,219.9c0-1,0-1.8,0-2.6c0-18.8,0.1-37.6,0.1-56.4c0-4.2-0.2-4.4-4.3-5.6c-10.5-3.1-21.1-6.1-30.8-11.5
		c-20.7-11.3-30.5-28.9-29.9-52.4c0.4-13.6,3.7-26.4,11.6-37.6c9.6-13.6,23.2-20.8,39.3-23.7c3-0.5,6-0.8,8.9-1.4
		c3.5-0.7,4.7-2,4.8-5.5c0.1-3.3,0-6.6-0.3-9.9c-0.2-3.3,0.5-4.8,3.9-5.1c3.6-0.3,7.2,0,10.8,0.2c0.6,0,1.4,1.3,1.5,2
		c0.1,2.5-0.1,5.1-0.2,7.7c0,0.2-0.1,0.4-0.1,0.7c-1,8.1,1.1,10.7,9.3,11.4c19.4,1.6,34.5,10.7,45.6,26.5c6.7,9.6,9.9,20.4,10.2,32
		c0.1,4.1-1,5.2-5.1,5.2c-9.9,0-19.9,0-29.8,0.1c-4.1,0-5.3-1-6.1-5c-0.7-3.5-1.3-7.1-2.2-10.6c-2.1-7.7-7.5-12.3-14.7-15
		c-0.8-0.3-1.7-0.5-2.6-0.6c-3.3-0.3-4.6,1.2-4.6,4.5c0.2,13.8,0.4,27.7,0.3,41.5c-0.1,9.7,0.9,11.4,10,14.3
		c10.8,3.4,21.1,8,31,13.5c17.6,9.9,26.3,25.4,27.5,45.3c0.8,14.1-1.3,27.6-8.3,40.1c-7.9,14-20.3,22.6-35.3,27.4
		c-6.1,1.9-12.4,2.9-18.7,4.3c-0.6,0.1-1.2,0.2-1.8,0.3c-3.5,0.7-4.3,1.7-4.3,5.2c0,6.4,0.1,12.8,0.1,19.2c0,1.3,0,2.6-0.1,3.8
		c-0.2,1.9-1.3,2.8-3.2,2.8c-2.9,0-5.9,0-8.8,0c-2.6,0-3.7-1.2-3.8-4.2c0-5.9-0.1-11.9,0.1-17.8c0.3-7.7-0.4-8.4-8-9.3
		c-12.4-1.6-24.6-4.2-35-11.5c-17.4-12.2-26.4-29.2-27.5-50.4c-0.1-2.3,0.2-4.7,0.4-7c0.2-2,1.3-3.1,3.4-3.1c11.7,0,23.3-0.1,35-0.1
		c2.6,0,3.5,1,4,3.7c0.9,4.7,1.5,9.4,2.6,13.9C262.4,212.3,270.2,218.7,284.1,219.9z M300.3,163.1c0,18.8,0,37.5,0,56.3
		c1.6-0.2,3.1-0.3,4.5-0.6c11.1-1.9,18-8,19.9-18.3c0.8-4,0.9-8.2,0.6-12.3C324.4,175,313.5,164.2,300.3,163.1z M284.1,89
		C284.1,89,284.1,89,284.1,89c0-7.1,0-14.3,0-21.4c0-4-0.7-4.9-4.8-4.4c-8.9,1-15.3,5.6-18.6,14c-6,15.9,2.9,32.3,19.7,36.6
		c3,0.8,3.6,0.4,3.6-2.9C284.1,103.6,284.1,96.3,284.1,89z"/>
	<path d="M198.7,172c-0.2,1-0.3,2-0.5,3c-2.7,12.6-6.7,24.7-13.2,35.8c-10.1,17.1-24.6,28.8-43.4,35c-22.6,7.5-45.4,8.7-68.3,1.3
		c-27-8.8-45.8-26.9-55.3-53.4C4.5,156.5,3.5,118.8,19,81.8c14.2-34,40.5-52.6,77.1-56.1c16.5-1.6,33,0.3,48.7,5.9
		c27.7,9.8,44.9,29.5,52.5,57.7c0.7,2.6,1.3,5.3,1.7,7.9c0.5,3.4-0.7,4.8-4.1,4.8c-12.4,0-24.8,0-37.2,0c-3,0-4.2-0.9-5.4-3.9
		c-1.7-4-3.1-8.2-5.1-12c-7.2-13.9-18.9-20.8-34.3-21.6c-7.3-0.4-14.4,0.1-21.4,2.4c-11.6,3.8-19.6,11.7-25.3,22.2
		c-6,11.2-9.2,23.2-10.3,35.7c-1.4,16-0.8,31.9,3.4,47.5c4.4,16.1,13.5,28.5,29.1,35.6c17.9,8.1,39,4.4,51.7-9.1
		c5.3-5.6,8.3-12.4,10.8-19.6c0.6-1.6,1.1-3.3,1.7-4.9c0.6-1.8,1.9-2.9,3.9-2.9c13.8,0,27.7,0.1,41.5,0.1
		C198,171.7,198.2,171.8,198.7,172z"/>
</g>
</svg>
