<?xml version="1.0" encoding="utf-8"?>
<!-- Generator: Adobe Illustrator 24.3.0, SVG Export Plug-In . SVG Version: 6.00 Build 0)  -->
<svg version="1.1" id="Layer_1" xmlns="http://www.w3.org/2000/svg" xmlns:xlink="http://www.w3.org/1999/xlink" x="0px" y="0px"
	 viewBox="0 0 264.7 326" style="enable-background:new 0 0 264.7 326;" xml:space="preserve">
<g id="Chinese_Yuan">
	<path d="M102.1,210.2c0-11.9,0-21.4,0-32.4c-23.7,0-47.2,0-71.9,0c0-10.3,0-19.1,0-28.9c18.2,0,36.4,0,57.5,0
		C61.3,101.8,36.1,56.8,9.5,9.4c20.5,0,39-0.5,57.4,0.5c3.3,0.2,7.5,5.8,9.3,9.8c18,39.4,35.6,79,53.3,118.5
		c0.5,1.2,1.5,2.2,1.9,2.9c18.8-39.5,38.1-79.1,56.4-119c4.5-9.8,9.8-13.6,20.6-12.8c14.5,1,29.1,0.3,46.6,0.3
		C227.5,56.2,201,101,173.1,148c20.5,0,38.8,0,58,0c0,10,0,18.5,0,28.6c-24.2,0-48.2,0-73.1,0c0,11.5,0,21.3,0,32.6
		c23.8,0,47.8,0,72.9,0c0,10.3,0,19,0,29.4c-24.3,0-48.3,0-73.8,0c0,26.9,0,52.3,0,78.4c-18.7,0-35.8,0-54.4,0c0-26.2,0-51.6,0-78.3
		c-25.1,0-48.6,0-72.9,0c0-9.9,0-18.4,0-28.5C53.4,210.2,77,210.2,102.1,210.2z"/>
</g>
</svg>
