<?xml version="1.0" encoding="utf-8"?>
<!-- Generator: Adobe Illustrator 24.3.0, SVG Export Plug-In . SVG Version: 6.00 Build 0)  -->
<svg version="1.1" id="Layer_1" xmlns="http://www.w3.org/2000/svg" xmlns:xlink="http://www.w3.org/1999/xlink" x="0px" y="0px"
	 viewBox="0 0 254.9 326" style="enable-background:new 0 0 254.9 326;" xml:space="preserve">
<g id="Costa_Rican_Colón">
	<path d="M99.8,317.9c1.8-6.4,3.5-12.4,5.2-18.3c-8.1-2.3-16-4.6-24.1-6.9c-1.1,3.8-2.2,7.7-3.3,11.6c-1.2,4.1-2.3,8.2-3.5,12.2
		c-0.2,0.5-0.8,1.3-1.2,1.3c-8.4,0.1-16.9,0.1-25.6,0.1c0.8-2.8,1.5-5.5,2.2-8.1c2.7-9.6,5.4-19.2,8.2-28.8c0.3-1.1,0.4-1.8-0.7-2.6
		c-21-15.8-34.2-36.9-41.7-61.8c-6.2-20.8-8-42.2-7.3-63.8c0.7-23,5.1-45.3,15.9-65.8c18.8-35.5,47.9-56.9,87.9-63
		c5.6-0.9,11.3-1.2,16.9-1.6c1.4-0.1,2-0.5,2.4-1.9c0.9-3.7,2-7.3,3.1-10.9c0.2-0.5,0.9-1.3,1.5-1.3c8.2-0.1,16.5,0,24.7,0
		c0.1,0,0.2,0.1,0.5,0.2c-1.4,5-2.8,10-4.1,14.8c8,2.2,15.9,4.4,24.1,6.6c0.1-0.3,0.3-0.9,0.5-1.6c1.8-6.2,3.5-12.4,5.2-18.6
		c0.3-1,0.5-1.5,1.8-1.5c8,0.1,16.1,0,24.1,0c0.2,0,0.5,0.1,0.9,0.1c-1.2,4.4-2.4,8.7-3.6,13c-1.9,6.6-3.7,13.3-5.6,19.9
		c-0.4,1.2-0.2,1.9,0.9,2.7c18.8,14.5,30.3,33.9,36.9,56.3c0.1,0.2,0,0.4,0.1,0.8c-11.6,2.7-23.2,5.5-35,8.2
		c-3.4-10.1-7.5-19.8-14-28.8c-17.9,63.6-35.8,126.9-53.7,190.6c3.9-0.6,7.5-1,10.9-1.6c26.8-5.2,44.3-21.4,54.2-46.3
		c2.6-6.6,4.5-13.5,6.8-20.6c11.5,2.9,23.4,5.9,35.5,9c-1,3.4-1.9,6.7-2.9,9.9c-5.7,17.9-14.3,34.3-27.4,48
		c-16.8,17.5-37.2,27.9-61.2,31.1c-7.5,1-15.1,1.1-22.7,1.4c-1.5,0.1-2.1,0.4-2.5,1.9c-1.1,4.2-2.3,8.4-3.6,12.6
		c-0.2,0.6-0.9,1.4-1.4,1.4C116.9,317.9,108.5,317.9,99.8,317.9z M121.8,53.5c-2.3,0.3-4.2,0.6-6.1,0.9
		c-20.1,3.5-36.8,12.8-49.2,29.2c-8.4,11.2-14,23.7-17.1,37.3c-6.1,25.9-5.8,52-0.5,78c3.1,15.2,8.8,29.4,18.2,42
		c0.4,0.5,0.8,1,1.4,1.8C86.3,179.5,104,116.7,121.8,53.5z M113.4,269.6c0.2-0.7,0.4-1.3,0.6-1.9c14.5-51.4,29-102.9,43.5-154.3
		c4.7-16.8,9.5-33.7,14.2-50.5c0.2-0.8,0.6-1.6-0.6-2.2c-7.2-3.7-14.8-5.9-22.9-6.9c-0.2,0.8-0.5,1.5-0.7,2.2
		c-16.5,58.4-32.9,116.7-49.4,175.1c-2.7,9.5-5.3,18.9-8,28.4c-0.3,0.9-0.6,1.6,0.6,2.2C97.9,265.6,105.3,268.2,113.4,269.6z"/>
</g>
</svg>
