<?xml version="1.0" encoding="utf-8"?>
<!-- Generator: Adobe Illustrator 24.3.0, SVG Export Plug-In . SVG Version: 6.00 Build 0)  -->
<svg version="1.1" id="Layer_1" xmlns="http://www.w3.org/2000/svg" xmlns:xlink="http://www.w3.org/1999/xlink" x="0px" y="0px"
	 viewBox="0 0 347.8 325" style="enable-background:new 0 0 347.8 325;" xml:space="preserve">
<g>
	<path d="M337.5,84h-0.2l0-28.2H173.5L129.6,12H10.3c1.5,1.5,0,301.1,0,301.1l327,0l0-74.4h0.2V84z M123.6,26.5L153,55.9H25.5
		c0-12.8-0.1-22.3-0.2-29.4H123.6z M322.8,298.5l-297.9,0c0.1-25.5,0.4-80.7,0.5-135.4c0.1-38.9,0.1-70.8,0.1-95l139.7,0l2.3,2.3h6
		h149.3l0,13.6h0v154.6h0.1L322.8,298.5z"/>
	<path d="M172.6,76.9c-59.5,0-107.7,48.2-107.7,107.7c0,59.5,48.2,107.7,107.7,107.7c59.5,0,107.7-48.2,107.7-107.7
		S232.1,76.9,172.6,76.9z M239.4,251.3c-17.8,17.8-41.5,27.6-66.7,27.6c-25.2,0-48.9-9.8-66.7-27.6c-17.8-17.8-27.6-41.5-27.6-66.7
		c0-25.2,9.8-48.9,27.6-66.7c17.8-17.8,41.5-27.6,66.7-27.6c25.2,0,48.9,9.8,66.7,27.6c17.8,17.8,27.6,41.5,27.6,66.7
		S257.2,233.5,239.4,251.3z"/>
	<path d="M173.1,121.1c-35.2,0-63.7,28.3-63.7,63.1c0,34.9,28.5,63.1,63.7,63.1c35.2,0,63.7-28.3,63.7-63.1
		C236.8,149.4,208.3,121.1,173.1,121.1z M212.1,197.9c-6,0-25.3,0-25.3,0l0,18.5c0,1.8,0,3.6,0.1,5.4c0.1,1.7-0.2,5.7-4.2,5.7
		l-18.4,0c-1.5,0-3-0.5-4.1-1.5c-0.8-0.7-1.5-1.8-1.5-3.3l0-24.8l-23.4,0c0,0-5.4,0.2-5.4-5.4c0-5.6,0-16.4,0-16.4s-0.5-6.2,5-6
		c5.4,0.2,24.2,0.2,23.9,0.5l0-24.7c0,0-0.2-4.3,4.2-4.3c4.3,0,19.7,0,19.7,0s4.7,0,4.5,4.5c-0.2,4.5,0,23.9,0,23.9l22.5,0
		c0.9,0,1.9,0.1,2.8,0.4c1.5,0.5,3.5,1.6,3.7,4.1c0.3,3,0.2,11.3,0.1,15.7c0,1.4,0.1,2.8,0.2,4.2
		C216.6,195.7,216.2,197.9,212.1,197.9z"/>
</g>
</svg>
