<?xml version="1.0" encoding="utf-8"?>
<!-- Generator: Adobe Illustrator 24.3.0, SVG Export Plug-In . SVG Version: 6.00 Build 0)  -->
<svg version="1.1" id="Layer_1" xmlns="http://www.w3.org/2000/svg" xmlns:xlink="http://www.w3.org/1999/xlink" x="0px" y="0px"
	 viewBox="0 0 376 306.6" style="enable-background:new 0 0 376 306.6;" xml:space="preserve">
<g>
	<path d="M200,21.5v124c0,0-32.5-53-84.2-39.8s-63.9,52.8-69,77.1l-36.5,11.2l8.1,17.3l27.4-8.1c0,0,0,15.2,4.1,25.4l-21.3,8.1
		l7.1,17.3l21.3-8.1c0,0,24.4,50.7,78.1,47.7c0,0,41.6-1.7,65-43v32.8l36.5-11.2V12.5L200,21.5z M170.5,251
		c-8,3.9-18.1,6.9-29.8,6.2c-9.4-0.6-18.4-3.8-26.4-8.7c-5.8-3.6-12.7-8.8-17.7-15.8l52.8-18.3l-11.2-14.2l-50.7,17.3
		c0,0-4.1-16.2-2-27.4l48.7-15.2l-10.7-14.7l-32,9.7c0,0,14.1-26.9,46.1-30.7c32-3.8,51.3,19.6,51.3,19.6s22.1,23.4,13,55.1
		C197.2,229.9,185.6,243.5,170.5,251z"/>
	<polygon points="365.7,62 322.2,62 322.2,18.5 296.5,18.5 296.5,62 253,62 253,87.7 296.5,87.7 296.5,131.2 322.2,131.2 
		322.2,87.7 365.7,87.7 	"/>
</g>
</svg>
