<?xml version="1.0" encoding="utf-8"?>
<!-- Generator: Adobe Illustrator 24.3.0, SVG Export Plug-In . SVG Version: 6.00 Build 0)  -->
<svg version="1.1" id="Layer_1" xmlns="http://www.w3.org/2000/svg" xmlns:xlink="http://www.w3.org/1999/xlink" x="0px" y="0px"
	 viewBox="0 0 323.23 325" style="enable-background:new 0 0 323.23 325;" xml:space="preserve">
<g>
	<path d="M161.59,315.27c-84.47,0-153.19-68.72-153.19-153.19C8.41,77.62,77.13,8.9,161.59,8.9s153.19,68.72,153.19,153.19
		C314.78,246.55,246.06,315.27,161.59,315.27z M161.59,34.4C91.19,34.4,33.9,91.68,33.9,162.08s57.28,127.69,127.69,127.69
		s127.69-57.28,127.69-127.69S232,34.4,161.59,34.4z"/>
	<path d="M161.59,9.4c40.78,0,79.13,15.88,107.97,44.72s44.72,67.18,44.72,107.97s-15.88,79.13-44.72,107.97
		c-28.84,28.84-67.18,44.72-107.97,44.72s-79.13-15.88-107.97-44.72S8.91,202.87,8.91,162.08S24.79,82.96,53.63,54.12
		S120.81,9.4,161.59,9.4 M161.59,290.27c70.68,0,128.19-57.51,128.19-128.19S232.28,33.9,161.59,33.9S33.4,91.4,33.4,162.08
		S90.91,290.27,161.59,290.27 M161.59,8.4C76.71,8.4,7.91,77.21,7.91,162.08s68.81,153.69,153.69,153.69s153.69-68.81,153.69-153.69
		S246.47,8.4,161.59,8.4L161.59,8.4z M161.59,289.27c-70.24,0-127.19-56.94-127.19-127.19S91.35,34.9,161.59,34.9
		s127.19,56.94,127.19,127.19S231.84,289.27,161.59,289.27L161.59,289.27z"/>
</g>
<path d="M92.61,127.95c-1.69-1.68-3.06-3.66-3.94-5.87c-1.18-2.96-1.75-6.87,1.17-10.08c5.5-6.05,18.41-18.96,18.41-18.96
	s4.81-5.21,12.89-2.28c2.3,0.83,4.36,2.22,6.09,3.95l34.74,34.6L192,99.41c2.08-2.07,4.04-4.24,6-6.42
	c1.67-1.86,5.02-4.43,10.25-3.38c2.73,0.55,5.19,2.01,7.12,4.02l16.3,16.97c2.19,2.29,3.56,5.28,3.67,8.45
	c0.09,2.52-0.59,5.37-3.15,7.78c-1.68,1.58-3.4,3.12-5.04,4.75l-31.52,31.28l33.76,34.29c0.65,0.66,1.32,1.31,1.98,1.95
	c1.98,1.92,8.04,8.98,0.8,17.62c-5.41,6.45-10.92,11.05-14.23,13.55c-1.64,1.24-3.18,2.58-4.71,3.94
	c-2.76,2.46-8.84,5.84-16.78-1.76c-10.99-10.52-34.48-34.97-34.48-34.97l-35.15,34.27c-0.33,0.32-0.66,0.65-0.99,0.98
	c-1.52,1.53-9.31,8.4-18.42-0.28c-10.17-9.69-17.86-18.21-17.86-18.21s-5.08-4.62,1.27-13.64c0.94-1.34,2.03-2.57,3.2-3.73l34-33.62
	L92.61,127.95z"/>
</svg>
