<?xml version="1.0" encoding="utf-8"?>
<!-- Generator: Adobe Illustrator 24.3.0, SVG Export Plug-In . SVG Version: 6.00 Build 0)  -->
<svg version="1.1" id="Layer_1" xmlns="http://www.w3.org/2000/svg" xmlns:xlink="http://www.w3.org/1999/xlink" x="0px" y="0px"
	 viewBox="0 0 376 325" style="enable-background:new 0 0 376 325;" xml:space="preserve">
<path d="M288.77,106h-35.74H74.25c-3.27,0-6.54-0.25-9.74-0.91C34.24,98.88,36,69,36,69l-14-2.7c0,0-4,146.7,0,192.7
	s44.64,46,44.64,46H312c21.58,0,31.6-15.02,36.2-27.54c2.6-7.07,3.8-14.57,3.8-22.11V150C352,97.23,288.77,106,288.77,106z
	 M317,250.89h-82.98c-11.84,0-22.42-7.55-26.08-18.81c-3.08-9.47-5.35-21.69-3.33-34.63c2.5-15.98,16.28-27.75,32.46-27.75H317
	V250.89z"/>
<circle cx="239.5" cy="212.5" r="16.5"/>
<path d="M339,106V66.3c0,0,1-30.11-35-33.7L84,33c0,0-41.96-3.4-46.98,33.3S74.25,106,74.25,106H21.11c0,0-0.11-47,5.89-59
	s25-29,60-28s203.3-0.04,203.3-0.04s30.18-2.11,48.7,13.13C362,51,352,106,352,106H339z"/>
<rect x="70" y="55" width="241" height="11"/>
<rect x="70" y="76" width="173" height="17"/>
<rect x="282" y="187.83" width="19" height="46.47"/>
</svg>
