<?xml version="1.0" encoding="utf-8"?>
<!-- Generator: Adobe Illustrator 24.3.0, SVG Export Plug-In . SVG Version: 6.00 Build 0)  -->
<svg version="1.1" id="Layer_1" xmlns="http://www.w3.org/2000/svg" xmlns:xlink="http://www.w3.org/1999/xlink" x="0px" y="0px"
	 viewBox="0 0 342.8 325" style="enable-background:new 0 0 342.8 325;" xml:space="preserve">
<path d="M34.1,82.6c0,0-14.6-7.9,2.1-16.7c15.2-8,103.1-46.5,118.5-53.2c1.1-0.5,2.3-1,3.4-1.6c3-1.4,11.9-4.8,22.7-0.2
	c12.2,5.2,105,46.5,120.4,53.4c2.5,1.1,4.8,2.7,6.6,4.7c3.4,3.9,6,10.1-4.9,16.1c-15.4,8.4-94.8,49.4-113.4,58.9
	c-1.9,1-3.7,2.1-5.5,3.2c-3.8,2.4-14.1,6.8-28.6-0.8L34.1,82.6z"/>
<path d="M187.5,175.2c0,0-1.2-6.8,9.7-11.5c10.1-4.4,104.2-52.7,117.6-59.6c1.8-0.9,3.8-1.5,5.9-1.7c3.3-0.2,7.5,0.7,9.4,6
	c0.4,1.3,0.6,2.6,0.7,4l2.2,113.6c0.1,3.6,0.3,7.1,0.4,10.7c0.2,3.5-0.5,10-7.1,13.4l-118.8,59.8c-0.8,0.4-1.6,0.8-2.4,1.3
	c-2.8,1.5-12.1,5.6-15.8-4.1c-0.7-1.8-1-3.8-1-5.7L187.5,175.2z"/>
<path d="M153.9,176.3c0,0,1.2-6.8-9.7-11.5C134.1,160.3,40,112,26.6,105.1c-1.8-0.9-3.8-1.5-5.9-1.7c-3.3-0.2-7.5,0.7-9.4,6
	c-0.4,1.3-0.6,2.6-0.7,4L8.5,227.1c-0.1,3.6-0.3,7.1-0.4,10.7c-0.2,3.5,0.5,10,7.1,13.4L134,310.9c0.8,0.4,1.6,0.8,2.4,1.3
	c2.8,1.5,12.1,5.6,15.8-4.1c0.7-1.8,1-3.8,1-5.7L153.9,176.3z"/>
</svg>
