<?xml version="1.0" encoding="utf-8"?>
<!-- Generator: Adobe Illustrator 24.3.0, SVG Export Plug-In . SVG Version: 6.00 Build 0)  -->
<svg version="1.1" id="Layer_1" xmlns="http://www.w3.org/2000/svg" xmlns:xlink="http://www.w3.org/1999/xlink" x="0px" y="0px"
	 viewBox="0 0 256.69 325" style="enable-background:new 0 0 256.69 325;" xml:space="preserve">
<path d="M215.23,107.95c-0.54,0.01-1.08,0.02-1.62,0.02l-169.77-1.21c-6.32,0-8.56,4.53-9.34,7.93c-0.37,1.6-0.46,3.25-0.33,4.88
	c1.07,13.91,11.01,143.45,13.03,170.02c1.79,23.55,19.04,24.57,24.56,24.28c2.36-0.12,4.72-0.16,7.08-0.16h106.62
	c22.54,0,25.11-18.1,25.18-25.85c0.03-3.66,0.15-7.32,0.44-10.98c2.38-30.34,11.26-142.81,12.84-155.47
	C225.53,108.58,217.31,107.92,215.23,107.95z M84.4,298.25l-0.27,0.02c-4.87,0.31-9.1-3.42-9.41-8.29l-9.81-154.1
	c-0.31-4.87,3.42-9.1,8.29-9.41l0.27-0.02c4.87-0.31,9.1,3.42,9.41,8.29l9.81,154.1C92.99,293.7,89.26,297.94,84.4,298.25z
	 M137.9,286.37c0,4.88-3.99,8.87-8.87,8.87h-0.28c-4.88,0-8.87-3.99-8.87-8.87l0-154.41c0-4.88,3.99-8.87,8.87-8.87h0.28
	c4.88,0,8.87,3.99,8.87,8.87L137.9,286.37z M192.07,133.53l-8.96,154.15c-0.28,4.87-4.5,8.62-9.37,8.34l-0.27-0.02
	c-4.87-0.28-8.62-4.5-8.34-9.37l8.96-154.15c0.28-4.87,4.5-8.62,9.37-8.34l0.27,0.02C188.6,124.45,192.35,128.66,192.07,133.53z"/>
<path d="M13.16,71.89c1.28-3.46,2.28-7.01,3.21-10.58c0.81-3.12,3.66-7.87,13.43-8.27c14.65-0.61,197.17,0,197.17,0
	s11.9-0.92,15.26,10.99c2.4,8.52,3.87,12.66,4.51,14.33c0.37,0.96,0.6,1.96,0.64,2.99c0.1,3.09-0.94,8.54-9.72,8.32
	c-11.18-0.28-182.16-0.04-210.81,0c-1.93,0-3.86,0.07-5.8,0.15c-4.21,0.17-14.32-0.51-10.17-11.75L13.16,71.89z"/>
<path d="M84.74,33.81v-8.62c0-3.28,0.69-6.54,2.16-9.47c1.95-3.9,5.58-8.04,12.19-8.04c12.51,0,57.08,0,57.08,0
	s16.48-0.11,16.79,15.45c0.31,15.57,0,10.68,0,10.68l-17.4,0.73l0.31-9.88h-52.19l-0.31,9.88L84.74,33.81z"/>
</svg>
