<?xml version="1.0" encoding="utf-8"?>
<!-- Generator: Adobe Illustrator 24.3.0, SVG Export Plug-In . SVG Version: 6.00 Build 0)  -->
<svg version="1.1" id="Layer_1" xmlns="http://www.w3.org/2000/svg" xmlns:xlink="http://www.w3.org/1999/xlink" x="0px" y="0px"
	 viewBox="0 0 589 589" style="enable-background:new 0 0 589 589;" xml:space="preserve">
<style type="text/css">
	.st0{fill:#FFFFFF;}
</style>
<image style="overflow:visible;" width="512" height="512" xlink:href="C:\Users\suppo\Downloads\9149097.png"  transform="matrix(1.0109 0 0 1.0109 32.4932 43.5068)">
</image>
<path d="M115.9,218.5h352.1l-13.1,270.6c-0.3,6.8-2,13.6-5,19.7c-4.8,9.6-14.3,20.2-32.5,20.2H170.8c-2.5,0-5,0.1-7.6,0.1
	c-7.5,0.2-33.4-1.6-34.6-35.3L115.9,218.5z"/>
<path class="st0" d="M143.4,241.7h297.9L430,474.1c0,0,0,31-20.4,31c-20.4,0-240.1,0-240.1,0s-18.3-0.7-18.3-22.5
	S143.4,241.7,143.4,241.7z"/>
<path d="M237,433.3h-5.5c-8.2,0-14.8-6.7-14.8-14.8V315c0-8.2,6.7-14.8,14.8-14.8h5.5c8.2,0,14.8,6.7,14.8,14.8v103.4
	C251.9,426.6,245.2,433.3,237,433.3z"/>
<path d="M349.7,432.6h-5.5c-8.2,0-14.8-6.7-14.8-14.8V314.3c0-8.2,6.7-14.8,14.8-14.8h5.5c8.2,0,14.8,6.7,14.8,14.8v103.4
	C364.5,425.9,357.9,432.6,349.7,432.6z"/>
<path d="M495.1,154c-3.7-1.6-7.8-2.4-11.9-2.4h-49c-0.8,0-1.6-0.4-2.1-1.1L421,133.2c-8.9-14-17.8-28-25.9-42.5
	c-4.4-7.8-15.9-20.6-44.3-19.5l-118.5-1.5c-1.1,0-2.2,0-3.4-0.1c-5.1-0.1-31.8,0.2-43.6,23c-11.7,22.6-31.9,52.7-36,58.7
	c-0.5,0.7-1.2,1.1-2,1.1H96.5c0,0-21.4-0.7-20,22.4c0,0.8,0,1.6,0.1,2.5c0.1,3.8,2.6,16.7,29.9,17.3c32.2,0.8,372.3,0,372.3,0
	s23.7,0.8,27.6-19.9C508.6,162.6,501.4,156.8,495.1,154z M197.6,153.2l23-39.8h140.2l23,39.8H197.6z"/>
</svg>
