<?xml version="1.0" encoding="utf-8"?>
<!-- Generator: Adobe Illustrator 24.3.0, SVG Export Plug-In . SVG Version: 6.00 Build 0)  -->
<svg version="1.1" id="Layer_1" xmlns="http://www.w3.org/2000/svg" xmlns:xlink="http://www.w3.org/1999/xlink" x="0px" y="0px"
	 viewBox="0 0 557.34 589" style="enable-background:new 0 0 557.34 589;" xml:space="preserve">
<path d="M195.66,463.48L195.66,463.48c-12.24,0-22.26-10.02-22.26-22.26V226.51c0-12.24,10.02-22.26,22.26-22.26h0
	c12.24,0,22.26,10.02,22.26,22.26v214.71C217.91,453.46,207.9,463.48,195.66,463.48z"/>
<path d="M279.01,463.48L279.01,463.48c-12.24,0-22.26-10.02-22.26-22.26V226.51c0-12.24,10.02-22.26,22.26-22.26h0
	c12.24,0,22.26,10.02,22.26,22.26v214.71C301.26,453.46,291.25,463.48,279.01,463.48z"/>
<path d="M361.05,466.09L361.05,466.09c-12.24,0-22.26-10.02-22.26-22.26V229.13c0-12.24,10.02-22.26,22.26-22.26h0
	c12.24,0,22.26,10.02,22.26,22.26v214.71C383.31,456.08,373.29,466.09,361.05,466.09z"/>
<path d="M535.61,98.98c-4.27-2.62-9.26-3.82-14.27-3.79l-140.21,0.84c10.47-82.92-55.86-82.04-55.86-82.04s-22.69-0.87-90.77-0.87
	s-57.6,82.92-57.6,82.92l-68.58,0c-12.9,0-25.79-0.19-38.68-0.71c-20.17-0.82-55.67-0.43-56.83,18.17
	c-0.5,7.98,2.48,13.29,6.04,16.75c4.06,3.94,9.61,5.94,15.27,5.94h33.68c0,0,18.33,253.98,22.69,346.5
	c4.36,92.52,87.28,92.52,87.28,92.52l220.07-3.4c7.02-0.11,14.03-1.15,20.67-3.46c49.44-17.17,51.64-83.91,51.64-83.91l20.07-345.63
	l32.2-0.72c8.49-0.19,16.5-4.74,20.34-12.31c1.47-2.9,2.45-6.4,2.45-10.54C545.21,106.94,540.41,101.92,535.61,98.98z M234.49,55.3
	c0,0,77.97,0,93.1,0.58c11.89,0.46,13,9.54,12.93,13.41c-0.05,2.6-0.13,5.2-0.13,7.8v17.2l-122.19,0l-0.58-22.69
	C216.46,54.72,234.49,55.3,234.49,55.3z M427.09,491.11c0,0-1.26,25.22-21.29,36.36c-5.39,3-11.54,4.36-17.71,4.41l-214.1,1.7
	c0,0-40.15,2.91-42.48-43.06l-19.78-352.61l336.9,0L427.09,491.11z"/>
</svg>
