<?xml version="1.0" encoding="utf-8"?>
<!-- Generator: Adobe Illustrator 24.3.0, SVG Export Plug-In . SVG Version: 6.00 Build 0)  -->
<svg version="1.1" id="Layer_1" xmlns="http://www.w3.org/2000/svg" xmlns:xlink="http://www.w3.org/1999/xlink" x="0px" y="0px"
	 viewBox="0 0 376 258" style="enable-background:new 0 0 376 258;" xml:space="preserve">
<g id="Deutsche_Mark">
	<path d="M175.1,7c12.4,0,24-0.3,35.6,0.2c2.2,0.1,5.5,3,6.2,5.3c10.2,32.5,20,65.2,30.1,97.8c7.6,24.6,15.6,49.2,24.2,76.2
		c5-15.9,9.4-29.6,13.7-43.3c13.3-42.8,26.7-85.6,39.8-128.6c1.8-5.7,4.2-8.2,10.5-7.9C345.5,7.4,355.9,7,367.2,7
		c0,81.5,0,162.2,0,243.4c-11.8,0-23,0-34.9,0c0-50.3,0-100.1,0-149.9c-0.6-0.2-1.3-0.3-1.9-0.5c-1.8,5.6-3.7,11.2-5.4,16.8
		c-12.7,42.4-25.4,84.7-37.9,127.1c-1.5,5-3.6,7-9.1,7.1c-20.3,0.3-20.3,0.5-26-18.7c-11.7-39.6-23.4-79.3-35.2-118.9
		c-1.2-4.2-3-8.2-5.8-12.1c0,49.3,0,98.6,0,148.7c-12.3,0-23.8,0-35.9,0C175.1,169.5,175.1,89.1,175.1,7z"/>
	<path d="M142.6,46.4c-13.6-21-32.3-35.8-57.3-37.9c-25-2.1-50.4-0.5-76.4-0.5c0,80.5,0,161.2,0,242.9c18.9,0,37.2,0,55.4,0
		c45.1,0,75.3-20.2,89.7-63c5.6-16.8,8.2-35,9.3-52.7C165,104,160.1,73.5,142.6,46.4z M116.8,179.5c-8.6,19.4-24.8,28.9-46.1,29.2
		c-8.4,0.1-16.9,0-25.8,0c0-53.6,0-106.2,0-160.3C57.6,49,70,48.5,82,50.4c15.7,2.5,27.3,12.2,33.7,26.5
		C131.1,110.8,131.8,145.4,116.8,179.5z"/>
</g>
</svg>
