<?xml version="1.0" encoding="utf-8"?>
<!-- Generator: Adobe Illustrator 24.3.0, SVG Export Plug-In . SVG Version: 6.00 Build 0)  -->
<svg version="1.1" id="Layer_1" xmlns="http://www.w3.org/2000/svg" xmlns:xlink="http://www.w3.org/1999/xlink" x="0px" y="0px"
	 viewBox="0 0 314.3 326" style="enable-background:new 0 0 314.3 326;" xml:space="preserve">
<g id="Danish_Krone">
	<path d="M12.1,318.3c-2.7-1.6-3.4-4.2-3.4-7.2c0-98.8,0-197.5,0-296.3c0-5.5,1.6-7.1,7-7.1c8.4,0,16.8,0,25.2,0c5.4,0,7,1.6,7,7.1
		c0,56.4,0,112.8,0,169.2c0,1.2,0,2.4,0,4.5c1.2-1.5,2-2.4,2.8-3.4c22.4-28.4,44.8-56.8,67.1-85.3c2-2.5,4.2-3.7,7.4-3.7
		c10.9,0.1,21.8,0.1,32.8,0c2.5,0,4.7,0.4,5.9,2.8c1.2,2.5,0,4.4-1.5,6.3c-27.1,33.9-54.3,67.9-81.4,101.8c-0.6,0.8-1.2,1.6-2,2.6
		c0.9,1,1.7,2,2.6,2.9c29.2,32,58.5,64.1,87.7,96.1c3.7,4,3.3,6.7-1.2,9.5c-12.3,0-24.7,0-37,0c-1.5-1.3-3.2-2.4-4.6-3.9
		c-24.1-25-48.2-50.1-72.2-75.2c-1.9-1.9-3.7-2.6-6.2-1.5c0,1.1,0,2.2,0,3.3c0,23.4,0,46.9,0,70.3c0,3.1-0.8,5.5-3.7,7
		C33.6,318.3,22.9,318.3,12.1,318.3z"/>
	<path d="M195.4,318.3c-0.5-1.2-1.3-2.5-1.3-3.7c-0.1-9.6-0.1-19.2-0.1-28.8c0-61.5,0-122.9,0-184.4c0-5,0-5,5.1-5
		c9.5,0,19,0,28.5,0c4.2,0,4.4,0.2,4.4,4.5c0,7.6,0,15.2,0,22.7c0,1,0.1,1.9,0.1,3c3.4-3.6,6.6-7.1,10-10.3
		c11.4-10.5,25.3-16.2,40.4-18.7c6.4-1.1,13.1-1.3,19.6-1.9c2.5-0.2,3.4,0.9,3.4,3.3c-0.1,10.3-0.1,20.6,0,30.9
		c0,2.8-1.1,3.7-3.8,3.8c-7.3,0.2-14.7-0.2-21.7,1.2c-21,4.3-32.9,18.4-39.1,38.1c-3,9.5-3.9,19.4-3.9,29.3c0,37.1,0,74.2,0,111.3
		c0,1.5-0.6,3.1-1,4.6C222.5,318.3,208.9,318.3,195.4,318.3z"/>
</g>
</svg>
