<?xml version="1.0" encoding="utf-8"?>
<!-- Generator: Adobe Illustrator 24.3.0, SVG Export Plug-In . SVG Version: 6.00 Build 0)  -->
<svg version="1.1" id="Layer_1" xmlns="http://www.w3.org/2000/svg" xmlns:xlink="http://www.w3.org/1999/xlink" x="0px" y="0px"
	 viewBox="0 0 334.64 325" style="enable-background:new 0 0 334.64 325;" xml:space="preserve">
<path d="M181.01,34.21l-131.28,0c-6.28,0-12.53,1.17-18.23,3.69c-8.86,3.91-18.71,11.87-18.71,27.95
	c0,29.23-0.84,211.84-0.84,211.84s-1.25,34.84,37.99,35.64l197.03-1.2c0,0,32.98,0.8,32.98-32.84c0-29.26,0.32-89.14,0.4-104.22
	c0.02-3.51-1.28-6.96-3.84-9.46c-1.76-1.72-4.19-3.17-7.39-3.26c-4.28-0.12-8.18,2.46-9.82,6.25c-1.05,2.43-1.89,5.95-1.89,10.98
	c0,11.16,0.3,71.42,0.39,89.91c0.01,2.67,0.23,5.33,0.53,7.99c0.45,3.95-0.09,11.19-9.69,12.62c-11.93,1.79-160.98,0.7-192.76,0.45
	c-2.88-0.02-5.75,0.27-8.59,0.71c-3.81,0.59-10.58-0.37-12.41-13.83c-0.28-2.05-0.38-4.12-0.37-6.19L35.29,82.3
	c0.02-3.83-0.25-7.65-0.65-11.46c-0.55-5.33,0.73-15.01,17.38-15.01c21.48,0,115.69-0.35,127.72-0.4c0.64,0,1.28,0.03,1.92,0.07
	c1.67,0.1,6.1-0.2,8.21-5.78c1.82-4.81,0.61-10.3-3.36-13.71C184.97,34.68,183.1,33.78,181.01,34.21z"/>
<path d="M315.84,28.61c-8.7-11.35-19.35-15.11-28.82-15.65c-11.68-0.66-23.06,3.76-31.37,11.67L102.11,170.77l-21.29,61.67
	c0,0-3.09,7.24,0.69,11.57c0.72,0.82,1.67,1.42,2.69,1.85c2.23,0.93,7.12,2.45,12.9,0.99c7.04-1.78,48.6-15.54,57.86-18.61
	c0.91-0.3,1.83-0.59,2.75-0.87c2.53-0.78,9.7-3.34,14.11-8.55c4.88-5.76,116.76-112.88,139.26-134.4
	c6.01-5.75,10.44-12.89,12.5-20.79C326.06,54.15,325.84,41.66,315.84,28.61z M302.54,57.39c-1,3.93-3.21,7.47-6.18,10.34
	L151.79,207.21l-43.41,14.82l14.19-41.65L267.42,41.02c0,0,13.78-14.42,28.38-2.4C303.51,44.96,303.9,52.08,302.54,57.39z"/>
</svg>
