<?xml version="1.0" encoding="utf-8"?>
<!-- Generator: Adobe Illustrator 24.3.0, SVG Export Plug-In . SVG Version: 6.00 Build 0)  -->
<svg version="1.1" id="Layer_1" xmlns="http://www.w3.org/2000/svg" xmlns:xlink="http://www.w3.org/1999/xlink" x="0px" y="0px"
	 viewBox="0 0 329.9 326" style="enable-background:new 0 0 329.9 326;" xml:space="preserve">
<g id="Euro">
	<path d="M297.4,100.1c-29.9-30.5-64.1-43-105-31.9c-26.4,7.2-49.7,27.2-60.6,52.6h152.5c-5.2,11.5-8.7,20.9-13.8,29.3
		c-1.5,2.5-7.6,3-11.5,3c-41.3,0.2-82.7,0.1-124,0.1c-14.9,0-15,0.1-12.9,16.7h136.1c-4.9,10.9-8.4,20.4-13.5,28.9
		c-1.5,2.6-7.4,3.5-11.3,3.5c-29.5,0.3-59.1,0.2-88.6,0.2c-4.2,0-8.5,0-14.4,0c9.7,24.3,26.3,39.8,47.8,50
		c21.3,10.1,43.6,11.9,66.7,6.2c23.5-5.8,40.7-21.2,60.1-38.8c0,24.9,0.2,47.1-0.3,69.2c-0.1,2.6-3.6,5.8-6.3,7.5
		C216.9,345.9,105.8,306,75,215.7c-3.6-10.6-8.1-14.7-18.9-13.4c-6.8,0.9-13.9,0.2-21.1,0.2c6.1-26.4,9.9-30.7,29.3-32.8v-15.9H9.5
		c5-10.9,8.7-20.2,13.5-28.9c1.2-2.2,6-3.1,9.3-3.2c12.9-0.5,25.9-0.6,38.7,0.6C86.5,71,118.3,34.9,167.9,17.6
		c53.3-18.6,103-9.9,148,24.2c2.5,1.9,5.2,7.1,4.3,9.2C313.3,67.2,305.5,83,297.4,100.1z"/>
</g>
</svg>
