<?xml version="1.0" encoding="utf-8"?>
<!-- Generator: Adobe Illustrator 24.3.0, SVG Export Plug-In . SVG Version: 6.00 Build 0)  -->
<svg version="1.1" id="Layer_1" xmlns="http://www.w3.org/2000/svg" xmlns:xlink="http://www.w3.org/1999/xlink" x="0px" y="0px"
	 viewBox="0 0 318.8 325" style="enable-background:new 0 0 318.8 325;" xml:space="preserve">
<style type="text/css">
	.st0{fill:#FF0003;}
</style>
<rect x="59.9" y="184.6" width="34.8" height="17.2"/>
<rect x="59" y="223.8" width="34.8" height="17.2"/>
<g>
	<rect x="121.1" y="144.8" class="st0" width="34.1" height="16.4"/>
	<path d="M154.8,145.2v15.7h-33.3v-15.7H154.8 M155.5,144.5h-34.8v17.2h34.8V144.5L155.5,144.5z"/>
</g>
<rect x="119.8" y="185" width="34.8" height="17.2"/>
<rect x="119" y="224.2" width="34.8" height="17.2"/>
<rect x="181.1" y="144.5" width="34.8" height="17.2"/>
<g>
	<path d="M239.7,176.1c-37.4,0-67.7,30.3-67.7,67.7c0,37.4,30.3,67.7,67.8,67.7s67.7-30.3,67.7-67.7
		C307.4,206.4,277.1,176.1,239.7,176.1z M238.9,294.8c-27.8,0-50.4-22.7-50.4-50.8c0-28.1,22.6-50.8,50.4-50.8
		c27.8,0,50.4,22.7,50.4,50.8S266.8,294.8,238.9,294.8z"/>
	<path d="M222.3,218c0.1-1.6,0.6-4.8,3.9-6.9c2.7-1.7,6.1-1.9,8.8-0.3c2.3,1.4,4.6,4.1,4.4,9.8l0,23h23.5c1.7,0,3.4,0.3,5,0.9
		c2.7,1,5.8,3,5.6,7.2c-0.1,3.4-2.3,5.7-4.5,7c-2.2,1.4-4.8,2-7.4,2h-29.1c-2.6,0-5.1-0.8-7.1-2.5c-1.6-1.3-3.1-3.3-3.3-6.1
		c0-0.3,0-0.6,0-0.9c0-3.5-0.1-26.9,0.2-31.4C222.3,219.2,222.3,218.6,222.3,218z"/>
</g>
<path d="M186.1,264.8H39.2c-8.6,0-15.6-7-15.6-15.6c0.1-38.4,0.3-134.6,0.3-133.9h230.3v73.5c4.5,1.1,8.8,2.6,12.8,4.6V66.9
	c0,0,0.4-25.1-25.1-25.1h-20.3V24.4c0-6-4.8-10.8-10.8-10.8h-23.4c-6,0-10.8,4.8-10.8,10.8v17h-75.8V20.4c0-4.7-3.8-8.6-8.6-8.6
	H64.5c-4.7,0-8.6,3.8-8.6,8.6v20.5c0,0-1.8,0.9-1.3,0.4H36.3c-0.7,0-1.5,0-2.2,0c-3.8-0.1-22.3,0.9-23.1,26.9
	c-0.9,29.1,0,181.1,0,181.1s0,28.2,24.7,29.1c16.8,0.6,105.7,0.4,160.9,0.2C192.4,274.5,188.8,269.9,186.1,264.8z M187.3,22.4h24.1
	v40h-24.1V22.4z M66.5,23h24.1v40H66.5V23z M23.6,66.5c0-6,3-9.1,5.9-10.6c1.9-1,4.1-1.5,6.3-1.5h20v7.3c0,1.5,0.2,3,0.8,4.4
	c1.1,2.6,3,4.3,4.9,5.4c2.3,1.4,5,2,7.7,2h19.6c1.3,0,2.6-0.1,3.8-0.5c8.1-2.6,8.1-11.8,8.1-11.8v-6.6h76.2v7.3
	c0,6.1,3.7,9.1,6.9,10.5c2,0.9,4.1,1.2,6.2,1.2h19.1c5.5,0,8.7-2.9,10.5-5.8c1.6-2.5,2.3-5.4,2.3-8.3v-5.1H241
	c7.2,0,10.4,3.5,11.8,6.5c0.8,1.7,1.2,3.6,1.2,5.5v36.5H23.6C24,102.4,23.6,66.5,23.6,66.5z"/>
</svg>
