<?xml version="1.0" encoding="utf-8"?>
<!-- Generator: Adobe Illustrator 24.3.0, SVG Export Plug-In . SVG Version: 6.00 Build 0)  -->
<svg version="1.1" id="Layer_1" xmlns="http://www.w3.org/2000/svg" xmlns:xlink="http://www.w3.org/1999/xlink" x="0px" y="0px"
	 viewBox="0 0 376 325" style="enable-background:new 0 0 376 325;" xml:space="preserve">
<style type="text/css">
	.st0{fill:#666666;}
</style>
<g>
	<path class="st0" d="M330,11.2H46.7c-20.3,0-36.9,16.6-36.9,36.9v229.5c0,20.3,16.6,36.9,36.9,36.9H330c20.3,0,36.9-16.6,36.9-36.9
		V48.1C366.9,27.8,350.3,11.2,330,11.2z M343.9,266.1c0,15.3-12.5,27.8-27.8,27.8H58.3c-15.3,0-27.8-12.5-27.8-27.8v-205
		c0-15.3,12.5-27.8,27.8-27.8H316c15.3,0,27.8,12.5,27.8,27.8V266.1z"/>
	<path class="st0" d="M295.4,161.8v87.5h-215v-87.5H295.4 M299,143H76.7c-8.3,0-15.1,6.8-15.1,15.1V253c0,8.3,6.8,15.1,15.1,15.1
		H299c8.3,0,15.1-6.8,15.1-15.1v-94.9C314.1,149.8,307.4,143,299,143L299,143z"/>
	<path class="st0" d="M109,69.5c1.7,0,3.1,1.4,3.1,3.1v32.1c0,1.7-1.4,3.1-3.1,3.1H75c-1.7,0-3.1-1.4-3.1-3.1V72.6
		c0-1.7,1.4-3.1,3.1-3.1H109 M109,58.2H75c-7.9,0-14.4,6.5-14.4,14.4v32.1c0,7.9,6.5,14.4,14.4,14.4h34c7.9,0,14.4-6.5,14.4-14.4
		V72.6C123.4,64.7,117,58.2,109,58.2L109,58.2z"/>
	<path class="st0" d="M313.5,80.2H141.8c-0.4,0-0.7-0.3-0.7-0.7V57.4c0-0.4,0.3-0.7,0.7-0.7h171.7c0.4,0,0.7,0.3,0.7,0.7v22.2
		C314.1,79.9,313.8,80.2,313.5,80.2z"/>
	<path class="st0" d="M244.9,119.5H140.9c-0.4,0-0.7-0.3-0.7-0.7V96.3c0-0.4,0.3-0.7,0.7-0.7h104.1c0.4,0,0.7,0.3,0.7,0.7v22.6
		C245.6,119.2,245.3,119.5,244.9,119.5z"/>
</g>
</svg>
