<?xml version="1.0" encoding="utf-8"?>
<!-- Generator: Adobe Illustrator 24.3.0, SVG Export Plug-In . SVG Version: 6.00 Build 0)  -->
<svg version="1.1" id="Layer_1" xmlns="http://www.w3.org/2000/svg" xmlns:xlink="http://www.w3.org/1999/xlink" x="0px" y="0px"
	 viewBox="0 0 320.9 325" style="enable-background:new 0 0 320.9 325;" xml:space="preserve">
<style type="text/css">
	.st0{fill:#666666;}
</style>
<g>
	<path class="st0" d="M84.4,81.3H59.7c-0.3,0-0.6-0.3-0.6-0.6V56c0-0.3,0.3-0.6,0.6-0.6h24.7c0.3,0,0.6,0.3,0.6,0.6v24.7
		C85,81,84.7,81.3,84.4,81.3z"/>
	<path class="st0" d="M131.9,81.3l-24.7,0c-0.3,0-0.6-0.3-0.6-0.6V56c0-0.3,0.3-0.6,0.6-0.6h24.7c0.3,0,0.6,0.3,0.6,0.6v24.7
		C132.5,81,132.2,81.3,131.9,81.3z"/>
	<path class="st0" d="M179,81.3h-24.7c-0.3,0-0.6-0.3-0.6-0.6V56c0-0.3,0.3-0.6,0.6-0.6H179c0.3,0,0.6,0.3,0.6,0.6v24.7
		C179.6,81,179.3,81.3,179,81.3z"/>
	<path class="st0" d="M251,187.1H71.8c-0.3,0-0.6-0.3-0.6-0.6v-26.4c0-0.3,0.3-0.6,0.6-0.6H251c0.3,0,0.6,0.3,0.6,0.6v26.4
		C251.7,186.8,251.4,187.1,251,187.1z"/>
	<path class="st0" d="M173.8,251.8H73.1c-0.3,0-0.6-0.3-0.6-0.6v-24.7c0-0.3,0.3-0.6,0.6-0.6h100.7c0.3,0,0.6,0.3,0.6,0.6v24.7
		C174.4,251.6,174.1,251.8,173.8,251.8z"/>
	<path class="st0" d="M261.6,12.7H59.1c-44.5,3.5-47.9,47.9-47.9,47.9c-1.3,0,0.4,199.9,0.4,199.9c2.2,46.6,44,52.2,44,52.2H262
		c48.8-3.9,49.2-48.4,49.2-48.4V64.5C307.8,9.6,261.6,12.7,261.6,12.7z M36.7,64.4C38.3,36.9,63,37.7,63,37.7h198.2
		c25.5,0,25.5,25.5,25.5,25.5V99H37.5c0,1.1-0.7-25.6-0.8-31.9C36.7,66.2,36.7,65.3,36.7,64.4z M287.5,261.8c0,0-0.9,25.5-30.7,25.5
		H68c-5,0-10.1-0.9-14.7-2.8c-7.9-3.2-17.1-10-16.6-24.4c0,0,0-137.3,0-136.4h250.8V261.8z"/>
</g>
</svg>
