<?xml version="1.0" encoding="utf-8"?>
<!-- Generator: Adobe Illustrator 24.3.0, SVG Export Plug-In . SVG Version: 6.00 Build 0)  -->
<svg version="1.1" id="Layer_1" xmlns="http://www.w3.org/2000/svg" xmlns:xlink="http://www.w3.org/1999/xlink" x="0px" y="0px"
	 viewBox="0 0 589 495.6" style="enable-background:new 0 0 589 495.6;" xml:space="preserve">
<path d="M577.7,422.1c-0.8-18.3-1.5-36.6-1.5-55V112.4c0-8.4,0-16.9,0.2-25.3c0.2-8.4-1-27.2-15.8-27.2c-19.2,0-18,18-18,18v353.8
	c-2.4,21.6-24,18-24,18V13.1H13.8c-3-3,0,419.7,0,419.7c0,25.7,12.3,38,23.4,43.9c6.8,3.6,14.5,5.3,22.2,5.3h458.5
	c5.4,0,10.9-0.4,16.2-1.5C574.1,472.3,578.5,440,577.7,422.1z M485.1,456.9h-411c-9.8,0-19.5-3-27.3-9c-4.9-3.8-9-8.8-9-15
	c0-15.6-1.8-392.8,0-391h447.3V456.9z"/>
<rect x="71.3" y="207.4" width="387.4" height="22.8"/>
<rect x="72.5" y="279.4" width="179.9" height="22.8"/>
<rect x="71.3" y="336.9" width="179.9" height="22.8"/>
<rect x="70.1" y="393.3" width="179.9" height="22.8"/>
<path d="M140.3,93.1h-38.9V118h32.5c3,0,5.3,0.7,6.8,2c1.5,1.4,2.2,3.2,2.2,5.4c0,2.3-0.8,4.1-2.3,5.4c-1.5,1.3-3.7,2-6.7,2h-32.5
	V165c0,4.1-0.9,7.1-2.8,9.1c-1.8,2-4.2,3-7.1,3c-2.9,0-5.3-1-7.2-3c-1.8-2-2.8-5-2.8-9v-75c0-2.8,0.4-5.2,1.3-7
	c0.8-1.8,2.2-3.1,4-3.9c1.8-0.8,4.1-1.2,6.9-1.2h46.6c3.1,0,5.5,0.7,7,2.1s2.3,3.2,2.3,5.5c0,2.3-0.8,4.2-2.3,5.6
	S143.5,93.1,140.3,93.1z"/>
<path d="M235.4,93.1h-44.5V117h41c3,0,5.3,0.7,6.8,2c1.5,1.4,2.2,3.1,2.2,5.4c0,2.2-0.7,4-2.2,5.4c-1.5,1.4-3.7,2.1-6.8,2.1h-41
	v27.7h46c3.1,0,5.4,0.7,7,2.2c1.6,1.4,2.4,3.4,2.4,5.8c0,2.3-0.8,4.2-2.4,5.6c-1.6,1.4-3.9,2.2-7,2.2h-53.7c-4.3,0-7.4-1-9.3-2.9
	c-1.9-1.9-2.8-5-2.8-9.2V89.9c0-2.8,0.4-5.2,1.3-7c0.8-1.8,2.2-3.1,4-3.9c1.8-0.8,4.1-1.2,6.9-1.2h52.2c3.1,0,5.5,0.7,7,2.1
	c1.5,1.4,2.3,3.2,2.3,5.5c0,2.3-0.8,4.2-2.3,5.6C240.9,92.4,238.6,93.1,235.4,93.1z"/>
<path d="M333.1,93.1h-44.5V117h41c3,0,5.3,0.7,6.8,2c1.5,1.4,2.2,3.1,2.2,5.4c0,2.2-0.7,4-2.2,5.4c-1.5,1.4-3.7,2.1-6.8,2.1h-41
	v27.7h46c3.1,0,5.4,0.7,7,2.2c1.6,1.4,2.4,3.4,2.4,5.8c0,2.3-0.8,4.2-2.4,5.6c-1.6,1.4-3.9,2.2-7,2.2h-53.7c-4.3,0-7.4-1-9.3-2.9
	c-1.9-1.9-2.8-5-2.8-9.2V89.9c0-2.8,0.4-5.2,1.3-7c0.8-1.8,2.2-3.1,4-3.9c1.8-0.8,4.1-1.2,6.9-1.2h52.2c3.1,0,5.5,0.7,7,2.1
	c1.5,1.4,2.3,3.2,2.3,5.5c0,2.3-0.8,4.2-2.3,5.6C338.6,92.4,336.2,93.1,333.1,93.1z"/>
<path d="M378.8,77.8h25.7c6.7,0,12.4,0.6,17.2,1.9c4.8,1.2,9.1,3.6,13,7c10.2,8.7,15.2,21.9,15.2,39.6c0,5.9-0.5,11.2-1.5,16
	c-1,4.8-2.6,9.2-4.7,13.1c-2.1,3.9-4.9,7.4-8.2,10.4c-2.6,2.4-5.5,4.2-8.6,5.7c-3.1,1.4-6.4,2.4-10,3c-3.6,0.6-7.6,0.9-12.1,0.9
	h-25.7c-3.6,0-6.3-0.5-8.1-1.6c-1.8-1.1-3-2.6-3.6-4.6c-0.6-2-0.8-4.5-0.8-7.7V89.9c0-4.3,1-7.3,2.9-9.2
	C371.4,78.8,374.5,77.8,378.8,77.8z M386.4,93.5v66.2h15c3.3,0,5.9-0.1,7.7-0.3c1.9-0.2,3.8-0.6,5.8-1.3c2-0.7,3.7-1.7,5.2-3
	c6.6-5.6,9.9-15.2,9.9-28.9c0-9.6-1.5-16.8-4.4-21.6c-2.9-4.8-6.5-7.8-10.7-9.1c-4.3-1.3-9.4-2-15.4-2H386.4z"/>
<path d="M332,333.6h-24c-2.6,0-4.8-2.2-4.8-4.8V322c0-2.6,2.2-4.8,4.8-4.8h24c2.6,0,4.8,2.2,4.8,4.8v6.8
	C336.9,331.4,334.7,333.6,332,333.6z"/>
<path d="M463.3,310.5c-1.8-9.3-7.3-12.2-12.1-12.8c-4.1-0.5-8.2,0.6-11.6,2.9l-26.6,17.7v-7.9c0-3.6-0.7-7.2-2.1-10.5
	c-5.5-12.5-17.8-12.5-17.8-12.5h-91.9c-3.6,0-7.1,0.7-10.3,2.2c-12.4,5.8-12.6,18.8-12.6,18.8l-0.3,82.3c0,2.4,0.3,4.8,0.9,7.2
	c1.9,6.7,5.8,10.6,9.6,12.9c3.6,2.2,7.7,3.3,11.9,3.3l89.1,0.3c2.1,0,4.2-0.2,6.3-0.7c7.7-1.8,11.8-6.3,14.1-10.5
	c1.8-3.4,2.7-7.2,2.7-11v-8.7L438,400c7.8,5.1,11.6,3.8,11.6,3.8c7.7-0.2,11.3-5.3,12.9-9.6c0.9-2.5,1.3-5.1,1.3-7.7v-70.6
	C463.8,314,463.6,312.2,463.3,310.5z M396.3,392.2c0,2.5-2.1,4.6-4.6,4.6h-92c-2.5,0-4.6-2.1-4.6-4.6v-83.4c0-2.5,2.1-4.6,4.6-4.6
	h92c2.5,0,4.6,2.1,4.6,4.6V392.2z M446.6,386l-33.3-22.3v-25.3c-0.4-0.4,33.3-21.8,33.3-21.8V386z"/>
</svg>
