<?xml version="1.0" encoding="utf-8"?>
<!-- Generator: Adobe Illustrator 24.3.0, SVG Export Plug-In . SVG Version: 6.00 Build 0)  -->
<svg version="1.1" id="Layer_1" xmlns="http://www.w3.org/2000/svg" xmlns:xlink="http://www.w3.org/1999/xlink" x="0px" y="0px"
	 viewBox="0 0 376 325" style="enable-background:new 0 0 376 325;" xml:space="preserve">
<path d="M330,11.2H46.7c-20.3,0-36.9,16.6-36.9,36.9v229.5c0,20.3,16.6,36.9,36.9,36.9H330c20.3,0,36.9-16.6,36.9-36.9V48.1
	C366.9,27.8,350.3,11.2,330,11.2z M343.9,266.1c0,15.3-12.5,27.8-27.8,27.8H58.3c-15.3,0-27.8-12.5-27.8-27.8v-205
	c0-15.3,12.5-27.8,27.8-27.8H316c15.3,0,27.8,12.5,27.8,27.8v205H343.9z"/>
<path d="M312.9,203.5H181.5c-0.3,0-0.5-0.3-0.5-0.7v-22.1c0-0.4,0.2-0.7,0.5-0.7h131.4c0.3,0,0.5,0.3,0.5,0.7v22.2
	C313.4,203.2,313.1,203.5,312.9,203.5z"/>
<path d="M265.1,249.5h-83.8c-0.3,0-0.6-0.3-0.6-0.7v-22.5c0-0.4,0.2-0.7,0.6-0.7h83.8c0.3,0,0.6,0.3,0.6,0.7v22.6
	C265.7,249.2,265.4,249.5,265.1,249.5z"/>
<path d="M305.3,145.3H61c-5.9,0-10.7-4.8-10.7-10.7v0c0-5.9,4.8-10.7,10.7-10.7h244.3c5.9,0,10.7,4.8,10.7,10.7v0
	C316.1,140.5,311.2,145.3,305.3,145.3z"/>
<path d="M110.4,58.7H87.6v14.6h19.1c1.8,0,3.1,0.4,4,1.2c0.9,0.8,1.3,1.9,1.3,3.2s-0.4,2.4-1.3,3.2c-0.9,0.8-2.2,1.2-3.9,1.2H87.6
	v18.9c0,2.4-0.5,4.2-1.6,5.3c-1.1,1.2-2.5,1.7-4.2,1.7c-1.7,0-3.1-0.6-4.2-1.8c-1.1-1.2-1.6-2.9-1.6-5.3V56.8c0-1.7,0.2-3,0.7-4.1
	c0.5-1.1,1.3-1.8,2.3-2.3c1.1-0.5,2.4-0.7,4-0.7h27.3c1.8,0,3.2,0.4,4.1,1.2s1.3,1.9,1.3,3.2c0,1.4-0.4,2.4-1.3,3.3
	S112.3,58.7,110.4,58.7z"/>
<path d="M167,58.7h-26.1v14.1H165c1.8,0,3.1,0.4,4,1.2c0.9,0.8,1.3,1.8,1.3,3.1c0,1.3-0.4,2.4-1.3,3.2c-0.9,0.8-2.2,1.2-4,1.2h-24.1
	v16.3h27c1.8,0,3.2,0.4,4.1,1.3c0.9,0.8,1.4,2,1.4,3.4c0,1.4-0.5,2.5-1.4,3.3c-0.9,0.8-2.3,1.3-4.1,1.3h-31.5
	c-2.5,0-4.3-0.6-5.4-1.7c-1.1-1.1-1.7-2.9-1.7-5.4v-43c0-1.7,0.2-3,0.7-4.1c0.5-1.1,1.3-1.8,2.3-2.3c1.1-0.5,2.4-0.7,4-0.7H167
	c1.8,0,3.2,0.4,4.1,1.2s1.3,1.9,1.3,3.2c0,1.4-0.4,2.4-1.3,3.3S168.9,58.7,167,58.7z"/>
<path d="M225.2,58.7h-26.1v14.1h24.1c1.8,0,3.1,0.4,4,1.2c0.9,0.8,1.3,1.8,1.3,3.1c0,1.3-0.4,2.4-1.3,3.2s-2.2,1.2-4,1.2h-24.1v16.3
	h27c1.8,0,3.2,0.4,4.1,1.3c0.9,0.8,1.4,2,1.4,3.4c0,1.4-0.5,2.5-1.4,3.3c-0.9,0.8-2.3,1.3-4.1,1.3h-31.5c-2.5,0-4.3-0.6-5.4-1.7
	c-1.1-1.1-1.7-2.9-1.7-5.4v-43c0-1.7,0.2-3,0.7-4.1c0.5-1.1,1.3-1.8,2.3-2.3c1.1-0.5,2.4-0.7,4-0.7h30.6c1.8,0,3.2,0.4,4.1,1.2
	s1.3,1.9,1.3,3.2c0,1.4-0.4,2.4-1.3,3.3S227,58.7,225.2,58.7z"/>
<path d="M252.8,49.7h15.1c3.9,0,7.3,0.4,10.1,1.1c2.8,0.7,5.4,2.1,7.7,4.1c6,5.1,8.9,12.9,8.9,23.3c0,3.4-0.3,6.6-0.9,9.4
	c-0.6,2.8-1.5,5.4-2.8,7.7c-1.2,2.3-2.9,4.3-4.8,6.1c-1.5,1.4-3.2,2.5-5,3.3c-1.8,0.8-3.8,1.4-5.9,1.8c-2.1,0.3-4.5,0.5-7.1,0.5H253
	c-2.1,0-3.7-0.3-4.8-1c-1.1-0.6-1.8-1.5-2.1-2.7c-0.3-1.2-0.5-2.7-0.5-4.5v-42c0-2.5,0.6-4.3,1.7-5.4
	C248.5,50.3,250.3,49.7,252.8,49.7z M257.3,58.9v38.9h8.8c1.9,0,3.4-0.1,4.5-0.2c1.1-0.1,2.2-0.4,3.4-0.8c1.2-0.4,2.2-1,3-1.8
	c3.9-3.3,5.8-8.9,5.8-17c0-5.7-0.9-9.9-2.6-12.7c-1.7-2.8-3.8-4.6-6.3-5.4c-2.5-0.8-5.5-1.2-9.1-1.2H257.3z"/>
<path d="M81.4,204.6H71.3c-2.6,0-4.8-2.2-4.8-4.8l0,0c0-2.6,2.2-4.8,4.8-4.8h10.1c2.6,0,4.8,2.2,4.8,4.8l0,0
	C86.2,202.5,84.1,204.6,81.4,204.6z"/>
<path d="M160.5,191.1c-1.1-5.5-4.3-7.2-7.1-7.5c-2.4-0.3-4.8,0.3-6.8,1.7l-15.6,10.4V191c0-2.1-0.4-4.2-1.2-6.2
	c-3.2-7.4-10.4-7.4-10.4-7.4h-54c-2.1,0-4.2,0.4-6.1,1.3c-7.3,3.4-7.4,11-7.4,11l-0.2,48.3c0,1.4,0.2,2.8,0.5,4.2
	c1.1,3.9,3.4,6.2,5.6,7.6c2.1,1.3,4.5,1.9,7,1.9l52.3,0.1c1.2,0,2.5-0.1,3.7-0.4c4.5-1,7-3.7,8.3-6.2c1.1-2,1.6-4.2,1.6-6.5v-5.1
	l14.8,9.8c4.6,3,6.8,2.2,6.8,2.2c4.5-0.1,6.6-3.1,7.6-5.7c0.5-1.5,0.8-3,0.8-4.5v-41.5C160.7,193.1,160.7,192.1,160.5,191.1z
	 M121.1,239.1c0,1.5-1.2,2.7-2.7,2.7h-54c-1.5,0-2.7-1.2-2.7-2.7v-48.9c0-1.5,1.2-2.7,2.7-2.7h54c1.5,0,2.7,1.2,2.7,2.7V239.1z
	 M150.6,235.4l-19.6-13.1v-14.8c-0.2-0.2,19.6-12.8,19.6-12.8V235.4z"/>
</svg>
