<?xml version="1.0" encoding="utf-8"?>
<!-- Generator: Adobe Illustrator 24.3.0, SVG Export Plug-In . SVG Version: 6.00 Build 0)  -->
<svg version="1.1" id="Layer_1" xmlns="http://www.w3.org/2000/svg" xmlns:xlink="http://www.w3.org/1999/xlink" x="0px" y="0px"
	 viewBox="0 0 376 325" style="enable-background:new 0 0 376 325;" xml:space="preserve">
<path d="M358,17.5H18c-3.6,0-6.6,2.9-6.6,6.6v282.5c0,3.6,2.9,6.6,6.6,6.6h340c3.6,0,6.6-2.9,6.6-6.6V24.1
	C364.6,20.5,361.6,17.5,358,17.5z M353.7,293.6c0,3.2-2.7,5.9-5.9,5.9H29.7c-3.2,0-5.9-2.7-5.9-5.9V34.8c0-3.2,2.7-5.9,5.9-5.9
	h318.2c3.2,0,5.9,2.7,5.9,5.9V293.6z"/>
<rect x="23.2" y="264.9" width="330.5" height="11.9"/>
<path d="M330.7,136.9h-284c-3.1,0-5.8-2.5-5.8-5.8l0,0c0-3.1,2.5-5.8,5.8-5.8h283.8c3.1,0,5.8,2.5,5.8,5.8l0,0
	C336.3,134.3,333.7,136.9,330.7,136.9z"/>
<path d="M79.1,105.5V48h39.4v9.7H90.7v13.7h24v9.8h-24v24.5H79.1V105.5z"/>
<path d="M136.2,105.5V48h42.6v9.7h-31.1v12.7h29V80h-29v15.7H180v9.7h-43.7V105.5z"/>
<path d="M197.9,105.5V48h42.6v9.7h-31.1v12.7h29V80h-29v15.7h32.2v9.7h-43.7V105.5z"/>
<path d="M259.6,48h21.2c4.8,0,8.4,0.4,11,1.1c3.4,0.9,6.3,2.8,8.7,5.4c2.4,2.5,4.3,5.6,5.5,9.4c1.2,3.6,1.9,8.2,1.9,13.7
	c0,4.7-0.5,8.8-1.7,12.2c-1.5,4.2-3.5,7.6-6.2,10.2c-2,2-4.7,3.5-8.2,4.6c-2.5,0.8-6,1.2-10.3,1.2h-21.9L259.6,48L259.6,48z
	 M271.3,57.6v38.1h8.7c3.2,0,5.6-0.1,7-0.5c1.9-0.5,3.5-1.2,4.7-2.4c1.2-1.1,2.3-2.9,3.1-5.5c0.8-2.5,1.2-6,1.2-10.6
	c0-4.4-0.4-7.9-1.2-10.2c-0.8-2.4-1.9-4.3-3.4-5.6c-1.5-1.3-3.2-2.3-5.4-2.7c-1.6-0.4-4.8-0.5-9.5-0.5H271.3z"/>
<rect x="205.3" y="166.4" width="70.3" height="15.6"/>
<rect x="204.9" y="206.4" width="119.6" height="18.8"/>
<path d="M139.6,216.2v-8.4c0-1.5-0.4-2.9-1.2-4.2c-0.7-1.1-1.7-2-3.4-1.9c-3.4,0.3-60.7,0.3-60.7,0.3s-4.3-0.9-4,6.3
	c0.3,7.2-0.3,37.3-0.3,37.3s-0.7,6.7,4.6,6.7c4.7,0,48,0.1,57.1,0.3c0.8,0,1.6,0,2.4,0.1c1.6,0.1,5.5-0.3,5.2-5.4
	c-0.3-6.4-0.3-8.8-0.3-8.8l22.8,12.7c0,0,7,3.6,7.2-3.6c0.3-7.2,0.3-7.2,0.3-7.2l-0.3-29.8c0-1.2,0-2.3,0.1-3.5
	c0-1.7-0.3-5.1-4.3-5.1c-1.3,0-2.8,0.5-4,1.2L139.6,216.2z"/>
<path d="M82.2,166.5c4.3,0,7.8,3.5,7.8,7.8s-3.5,7.8-7.8,7.8s-7.8-3.5-7.8-7.8S77.9,166.5,82.2,166.5 M82.2,158.6
	c-8.7,0-15.8,7.1-15.8,15.8s7.1,15.8,15.8,15.8S98,183.1,98,174.4C98,165.6,90.9,158.6,82.2,158.6L82.2,158.6z"/>
<path d="M127.5,158.8c3.1,0,6,1.2,8.2,3.4c2.1,2.1,3.4,5.1,3.4,8.2c0,6.4-5.2,11.5-11.5,11.5c-3.1,0-6-1.2-8.2-3.4
	c-2.1-2.1-3.4-5.1-3.4-8.2s1.2-6,3.4-8.2C121.5,160.1,124.4,158.8,127.5,158.8L127.5,158.8 M127.5,150.3c-11.1,0-20.1,9-20.1,20.1
	s9,20.1,20.1,20.1s20.1-9,20.1-20.1S138.7,150.3,127.5,150.3L127.5,150.3z"/>
</svg>
