<?xml version="1.0" encoding="utf-8"?>
<!-- Generator: Adobe Illustrator 24.3.0, SVG Export Plug-In . SVG Version: 6.00 Build 0)  -->
<svg version="1.1" id="Layer_1" xmlns="http://www.w3.org/2000/svg" xmlns:xlink="http://www.w3.org/1999/xlink" x="0px" y="0px"
	 viewBox="0 0 376 325" style="enable-background:new 0 0 376 325;" xml:space="preserve">
<style type="text/css">
	.st0{fill:#666666;}
</style>
<g>
	<path class="st0" d="M330.5,13.4l-281.7,0c-20.2,0-36.7,16.5-36.7,36.7l0,228.3c0,20.2,16.5,36.7,36.7,36.7l281.7,0
		c20.2,0,36.7-16.5,36.7-36.7l0-228.3C367.2,30,350.6,13.4,330.5,13.4z M344.3,267c0,15.2-12.5,27.7-27.7,27.7l-256.3,0
		c-15.2,0-27.7-12.5-27.7-27.7l0-203.9c0-15.2,12.5-27.7,27.7-27.7l256.3,0c15.2,0,27.7,12.5,27.7,27.7L344.3,267z"/>
	<path class="st0" d="M312.2,107.7l-115.4,0c-0.3,0-0.6-0.3-0.6-0.6l0-26.3c0-0.3,0.3-0.6,0.6-0.6l115.4,0c0.3,0,0.6,0.3,0.6,0.6
		v26.3C312.8,107.4,312.5,107.7,312.2,107.7z"/>
	<path class="st0" d="M311,153.6l-111.9,0c-0.3,0-0.6-0.3-0.6-0.6l0-24.2c0-0.3,0.3-0.6,0.6-0.6l111.9,0c0.3,0,0.6,0.3,0.6,0.6
		l0,24.2C311.6,153.3,311.3,153.6,311,153.6z"/>
	<path class="st0" d="M315.6,217.1l-253.9,0c-0.3,0-0.6-0.3-0.6-0.6l0-34.2c0-0.3,0.3-0.6,0.6-0.6l253.9,0c0.3,0,0.6,0.3,0.6,0.6
		v34.2C316.2,216.9,315.9,217.1,315.6,217.1z"/>
	<path class="st0" d="M319.3,265.3l-257.6,0c-0.3,0-0.6-0.3-0.6-0.6l0-24.7c0-0.3,0.3-0.6,0.6-0.6l257.6,0c0.3,0,0.6,0.3,0.6,0.6
		v24.7C319.9,265,319.7,265.3,319.3,265.3z"/>
	
		<ellipse transform="matrix(0.4435 -0.8963 0.8963 0.4435 -30.4295 166.1254)" class="st0" cx="118.6" cy="107.6" rx="38.7" ry="38.7"/>
</g>
</svg>
