<?xml version="1.0" encoding="utf-8"?>
<!-- Generator: Adobe Illustrator 24.3.0, SVG Export Plug-In . SVG Version: 6.00 Build 0)  -->
<svg version="1.1" id="Layer_1" xmlns="http://www.w3.org/2000/svg" xmlns:xlink="http://www.w3.org/1999/xlink" x="0px" y="0px"
	 viewBox="0 0 334.6 325" style="enable-background:new 0 0 334.6 325;" xml:space="preserve">
<path d="M119.3,33.8c19.8,0,35.9,16.1,35.9,35.9s-16.1,35.9-35.9,35.9S83.4,89.5,83.4,69.7S99.5,33.8,119.3,33.8 M119.3,10.7
	c-32.6,0-59,26.4-59,59c0,32.6,26.4,59,59,59c32.6,0,59-26.4,59-59C178.4,37.1,151.9,10.7,119.3,10.7L119.3,10.7z"/>
<path d="M190.7,133.8l-27,19.7H76.3c-5.7,0-11.3,1-16.6,3c-9.8,3.8-21.6,12.5-21.9,31.8v55.1h91.1l5.6,25.3H14.7v-83.2
	c0,0,0-35.4,33.8-50.3c8.3-3.7,17.3-5.4,26.4-5.4h88.9C163.7,129.9,181.2,130.5,190.7,133.8z"/>
<path d="M236.3,173.2c32.9,0,59.6,26.7,59.6,59.6s-26.7,59.6-59.6,59.6s-59.6-26.7-59.6-59.6S203.4,173.2,236.3,173.2 M236.3,148.5
	c-46.6,0-84.4,37.8-84.4,84.4c0,46.6,37.8,84.4,84.4,84.4c46.6,0,84.4-37.8,84.4-84.4C320.6,186.2,282.9,148.5,236.3,148.5
	L236.3,148.5z"/>
<path d="M225.8,239.3l-15.5-15.5c-2.1-2.1-5.5-2.1-7.6,0l-6.9,6.9c-2,2-2,5.2,0,7.2l26.8,26.8c1.5,1.5,3.9,1.5,5.4,0l46.7-46.7
	c1.7-1.7,1.7-4.3,0-6l-7.5-7.5c-2.1-2.1-5.6-2.1-7.7,0C250,214.4,225.7,239.2,225.8,239.3z"/>
</svg>
