<?xml version="1.0" encoding="utf-8"?>
<!-- Generator: Adobe Illustrator 24.3.0, SVG Export Plug-In . SVG Version: 6.00 Build 0)  -->
<svg version="1.1" id="Layer_1" xmlns="http://www.w3.org/2000/svg" xmlns:xlink="http://www.w3.org/1999/xlink" x="0px" y="0px"
	 viewBox="0 0 376 325" style="enable-background:new 0 0 376 325;" xml:space="preserve">
<path d="M260,185.9c30.6,0,55.4,24.9,55.4,55.4s-24.9,55.4-55.4,55.4s-55.4-24.9-55.4-55.4S229.5,185.9,260,185.9 M260,167.5
	c-40.7,0-73.8,33-73.8,73.8s33,73.8,73.8,73.8s73.8-33,73.8-73.8S300.8,167.5,260,167.5L260,167.5z"/>
<path d="M219.4,191.2l19.4-10.8c-9.4-10.2-21.7-19.7-37.6-27.1c0,0,34.9-24.2,34.2-63.1C235,60.8,223.9,32,194.8,16.8
	c-21.9-11.4-48-12.6-70.8-3.3c-21.2,8.7-44.7,28.3-48.3,72.5c0,0-2.7,37.6,33.6,67.2c0,0-65.8,27.5-67.8,104.8h23.5
	c0,0,6-92,92-91.3C186.1,166.9,206,177.4,219.4,191.2z M156.5,144c-31.9,0-57.8-25.9-57.8-57.8c0-31.9,25.9-57.8,57.8-57.8
	s57.8,25.9,57.8,57.8C214.3,118.1,188.4,144,156.5,144z"/>
<path d="M252.9,245l-12.8-12.8c-1.7-1.7-4.5-1.7-6.3,0l-5.7,5.7c-1.7,1.7-1.7,4.3,0,6l22.2,22.2c1.2,1.2,3.2,1.2,4.5,0l38.6-38.6
	c1.4-1.4,1.4-3.6,0-5l-6.2-6.2c-1.8-1.8-4.6-1.7-6.3,0C272.9,224.4,252.8,244.8,252.9,245z"/>
<rect x="49.1" y="235.6" width="106.6" height="21.6"/>
</svg>
