<?xml version="1.0" encoding="utf-8"?>
<!-- Generator: Adobe Illustrator 24.3.0, SVG Export Plug-In . SVG Version: 6.00 Build 0)  -->
<svg version="1.1" id="Layer_1" xmlns="http://www.w3.org/2000/svg" xmlns:xlink="http://www.w3.org/1999/xlink" x="0px" y="0px"
	 viewBox="0 0 221.3 326" style="enable-background:new 0 0 221.3 326;" xml:space="preserve">
<path id="French_franc" d="M215.1,76.2c-2.2,0-4.3,0.1-6.5,0c-0.2,0-0.5-0.4-0.6-0.7c-1.3-4-2.6-8.1-4-12.1
	c-2.2-6.1-4.8-11.9-8.6-17.3c-7.2-10.2-16.9-16.6-29.2-19.1c-8.2-1.6-16.6-2.1-24.9-2.2c-15.2-0.1-30.4,0-45.5,0c-0.3,0-0.7,0-1.1,0
	c0,40.8,0,81.4,0,122.2c0.3,0,0.6,0.1,0.8,0.1c13.9,0,27.7,0,41.6,0c6.3,0,12.5-0.9,18.5-3.4c6.7-2.8,11.2-7.7,14.1-14.3
	c2.5-5.7,3.9-11.6,5-17.7c0.4-2.2,0.7-4.4,1.1-6.6c0-0.2,0.4-0.6,0.5-0.6c2.5,0,5.1,0,7.7,0c0,35.1,0,70.2,0,105.3
	c-2.7,0-5.4,0-8.2,0c0-0.6,0-1.2,0-1.8c-0.1-6.1-0.5-12.2-2.2-18.1c-3.4-12.2-11.2-19.8-23.6-22.4c-4.7-1-9.4-1.3-14.2-1.3
	c-13.4,0-26.8,0-40.1,0c-0.3,0-0.6,0-0.9,0c0,21,0,41.8,0,62.8c20.9,0,41.8,0,62.7,0c0,5.8,0,11.4,0,17.2c-20.9,0-41.8,0-62.7,0
	c0,0.3-0.1,0.6-0.1,0.8c0,8.7,0,17.5,0.2,26.2c0.1,5.6,0.6,11.2,1.5,16.8c1,6.6,4.6,11.2,10.2,14.4c6.7,3.9,13.9,5.9,21.6,5.9
	c3.5,0,6.9,0,10.4,0c0.3,0,0.6,0,1,0c0,2.5,0,5,0,7.5c-44.5,0-88.9,0-133.4,0c0-2.5,0-5,0-7.5c1.1,0,2,0,3,0
	c5.2-0.1,10.5,0.2,15.7-0.5c4.7-0.7,9.1-1.9,13.2-4.4c3.8-2.3,7.1-5.2,8.8-9.5c0.7-1.7,1.2-3.5,1.6-5.3c1.5-6.7,2-13.6,2.1-20.5
	c0.1-7.7,0.1-15.4,0.1-23.1c0-0.3,0-0.6,0-1c-14.9,0-29.7,0-44.4,0c0-5.8,0-11.4,0-17.2c14.8,0,29.6,0,44.4,0c0-0.6,0-1,0-1.4
	c0-52.7,0-105.4,0-158.1c0-7.5,0.1-15-0.6-22.5c-0.4-4.6-1-9.1-2.3-13.5c-0.8-2.8-1.8-5.6-4-7.7c-2.1-2.1-4.5-3.8-7.2-5.2
	c-5.5-2.9-11.4-4-17.5-4.2c-4-0.1-8,0-11.9,0c-0.3,0-0.6,0-1,0c0-2.9,0-5.6,0-8.5c69,0,138,0,207,0c0,0.2,0,0.4,0,0.5
	c0.5,13.1,1.1,26.3,1.6,39.4c0.1,1.8,0.2,3.6,0.3,5.5C215.1,61,215.1,68.6,215.1,76.2z"/>
</svg>
