<?xml version="1.0" encoding="utf-8"?>
<!-- Generator: Adobe Illustrator 24.3.0, SVG Export Plug-In . SVG Version: 6.00 Build 0)  -->
<svg version="1.1" id="Layer_1" xmlns="http://www.w3.org/2000/svg" xmlns:xlink="http://www.w3.org/1999/xlink" x="0px" y="0px"
	 viewBox="0 0 326.47 325" style="enable-background:new 0 0 326.47 325;" xml:space="preserve">
<path d="M233.28,130.17c-20.76,0-37.65-16.89-37.65-37.65s16.89-37.65,37.65-37.65c20.76,0,37.65,16.89,37.65,37.65
	C270.93,113.28,254.04,130.17,233.28,130.17z M233.28,72.79c-10.88,0-19.73,8.85-19.73,19.73s8.85,19.73,19.73,19.73
	c10.88,0,19.73-8.85,19.73-19.73S244.16,72.79,233.28,72.79z"/>
<path d="M316.03,71.84c-0.01-1.2,0-2.4,0.01-3.6c0.04-7.45-1.77-52.33-51.61-56.59C217.19,7.61,97.71,9.89,67.13,10.56
	c-10.79,0.24-21.42,3.03-30.73,8.48c-6.75,3.95-13.67,9.72-18.86,18.09c-4.91,7.93-7.34,17.15-7.38,26.48l-0.9,189.73
	c0,0-0.32,37.44,27.27,55.3c8.18,5.29,17.8,7.9,27.54,7.93l198.96,0.45c0,0,49.27-1.39,51.59-56.24
	C316.76,210.36,316.14,90.81,316.03,71.84z M31.57,75.33C32.03,32.57,68.75,32.1,68.75,32.1l184,0.46c3.28,0.01,6.55,0.24,9.78,0.83
	c30.36,5.57,31.17,31.71,31.17,31.71v150.59c0,0-37.18-38.11-47.41-47.41c-8.31-7.55-13.85-3.45-15.64-1.64
	c-0.93,0.94-1.85,1.88-2.8,2.8l-44.77,43c0,0-76.22-78.08-92.03-92.49c-10.86-9.91-17.55-5.31-20.67-1.47
	c-4.79,5.89-10.05,11.38-15.38,16.78l-23.43,23.73V75.33z M70.15,294.24c0,0-39.04,1.39-39.04-34.39l0.46-69.25l49.27-48.8
	L233.28,294.7L70.15,294.24z M264.42,294.24l-65.07-65.53l37.18-38.11l57.17,55.77C293.7,246.36,298.35,287.27,264.42,294.24z"/>
</svg>
