<?xml version="1.0" encoding="utf-8"?>
<!-- Generator: Adobe Illustrator 24.3.0, SVG Export Plug-In . SVG Version: 6.00 Build 0)  -->
<svg version="1.1" id="Layer_1" xmlns="http://www.w3.org/2000/svg" xmlns:xlink="http://www.w3.org/1999/xlink" x="0px" y="0px"
	 viewBox="0 0 376 325" style="enable-background:new 0 0 376 325;" xml:space="preserve">
<g>
	<path d="M169.1,151.4c3.3,0,6.5,0,9.7,0c0-5.2,0-10.3,0-15.5c2.2,0,4.2,0,6.4,0c0,5.2,0,10.3,0,15.5c3.1,0,6.1,0,9.4,0
		c0-5.2,0-10.3,0-15.8c1.9,0,3.6,0.1,5.3,0c4.9-0.2,9.6-1.1,13.9-3.7c7.4-4.6,9.4-11.7,9.1-19.8c-0.2-4.4-1.9-8.2-5.3-11.1
		c-2.1-1.8-4.7-3.1-7.1-4.6c0.7-0.6,1.7-1.3,2.6-2.2c6.8-6.3,7.2-18.9-2.1-24.4c-4.7-2.8-9.7-4.2-15-4.8c-1.2-0.1-1.5-0.5-1.5-1.7
		c0.1-4,0-8.1,0-12.1c0-0.6,0-1.2,0-1.9c-3.3,0-6.3,0-9.6,0c0,5.1,0,10.1,0,15.2c-2.2,0-4.2,0-6.4,0c0-5.1,0-10.2,0-15.1
		c-3.3,0-6.4,0-9.6,0c0,5.1,0,10.1,0,15.3c-6.5,0-12.8,0-19.2,0c0,3.4,0,6.6,0,10c2.8,0,5.5-0.1,8.2,0c2.7,0.1,3.7,1.2,3.7,3.8
		c0,14.2,0,28.5,0,42.7c0,3-1.3,4.3-4.4,4.3c-2.2,0-4.3,0-6.5,0c0,3.4,0,6.6,0,10l0.2,0.2c6.1,0,12.2,0,18.4,0
		C169.1,141.1,169.1,146.3,169.1,151.4z M198.1,77c5.6,2.4,6.6,8.7,2.4,13.4c-3.2,3.7-7.7,3.8-10.6,3.8c-3.8,0-10.7,0.1-14.6,0.1
		c0-6.4-0.1-12.6-0.1-18.9C180.6,75.5,193,74.8,198.1,77z M199.1,104.8c1.2,0.4,2.4,0.9,3.4,1.6c4,2.8,4.4,10.3,0.8,14.3
		c-2.6,2.9-7.6,3.6-11.2,3.8c-4.5,0.2-12,0.4-16.7,0.4c0-6.8-0.3-13.9-0.3-20.8C181.6,104.4,192.8,102.8,199.1,104.8z"/>
	<path d="M67.8,65.1c0.8-0.3,1.5-0.4,1.5-0.4l24.9-0.1c0.4,11,1.9,23.2,3.8,35.1c4.8,3.5,10.1,6.6,15.9,9.1
		c-5.4-24.7-7.9-48.8-6.8-66.4c0,0-3.5-9.3,12.4-12.6l128,0c0,0,11.8-0.4,12.4,11.9c0.4,7.5-0.6,57.9-14.8,103.3
		c4.1,1.5,8,3.8,11.7,7.1c12.4-38.6,15.9-87.7,15.9-87.7l24.6,0.1c12.2,3.3,9.7,12.5,9.7,12.5c-7.9,43.2-29.6,69.4-43.8,82.4
		c2.1,3,4.1,6.4,6,10.4c0.2,0.4,0.3,0.7,0.4,1.1c21.1-18.9,46.9-50.1,50.8-92.1c0,0,3.6-26.9-24.5-28l-22.9,0
		c0,0,4.5-31.3-19.9-34.7l-135.1-0.5c0,0-28.1,0.8-24.5,35.1l-21.1,0c0,0-5,0-10.6,2.1l0.5,1.1C62.2,54.1,64,58.6,67.8,65.1z"/>
	<path d="M137.5,244.4c0.6,6.4,0.6,12.5,0.3,18c11.5,11.2,23.8,21.6,37.2,30.7c8.2,5.6,16.7,10.8,26.2,14.1
		c7.1,2.5,14.3,3.6,21.8,2.4c3.1-0.5,6.1-1.6,9.2-2.2c4-0.8,7.9-1.9,11.6-3.2c-1-1.9-1.9-3.8-2.7-5.7c-3.8,1.4-7.8,2.4-12.1,3.1
		c-1.7,0.2-3,0-4.4-1.4c-19.5-19.9-39.2-39.6-58.6-59.6c-26.7-27.5-52.5-55.9-77.6-84.9c-3-3.4-5.9-6.9-8.8-10.4
		c-0.1-0.1,0-0.2-0.1-0.5c3,0.7,6,1.4,8.9,2.1c6.7,1.5,13.3,3.1,20,4.6c2.6,0.6,3.8-0.5,4.3-3.1c0.5-2.7,1.2-5.3,1.9-7.9
		c1.2-4.4,2.5-8.7,3.8-13.3c0.4,0.4,0.9,0.7,1.3,1.1c15.2,15.4,30.4,30.9,45.6,46.3c6.5,6.6,13.1,13,19.6,19.6
		c0.6,0.7,1.2,1.7,1.3,2.6c0.8,7.1,2.5,13.8,6.6,19.7c7.8,11.4,18.4,17.7,32.4,18c0.7,0,1.7,0.4,2.2,0.9c4.7,4.6,9.4,9.2,14.2,13.9
		c1-2.2,2.1-4.2,3.1-5.8c-1.1-1.1-2.3-2.2-3.4-3.3c-2.2-2.2-4.3-4.6-6.5-6.9c0.5-0.2,1.1-0.4,1.8-0.6c9.4-2.9,16.7-8.5,21.3-17.4
		c1.5-2.9,2.5-6.1,3.7-9.2c2.4-6.4,3.1-13.1,2-19.9c-2.6-16.6-16-29.9-32.9-32.4c-16.7-2.5-33.5,6.4-40.6,21.6
		c-1.6,3.5-2.6,7.2-3.9,10.9c-0.3-0.3-0.8-0.7-1.2-1.1c-15-15.2-30-30.4-45-45.5c-6.4-6.5-12.9-13-19.3-19.5c-1-1.1-2.2-1.6-3.7-1.3
		c-4.6,0.9-9.3,1.6-13.9,2.5c-1.6,0.3-2.6-0.2-3.7-1.4c-17.5-19-33.2-39.6-49-60c-0.6-0.8-0.4-1.3-0.1-2.1c0.7-1.6,1.4-3.3,1.5-5
		c0.3-5.6-3.1-10.3-8.8-12.1c-7.8-2.5-14.8-0.6-20.9,4.6c-5.5,4.6-8.7,10.4-8,17.8c0.7,7.2,7.5,13,14.4,12.1c1.2-0.1,1.8,0.2,2.6,1
		c14.2,17.4,28.4,34.7,42.6,52c1,1.2,1.9,2.4,3,3.7c-2.3,1-4.5,1.8-6.5,2.8c-3.9,1.9-7,4.8-8.2,9.1c-0.8,2.8-1.2,5.8-1.1,8.7
		c0.1,6.3,2.9,11.8,6.1,17c2.2,3.7,4.5,7.3,6.8,10.9c3.9,0.5,8.5,1.4,13.2,2.6c-4.8-7.1-9.5-14.4-13.9-21.8
		c-3.1-5.3-4.3-10.9-2.7-17.4c46.6,55.4,96.3,107.4,147.3,158.5c-1.6-0.3-3.2-0.5-4.7-0.8c-10-2.3-18.8-7-27.2-12.6
		c-7.2-4.8-13.4-10.8-19.6-16.7C156.2,263,146.7,253.8,137.5,244.4z M218.5,224.3c-18.2-4-28.4-20.5-25.9-36
		c18.8,14.2,39.6,19.4,62.7,15.6C252.2,217.5,233.8,227.6,218.5,224.3z M235.1,161.1c13.6,4.4,20.9,16.8,21.8,25.5
		c-20.8,1.7-39.3-3.9-55.7-16.6C208.1,161.9,221.6,156.8,235.1,161.1z M196.7,175.6c0.1-0.2,0.3-0.4,0.5-0.7
		c17.8,13.7,37.8,19.8,60.3,17.9c-0.1,1.2-0.1,2.4-0.4,3.4c-0.1,0.4-0.8,0.8-1.3,0.9c-7.7,1.8-15.4,2.2-23.3,1.2
		c-14-1.7-26.5-6.9-37.4-15.9c-1.1-0.9-1.3-1.6-0.6-2.8C195.5,178.3,196.1,176.9,196.7,175.6z M34,65.9c-1.3-1.6-2.6-2.3-4.8-1.7
		c-2.2,0.6-4.5,0.7-6.7-0.6c-2.2-1.3-3-3.2-2.3-5.6c2-6.6,9.9-13.7,18.8-12c1.5,0.3,3.1,1,4.3,2c2.4,1.8,2.7,4.8,1,7.3
		c-0.2,0.3-0.4,0.6-0.7,0.9c-1.6,2-1.6,3.2,0,5.3c4.1,5.3,8.2,10.6,12.3,15.9c13,16.8,26.3,33.4,40.8,48.9c1.3,1.4,2.6,1.8,4.4,1.5
		c3.5-0.6,7.1-1,11.1-1.5c-1.8,6.2-3.5,12.2-5.3,18.4c-9.4-2.3-18.8-4.5-28.5-6.8c1.2-0.5,2.2-0.9,3.1-1.4c1.2-0.6,2.4-1,3.4-1.7
		c2.4-1.5,2.7-3.3,0.9-5.5c-5.7-7.3-11.4-14.6-17.2-21.8C57.1,93.6,45.5,79.8,34,65.9z"/>
	<path d="M130.6,248.5c0-33.4-26.7-60.5-59.7-60.5c-11,0-21.2,3.1-30,8.3c-17.7,10.5-29.6,29.9-29.6,52.2
		c0,33.4,26.7,60.5,59.7,60.5c3.7,0,7.3-0.4,10.9-1C109.6,302.8,130.6,278.2,130.6,248.5z M98,260.6l-10.6-4.1l-2.9-18.9l9.5-9.5
		l18.3,2.4l2.9,21.9L98,260.6z M124,257.6l-5.3-5.2l-3.5-22.6l3.5-5.8C127.6,237.5,124,257.6,124,257.6z M95.1,200.9l-5.9,2.9
		l-21.9-3.5l-4.7-4.7C85.1,192.7,95.1,200.9,95.1,200.9z M67.2,203.9l22,2.9l1.8,19.5l-8.9,8.9l-19-3.4l-4.1-11.9L67.2,203.9z
		 M50.6,220.8l5.6,0.6l4,12l-3.1,5.9l-5.8,11.2l-11.2,0.6l-13-13l10.6-18.6L50.6,220.8z M34.3,209.8l1.2,8.3l-10,18.3l-6.5,3.5
		C18.9,239.9,20.1,222.8,34.3,209.8z M23.6,271.8H31l15.6,16.5l0.6,7.7C47.3,296,30.1,286.6,23.6,271.8z M65,277.7l-17.1,8.9
		l-14.8-15.9l8.3-16.5l10.6-1.2L65.6,267L65,277.7z M68,278.6l0.4-8.1l0.1-2.8l17.7-8.9l11.4,4.4l2.1,18.8l-19.5,9.9l-7-7.5
		L68,278.6z M78.9,301.2l0.3-0.7l2.6-6.6c6.7-1.5,20.5-9.8,20.5-9.8l7.1,1.2c-9.1,12.9-26.8,15.5-29.9,15.8
		C79.1,301.2,78.9,301.2,78.9,301.2z"/>
	<path d="M362.3,210.6c-4.2-13.1-3.4-12.1-16.6-16.5c-3.7-1.2-7.7-1.6-11.6-2.4c-3.3,0-6.6,0-9.9,0c-5.7,1.2-11.5,1.7-16.9,3.7
		c-17.5,6.2-31.3,15.9-41.4,28.8c-8,10.1-13.8,22.2-17.1,36.5c-0.6,2.5-0.8,5.1-1.2,7.6c0,3.3,0,6.6,0,9.9c0.8,4.1,1.8,8.3,2.5,12.4
		c1.7,8.9,7,14.1,15.8,15.8c4.1,0.8,8.3,1.7,12.4,2.5c3.3,0,6.6,0,9.9,0c0.8-0.2,1.6-0.3,2.3-0.4c4.8-0.9,9.7-1.5,14.3-3.1
		c31.4-11.1,51.2-32.7,58.7-65.4c0.6-2.5,0.8-5.1,1.2-7.7c0-3.1,0-6.3,0-9.4C363.9,218.8,363.5,214.5,362.3,210.6z M288.3,301.1
		c-1.6,0.1-3.3,0.3-4.9,0.3c-7.4,0-14.6-1.4-21.4-4.5c-0.9-0.4-1.8-1.2-2.2-2c-4.5-9.3-5.4-19.2-4.2-29.4c0-0.3,0.2-0.6,0.3-0.8
		c10.2,10.2,20.4,20.4,30.8,30.8c1.8,1.8,3.5,3.5,5.3,5.3C290.8,300.9,289.5,301,288.3,301.1z M354,246.9c-9,25.1-25.9,42.2-51,51.2
		c-0.4,0.1-0.8,0.3-1.4,0.5c-0.5-0.4-1-0.7-1.5-1.2c-3.4-3.4-6.7-6.8-10.1-10.1c-10.3-10.3-20.6-20.6-30.9-31
		c-0.6-0.6-1-2.1-0.7-2.9c2.6-7.4,6.1-14,10.1-20c9.7-14.4,23.5-24.8,41.3-31.1c0.8-0.3,2.4,0.2,3.1,0.9
		c13.5,13.4,26.9,26.9,40.4,40.3C354.4,244.6,354.5,245.5,354,246.9z M356.7,234.4c0,0.3-0.2,0.6-0.3,0.7
		c-11.7-11.7-23.4-23.5-35.5-35.5c4.7,0,9.4-0.5,14,0.1c5.1,0.7,10,2.5,15,4c1,0.3,2.1,1.3,2.6,2.3
		C356.8,215,357.7,224.6,356.7,234.4z"/>
	<path d="M327.4,234.3c-2-2.2-3.6-3.9-5.5-6c-1.5,1.8-2.9,3.5-5,6c-2.7-2.8-4.9-5.1-6.7-7c-1.6,1.5-3.3,3.1-5.2,4.9
		c2.2,2.1,4.5,4.2,6.7,6.3c-2.2,2.2-4.2,4.2-6.4,6.5c-2.2-2.4-4.3-4.6-6.5-7c-2,2-3.7,3.8-5.8,5.9c2.3,2.2,4.6,4.4,6.7,6.4
		c-2,2-3.9,4-6.4,6.6c-2.1-2.4-4.2-4.8-5.9-6.9c-2,1.9-3.8,3.6-5.8,5.6c2.2,2.1,4.5,4.2,7.2,6.8c-1.9,1.4-3.7,2.8-5.5,4.2
		c2.2,2.2,3.9,3.9,6.4,6.3c1.3-1.9,2.7-3.8,4.5-6.4c2.6,3.1,4.7,5.4,6.5,7.5c1.9-2,3.6-3.7,5.5-5.7c-2.1-1.9-4.4-4-6.6-6
		c2.2-2.3,4.1-4.3,6.3-6.7c2.2,2.4,4.3,4.7,6.3,7c2-1.9,3.8-3.6,5.9-5.6c-2.5-2.2-4.8-4.3-6.9-6.3c2.2-2.2,4.2-4.2,6.6-6.5
		c2,2.2,4,4.5,6,6.7c2-1.9,3.7-3.6,5.8-5.6c-2.3-2.1-4.6-4.3-7.4-7C324.2,236.8,325.9,235.5,327.4,234.3z"/>
</g>
</svg>
