<?xml version="1.0" encoding="utf-8"?>
<!-- Generator: Adobe Illustrator 24.3.0, SVG Export Plug-In . SVG Version: 6.00 Build 0)  -->
<svg version="1.1" id="Layer_1" xmlns="http://www.w3.org/2000/svg" xmlns:xlink="http://www.w3.org/1999/xlink" x="0px" y="0px"
	 viewBox="0 0 235.1 326" style="enable-background:new 0 0 235.1 326;" xml:space="preserve">
<g id="uk_pound">
	<path d="M221.7,283.3c-15.4,19.1-34.2,30.1-57.6,32.6c-18.1,2-35.6-0.4-52.6-7.2c-25-9.9-50.2-9.4-75.4-0.3c-1.3,0.5-2.5,1-3.8,1.4
		c-0.2,0.1-0.4,0-1.6-0.1c-5.6-14-11.4-28.4-17.3-43.1c29.1-15.4,44.5-38.4,42.2-72.5c-14.4,0-28,0-42.2,0c0-14.5,0-28.4,0-43.1
		c8.5,0,16.9,0,26.5,0c-2.3-8.6-4.5-16.2-6.3-23.8c-4.3-17.8-6-35.8-1.7-53.8c7.8-32.9,30.1-51.2,61.5-59.7
		c56.4-15.3,104.8,12.6,119.7,69.1c0.3,1.3,0.5,2.6,0.9,4.4c-15.5,3.5-30.6,6.9-45.8,10.3c-2.4-5.7-4.4-11.2-7.1-16.2
		c-14.5-27.1-52.6-32.8-74.9-11.4c-6.6,6.4-8.6,14.6-8.7,23.3c-0.2,19.2,5.8,37,13.2,54.3c0.8,1.8,4.6,3.2,7,3.2
		c19.2,0.3,38.4,0.1,58.1,0.1c0,14.5,0,28.4,0,43.1c-17.2,0-34.3,0-51.9,0c1.1,21.4-2.5,41.2-11.7,59.5c12.2,3.5,24.2,6.9,36.1,10.3
		c4.1,1.2,8,2.9,12.1,3.7c16.6,3.2,31.7,1.1,43.4-13.4C196.4,263.8,208.7,273.3,221.7,283.3z"/>
</g>
</svg>
