<?xml version="1.0" encoding="utf-8"?>
<!-- Generator: Adobe Illustrator 24.3.0, SVG Export Plug-In . SVG Version: 6.00 Build 0)  -->
<svg version="1.1" id="Layer_1" xmlns="http://www.w3.org/2000/svg" xmlns:xlink="http://www.w3.org/1999/xlink" x="0px" y="0px"
	 viewBox="0 0 284.94 325" style="enable-background:new 0 0 284.94 325;" xml:space="preserve">
<path d="M274.91,216.79c0,0-0.51-41.36-0.51-71.49c0-30.13-22.9-28.16-22.9-28.16V81.99l-61.61-71.1c0,0-132-0.91-145.78,0.62
	c-10.54,1.17-11.53,8.62-11.41,12.05c0.11,3.06,0.15,6.13,0.14,9.19l-0.44,84.38C7.4,117.07,8.36,139.17,8.36,139.17L8.1,219.1
	c1.27,27.33,24.29,20.39,24.29,20.39s-0.45,48.9-0.53,56.88c-0.01,0.73,0.02,1.46,0.14,2.18c1.99,12.25,12.66,12.77,18.1,12.21
	c3.65-0.38,7.31-0.51,10.98-0.49l166.48,0.97c0.93,0.01,1.86,0.05,2.79,0.1c19.27,0.95,21.05-10.54,20.85-15.86
	c-0.14-3.76-0.28-7.52-0.27-11.29l0.13-44.98c0.79,0.08,3.51,0.03,11.71-0.6C277.71,237.47,274.91,216.79,274.91,216.79z
	 M46.28,22.98c0.37-0.37,136.55,0,136.55,0v65.51h55.22V118H46.17L46.28,22.98z M238.05,295.83H46.17v-56.35h191.88V295.83z
	 M262.83,212.17c0,8.16-6.68,14.83-14.83,14.83H36.64c-8.16,0-14.83-6.68-14.83-14.83v-68.03c0-8.16,6.68-14.83,14.83-14.83H248
	c8.16,0,14.83,6.68,14.83,14.83V212.17z"/>
<g>
	<path d="M127.22,142.16l-3.92,14.62c0,0-28.16-13.9-41.06,9.8c-3.7,6.79-4.65,14.84-2.02,22.11c3.04,8.45,11.2,17.48,32.59,14.64
		v-16.68h-11.94v-14.21h29.04v40.64c0,0-43.29,16.19-61.36-9.14s-2.96-59.79,23.95-64.02C119.39,135.7,127.22,142.16,127.22,142.16z
		"/>
	<path d="M143.69,139.69h17.71v77.02h-17.71C143.69,216.71,143.87,139.51,143.69,139.69z"/>
	<polygon points="176.64,139.69 176.64,216.71 194.97,216.71 194.97,184.79 221.74,184.79 221.74,172.23 194.55,172.23 
		194.55,153.7 224.82,153.7 224.82,139.69 	"/>
</g>
</svg>
