<?xml version="1.0" encoding="utf-8"?>
<!-- Generator: Adobe Illustrator 24.3.0, SVG Export Plug-In . SVG Version: 6.00 Build 0)  -->
<svg version="1.1" id="Layer_1" xmlns="http://www.w3.org/2000/svg" xmlns:xlink="http://www.w3.org/1999/xlink" x="0px" y="0px"
	 viewBox="0 0 484.8 589" style="enable-background:new 0 0 484.8 589;" xml:space="preserve">
<g>
	<path d="M457.3,139.3L339.4,27.8c-9.2-8.7-21.4-13.6-34.1-13.6c-0.8,0-1.5,0-2.3,0.1c-30.4,1.4-90.8,1.7-142,1.7
		c-47.9,0-87.8-0.3-87.8-0.3C15,17.2,11.1,50.3,11.5,61.8c0.2,5.8,0.4,11.7,0.4,17.5v431c0,57,31.9,63.6,46.7,63.6
		c4.4,0,7.3-0.6,7.3-0.6s145.6,0.8,254.2,0.8c54.3,0,99.4-0.2,112.4-0.8c39.1-1.9,40.9-50,40.9-50V176.9
		C473.5,162.7,467.6,149.1,457.3,139.3z M343.9,72l80.6,76.3c-21.4-0.2-56.8-0.5-65.8-0.5c-5.7,0-9.6-3.2-12.2-6.7
		c-3.1-4.3-4.6-9.5-4.4-14.8L343.9,72z M444.3,522.5c-0.2,2.5-2.2,21.4-13.2,21.9c-7.6,0.4-33,0.8-111,0.8
		c-107.3,0-252.6-0.8-254.1-0.8l-1.8,0c-1.3,0-2.6,0.2-3.9,0.5l0,0c-0.4,0-0.9,0.1-1.7,0.1c-4.8,0-17.5,0-17.5-34.6V65.7v-3.8l0,0
		c-0.3-1-0.4-2.1-0.3-3.2c0.2-1.6,0.8-3.7,2.3-5.4c4.3-4.9,15.7-8.1,30.6-8.6c4.9,0,43,0.3,87.5,0.3c69.6,0,117.8-0.6,143.3-1.8
		c0.3,0,0.6,0,0.9,0c5.2,0,10.2,2,14,5.6l0.3,0.3v82.7c0,0.4,0.1,0.8,0.1,1.1c2.2,23,22.1,40.2,45.3,40.2H444
		c0.2,1.2,0.3,2.5,0.3,3.7V522.5z"/>
	<path d="M235.8,182.2c-78.6,0-113.8,59.6-113.8,59.6l-16.3-13.5l-10.8,65.1l65-10.9l-16.3-19c35.2-54.2,103-51.5,103-51.5
		c97.6,5.4,108.1,103,108.1,103h30.2C374,233.7,314.4,182.2,235.8,182.2z"/>
	<path d="M335.1,392.8c-35.2,54.2-103,51.5-103,51.5c-97.6-5.4-108.1-103-108.1-103H93.9c10.8,81.3,70.5,132.8,149.1,132.8
		s113.8-59.6,113.8-59.6l16.3,13.5l10.8-65l-65.1,10.8L335.1,392.8z"/>
	<path d="M243.7,244.1c-3.8-1.8-8.3-2.4-13.2-0.1c-6,2.9-9.5,9.3-9.5,16v91.2l88,0c7.3,0,13.7-5.4,14.4-12.6c0.1-0.9,0.1-1.8,0-2.7
		c-0.8-6.5-6.8-11-13.3-11l-56.1,0.4v-64.1C254,254,250.2,247.1,243.7,244.1z"/>
</g>
</svg>
