<?xml version="1.0" encoding="utf-8"?>
<!-- Generator: Adobe Illustrator 24.3.0, SVG Export Plug-In . SVG Version: 6.00 Build 0)  -->
<svg version="1.1" id="Layer_1" xmlns="http://www.w3.org/2000/svg" xmlns:xlink="http://www.w3.org/1999/xlink" x="0px" y="0px"
	 viewBox="0 0 318 325" style="enable-background:new 0 0 318 325;" xml:space="preserve">
<path d="M296.7,256.9c-6.5,0.2-13,0.5-19.5,0.5H82.5c-1.5,0-3-0.3-4.4-1c-2.1-1.1-3.8-3.1,0.3-6.7c6.9-6,30-21.4,30-21.4l163.1-0.8
	c1.7,0,3.3,0,5,0c4.8,0,23.9-1.2,24.6-21.4c0.7-18.6,0.3-70.6,0.1-90.1c0-3.6,0.1-7.2,0.4-10.8c0.4-5.6-0.8-16.7-15.1-19.5
	c-2.2-0.4-4.4-0.4-6.5,0.3c-2.9,1-6.2,3.4-5.2,9.2c0.8,4.6,4,8.4,8.3,10.2l0.9,0.4v101.1H112.7L81.9,74.1l12,2
	c3.3,0.6,6.8,0,9.6-1.8c2.2-1.3,4-3.3,4-6.2c0-2.9-1.5-5.1-3.2-6.8c-2.2-2.1-5-3.4-8-4l-20.5-3.8l-7.1-30.1
	c-0.6-2.5-1.5-4.9-2.8-7.1c-1.4-2.4-3.4-4.7-5.6-4.7c-3.3,0-27.7,0.3-38.5,0.1c-4.6-0.1-8.9,2.2-11.2,6.2c-1.5,2.6-1.9,5.8,1,8.9
	c2.2,2.4,5.4,3.7,8.7,3.7l29.5,0l44,184L78.6,226c-3.7,2.7-7.4,5.3-11.2,7.9c-3.7,2.6-10.1,9-9.5,22.6c0.9,18.8,24.8,19.7,24.8,19.7
	h22.7c0,0-5.6,21.4,10.5,33c9.5,6.9,22.4,7.6,32.6,1.8c8.4-4.8,16.2-14.7,12.2-34.8h55.7c0,0-9,25,15.1,36
	c8.2,3.8,17.7,4.1,25.9,0.2c8.9-4.2,17.9-13.9,14.7-36.2h24c0,0,8.6,0,8.6-11.1C304.6,258,300,256.8,296.7,256.9z M134.2,301.1
	c-5.7,0-10.3-4.6-10.3-10.3c0-5.7,4.6-10.3,10.3-10.3s10.3,4.6,10.3,10.3C144.4,296.5,139.8,301.1,134.2,301.1z M242.1,301.1
	c-5.7,0-10.3-4.6-10.3-10.3c0-5.7,4.6-10.3,10.3-10.3s10.3,4.6,10.3,10.3C252.4,296.5,247.8,301.1,242.1,301.1z"/>
<path d="M191.5,9.9c-38.8,0-70.2,31.4-70.2,70.2s31.4,70.2,70.2,70.2s70.2-31.4,70.2-70.2S230.3,9.9,191.5,9.9z M191.5,136.8
	c-31.3,0-56.7-25.4-56.7-56.7c0-31.3,25.4-56.7,56.7-56.7c31.3,0,56.7,25.4,56.7,56.7C248.3,111.5,222.9,136.8,191.5,136.8z"/>
<path d="M190.7,90.4h-2.6c-2.8,0-5.1-2.3-5.1-5.1V44.1c0-2.8,2.3-5.1,5.1-5.1h2.6c2.8,0,5.1,2.3,5.1,5.1v41.1
	C195.8,88.1,193.5,90.4,190.7,90.4z"/>
<path d="M227.4,90.4h-38.2c-3.4,0-6.2-2.8-6.2-6.2v-3.1c0-3.4,2.8-6.2,6.2-6.2h38.2c3.4,0,6.2,2.8,6.2,6.2v3.1
	C233.5,87.6,230.7,90.4,227.4,90.4z"/>
</svg>
