<?xml version="1.0" encoding="utf-8"?>
<!-- Generator: Adobe Illustrator 24.3.0, SVG Export Plug-In . SVG Version: 6.00 Build 0)  -->
<svg version="1.1" id="Layer_1" xmlns="http://www.w3.org/2000/svg" xmlns:xlink="http://www.w3.org/1999/xlink" x="0px" y="0px"
	 viewBox="0 0 361.7 325" style="enable-background:new 0 0 361.7 325;" xml:space="preserve">
<path d="M10.17,133.38c1.3-2.5,3.22-4.62,5.49-6.28L171.37,13.13c0,0,9.57-7.75,18.23,0S347.73,129.8,347.73,129.8
	s9.11,6.84,0.46,14.13c0,0-2.73,5.07-12.88-0.66c-1.38-0.78-2.69-1.67-3.96-2.62L180.48,28.17L24.62,142.56
	c0,0-9.57,8.66-15.49-2.28C9.13,140.28,7.74,138.05,10.17,133.38z"/>
<path d="M46.5,156.68c0,0-0.46-10.03,9.11-10.48c9.57-0.46,9.11,13.22,9.11,13.22v132.16c0,3.27,2.65,5.92,5.92,5.92h58.79
	c3.27,0,5.92-2.65,5.92-5.92V221.4c0,0,0-23.44,18.91-37.58c9.78-7.31,22.24-9.89,34.28-7.88c13.77,2.3,32.06,10.35,35.63,36.56
	c0.37,2.71,0.5,5.45,0.5,8.19l0,69.98c0,3.27,2.65,5.92,5.92,5.92h60.16c3.27,0,5.92-2.65,5.92-5.92V153.49c0,0-0.46-6.38,8.66-6.84
	c7.85-0.39,8.26,9.69,8.23,12.5c-0.01,0.74-0.02,1.48-0.01,2.22l0.9,140.23c0,0-0.46,12.76-11.39,12.3
	c-9.89-0.41-71.23,0.29-82.86,0.43c-0.94,0.01-1.87,0.06-2.81,0.12c-2.84,0.18-11.32-0.33-10.94-12.86c0.46-15.04,0-82.94,0-82.94
	s0.91-25.98-27.34-25.98c-24.72,0-25.72,26.52-25.58,33.15c0.04,1.86,0.08,3.72,0.09,5.59l0.35,55.38
	c0.03,5.21,0.29,10.41,0.52,15.61c0.21,4.72-1.47,13.08-16.28,12.17c-1.89-0.12-3.77-0.22-5.66-0.22c-12.06,0-53.95,0-67.06,0
	c-1.91,0-3.82,0.11-5.72,0.27c-4.37,0.35-15.18-0.79-13.72-21.23C47.87,267.88,46.5,156.68,46.5,156.68z"/>
</svg>
