<?xml version="1.0" encoding="utf-8"?>
<!-- Generator: Adobe Illustrator 24.3.0, SVG Export Plug-In . SVG Version: 6.00 Build 0)  -->
<svg version="1.1" id="Layer_1" xmlns="http://www.w3.org/2000/svg" xmlns:xlink="http://www.w3.org/1999/xlink" x="0px" y="0px"
	 viewBox="0 0 339.3 326" style="enable-background:new 0 0 339.3 326;" xml:space="preserve">
<g id="indonesia_Rupiah">
	<path d="M7.4,10.1c1.5-2.6,3.7-3.7,6.8-3.7c20,0.1,40-0.2,60,0.1c12.6,0.2,24.9,2.1,36.9,6.3c22.9,8,37.9,27.7,39.3,51.9
		c0.9,15.6-1.2,30.7-9.4,44.4c-4.5,7.5-10.2,13.9-16.8,19.6c-1.8,1.6-2,2.9-1.2,5.1c11.4,30.1,22.6,60.3,33.9,90.4
		c0.4,1.2,0.9,2.4,1.2,3.6c0.7,3.2-0.9,5.6-4.2,6.2c-1,0.2-2.1,0.2-3.1,0.2c-8,0-16,0-24,0c-5.3,0-6.3-0.7-8.1-5.7
		c-10.2-28.2-20.4-56.4-30.5-84.6c-0.9-2.4-1.9-3.4-4.7-3.4c-11.4,0.2-22.8,0.1-34.1,0.1c-1.1,0-2.3,0-3.8,0c0,1.7,0,3,0,4.4
		c0,27.1,0,54.2,0,81.2c0,6.6-1.4,8-7.9,8c-7.6,0-15.2-0.1-22.8,0c-3.2,0-5.8-0.7-7.5-3.6C7.4,157.1,7.4,83.6,7.4,10.1z M45.8,108.7
		c10.2,0,20.1,0.6,29.9-0.2c6-0.5,12.3-2.2,17.8-4.8c14.1-6.7,19.9-18.7,18.8-34.1C111.4,56,104.6,46.3,91.6,42
		c-6.7-2.2-13.9-3.1-21-3.6c-8.1-0.6-16.4-0.1-24.8-0.1C45.8,61.8,45.8,85.2,45.8,108.7z"/>
	<path d="M207.7,240c0,1.8,0,2.9,0,4c0,23.1,0,46.1,0,69.2c0,5.6-1,6.6-6.6,6.6c-7,0-13.9,0-20.9,0c-4.8,0-5.9-1.2-5.9-6.3
		c0-65,0-130,0-195c0-8.7,0-17.5,0-26.2c0-4.4,1.3-5.7,5.6-5.7c7.1,0,14.1,0,21.2,0c4.4,0,5.6,1.2,5.6,5.7c0,4.3,0,8.6,0,14
		c1.5-1.6,2.4-2.5,3.3-3.5c11.3-12.2,25.4-18.3,41.8-19.5c15.9-1.2,30.8,2.1,44.1,11c15,10,24.5,24.1,29.9,41.1
		c7.6,24.1,6.7,48.2-1.5,71.9c-11.3,32.6-43,53.2-77.4,50.4C235.1,256.8,221.6,253.2,207.7,240z M301.1,168.4
		c0-12.3-4.5-25.9-13.1-37.1c-17.1-22.2-47-23.6-65.8-2.9c-20.1,22-20.9,59.4-1.8,82.3c18.5,22.1,47.9,22.4,66.5,0.5
		C296.7,199.5,300.8,185.8,301.1,168.4z"/>
</g>
</svg>
