<?xml version="1.0" encoding="utf-8"?>
<!-- Generator: Adobe Illustrator 24.3.0, SVG Export Plug-In . SVG Version: 6.00 Build 0)  -->
<svg version="1.1" id="Layer_1" xmlns="http://www.w3.org/2000/svg" xmlns:xlink="http://www.w3.org/1999/xlink" x="0px" y="0px"
	 viewBox="0 0 376 285.4" style="enable-background:new 0 0 376 285.4;" xml:space="preserve">
<g id="Israeli_Shekel">
	<path d="M62.3,278c-19.1,0-36.1,0-53.9,0c0-90,0-179.7,0-270.6c3.5-0.2,7.2-0.6,10.9-0.6c58.4,0,116.8,0,175.2,0
		c18,0,34.9,3.6,49,15.4c12.5,10.5,20.6,24.3,21,40.3c0.9,41.9,0.3,83.9,0.3,126.8c-17.2,0-34.5,0-53.6,0c0-4,0-8.1,0-12.2
		c0-28,0.2-56.1-0.1-84.1c-0.3-29.6-11-40-40.4-40.1c-31.9-0.1-63.8,0-95.8,0c-3.8,0-7.6,0-12.6,0C62.3,128.4,62.3,202.6,62.3,278z"
		/>
	<path d="M109.8,277.9c0-61.3,0-121.1,0-182c17.7,0,35,0,53.7,0c0,44.8,0,89.7,0,135.6c5,0.3,8.7,0.8,12.4,0.8
		c31.9,0.1,63.8,0.1,95.8,0c30.4-0.1,40.5-9.6,41.3-40.4c0.7-24.5,0.2-49,0.2-73.6c0-36.6,0-73.1,0-110.6c18,0,35.3,0,54.4,0
		c0,3.8,0,7.9,0,12c0,61.9,0.1,123.8,0,185.7c-0.1,48-24.6,72.8-72.5,73c-58,0.2-116,0.1-174,0C117.6,278.4,114.2,278.1,109.8,277.9
		z"/>
</g>
</svg>
