<?xml version="1.0" encoding="utf-8"?>
<!-- Generator: Adobe Illustrator 24.3.0, SVG Export Plug-In . SVG Version: 6.00 Build 0)  -->
<svg version="1.1" id="Layer_1" xmlns="http://www.w3.org/2000/svg" xmlns:xlink="http://www.w3.org/1999/xlink" x="0px" y="0px"
	 viewBox="0 0 376 325" style="enable-background:new 0 0 376 325;" xml:space="preserve">
<g>
	<path d="M330,82.6v157.5H45.3V82.6H330 M347,65.6H28.3v191.5H347V65.6L347,65.6z"/>
</g>
<rect x="75.6" y="106.5" width="71.5" height="14.3"/>
<rect x="75.1" y="201.4" width="71.5" height="14.3"/>
<rect x="75.6" y="172.1" width="71.5" height="14.3"/>
<rect x="75.3" y="138.9" width="71.5" height="14.3"/>
<rect x="176.1" y="94.9" width="10" height="134.1"/>
<g>
	<path d="M259.6,111.7c27.8,0,50.5,22.6,50.5,50.5s-22.6,50.5-50.5,50.5c-27.8,0-50.5-22.6-50.5-50.5S231.8,111.7,259.6,111.7
		 M259.6,103.7c-32.3,0-58.5,26.2-58.5,58.5s26.2,58.5,58.5,58.5s58.5-26.2,58.5-58.5S291.9,103.7,259.6,103.7L259.6,103.7z"/>
</g>
<g>
	<circle cx="258.6" cy="136.1" r="9.7"/>
</g>
<path d="M260.4,197.2h-3.1c-4.2,0-7.6-3.4-7.6-7.6v-23.5c0-4.2,3.4-7.6,7.6-7.6h3.1c4.2,0,7.6,3.4,7.6,7.6v23.5
	C268,193.8,264.6,197.2,260.4,197.2z"/>
<polygon points="48.6,66 67,66 73.4,46.2 144.2,66 197.4,65.3 60.5,25.8 "/>
<polygon points="345.9,107.5 367.2,113.6 343.9,173.4 346.1,129.6 334.2,125.4 341.7,117.7 "/>
<polygon points="28.8,147 9.4,217.1 33.9,218.1 "/>
<polygon points="216.9,250.6 283,271.7 294.2,248.5 317,249.2 296.6,296.5 151.2,249.2 "/>
</svg>
