<?xml version="1.0" encoding="utf-8"?>
<!-- Generator: Adobe Illustrator 24.3.0, SVG Export Plug-In . SVG Version: 6.00 Build 0)  -->
<svg version="1.1" id="Layer_1" xmlns="http://www.w3.org/2000/svg" xmlns:xlink="http://www.w3.org/1999/xlink" x="0px" y="0px"
	 viewBox="0 0 323.1 325" style="enable-background:new 0 0 323.1 325;" xml:space="preserve">
<path d="M160.7,12.4c-72.1,0-132.4,50.4-147.6,117.8h39.2c14.3-46.3,57.5-79.9,108.5-79.9c62.7,0.1,113.5,50.9,113.5,113.5
	c0,62.7-50.8,113.5-113.5,113.5c-56.3,0-102.9-40.9-112-94.6H10.5c9.3,74.7,73,132.5,150.2,132.5c83.6-0.1,151.3-67.8,151.4-151.4
	C312.1,80.2,244.3,12.4,160.7,12.4z"/>
<path d="M181.7,140.5v105.9h12.9v4.2h-68.3v-4.2h12.7V144.7h-13.6v-4.2H181.7z M161,75.4c14.3,0,22.8,7.2,22.8,21.3
	c0,12.3-6.7,21.7-23.2,21.7c-18.6,0-23-11.8-23-21.5C137.5,85.6,143.8,75.4,161,75.4z"/>
</svg>
