<?xml version="1.0" encoding="utf-8"?>
<!-- Generator: Adobe Illustrator 24.3.0, SVG Export Plug-In . SVG Version: 6.00 Build 0)  -->
<svg version="1.1" id="Layer_1" xmlns="http://www.w3.org/2000/svg" xmlns:xlink="http://www.w3.org/1999/xlink" x="0px" y="0px"
	 viewBox="0 0 376 325" style="enable-background:new 0 0 376 325;" xml:space="preserve">
<g>
	<path d="M153,129.1H57.5c-3.5,0-6.4-2.9-6.4-6.4v-2.2c0-3.5,2.9-6.4,6.4-6.4H153c3.5,0,6.4,2.9,6.4,6.4v2.2
		C159.4,126.2,156.5,129.1,153,129.1z"/>
	<path d="M136.3,163.9H57.7c-3.2,0-5.7-2.6-5.7-5.7v-2c0-3.2,2.6-5.7,5.7-5.7h78.5c3.2,0,5.7,2.6,5.7,5.7v2
		C142,161.3,139.4,163.9,136.3,163.9z"/>
	<path d="M134.8,198.6H56.5c-3.3,0-6-2.7-6-6v-2c0-3.3,2.7-6,6-6h78.3c3.3,0,6,2.7,6,6v2C140.8,195.9,138.1,198.6,134.8,198.6z"/>
	<path d="M159.1,233.1H58c-3.2,0-5.7-2.6-5.7-5.7v-2c0-3.2,2.6-5.7,5.7-5.7h101.1c3.2,0,5.7,2.6,5.7,5.7v2
		C164.9,230.5,162.3,233.1,159.1,233.1z"/>
</g>
<path d="M361.3,264.9c-1.5-2.7-3.4-5.2-5.6-7.3l-29.8-29.8c-5.2-5.2-12.4-8-19.7-7.2c-3.2,0.3-6.6,1.3-10.1,3.4l-10.3-10.3
	c0,0,25.4-28.1,14.9-64.7c-10.5-36.6-38.9-50.8-59.5-54.9V37.9c0-1.5,0.1-2.9,0.1-4.4c0.1-2-0.5-6.3-5.7-8.9c-1.9-1-4.1-1.5-6.3-1.5
	l-23.4-0.4H80.8c-6.8,0-13.4,2.1-18.8,6.2c-0.1,0.1-0.2,0.1-0.2,0.2L14.2,76.6c0,0-4.6,3.7-4.1,11c0.4,6.6,0.1,160.3,0,191.7
	c0,2.6-0.2,5.2-0.4,7.7c-0.3,3.9,0.8,11.8,14.3,11.8h204.3c2.5,0,4.9-0.5,7.1-1.7c3.1-1.7,6.4-5.1,6.2-11.8v-46.7
	c0,0,19.7-0.9,33.9-16.5l11.7,11.7c0,0-13,12.1,4.8,29.5l31.8,32.3c3.2,3.3,7.3,5.6,11.7,6.5c5.6,1.1,13.2,0.6,20.9-6.3
	C356.4,295.8,370.9,282.5,361.3,264.9z M63.6,48.3c-0.2,0,0.3-0.5,0.3-0.5v29.1H35L63.6,48.3z M226.5,283.4H23.6V90.4h47
	c0,0,6.7,0.3,7.3-5.8c0,0-0.2-47.4,0.3-47h148.2v55.5c0,0-74.1,4.3-69.9,82.1c0,0,4.9,59.2,69.9,65.3V283.4z M228.6,225.5
	c-32.9,0-59.5-26.6-59.5-59.5s26.6-59.5,59.5-59.5s59.5,26.6,59.5,59.5S261.5,225.5,228.6,225.5z M347.4,284.6L347.4,284.6
	c-3.9,3.9-10.2,3.9-14,0l-32.3-32.3c-3.9-3.9-3.9-10.2,0-14l0,0c3.9-3.9,10.2-3.9,14,0l32.3,32.3
	C351.2,274.4,351.2,280.7,347.4,284.6z"/>
<path d="M232.2,208.7h-2.9c-4.7,0-8.6-3.9-8.6-8.6v-36.5c0-4.7,3.9-8.6,8.6-8.6h2.9c4.7,0,8.6,3.9,8.6,8.6v36.5
	C240.8,204.8,237,208.7,232.2,208.7z"/>
<circle cx="229.7" cy="134.1" r="9.8"/>
</svg>
