<?xml version="1.0" encoding="utf-8"?>
<!-- Generator: Adobe Illustrator 24.3.0, SVG Export Plug-In . SVG Version: 6.00 Build 0)  -->
<svg version="1.1" id="Layer_1" xmlns="http://www.w3.org/2000/svg" xmlns:xlink="http://www.w3.org/1999/xlink" x="0px" y="0px"
	 viewBox="0 0 323.9 325" style="enable-background:new 0 0 323.9 325;" xml:space="preserve">
<path d="M143.1,190.6c-0.4-19.8,10-38.3,27.2-48.2c8.3-4.6,11.4-15,6.9-23.4s-15-11.4-23.4-6.9c-5.5,3-8.9,8.8-9,15.1H107
	c0-30.4,24.6-55.1,55-55.1c3.3,0,6.6,0.3,9.8,0.9c29.9,5.4,49.8,34,44.4,64c-3,16.4-13.1,30.5-27.7,38.5c-5,3.3-7.9,9.1-7.6,15.1
	H143.1z"/>
<rect x="143.9" y="213.8" width="37.8" height="37.8"/>
<path d="M162.1,12C90,12,29.7,62.4,14.4,129.8h39.2C67.9,83.5,111,49.9,162.1,49.9c62.7,0.1,113.5,50.9,113.5,113.5
	c0,62.7-50.8,113.5-113.5,113.5c-56.3,0-102.9-40.9-112-94.6H11.8c9.3,74.7,73,132.5,150.2,132.5c83.6-0.1,151.3-67.8,151.4-151.4
	C313.5,79.8,245.7,12,162.1,12z"/>
</svg>
