<?xml version="1.0" encoding="utf-8"?>
<!-- Generator: Adobe Illustrator 24.3.0, SVG Export Plug-In . SVG Version: 6.00 Build 0)  -->
<svg version="1.1" id="Layer_1" xmlns="http://www.w3.org/2000/svg" xmlns:xlink="http://www.w3.org/1999/xlink" x="0px" y="0px"
	 viewBox="0 0 224.4 326" style="enable-background:new 0 0 224.4 326;" xml:space="preserve">
<path d="M6.7,97.2c0.9-1.5,1.4-2.5,2-3.4c5.1-7.7,10.4-15.4,15.4-23.2c1.4-2.2,2.9-3.1,5.6-3.1c27.7,0.1,55.4,0.1,83.2,0.1
	c1.3,0,2.5,0,4.2,0c-3.4-7.9-8.4-13.9-15.1-18.6c-8.7-6-18.5-9.4-28.8-10.2c-17.1-1.2-34.2-1.5-51.3-2.1c-4.8-0.2-9.6,0-14.9,0
	c0.6-1.1,1-1.9,1.5-2.7c5.4-8.1,10.7-16.3,16.2-24.3c0.8-1.2,2.7-2.2,4.1-2.2c62-0.1,124-0.1,186-0.1c0.8,0,1.5,0.1,2.8,0.3
	c-6.4,9.6-12.5,18.9-18.8,28c-0.5,0.8-2.3,0.9-3.4,0.9c-14.7,0.1-29.4,0-44,0c-1.1,0-2.2,0-4.2,0c7.9,9.3,12.4,19.4,14.8,30.7
	c18.4,0,36.7,0,55.4,0c-0.5,1.1-0.7,1.8-1.1,2.4c-5.5,8.3-11.1,16.6-16.5,24.9c-1.2,1.8-2.5,2.4-4.6,2.4c-10.8-0.1-21.6,0-32,0
	c-2.1,6.9-3.7,13.7-6.3,20c-9.1,21.4-25.6,35.4-46.3,45c-14.8,6.8-30.4,10.1-47.2,11.4c38.7,48.4,77.2,96.4,115.9,144.8
	c-1.1,0.2-1.8,0.4-2.5,0.4c-14.9,0-29.8,0.1-44.7-0.1c-1.4,0-3.1-0.9-4-2C92.3,272,56.8,227.4,21,183c-2.9-3.6-4.1-7-3.9-11.4
	c0.3-6.8,0.1-13.6,0.1-20.8c1.5,0,2.7,0,4,0c12.8-0.2,25.6,0.2,38.4-0.8c18.8-1.5,36.1-7.4,49.1-22c7.7-8.6,12-18.6,12.1-30.7
	C82.8,97.2,45.1,97.2,6.7,97.2z"/>
</svg>
