<?xml version="1.0" encoding="utf-8"?>
<!-- Generator: Adobe Illustrator 24.3.0, SVG Export Plug-In . SVG Version: 6.00 Build 0)  -->
<svg version="1.1" id="Layer_1" xmlns="http://www.w3.org/2000/svg" xmlns:xlink="http://www.w3.org/1999/xlink" x="0px" y="0px"
	 viewBox="0 0 358.4 325" style="enable-background:new 0 0 358.4 325;" xml:space="preserve">
<style type="text/css">
	.st0{fill:#00CD00;}
</style>
<g>
	<path class="st0" d="M113.9,107.5l-50.3,40.1c0,0,57.4,37.9,92.6,103.7c0,0,61.3-119.6,191-240.4c0,0-111.6,44.6-192.4,156.2
		C154.9,167.1,143.9,137.5,113.9,107.5z"/>
	<path class="st0" d="M232.1,65.6c0,0-71.5-56-149.6,11.9c0,0-81.6,75.4-2.6,167.6c0,0,50.7,55.1,124.9,28.7
		c66.9-23.9,76.3-85.9,77.5-97.7c0.1-1.3,0.3-2.5,0.4-3.8c0.8-6.8,2.6-32.1-11.3-62.6l22.9-25.6c0,0,23.4,29.1,21.2,89.1
		s-52.1,105-52.1,105s-65.7,56.5-150.4,26.5c-77.6-27.5-94.1-100.2-96.3-112.2c-0.2-1-0.4-2-0.6-3c-2.2-10.3-14.5-79,41.9-133.6
		c32.4-31.4,77.1-47.1,122-43.1c25.5,2.3,54.6,10.6,80,32.4L232.1,65.6z"/>
</g>
</svg>
