<?xml version="1.0" encoding="utf-8"?>
<!-- Generator: Adobe Illustrator 24.3.0, SVG Export Plug-In . SVG Version: 6.00 Build 0)  -->
<svg version="1.1" id="Layer_1" xmlns="http://www.w3.org/2000/svg" xmlns:xlink="http://www.w3.org/1999/xlink" x="0px" y="0px"
	 viewBox="0 0 309.6 326" style="enable-background:new 0 0 309.6 326;" xml:space="preserve">
<g id="Iranian_Rial">
	<path d="M137.5,237.8c0-0.9,0-1.6,0-2.3c0-50.7-0.1-101.5,0.1-152.2c0-6.6-1.1-12.8-3.9-18.7c-4.2-8.8-8.7-17.4-13.1-26.1
		c-0.3-0.6-0.6-1.1-1-1.7c6.7-1.1,11.8-5,16.4-9.4c5.6-5.3,10.8-11,16.2-16.5c0.4-0.4,0.8-0.9,1.6-1.8c0,1.1,0,1.7,0,2.3
		c0,61,0,122.1,0,183.1c0,5.7,2.2,9.8,6.8,13.1c6,4.3,12.2,8.5,17.7,13.4c7.2,6.4,13.7,13.4,20.6,20.1c1.3,1.2,2.6,2.4,4,3.6
		c2-2.7,3.4-5.9,2.1-9.4c-1.4-3.9-3.1-7.8-4.9-11.5c-3.7-7.7-7.5-15.4-11.2-23.1c-0.6-1.2-0.9-2.4-1.4-3.6
		c-4.1-10-1.5-18.7,5.6-26.1c5.9-6.3,12.4-12,18.6-18c0.1-0.1,0.3-0.1,0.5-0.3c-0.6,2.6-1.1,5.1-1.6,7.6c-1,5.3,0.4,10.2,2.5,14.8
		c4.3,9.2,8.9,18.3,13.4,27.4c2.7,5.5,5.4,11,6.8,17c1.3,5.9,0.8,11.8-2.2,17c-1.8,3.2-4.5,6-7.2,8.6c-8.4,8.1-16.9,15.9-25.4,23.9
		c-0.3,0.3-0.7,0.6-1.2,1c-2.9-10.1-9.4-17.7-16.6-24.8c-1.4-1.4-3-2.6-4.5-3.8c-3.1-2.3-6.5-3.5-10.5-3.4c-8.7,0.2-17.5,0-26.2,0
		C138.9,237.8,138.3,237.8,137.5,237.8z"/>
	<path d="M80.3,36.7c6.6-1.1,11.7-5,16.3-9.3c5.4-5.1,10.5-10.6,15.7-15.9c0.6-0.6,1.2-1.4,2.2-2.5c0,1.1,0,1.7,0,2.4
		c0,55.3,0,110.7,0,166c0,18.9,0,37.8-0.1,56.6c0,2.9-0.5,5.9-1,8.8c-0.8,4.3-2.7,8-5.9,11.2c-5.9,5.8-11.7,11.9-17.5,17.7
		c-1.4,1.4-3,2.7-4.7,3.9c-7.2,5-14.7,5.2-22.1,0.4c-1.8-1.2-3.5-2.5-5-4c-15.2-15.5-30.4-31-45.6-46.5c-1.6-1.7-3-3.6-4.4-5.5
		c-1.9-2.4-2-5.1-1.1-7.9c1.1-3.2,2.9-6,5.3-8.3c10-9.9,20.1-19.6,30.1-29.5c0.1-0.1,0.2-0.1,0.5-0.3c-0.3,0.7-0.5,1.1-0.7,1.6
		c-2.9,5.5-5.9,10.9-8.8,16.4c-0.7,1.4-1.2,3-1.8,4.4c-1.1,2.6-0.7,5.1,0.9,7.3c1.9,2.6,3.8,5.3,6.1,7.7
		c12.3,12.5,24.8,25,37.3,37.4c2.3,2.2,5,4.1,7.6,5.9c1.7,1.2,2.9,1.2,4.3-0.4c3-3.3,6.1-6.6,8.5-10.4c1.3-2,1.3-4.8,1.6-7.3
		c0.3-2.4,0.2-4.9,0.2-7.4c0-48.7,0-97.5,0.1-146.2c0-6.3-0.9-12.2-3.6-17.8c-4.3-9.1-8.9-18-13.4-27C80.8,37.8,80.6,37.3,80.3,36.7
		z"/>
	<path d="M180,315.9c2.4-0.7,4.6-1.4,6.7-2c6.2-1.9,11.5-5.4,16.7-9.2c9.3-6.7,17-15,25.2-22.9c11.1-10.8,22.2-21.6,33.3-32.5
		c2.8-2.7,5.4-5.7,7.8-8.7c1.4-1.7,2.5-3.6,3.5-5.5c1.8-3.2,2.1-6.4,0.4-9.9c-5-10-9.8-20-14.5-30.1c-1.9-4.1-3.6-8.2-5.2-12.4
		c-2.1-5.4-1.5-10.7,0.8-15.9c1.6-3.5,3.7-6.6,6.5-9.3c5.6-5.4,11.2-10.8,16.7-16.2c0.4-0.4,0.8-0.7,1.4-1.3
		c-0.5,2.3-0.9,4.4-1.4,6.4c-1.1,4.8-0.7,9.4,1.3,13.8c3.6,7.9,7.5,15.8,11.2,23.7c3.3,7.2,6.7,14.4,9.9,21.6
		c4.4,10.1,2.8,19.6-4,28c-3.9,4.9-8.4,9.4-12.9,13.9c-18.8,18.5-37.6,37-56.4,55.5c-11.6,11.4-25.6,15.6-41.6,14.4
		c-1.4-0.1-2.7-0.5-4.1-0.9C180.8,316.3,180.5,316.1,180,315.9z"/>
	<path d="M170.2,266.7c0.7,4.4,2.9,7.5,5.7,10.4c1.8,1.9,3.6,4,5.1,6.2c1.8,2.6,2.2,5.5,0.7,8.4c-2.2,4.4-4.5,8.6-6.7,13
		c-0.2,0.1-0.5,0.1-0.7,0.2c-0.2-0.4-0.3-0.8-0.6-1.1c-4.1-5.1-9.4-8.7-15.4-11.3c-1.5-0.7-3-1.5-4.2-2.5c-2.6-2.3-3-5.1-0.6-7.6
		c3.6-3.8,7.5-7.4,11.3-11C166.4,269.7,168.3,268.3,170.2,266.7z"/>
	<path d="M134.1,266.7c0.7,4.7,3.2,7.9,6.3,11c1.7,1.7,3.1,3.5,4.4,5.5c1.8,2.6,2.2,5.6,0.8,8.5c-2.2,4.3-4.4,8.6-6.7,12.9
		c-0.2,0-0.4,0.1-0.7,0.1c-0.2-0.4-0.4-0.7-0.6-1.1c-3.8-4.9-8.7-8.3-14.3-10.9c-1.8-0.8-3.7-1.8-5.2-3.1c-2.5-2.1-3-4.9-0.7-7.3
		c3.9-4.1,8-8,12.2-11.9C131,269.2,132.5,268.1,134.1,266.7z"/>
</g>
</svg>
