<?xml version="1.0" encoding="utf-8"?>
<!-- Generator: Adobe Illustrator 24.3.0, SVG Export Plug-In . SVG Version: 6.00 Build 0)  -->
<svg version="1.1" id="Layer_1" xmlns="http://www.w3.org/2000/svg" xmlns:xlink="http://www.w3.org/1999/xlink" x="0px" y="0px"
	 viewBox="0 0 225.2 326" style="enable-background:new 0 0 225.2 326;" xml:space="preserve">
<path id="Italian_lira" d="M127.2,8.2c1.4,0.1,2.8,0.2,4.2,0.3c19.9,1.5,37.7,8.5,53.1,21.3C194.2,38,201,48.3,205.7,60
	c3.2,8,5.3,16.4,6.6,25c0,0.1,0,0.2,0,0.5c-12.2,1.8-24.3,3.7-36.5,5.5c-0.3-2-0.6-3.9-0.9-5.8C171.5,67.6,162.5,54,147,44.9
	c-8.8-5.2-18.4-6.9-28.5-6.5c-6.1,0.3-12,1.3-17.7,3.4c-7.6,2.9-14,7.5-19.3,13.6c-5.2,6-9.1,12.7-11.1,20.4
	c-1.4,5.3-1.6,10.7-1.3,16.1c0.8,11.5,3,22.8,5.2,34.1c0,0.2,0.1,0.4,0.2,0.7c23.3,0,46.6,0,69.9,0c0,10,0,19.9,0,29.9
	c-21,0-41.9,0-62.9,0c2.1,10.1,4.3,20,6.4,30.2c18.7,0,37.6,0,56.5,0c0,10,0,19.9,0,29.9c-0.4,0-0.8,0-1.3,0c-18.4,0-36.9,0-55.3,0
	c-0.7,0-1.1,0-1.2,0.8c-2.7,12.3-7.9,23.5-14.8,34c-4.7,7.2-10.2,13.9-16.1,20.1c-0.4,0.4-0.8,0.8-1.1,1.4c0.9-0.2,1.8-0.5,2.7-0.7
	c9.9-2.6,19.8-4.2,30.1-3.8c11.5,0.5,22.8,2.3,34,5c9.7,2.4,19.4,4.6,29.2,6.3c5.7,1,11.4,1.7,17.2,2c6.9,0.3,13.5-1.1,20.1-3.1
	c6.6-2.1,12.9-4.7,19.2-7.7c0.4-0.2,0.8-0.3,1.3-0.6c3.9,11.1,7.7,22.2,11.6,33.4c-0.8,0.4-1.6,0.7-2.5,1.1
	c-9,3.9-18.2,7.4-27.8,9.6c-6.9,1.6-14,2.6-21.1,2.2c-5.7-0.3-11.3-1.3-16.9-2.4c-11-2.3-21.7-5.5-32.5-8.7
	c-8.6-2.6-17.4-4.8-26.3-6.3c-5.8-1-11.7-1.2-17.6-0.8c-9.4,0.6-18.5,2.3-27.5,5.2c-9.8,3.2-18.9,7.7-27.5,13.3
	c-0.3,0.2-0.7,0.4-1,0.7c-4.7-11.8-9.4-23.6-14-35.4c25.5-14.7,41.4-36.1,46.2-65.6c-14.4,0-28.6,0-42.9,0c0-10,0-19.9,0-29.9
	c14.3,0,28.5,0,42.9,0c-0.2-0.9-0.3-1.8-0.6-2.6c-2.5-9-5-17.9-7.5-26.9c-0.2-0.7-0.5-0.7-1.1-0.7c-10.8,0-21.6,0-32.4,0
	c-0.4,0-0.8,0-1.2,0c0-10,0-19.9,0-29.9c8.6,0,17.1,0,25.8,0c-0.5-2.2-1-4.3-1.4-6.4c-2-9.8-3.4-19.7-3.2-29.8
	c0.2-9.9,1.5-19.7,4.8-29.1c4.7-13.4,12.8-24.2,24.2-32.5c10.2-7.5,21.4-13.2,33.7-16.6c8-2.3,16.3-3.6,24.6-3.9
	c0.3,0,0.6-0.1,1-0.1C121.1,8.2,124.1,8.2,127.2,8.2z"/>
</svg>
