<?xml version="1.0" encoding="utf-8"?>
<!-- Generator: Adobe Illustrator 24.3.0, SVG Export Plug-In . SVG Version: 6.00 Build 0)  -->
<svg version="1.1" id="Layer_1" xmlns="http://www.w3.org/2000/svg" xmlns:xlink="http://www.w3.org/1999/xlink" x="0px" y="0px"
	 viewBox="0 0 376 314.3" style="enable-background:new 0 0 376 314.3;" xml:space="preserve">
<g id="Jamaican_Dollar">
	<path d="M253.6,234.8c0-21.3,0.1-41.5-0.2-61.7c0-1.6-2.7-4-4.6-4.6c-14.9-4.4-29.1-10.3-40.8-20.7c-31.3-27.8-26-79.4,10.6-99.9
		c9.1-5.1,19.7-7.6,29.8-10.6c3.7-1.1,5.5-2,5.3-6.2c-0.3-8-0.1-16-0.1-24.5c13.8,0,27.1,0,41.4,0c0,8,0.2,16.2-0.1,24.3
		c-0.2,4.3,1.3,5.8,5.6,6.6c35,6.4,55.9,26.3,61.5,58.3c0.7,4,0.7,8.1,1.1,13c-15.5,0-30.5,0.1-45.4-0.2c-1.2,0-2.9-3.2-3.4-5.1
		c-3.8-13.4-9.1-20.5-18.9-24.3c0,17.1,0,34.1,0,50.7c12.5,4.7,25.1,8.7,37,14.2c21.3,9.7,33.8,26.8,36.6,50
		c5.2,43.6-20.2,75.9-64.7,82.9c-3,0.5-5.9,0.9-9.4,1.5c0,9.8,0,19.3,0,29.3c-13.8,0-27.1,0-41.5,0c0-8-0.2-16.1,0.1-24.3
		c0.1-4.2-1-5.9-5.5-6.7c-38.8-7.4-62.3-31.7-68.6-70.9c-0.6-3.6-0.6-7.3-1-12c8.9,0,17.2,0,25.6,0c6.3,0,14-2.1,18.5,0.7
		c4.2,2.6,4.9,10.6,7.3,16.2C234.5,221.5,241.4,230,253.6,234.8z M295.4,236.2c15.2-3,26.6-15.3,26.9-28.9
		c0.4-13.1-7.7-21-26.9-26.1C295.4,199.5,295.4,217.6,295.4,236.2z M253.2,77.9c-12.5,2.2-20.5,10.4-20.2,20.3
		c0.3,9.7,9.5,18.7,20.2,19.6C253.2,104.5,253.2,91.2,253.2,77.9z"/>
	<path d="M109.4,40.1c16.1,0,31.4,0,47.5,0c0.1,2.3,0.3,4.6,0.3,6.9c0,48.8,0.1,97.6-0.1,146.5c0,9.3-0.5,18.7-2,27.9
		c-5.6,33.8-28.7,55.5-63,57.8c-13,0.9-26.7,0.2-39.3-2.8C26.5,270.2,10,248,7.1,217.9c-0.5-4.7-0.7-9.4-1-14.6
		c15.3-1.8,29.9-3.5,44.8-5.2c1,6.5,1.6,12.8,3,18.8c4.5,19.5,23.8,28.2,41.7,19.3c7.1-3.5,10.5-9.8,11.5-17.1
		c1.2-9.4,2.2-19,2.3-28.5c0.2-47.5,0.1-95,0.1-142.4C109.4,45.6,109.4,43,109.4,40.1z"/>
</g>
</svg>
