<?xml version="1.0" encoding="utf-8"?>
<!-- Generator: Adobe Illustrator 24.3.0, SVG Export Plug-In . SVG Version: 6.00 Build 0)  -->
<svg version="1.1" id="Layer_1" xmlns="http://www.w3.org/2000/svg" xmlns:xlink="http://www.w3.org/1999/xlink" x="0px" y="0px"
	 viewBox="0 0 376 325" style="enable-background:new 0 0 376 325;" xml:space="preserve">
<path d="M49.5,109.4V63.3H74c5.8,0,10,1.1,12.8,3.2c2.8,2.1,4.2,5.1,4.2,9.2c0,2.7-0.8,4.9-2.4,6.8c-1.6,1.9-4.1,3.1-7.5,3.6v0.1
	c3.8,0.5,6.6,1.7,8.4,3.6c1.8,2,2.7,4.4,2.7,7.3c0,4-1.4,7.1-4.2,9.1c-2.8,2.1-6.9,3.1-12.5,3.1H49.5z M63.2,81.6h8
	c3.5,0,5.2-1.4,5.2-4.1c0-2.7-1.7-4.1-5.2-4.1h-8V81.6z M63.2,99.8h9c1.8,0,3.2-0.4,4-1.1c0.9-0.7,1.3-1.8,1.3-3.1
	c0-1.3-0.4-2.4-1.3-3.1c-0.9-0.7-2.2-1-4-1h-9V99.8z"/>
<path d="M109.1,61.5c2,0,3.5,0.4,4.8,1.3c1.2,0.9,2.1,2,2.7,3.4c0.6,1.4,0.9,2.9,0.9,4.5c0,2.3-0.5,4.5-1.5,6.6
	c-1,2.1-2.3,3.9-3.9,5.4c-1.6,1.5-3.3,2.7-5,3.4l-5.4-3.8c1.3-0.6,2.5-1.2,3.6-2c1.2-0.8,2.2-1.7,3.1-2.6c0.9-0.9,1.6-1.9,2.1-2.9
	l-0.3-0.3c-0.3,0.2-0.6,0.3-1,0.5c-0.4,0.1-0.9,0.2-1.6,0.2c-0.9,0-1.9-0.2-2.8-0.7c-0.9-0.5-1.7-1.2-2.4-2.1c-0.7-0.9-1-2.1-1-3.5
	c0-1.7,0.4-3.1,1.1-4.2c0.7-1.1,1.7-1.9,2.9-2.4C106.6,61.8,107.8,61.5,109.1,61.5z"/>
<path d="M170.3,95.7c-0.8,3.4-2.2,6.2-4.2,8.3c-2,2.1-4.4,3.7-7.2,4.6c-2.8,1-5.9,1.4-9.3,1.4c-4.7,0-8.9-0.9-12.3-2.8
	c-3.5-1.9-6.1-4.6-8-8.1c-1.9-3.5-2.8-7.8-2.8-12.8c0-5,0.9-9.2,2.8-12.8c1.9-3.5,4.5-6.2,8-8.1c3.5-1.9,7.6-2.8,12.3-2.8
	c3.4,0,6.4,0.5,9.2,1.4c2.8,0.9,5.2,2.4,7.2,4.3c2,2,3.3,4.5,4,7.6l-12.4,5c-0.5-3-1.4-5-2.7-5.9c-1.3-1-2.9-1.5-4.9-1.5
	c-1.9,0-3.5,0.5-4.8,1.4c-1.3,1-2.3,2.4-3,4.3c-0.7,1.9-1,4.3-1,7.2c0,2.8,0.3,5.2,0.9,7.1c0.6,1.9,1.6,3.3,2.9,4.3
	c1.3,1,3.1,1.4,5.2,1.4c1.9,0,3.5-0.6,4.8-1.7c1.3-1.1,2.2-2.9,2.6-5.2L170.3,95.7z"/>
<path d="M223.8,109.4h-14.7l-2.6-9.6h-14l-2.7,9.6h-14.2l15.5-46.1h17.1L223.8,109.4z M194.9,90.6h9.4l-4.7-17.2L194.9,90.6z"/>
<path d="M251.4,62.7c4.4,0,8.3,0.6,11.7,1.8c3.4,1.2,6.4,3,8.9,5.4l-6.2,9.1c-2.1-1.8-4.3-3.2-6.7-4.2c-2.4-1-4.9-1.5-7.8-1.5
	c-1.4,0-2.6,0.1-3.5,0.4c-0.9,0.3-1.5,0.7-1.9,1.2c-0.4,0.5-0.6,1-0.6,1.6c0,0.7,0.5,1.4,1.4,1.8c0.9,0.5,2.2,0.9,3.8,1.3l7,1.6
	c4.7,1.1,8.1,2.6,10.4,4.7c2.3,2.1,3.4,4.9,3.4,8.5c0,3.5-0.9,6.4-2.6,8.7c-1.7,2.3-4.1,4.1-7.2,5.2c-3,1.2-6.4,1.7-10.3,1.7
	c-3,0-6-0.3-8.8-0.9s-5.5-1.5-7.9-2.6c-2.4-1.1-4.4-2.5-6.1-4.1l6.1-9.4c1.3,1.2,2.8,2.3,4.6,3.2c1.8,1,3.7,1.7,5.8,2.3
	c2,0.6,4,0.8,5.9,0.8c1.3,0,2.5-0.1,3.3-0.4c0.9-0.3,1.5-0.6,1.8-1.1c0.4-0.5,0.6-1,0.6-1.7c0-0.8-0.3-1.4-0.9-1.9
	c-0.6-0.5-1.7-0.9-3.4-1.3l-7.7-1.7c-2.5-0.6-4.8-1.3-7-2.3c-2.1-1-3.9-2.3-5.1-4.1c-1.3-1.7-1.9-4-1.9-6.9c0-3,0.8-5.7,2.4-8
	c1.6-2.3,4-4.1,7.1-5.4C243.3,63.3,247,62.7,251.4,62.7z"/>
<path d="M322.5,63.3V74h-14.7v35.4h-14.2V74h-14.8V63.3H322.5z"/>
<path d="M283.3,204.2c23.9,0,43.3,19.4,43.3,43.3c0,23.9-19.4,43.3-43.3,43.3c-23.9,0-43.3-19.4-43.3-43.3
	C239.9,223.6,259.4,204.2,283.3,204.2 M283.3,184.4c-34.9,0-63.1,28.3-63.1,63.1c0,34.9,28.3,63.1,63.1,63.1
	c34.9,0,63.1-28.3,63.1-63.1C346.4,212.7,318.1,184.4,283.3,184.4L283.3,184.4z"/>
<path d="M274.6,221.4h17.9v17.7h16.8v17.4h-16.8v17.4h-17.4v-17.7h-17.9v-17.1h17.1C274.3,239.1,275,221.9,274.6,221.4z"/>
<path d="M206.6,182.3c0,0,22.6-22.1,1.8-44c-8.1-8.6-19.9-12.8-31.4-10.5c-10.2,2-21,9.3-23.5,30.1c-0.6,5.1,0.1,10.4,2.3,15
	c1.5,3.2,3.9,6.5,7.6,9.3c0,0-19.2,8.3-26.5,32.5c0,0-7.3-6-12.6-6c0,0,16.2-12.3,15.9-31.5c-0.2-11.7-5.5-24.7-16.3-33.1
	c-14.9-11.7-35.9-10.9-50.6,1c-5.1,4.1-9.7,9.9-12.4,17.9c-2.7,8.3-2.6,17.3,0.2,25.6c2.1,6.3,6.1,13.8,13.5,19.4
	c0,0-37.7,13.3-41.5,59.1h13v-3.7c0,0,0.9-27.3,28.8-40.4c16.2-7.6,35.1-7.6,50.9,0.7c9.5,5,19,13.6,23.9,28.2
	c1.6,4.9,2.5,10,2.7,15.2h13.6c-0.6-11.2-4-27.7-17.2-41.8c0,0,0.7-22.3,20.5-31.4c10-4.6,21.6-4,31.4,1c9.7,5,20.6,15.1,20.2,34.8
	c-0.1,3,1.4,5.9,4,7.3c1.8,1,4.1,1.3,6.5-0.5c2-1.5,3.1-3.9,3.2-6.4C234.9,221.7,233.2,196.9,206.6,182.3z M99.7,202.5
	c-15.7,0-27-11-27-26.6s11.7-27,27.3-27c15.7,0,26.3,11.7,26.3,27.3S115.4,202.5,99.7,202.5z M184.1,178.8
	c-10.8,0-19.5-8.7-19.5-19.5c0-10.8,8.7-19.5,19.5-19.5c10.8,0,19.5,8.7,19.5,19.5C203.6,170,194.9,178.8,184.1,178.8z"/>
<polygon points="14.6,19.5 14.6,277.1 230.5,277.1 230.5,261.9 33.6,261.9 33.6,34.7 343.8,34.7 343.8,261.9 334.4,261.9 
	334.4,277.1 362.8,277.1 362.8,19.5 "/>
<rect x="236.8" y="122.4" width="90.3" height="16.1"/>
<rect x="236.8" y="151.5" width="89.3" height="8.3"/>
</svg>
