<?xml version="1.0" encoding="utf-8"?>
<!-- Generator: Adobe Illustrator 24.3.0, SVG Export Plug-In . SVG Version: 6.00 Build 0)  -->
<svg version="1.1" id="Layer_1" xmlns="http://www.w3.org/2000/svg" xmlns:xlink="http://www.w3.org/1999/xlink" x="0px" y="0px"
	 viewBox="0 0 376 325" style="enable-background:new 0 0 376 325;" xml:space="preserve">
<ellipse cx="73" cy="177.9" rx="24.2" ry="24.7"/>
<ellipse cx="132.8" cy="162.8" rx="28.9" ry="29.5"/>
<path d="M154.1,264.1c0,0-9.3-24.8,11.5-54.9c0,0-41.5-28.7-69.7,15.8c-4.9,7.7-8,16.6-8.2,25.7c-0.1,4.1,0.3,8.3,1.7,12
	C89.4,262.8,153,265.2,154.1,264.1z"/>
<path d="M81,215.5c0,0-13.2,28.5-6,45.5H31.7C31.7,261,30.6,207.3,81,215.5z"/>
<path d="M256,187.3c-34.6,0-62.7,28.1-62.7,62.7c0,34.6,28.1,62.7,62.7,62.7s62.7-28.1,62.7-62.7C318.7,215.4,290.6,187.3,256,187.3
	z M300.1,261h-31.6v34.1H246V262h-31.6V237h32.1c0,0,0-29.1,0.5-29.1h21.6v32.6h31.6V261z"/>
<path d="M341.7,37.6v151c-19.2-26.1-50.2-43.1-85.1-43.1c-58.2,0-105.6,47.4-105.6,105.6c0,3.1,0.1,6.1,0.4,9.1H38.8V37.6H341.7
	 M349.8,16.2H30.6c-7.3,0-13.3,6-13.3,13.3v239c0,7.3,6,13.3,13.3,13.3h147.6c-3.7-9.5-5.7-19.8-5.7-30.6
	c0-46.5,37.7-84.2,84.2-84.2s84.2,37.7,84.2,84.2c0,10.8-2,21.1-5.7,30.6h14.8c7.3,0,13.3-6,13.3-13.3v-239
	C363.1,22.2,357.1,16.2,349.8,16.2L349.8,16.2z"/>
<path d="M53.4,112.3V65.2h25c5.9,0,10.3,1.1,13.1,3.2c2.8,2.1,4.2,5.2,4.2,9.4c0,2.7-0.8,5-2.5,7c-1.6,2-4.2,3.2-7.7,3.7v0.1
	c3.9,0.5,6.7,1.7,8.6,3.7c1.9,2,2.8,4.5,2.8,7.4c0,4.1-1.4,7.2-4.2,9.3c-2.8,2.1-7.1,3.2-12.8,3.2H53.4z M67.4,83.9h8.1
	c3.6,0,5.4-1.4,5.4-4.2c0-2.8-1.8-4.2-5.4-4.2h-8.1V83.9z M67.4,102.4h9.2c1.9,0,3.2-0.4,4.1-1.1c0.9-0.7,1.4-1.8,1.4-3.2
	c0-1.4-0.5-2.4-1.4-3.1c-0.9-0.7-2.3-1.1-4.1-1.1h-9.2V102.4z"/>
<path d="M114.4,63.3c2,0,3.6,0.4,4.9,1.3c1.3,0.9,2.2,2,2.8,3.5c0.6,1.4,0.9,3,0.9,4.6c0,2.4-0.5,4.6-1.6,6.8c-1,2.1-2.4,4-4,5.6
	c-1.6,1.6-3.3,2.7-5.1,3.4l-5.6-3.9c1.3-0.6,2.5-1.3,3.7-2.1c1.2-0.8,2.2-1.7,3.2-2.6c0.9-1,1.6-1.9,2.1-2.9l-0.4-0.3
	c-0.3,0.2-0.6,0.3-1,0.5c-0.4,0.1-0.9,0.2-1.6,0.2c-1,0-1.9-0.2-2.9-0.7c-1-0.5-1.8-1.2-2.4-2.1c-0.7-0.9-1-2.1-1-3.5
	c0-1.8,0.4-3.2,1.1-4.3c0.8-1.1,1.8-1.9,3-2.5C111.8,63.6,113,63.3,114.4,63.3z"/>
<path d="M177,98.3c-0.9,3.5-2.3,6.3-4.3,8.5c-2,2.2-4.5,3.8-7.3,4.7c-2.9,1-6.1,1.5-9.5,1.5c-4.9,0-9.1-1-12.6-2.9
	c-3.5-1.9-6.3-4.7-8.2-8.3c-1.9-3.6-2.9-8-2.9-13.1c0-5.1,1-9.4,2.9-13.1c1.9-3.6,4.6-6.4,8.2-8.3c3.5-1.9,7.7-2.9,12.5-2.9
	c3.4,0,6.6,0.5,9.5,1.4c2.9,1,5.3,2.4,7.3,4.4s3.4,4.6,4.1,7.8l-12.6,5.1c-0.5-3-1.4-5.1-2.7-6.1c-1.3-1-3-1.5-5-1.5
	c-1.9,0-3.5,0.5-4.9,1.5c-1.4,1-2.4,2.4-3.1,4.4c-0.7,1.9-1,4.4-1,7.3c0,2.9,0.3,5.3,1,7.3c0.6,2,1.6,3.4,3,4.4
	c1.4,1,3.1,1.5,5.3,1.5c2,0,3.6-0.6,4.9-1.7c1.3-1.1,2.2-2.9,2.6-5.4L177,98.3z"/>
<path d="M231.6,112.3h-15l-2.6-9.8h-14.3l-2.7,9.8h-14.6l15.8-47.1h17.5L231.6,112.3z M202.1,93.1h9.6l-4.8-17.6L202.1,93.1z"/>
<path d="M259.8,64.4c4.5,0,8.4,0.6,11.9,1.8c3.5,1.2,6.5,3.1,9.1,5.5l-6.4,9.3c-2.1-1.8-4.4-3.2-6.8-4.2c-2.4-1-5.1-1.5-8-1.5
	c-1.5,0-2.7,0.1-3.6,0.4c-0.9,0.3-1.6,0.7-2,1.2s-0.6,1.1-0.6,1.7c0,0.8,0.5,1.4,1.4,1.9c0.9,0.5,2.2,0.9,3.9,1.3l7.1,1.6
	c4.8,1.1,8.3,2.7,10.6,4.8c2.3,2.1,3.5,5,3.5,8.7c0,3.6-0.9,6.5-2.7,8.9c-1.8,2.4-4.2,4.2-7.3,5.4c-3.1,1.2-6.6,1.8-10.5,1.8
	c-3.1,0-6.1-0.3-9-0.9s-5.6-1.5-8-2.7c-2.4-1.2-4.5-2.6-6.3-4.2l6.3-9.6c1.3,1.2,2.9,2.3,4.7,3.3c1.9,1,3.8,1.7,5.9,2.3
	c2.1,0.6,4.1,0.9,6.1,0.9c1.4,0,2.5-0.1,3.4-0.4c0.9-0.3,1.5-0.6,1.9-1.1c0.4-0.5,0.6-1,0.6-1.7c0-0.8-0.3-1.5-0.9-2
	c-0.6-0.5-1.8-0.9-3.5-1.3l-7.8-1.8c-2.6-0.6-4.9-1.4-7.1-2.4c-2.2-1-3.9-2.4-5.2-4.2c-1.3-1.8-2-4.1-2-7c0-3.1,0.8-5.8,2.5-8.2
	c1.7-2.4,4.1-4.2,7.3-5.6C251.5,65.1,255.3,64.4,259.8,64.4z"/>
<path d="M332.4,65.2v10.9h-15v36.2h-14.6V76.1h-15.1V65.2H332.4z"/>
</svg>
