<?xml version="1.0" encoding="utf-8"?>
<!-- Generator: Adobe Illustrator 24.3.0, SVG Export Plug-In . SVG Version: 6.00 Build 0)  -->
<svg version="1.1" id="Layer_1" xmlns="http://www.w3.org/2000/svg" xmlns:xlink="http://www.w3.org/1999/xlink" x="0px" y="0px"
	 viewBox="0 0 589 589" style="enable-background:new 0 0 589 589;" xml:space="preserve">
<path d="M93.5,226.3v-68h36.2c8.5,0.1,14.8,1.6,18.9,4.7c4.1,3.1,6.1,7.6,6.1,13.5c0,3.9-1.2,7.3-3.6,10.1
	c-2.4,2.8-6.1,4.6-11.1,5.4v0.1c5.6,0.7,9.7,2.5,12.4,5.4c2.7,2.9,4,6.5,4,10.7c0,5.9-2,10.4-6.1,13.5c-4.1,3.1-10.2,4.6-18.5,4.6
	H93.5z M113.6,185.3h11.7c5.1,0,7.7-2,7.7-6.1c0-4.1-2.6-6.1-7.7-6.1h-11.7V185.3z M113.6,212.1h13.3c2.7,0,4.7-0.5,6-1.6
	c1.3-1.1,2-2.6,2-4.6c0-2-0.7-3.5-2-4.5c-1.3-1-3.3-1.5-6-1.5h-13.3V212.1z"/>
<path d="M181.4,155.7c2.9,0,5.2,0.6,7.1,1.9c1.8,1.3,3.2,2.9,4,5c0.9,2.1,1.3,4.3,1.3,6.6c0,3.4-0.8,6.7-2.3,9.8
	c-1.5,3.1-3.5,5.8-5.8,8c-2.4,2.3-4.8,3.9-7.4,4.9l-8-5.7c1.9-0.8,3.6-1.8,5.4-3c1.7-1.2,3.2-2.4,4.6-3.8c1.3-1.4,2.4-2.8,3-4.2
	l-0.5-0.4c-0.4,0.3-0.9,0.5-1.5,0.7c-0.6,0.2-1.4,0.3-2.3,0.3c-1.4,0-2.7-0.3-4.1-1c-1.4-0.7-2.5-1.7-3.5-3c-1-1.3-1.4-3-1.4-5.1
	c0-2.5,0.5-4.6,1.6-6.2c1.1-1.6,2.5-2.8,4.3-3.6C177.6,156.1,179.5,155.7,181.4,155.7z"/>
<path d="M271.7,206.1c-1.2,5-3.3,9.1-6.2,12.3c-2.9,3.2-6.5,5.4-10.6,6.8c-4.2,1.4-8.7,2.1-13.8,2.1c-7,0-13.1-1.4-18.2-4.2
	c-5.1-2.8-9-6.8-11.8-12c-2.7-5.2-4.1-11.5-4.1-18.8c0-7.3,1.4-13.6,4.1-18.8c2.7-5.2,6.7-9.2,11.8-12c5.1-2.8,11.1-4.2,18.1-4.2
	c4.9,0,9.5,0.7,13.6,2.1c4.2,1.4,7.7,3.5,10.6,6.4c2.9,2.9,4.8,6.6,5.9,11.2l-18.2,7.3c-0.8-4.4-2.1-7.3-4-8.8
	c-1.9-1.4-4.3-2.2-7.3-2.2c-2.7,0-5.1,0.7-7.1,2.1c-2,1.4-3.4,3.5-4.4,6.3c-1,2.8-1.5,6.3-1.5,10.6c0,4.2,0.5,7.7,1.4,10.5
	c0.9,2.8,2.4,4.9,4.3,6.3c2,1.4,4.5,2.1,7.7,2.1c2.8,0,5.2-0.8,7.1-2.5c1.9-1.6,3.2-4.2,3.8-7.7L271.7,206.1z"/>
<path d="M350.6,226.3H329l-3.8-14.1h-20.7l-3.9,14.1h-21l22.9-68h25.2L350.6,226.3z M308,198.6h13.8l-6.9-25.3L308,198.6z"/>
<path d="M391.3,157.3c6.5,0,12.2,0.9,17.2,2.6c5,1.8,9.4,4.4,13.2,8l-9.2,13.5c-3.1-2.6-6.4-4.7-9.8-6.1c-3.5-1.5-7.3-2.2-11.5-2.2
	c-2.1,0-3.8,0.2-5.2,0.6s-2.2,1-2.8,1.7c-0.6,0.7-0.9,1.5-0.9,2.4c0,1.1,0.7,2,2,2.7c1.3,0.7,3.2,1.3,5.6,1.9l10.3,2.4
	c6.9,1.6,12,3.9,15.3,7c3.4,3.1,5,7.2,5,12.5c0,5.1-1.3,9.4-3.9,12.9s-6.1,6-10.6,7.7c-4.5,1.7-9.5,2.6-15.1,2.6
	c-4.5,0-8.8-0.4-13-1.3c-4.2-0.9-8.1-2.2-11.6-3.9c-3.5-1.7-6.5-3.7-9.1-6l9.1-13.9c1.9,1.8,4.1,3.4,6.8,4.8
	c2.7,1.4,5.5,2.5,8.5,3.3c3,0.8,5.9,1.2,8.8,1.2c2,0,3.6-0.2,4.9-0.6c1.3-0.4,2.2-0.9,2.7-1.6c0.5-0.7,0.8-1.5,0.8-2.5
	c0-1.2-0.4-2.1-1.3-2.8c-0.9-0.7-2.6-1.4-5-1.9l-11.3-2.6c-3.7-0.8-7.1-2-10.3-3.4c-3.2-1.4-5.7-3.5-7.6-6c-1.9-2.6-2.8-6-2.8-10.1
	c0-4.5,1.2-8.4,3.6-11.8c2.4-3.4,5.9-6.1,10.5-8C379.3,158.3,384.9,157.3,391.3,157.3z"/>
<path d="M496.2,158.4v15.8h-21.6v52.2h-21v-52.2h-21.8v-15.8H496.2z"/>
<path d="M100.4,435.9c0-0.8,0.1-1.7,0.1-2.5c0-5.1,2-33.3,43.9-36.8c46-3.9,78.6,3,83.3,34.1c4.7,31.2-11.6,30.2-11.6,30.2H112.7
	C112.7,460.8,99.3,462.2,100.4,435.9z"/>
<ellipse cx="166.4" cy="350.9" rx="31.2" ry="31.2"/>
<ellipse cx="236.8" cy="366.9" rx="24.8" ry="24.8"/>
<path d="M305.9,501.2H92.4c-23.8,0-43.2-19.4-43.2-43.2V139.1c0-23.8,19.4-43.2,43.2-43.2h400.8c23.8,0,43.2,19.4,43.2,43.2V309
	c14.3,11.5,26.5,25.4,36,41.2V118.9c0-31.5-25.8-57.4-57.4-57.4H74.4C42.8,61.5,17,87.4,17,118.9v356.9c0,31.6,25.8,57.4,57.4,57.4
	h254.5C319.9,523.6,312.2,512.9,305.9,501.2z"/>
<path d="M443.9,320.3c-63.3,0-114.6,51.3-114.6,114.6c0,63.3,51.3,114.6,114.6,114.6c63.3,0,114.6-51.3,114.6-114.6
	C558.5,371.6,507.2,320.3,443.9,320.3z M497,510.1l-54.8-40.9l-54.8,40.9l21.9-64.7l-55.8-39.5l68.3,0.8l20.3-65.3l20.3,65.3
	l68.3-0.8l-55.8,39.5L497,510.1z"/>
<path d="M237.5,402.4c0,0,30.1-3.9,41.9,17.9c12.7,23.6,11.9,37.8,2,40.9c-10.3,3.2-41.2,0.2-41.2,0.2s11.9-21.8,4.8-35.6
	C237.8,411.9,225.2,403.9,237.5,402.4z"/>
<path d="M471.8,287.5H109.3c-8.2,0-14.8-6.7-14.8-14.8v-4c0-8.2,6.7-14.8,14.8-14.8h362.5c8.2,0,14.8,6.7,14.8,14.8v4
	C486.7,280.8,480,287.5,471.8,287.5z"/>
</svg>
