<?xml version="1.0" encoding="utf-8"?>
<!-- Generator: Adobe Illustrator 24.3.0, SVG Export Plug-In . SVG Version: 6.00 Build 0)  -->
<svg version="1.1" id="Layer_1" xmlns="http://www.w3.org/2000/svg" xmlns:xlink="http://www.w3.org/1999/xlink" x="0px" y="0px"
	 viewBox="0 0 376 325" style="enable-background:new 0 0 376 325;" xml:space="preserve">
<style type="text/css">
	.st0{enable-background:new    ;}
</style>
<ellipse cx="125.5" cy="166.3" rx="20.9" ry="20.1"/>
<circle cx="168.6" cy="162.8" r="16.6"/>
<circle cx="82.2" cy="163.2" r="17"/>
<path d="M101.6,189.2c0,0-2.4-2.7-7.4-2.7s-35.9-7.1-42.1,12.1s19,10.4,30.8,13C83,211.7,88.6,195.1,101.6,189.2z"/>
<path d="M148.7,189.5c0,0,2.4-2.7,7.4-2.7s35.9-7.1,42.1,12.1s-19,10.4-30.8,13C167.3,212,161.7,195.4,148.7,189.5z"/>
<path d="M100.8,226.8c-2.4,0-4.9-0.5-6.9-1.8c-2.2-1.4-4.4-3.8-4.1-7.6c0.6-7.7,5.3-20.1,24-24.3s32.9,0.9,39.4,8
	c5.5,6,10.8,16.2,5,22.3c-1.8,1.9-4.5,2.9-7.2,2.9L100.8,226.8z"/>
<path d="M200.7,257.5H46.6c-1.7,0-3.2-1.4-3.2-3.2v-10.6c0-1.7,1.4-3.2,3.2-3.2h154.1c1.7,0,3.2,1.4,3.2,3.2v10.6
	C203.9,256,202.4,257.5,200.7,257.5z"/>
<g class="st0">
	<path d="M52.5,123.2V77.1H77c5.8,0,10,1.1,12.8,3.2c2.8,2.1,4.2,5.1,4.2,9.2c0,2.7-0.8,4.9-2.4,6.8c-1.6,1.9-4.1,3.1-7.5,3.6v0.1
		c3.8,0.5,6.6,1.7,8.4,3.6c1.8,2,2.7,4.4,2.7,7.3c0,4-1.4,7.1-4.2,9.1c-2.8,2.1-6.9,3.1-12.5,3.1H52.5z M66.1,95.4h8
		c3.5,0,5.2-1.4,5.2-4.1c0-2.7-1.7-4.1-5.2-4.1h-8V95.4z M66.1,113.6h9c1.8,0,3.2-0.4,4-1.1c0.9-0.7,1.3-1.8,1.3-3.1
		c0-1.3-0.4-2.4-1.3-3.1c-0.9-0.7-2.2-1-4-1h-9V113.6z"/>
	<path d="M111.6,75.3c2,0,3.5,0.4,4.8,1.3c1.2,0.9,2.1,2,2.7,3.4c0.6,1.4,0.9,2.9,0.9,4.5c0,2.3-0.5,4.5-1.5,6.6
		c-1,2.1-2.3,3.9-3.9,5.4c-1.6,1.5-3.3,2.7-5,3.4L104,96c1.3-0.6,2.5-1.2,3.6-2c1.2-0.8,2.2-1.7,3.1-2.6c0.9-0.9,1.6-1.9,2.1-2.9
		l-0.3-0.3c-0.3,0.2-0.6,0.3-1,0.5c-0.4,0.1-0.9,0.2-1.6,0.2c-0.9,0-1.9-0.2-2.8-0.7c-0.9-0.5-1.7-1.2-2.4-2.1c-0.7-0.9-1-2.1-1-3.5
		c0-1.7,0.4-3.1,1.1-4.2c0.7-1.1,1.7-1.9,2.9-2.4C109,75.6,110.3,75.3,111.6,75.3z"/>
	<path d="M172.3,109.5c-0.8,3.4-2.2,6.2-4.2,8.3c-2,2.1-4.4,3.7-7.2,4.6c-2.8,1-5.9,1.4-9.3,1.4c-4.7,0-8.9-0.9-12.3-2.8
		c-3.5-1.9-6.1-4.6-8-8.1c-1.9-3.5-2.8-7.8-2.8-12.8c0-5,0.9-9.2,2.8-12.8c1.9-3.5,4.5-6.2,8-8.1c3.5-1.9,7.6-2.8,12.3-2.8
		c3.4,0,6.4,0.5,9.2,1.4c2.8,0.9,5.2,2.4,7.2,4.3c2,2,3.3,4.5,4,7.6l-12.4,5c-0.5-3-1.4-5-2.7-5.9c-1.3-1-2.9-1.5-4.9-1.5
		c-1.9,0-3.5,0.5-4.8,1.4c-1.3,1-2.3,2.4-3,4.3c-0.7,1.9-1,4.3-1,7.2c0,2.8,0.3,5.2,0.9,7.1c0.6,1.9,1.6,3.3,2.9,4.3
		c1.3,1,3.1,1.4,5.2,1.4c1.9,0,3.5-0.6,4.8-1.7c1.3-1.1,2.2-2.9,2.6-5.2L172.3,109.5z"/>
	<path d="M225.3,123.2h-14.7l-2.6-9.6h-14l-2.7,9.6h-14.2l15.5-46.1h17.1L225.3,123.2z M196.4,104.4h9.4l-4.7-17.2L196.4,104.4z"/>
	<path d="M252.4,76.4c4.4,0,8.3,0.6,11.7,1.8c3.4,1.2,6.4,3,8.9,5.4l-6.2,9.1c-2.1-1.8-4.3-3.2-6.7-4.2c-2.3-1-4.9-1.5-7.8-1.5
		c-1.4,0-2.6,0.1-3.5,0.4c-0.9,0.3-1.5,0.7-1.9,1.2c-0.4,0.5-0.6,1-0.6,1.6c0,0.7,0.5,1.4,1.4,1.8c0.9,0.5,2.2,0.9,3.8,1.3l7,1.6
		c4.7,1.1,8.1,2.6,10.4,4.7c2.3,2.1,3.4,4.9,3.4,8.5c0,3.5-0.9,6.4-2.6,8.7c-1.7,2.3-4.1,4.1-7.2,5.2c-3,1.2-6.4,1.7-10.3,1.7
		c-3,0-6-0.3-8.8-0.9c-2.9-0.6-5.5-1.5-7.9-2.6c-2.4-1.1-4.4-2.5-6.1-4.1l6.1-9.4c1.3,1.2,2.8,2.3,4.6,3.2c1.8,1,3.7,1.7,5.8,2.3
		s4,0.8,5.9,0.8c1.3,0,2.5-0.1,3.3-0.4c0.9-0.3,1.5-0.6,1.8-1.1c0.4-0.5,0.6-1,0.6-1.7c0-0.8-0.3-1.4-0.9-1.9
		c-0.6-0.5-1.7-0.9-3.4-1.3l-7.7-1.7c-2.5-0.6-4.8-1.3-7-2.3s-3.9-2.3-5.1-4.1c-1.3-1.7-1.9-4-1.9-6.9c0-3,0.8-5.7,2.4-8
		c1.6-2.3,4-4.1,7.1-5.4C244.3,77.1,248,76.4,252.4,76.4z"/>
	<path d="M323,77.1v10.7h-14.7v35.4h-14.2V87.8h-14.8V77.1H323z"/>
</g>
<path d="M262.7,216.3c23.9,0,43.3,19.4,43.3,43.3S286.6,303,262.7,303s-43.3-19.4-43.3-43.3S238.8,216.3,262.7,216.3 M262.7,196.6
	c-34.9,0-63.1,28.3-63.1,63.1c0,34.9,28.3,63.1,63.1,63.1c34.9,0,63.1-28.3,63.1-63.1C325.8,224.8,297.6,196.6,262.7,196.6
	L262.7,196.6z"/>
<path d="M254,233.6h18v17.7h16.8v17.4H272V286h-17.4v-17.7h-17.9v-17.1h17.1C253.7,251.3,254.4,234,254,233.6z"/>
<path d="M352.1,45.1H25.7c-8.2,0-14.8,6.7-14.8,14.8v206.5c0,8.2,6.7,14.8,14.8,14.8h183c-0.8-1.8-1.2-3.7-1.2-5.8v-9.1v-0.1H25.9
	V60.1H352v206.2h-35.1v0.1v9.1c0,2-0.4,4-1.2,5.8h36.5c8.2,0,14.8-6.7,14.8-14.8V59.9C367,51.7,360.3,45.1,352.1,45.1z"/>
<path d="M317.5,156h-87.3c-3.6,0-6.5-2.9-6.5-6.5l0,0c0-3.6,2.9-6.5,6.5-6.5h87.3c3.6,0,6.5,2.9,6.5,6.5l0,0
	C324,153.1,321.1,156,317.5,156z"/>
<path d="M316.5,182.3h-85c-4,0-7.3-3.3-7.3-7.3l0,0c0-4,3.3-7.3,7.3-7.3h85c4,0,7.3,3.3,7.3,7.3l0,0
	C323.7,179,320.5,182.3,316.5,182.3z"/>
</svg>
