<?xml version="1.0" encoding="utf-8"?>
<!-- Generator: Adobe Illustrator 24.3.0, SVG Export Plug-In . SVG Version: 6.00 Build 0)  -->
<svg version="1.1" id="Layer_1" xmlns="http://www.w3.org/2000/svg" xmlns:xlink="http://www.w3.org/1999/xlink" x="0px" y="0px"
	 viewBox="0 0 285.4 326" style="enable-background:new 0 0 285.4 326;" xml:space="preserve">
<path id="Japanese_Yen" d="M162.4,254.9c0,21.4,0,42.3,0,63.5c-13.2,0-26.2,0-39.4,0c0-21.1,0-42.1,0-63.3c-22.9,0-45.6,0-68.4,0
	c0-11.8,0-23.5,0-35.3c0.7,0,1.3-0.1,2-0.1c12.5,0,25.1,0.1,37.6,0.1c9,0,18-0.1,27-0.1c1.4,0,1.8-0.4,1.8-1.8c-0.1-5.5,0-11,0-16.5
	c0-0.5-0.1-1-0.1-1.7c-22.8,0-45.5,0-68.3,0c0-11.8,0-23.4,0-35.2c17,0,34,0,51.4,0C73.8,112.1,41.8,60,9.6,7.6c1,0,1.5,0,2.1,0
	c14.2,0,28.4,0,42.5,0c1.3,0,2,0.4,2.6,1.5c11.7,19.2,23.5,38.4,35.3,57.5c10.9,17.7,21.7,35.4,32.6,53c5.7,9.3,11.4,18.6,17.1,27.9
	c0.2,0.3,0.5,0.6,0.8,1.2c1.7-2.8,3.3-5.4,4.9-8c8.4-13.7,16.9-27.4,25.3-41.1c8.9-14.5,17.7-28.9,26.6-43.4
	c9.3-15.1,18.7-30.1,27.8-45.3c1.6-2.7,3.3-3.4,6.2-3.3c13.5,0.2,27,0.1,40.4,0.1c0.5,0,0.9,0,1.8,0
	c-32.2,52.4-64.2,104.5-96.4,156.8c17.2,0,34.2,0,51.3,0c0,11.8,0,23.5,0,35.3c-22.7,0-45.4,0-68.2,0c0,6.7,0,13.3,0,20
	c22.8,0,45.4,0,68.2,0c0,11.8,0,23.4,0,35.2C208.1,254.9,185.4,254.9,162.4,254.9z"/>
</svg>
