<?xml version="1.0" encoding="utf-8"?>
<!-- Generator: Adobe Illustrator 24.3.0, SVG Export Plug-In . SVG Version: 6.00 Build 0)  -->
<svg version="1.1" id="Layer_1" xmlns="http://www.w3.org/2000/svg" xmlns:xlink="http://www.w3.org/1999/xlink" x="0px" y="0px"
	 viewBox="0 0 376 295.5" style="enable-background:new 0 0 376 295.5;" xml:space="preserve">
<path id="Korean_won" d="M51.1,135.1c-2.3-8.8-4.4-17-6.6-25.5c-8.5,0-16.8,0-25.2,0c-7.7,0-9.4-1.7-9.4-9.4c0-2.8,0-5.6,0-8.3
	c0.1-5.4,2.2-7.6,7.6-7.7c6.6-0.1,13.2,0,20.1,0c-0.1-0.9-0.2-1.7-0.3-2.4c-5.6-21.5-11.1-43-16.7-64.4C19,11.2,21.4,8,27.9,8
	c8.2,0,16.5,0,24.7,0c4.9,0,6.3,1.1,7.5,5.9C65.7,36,71.2,58.1,76.6,80.2c0.8,3.2,2.1,4.1,5.3,4.1c21.2-0.1,42.4,0,63.6,0
	c1,0,2.1,0,3.4,0c2.1-7.9,4.2-15.7,6.3-23.5c4.2-15.4,8.3-30.8,12.5-46.2c1.5-5.4,3-6.5,8.6-6.5c7.3,0,14.6,0,21.9,0
	c4.7,0,6.5,1.3,7.7,5.8c6.1,22.2,12.2,44.4,18,66.6c0.8,3.1,2.1,3.9,5.1,3.9c21.7-0.2,43.4-0.2,65-0.1c2.7,0,3.7-0.9,4.4-3.5
	c5.5-21.7,11.1-43.4,16.7-65.2c1.8-6.9,2.7-7.7,9.7-7.7c7.7,0,15.3,0,23,0c6.6,0,9,3.1,7.3,9.6c-5.6,21.2-11.3,42.5-16.9,63.7
	c-0.2,0.8-0.3,1.6-0.6,3c3.3,0,6.4,0,9.4,0c4.1,0,8.1-0.1,12.2,0c4.4,0.2,6.5,2.4,6.6,6.8c0.1,3.8,0.1,7.6,0,11.5
	c-0.1,4.7-2.4,7-7.2,7c-8.3,0.1-16.7,0.1-25,0c-2.3,0-3.2,0.8-3.8,2.9c-1.8,7.4-3.8,14.7-5.9,22.6c1.6,0,2.8,0,4,0
	c10,0,19.9,0,29.9,0c5.9,0,7.9,2.1,8,7.9c0,3.2,0,6.5,0,9.7c-0.1,5.4-2.1,7.6-7.6,7.6c-12.5,0-25,0.1-37.6,0c-2.6,0-3.8,0.6-4.5,3.4
	c-10.3,38.9-20.7,77.8-31.1,116.6c-1.6,6.1-2.9,7.2-9.1,7.2c-9,0-18.1,0-27.1,0c-6,0-7.4-1.1-9-6.9c-6.5-24.2-13-48.4-19.5-72.7
	c-4.2-15.7-8.5-31.4-12.9-47.5c-4.8,0-9.5,0-14.3,0c-8,0-16,0.1-24,0c-2.3,0-3.4,0.5-4,3c-10.5,39.1-21.1,78.1-31.7,117.2
	c-1.6,6.1-2.9,7-9.2,7c-9.2,0-18.3,0-27.5,0c-5.1,0-6.7-1.3-8-6.3c-10.2-38.9-20.3-77.8-30.3-116.8c-0.8-3.2-2.1-4.2-5.3-4.1
	c-11.4,0.2-22.7,0.1-34.1,0.1c-7.8,0-9.4-1.6-9.4-9.3c0-2.9,0-5.8,0-8.7c0.1-5.1,2.2-7.2,7.2-7.3c9.9-0.1,19.7,0,29.6,0
	C48,135.1,49.2,135.1,51.1,135.1z M232.1,109.7c2.2,8.1,4.2,16.1,6.5,23.9c0.2,0.7,1.9,1.4,2.9,1.4c7.8,0.1,15.5,0.1,23.3,0.1
	c6.5,0,13,0,19.6,0c2.2-8.6,4.4-16.9,6.6-25.4C271.2,109.7,251.9,109.7,232.1,109.7z M84.1,109.7c2.1,8.2,3.9,16,6.1,23.8
	c0.2,0.7,1.7,1.5,2.6,1.5c13.4,0.1,26.8,0.1,40.3,0c0.8,0,2.2-0.7,2.4-1.3c2.3-7.9,4.4-15.9,6.7-24.1
	C122.6,109.7,103.7,109.7,84.1,109.7z M245.9,160.6c5.4,20,10.7,39.7,16,59.3c0.2,0,0.4,0,0.6,0c5.1-19.7,10.2-39.4,15.4-59.3
	C267.1,160.6,256.8,160.6,245.9,160.6z M111.7,221c5.6-20.8,11-40.5,16.4-60.4c-10.7,0-20.9,0-31.4,0
	C101.6,180.6,106.6,200.3,111.7,221z M173.4,134.8c9.3,0,18.2,0,27.4,0c-2.4-8.6-4.6-16.8-6.9-25.2c-4.2,0-8.1-0.1-12,0.1
	c-0.8,0-2,0.8-2.2,1.5C177.5,119,175.5,126.8,173.4,134.8z"/>
</svg>
