<?xml version="1.0" encoding="utf-8"?>
<!-- Generator: Adobe Illustrator 24.3.0, SVG Export Plug-In . SVG Version: 6.00 Build 0)  -->
<svg version="1.1" id="Layer_1" xmlns="http://www.w3.org/2000/svg" xmlns:xlink="http://www.w3.org/1999/xlink" x="0px" y="0px"
	 viewBox="0 0 376 282.2" style="enable-background:new 0 0 376 282.2;" xml:space="preserve">
<g id="Kuwaiti_Dinar">
	<path d="M186,189c-3.3-22.2-6.6-44.1-9.8-66.1c-2.9-19.7-5.8-39.4-8.5-59.2c-0.4-3.1-1.6-5-4.5-6c-3.9-1.3-5.5-4.1-5.3-8.2
		c0.5-12.7,2.6-25,7-36.9c0.1-0.2,0.1-0.3,0.2-0.5c1.6-3.9,3.7-5.7,6.2-5.5c2.9,0.2,6.9,3.7,7.3,6.9c0.4,3.4,2.2,5.6,5,6.9
		c5.2,2.5,10.5,4.8,15.9,6.9c7.8,3,8.3,3.3,7.4,11.7c-0.8,7.4-2,14.7-3.5,21.9c-0.8,3.9-2.6,7.5-6.2,9.9c-0.6,0.4-0.8,1.7-0.7,2.6
		c0.9,8.1,1.8,16.2,3,24.3c4.3,30.5,9.1,60.9,12.9,91.5c1.4,11.1,0.4,22.4,0.2,33.6c-0.1,4.7-0.8,5.4-5.5,5.6
		c-11.9,0.3-23.7,0.5-35.6,0.4c-31.3-0.2-62.5-0.5-93.8-0.7c-13.8-0.1-27.4-1.3-40.6-6.3c-17-6.4-25.5-18.8-27.3-36.4
		c-1.4-14.2,2.4-27.5,7.9-40.4c2.6-6.1,5.6-12,8.7-17.8c2-3.9,3.9-4.4,8.1-2.8c6,2.3,7.4,5,5.7,11.2c-1.4,5-3.3,10-4.9,15
		c-2,6-2.6,12.2-1.5,18.5c0.8,4.3,2.8,7.8,6.3,10.5c7.6,5.8,16.4,8.1,25.7,8.4c23.5,0.5,46.9,0.9,70.4,1.1c15.6,0.2,31.2,0,46.8,0
		C184.1,189,185.1,189,186,189z"/>
	<path d="M346.6,188.9c-0.9-13.4-2.7-26.4-7.9-38.7c-5.5-13-15.1-21.4-28-26.5c-1.1-0.4-2.2-0.9-3.2-1.4c-1.7-0.7-2.6-1.9-2.5-3.8
		c0.7-11.1,1.4-22.2,2.2-33.3c0.2-2.6,2-4.1,4.5-3.5c3,0.8,6.2,1.6,8.8,3.3c18.4,11.7,31.4,27.7,38.2,48.5c4.3,13,6.4,26.4,6.9,40
		c0.7,15.3,0.6,30.6,0.7,45.9c0,8.2-1,9.2-9.3,9.2c-22,0.1-44,0-66.1-0.1c-8.4,0-16.4-1.5-23.2-7.1c-5.2-4.3-8.1-9.6-8.6-16.3
		c-0.6-7.7,0.7-15.2,2.8-22.5c0.8-2.8,2.2-4.9,5.5-5.2c3.6-0.3,6.8,0.1,8.3,3.9c2.1,5.5,6.1,7.2,11.9,7.2c19-0.1,38.1,0.2,57.1,0.4
		C345.2,189,345.8,189,346.6,188.9z"/>
	<path d="M115.9,99.1c2.4,0,4.8,0.1,7.2,0c3.7-0.1,7.4-0.3,11.1-0.5c8.8-0.6,18.3,5.1,18.4,16.3c0.1,5,0.6,10,0.2,14.9
		c-1.1,13.4-8.4,22.8-19.9,29.2c-6.6,3.7-13.7,5.5-21.3,6c-18.5,1.4-36.2-2.6-53.5-8.7c-4-1.4-4.7-4-2.4-7.6
		c1.9-3.1,4.2-4.7,8.3-4.6c12,0.2,24.1-0.1,36.2-0.2c8.7-0.1,16.5-3,23.8-7.5c2-1.2,4.5-2.5,3.8-5.3c-0.7-2.9-3.5-2.5-5.7-2.5
		c-5.8-0.1-11.6,0.3-17.4,0.2c-7.3-0.1-13-5.5-13.2-12.8c-0.1-3.6,0.2-7.5,1.4-11c6.9-20.3,19.4-36.5,37.5-48.1
		c2.7-1.8,6.1-2.8,9.3-3.6c3.9-0.9,5.9,0.8,5.5,4.7c-0.7,7-1.7,14-2.6,21c-0.5,3.4-2.9,4.8-5.9,5.6c-6.2,1.8-12.1,4.4-17.1,8.5
		c-1.7,1.4-2.9,3.3-4.4,4.9C115.4,98.4,115.7,98.7,115.9,99.1z"/>
	<path d="M249.5,254.8c-0.1,11.9-9.1,20.5-20.9,20.8c-11.2,0.2-21.7-9.6-21.2-21.7c0.6-11.7,9.5-20.9,21.1-20.7
		C240.3,233.4,249.6,243,249.5,254.8z"/>
</g>
</svg>
