<?xml version="1.0" encoding="utf-8"?>
<!-- Generator: Adobe Illustrator 24.3.0, SVG Export Plug-In . SVG Version: 6.00 Build 0)  -->
<svg version="1.1" id="Layer_1" xmlns="http://www.w3.org/2000/svg" xmlns:xlink="http://www.w3.org/1999/xlink" x="0px" y="0px"
	 viewBox="0 0 288.5 326" style="enable-background:new 0 0 288.5 326;" xml:space="preserve">
<path d="M39.4,163.8c-8.9,0-17.3,0-25.7,0c-6.7,0-6.8-0.1-6.8-6.9c0-6.2,0.1-12.4-0.1-18.6c-0.1-3.6,1.5-4.8,4.9-4.8
	c7.6,0.1,15.1,0,22.7,0c1.5,0,3-0.1,5-0.2c0-2,0-3.8,0-5.5c0-38.2,0-76.3,0-114.5c0-6.6,0.3-6.9,6.9-6.9c14.8,0,29.7,0,44.5,0
	c6.1,0,6.5,0.4,6.5,6.4c0,35.4,0,70.9,0,106.3c0,1.8,0,3.5,0,6.2c1.7-1.5,2.6-2.2,3.3-3c15.2-15.8,30.4-31.6,45.5-47.6
	c20.6-21.7,41-43.6,61.7-65.2c1.7-1.7,4.6-3.1,7-3.2c18.9-0.2,37.9-0.1,56.8,0c1.7,0,3.9,0.9,4.9,2.1c0.5,0.6-0.6,3.3-1.7,4.5
	c-16.8,17.7-33.7,35.2-50.4,52.9c-20.6,21.7-41.1,43.6-61.6,65.4c-0.4,0.4-0.6,1-1.3,2.2c2.5,0,4.4,0,6.3,0c35.9,0,71.8,0,107.7,0
	c5.8,0,6.1,0.3,6.1,6.2c0,5.9,0,11.8,0,17.7c0,6.1-0.2,6.3-6.5,6.3c-29.7,0-59.4,0-89.1,0c-1.5,0-3,0-5.4,0c2.8,4.4,5.1,8.3,7.5,12
	c29.4,45.4,58.8,90.7,88.1,136.1c1.1,1.7,1.2,4,1.8,6.1c-1.9,0.5-3.9,1.6-5.8,1.6c-16.2,0-32.4-0.1-48.5-0.4c-1.8,0-4.4-1.3-5.4-2.8
	c-28.3-43.5-56.5-87.1-84.7-130.7c-2.9-4.5-6-9-8.7-13c-5.6,5.2-11,10.2-16.3,15.3c-2.1,2-4.1,4-6,6.1c-3.1,3.3-5.6,6.5-5.5,11.8
	c0.3,35.6,0.1,71.2,0.1,106.8c0,6.7-0.3,7-6.8,7c-15.1,0-30.3-0.1-45.4,0c-4.3,0-5.8-1.6-5.8-5.9c0.1-43.3,0-86.6,0-130
	C39.4,177.4,39.4,170.9,39.4,163.8z"/>
</svg>
