<?xml version="1.0" encoding="utf-8"?>
<!-- Generator: Adobe Illustrator 24.3.0, SVG Export Plug-In . SVG Version: 6.00 Build 0)  -->
<svg version="1.1" id="Layer_1" xmlns="http://www.w3.org/2000/svg" xmlns:xlink="http://www.w3.org/1999/xlink" x="0px" y="0px"
	 viewBox="0 0 329.57 325" style="enable-background:new 0 0 329.57 325;" xml:space="preserve">
<path d="M101.8,137.02H13.03c-1.46,0-2.64,1.19-2.64,2.64v175.05c0,1.46,1.19,2.64,2.64,2.64h88.77c1.45,0,2.63-1.18,2.64-2.64
	V139.66C104.43,138.2,103.24,137.02,101.8,137.02z M94.52,296.25c-0.01,1.15-0.95,2.08-2.08,2.08H22.39c-1.14,0-2.08-0.93-2.08-2.08
	V158.1c0-1.14,0.93-2.08,2.08-2.08h70.06c1.14,0,2.08,0.93,2.08,2.08L94.52,296.25z"/>
<path d="M320.39,151.54c-3.6-27.84-28.47-30.4-33.61-30.63c-0.42-0.02-0.85-0.04-1.27-0.06c-1.29-0.06-2.58-0.09-3.87-0.09
	l-47.72,0.07l0.17-56.93c0.01-2.85,0.14-5.69,0.26-8.54c1.04-24.76-16.6-35.02-21.61-37.42c-0.88-0.42-1.73-0.84-2.59-1.29
	c-5.25-2.72-24.99-11.1-29.38,13.96c-3.24,18.51-5.49,29.15-6.7,34.43c-0.68,2.97-1.3,5.95-1.94,8.93
	c-5.71,26.63-21.34,58.69-32.73,66.98c-12.07,8.77-12.07,21.57-12.07,21.57s0.73,105.66,0.73,124.68c0,14.26,9.14,15.57,13.71,15.34
	c3.37-0.17,6.73-0.33,10.1-0.33c25.89,0,109.66-0.02,113.67-0.02c2.18,0,5.97-1.07,9.43-2.24c6.63-2.23,12.14-6.97,15.29-13.22
	c0.04-0.09,0.09-0.18,0.13-0.26c4.39-8.77,1.9-24.54,1.9-24.54s12.36-2.51,13.32-16.94c0.95-14.42-5.62-23.13-5.62-23.13
	s13.8-7.41,16-20.21c2.19-12.8-8.29-27.57-8.29-27.57C320.63,167.33,320.39,151.54,320.39,151.54z M287.84,220.28
	c0,0,10.97,12.8,8.77,20.47c-2.19,7.68-2.92,11.7-13.89,15.72c0,0,4.75,8.04,1.1,20.84c-3.66,12.8-17.55,13.16-17.55,13.16
	l-116.14,0c-2.21,0-4.41,0.16-6.61,0.25c-1.97,0.09-5.42-0.89-5.94-8.66c-0.67-10.07,1.74-102.4,2.14-117.48
	c0.07-2.78,0.5-5.54,1.39-8.18c1.26-3.76,4.36-6.59,8.17-9.26c14.62-10.24,27.06-36.2,33.64-78.97c0,0,5.12-44.97,18.65-42.05
	c13.53,2.93,23.83,18.26,22.67,34c-1.28,17.37-1.28,69.65-1.28,69.65l56.85-0.18c7.59,0,17.11,0.92,23.07,5.62
	c4.9,3.86,8.94,9.37,7.64,16.68c-2.93,16.45-14.99,21.21-14.99,21.21s12.07,9.51,12.07,24.13
	C307.59,211.87,287.84,220.28,287.84,220.28z"/>
</svg>
