<?xml version="1.0" encoding="utf-8"?>
<!-- Generator: Adobe Illustrator 24.3.0, SVG Export Plug-In . SVG Version: 6.00 Build 0)  -->
<svg version="1.1" id="Layer_1" xmlns="http://www.w3.org/2000/svg" xmlns:xlink="http://www.w3.org/1999/xlink" x="0px" y="0px"
	 viewBox="0 0 326 325" style="enable-background:new 0 0 326 325;" xml:space="preserve">
<path d="M89.3,147.6v150.9H23.9V147.6H89.3 M98.5,133.6H14.7c-2.6,0-4.7,2.1-4.7,4.7v169.4c0,2.6,2.1,4.7,4.7,4.7h83.9
	c2.6,0,4.7-2.1,4.7-4.7V138.3C103.2,135.7,101.1,133.6,98.5,133.6L98.5,133.6z"/>
<path d="M194.5,24.5c0.9,0,3.6,0.3,8.6,3.2C216,35.1,218.3,45,218,52c-0.4,8.8-0.6,15.5-0.6,21.9v43.7c0,7.4,6,13.4,13.4,13.4h46.8
	c5.2,0,10,1,14.3,2.9c8.9,4,10,9,10.4,10.6c0.3,1.6,0.3,3.3-0.1,5.3c-0.9,4.5-2.2,6.9-2.8,7.6c-4.4,1.4-7.7,4.9-8.9,9.4
	c-1.2,4.7,0.2,9.6,3.7,13c0.1,0.1,5.4,5.9,4.2,15.9c-0.4,3.2-1.4,5.5-3.1,7.1c-1.1,1-2.2,1.4-2.5,1.5c-4.5,1.1-8.2,4.4-9.7,8.8
	c-1.5,4.6-0.4,9.6,2.8,13.2c0,0,0.9,1.2,1.5,2.7c1.2,2.7,1.5,5.4,0.8,8.1c-1.2,5.2-4,6.8-4.7,7.1c-6.3,2.3-9.9,9-8.4,15.6
	c0.6,2.6,1.2,9.3-0.3,12.8c-2.8,6.5-7.5,10.1-14.1,10.6c-1.8,0.1-8,0.4-29.4,0.4c-28.7,0-68.2-0.4-83.9-0.6c-0.3,0-0.6,0-0.9,0
	c-2.2,0-4.6,0.1-7.2,0.3c0-0.3,0-0.6,0-0.9c0.1-2.7,0.2-5.3,0.2-8V169.1c0-4.6-0.3-9.1-0.6-13.2c0.3-0.8,2-4.9,10.6-11.9
	c10.8-8.7,20.6-27.3,29-55.1c6.7-22,11.1-45.3,12.5-58.5c0.1-1.2,0.4-2.3,0.8-3.2c0.5-1.1,1-2,1.5-2.4
	C193.7,24.6,193.8,24.5,194.5,24.5C194.5,24.5,194.5,24.5,194.5,24.5 M194.5,11.1c-8.6,0-12.8,6.2-14.8,10.9c-0.9,2.2-1.5,4.6-1.7,7
	c-2.7,25.7-17,88.8-36.6,104.6c-14.1,11.4-15.8,19.1-15.5,22.7c0.3,4.2,0.6,8.5,0.6,12.7v105.2c0,2.5-0.1,4.9-0.2,7.4
	c-0.6,12.9,7.2,14.9,12.1,14.9c0.5,0,1.1,0,1.5-0.1c2.3-0.2,4.6-0.3,6.9-0.3c0.2,0,0.5,0,0.7,0c14.3,0.2,54.9,0.6,84,0.6
	c14.7,0,26.5-0.1,30.5-0.4c13.6-1.1,21.5-9.6,25.4-18.6c3.9-9,1-21.1,1-21.1s10.1-3.3,13.1-16.7c3-13.4-5.5-22.8-5.5-22.8
	s13.6-2.7,15.8-19.9c2.2-17.2-8.2-27.2-8.2-27.2c7.7-2,10.7-12,11.9-17.8c0.7-3.5,0.8-7.1,0-10.6c-2.3-10.6-10.4-16.6-18-20
	c-6.2-2.8-13-4.1-19.8-4.1h-46.8V73.8c0-7.1,0.3-14.1,0.6-21.2c0.4-8.2-1.5-25-21.6-36.6C203.6,12.5,198.5,11.1,194.5,11.1
	L194.5,11.1z"/>
</svg>
