<?xml version="1.0" encoding="utf-8"?>
<!-- Generator: Adobe Illustrator 24.3.0, SVG Export Plug-In . SVG Version: 6.00 Build 0)  -->
<svg version="1.1" id="Layer_1" xmlns="http://www.w3.org/2000/svg" xmlns:xlink="http://www.w3.org/1999/xlink" x="0px" y="0px"
	 viewBox="0 0 589 555.4" style="enable-background:new 0 0 589 555.4;" xml:space="preserve">
<path d="M561.85,343.46V105.64c-16.67-75-88.46-73.72-88.46-73.72s-281.41,0.64-364.74,0c-83.33-0.64-82.05,86.54-82.05,86.54
	s-3.21,133.33,0,219.87s79.49,87.18,79.49,87.18s44.87,2.56,72.44,0S233,451.79,233,451.79s30.13,42.95,47.44,66.67
	c17.31,23.72,27.56,0,27.56,0s32.05-45.51,51.28-69.87c19.23-24.36,56.41-21.15,56.41-21.15h71.15
	C563.77,414.61,561.85,343.46,561.85,343.46z M437.49,209.48c-9.44,71.09-99.25,132.56-123.07,147.71c-3.09,1.97-5.98,4.2-8.81,6.53
	c-9.99,8.23-20.03,2.29-24.3-1.07c-2.73-2.14-5.47-4.28-8.27-6.34c-56.86-41.78-87.02-76.31-102.11-97.42
	c-13.17-18.42-19.97-40.76-18.58-63.35c1.25-20.28,9.18-42.9,35.14-54.65c47.12-21.31,77.05,1.05,83.8,6.98
	c1.8,1.58,3.63,3.15,5.52,4.63c21.61,17.1,23.61,12.43,39.53-3.92c14.41-14.8,29.97-17.3,36.36-16.91c1.57,0.1,3.14,0.15,4.72,0.15
	C372.47,131.85,447.29,135.64,437.49,209.48z"/>
</svg>
