<?xml version="1.0" encoding="utf-8"?>
<!-- Generator: Adobe Illustrator 24.3.0, SVG Export Plug-In . SVG Version: 6.00 Build 0)  -->
<svg version="1.1" id="Layer_1" xmlns="http://www.w3.org/2000/svg" xmlns:xlink="http://www.w3.org/1999/xlink" x="0px" y="0px"
	 viewBox="0 0 330.13 325" style="enable-background:new 0 0 330.13 325;" xml:space="preserve">
<path d="M167.03,50.04L182,33.41c10.19-11.33,23.53-19.5,38.38-22.89c11.71-2.68,26.12-3.04,42.23,2.63
	c38.92,13.71,50.52,47.28,52.35,53.46c0.19,0.64,0.37,1.27,0.56,1.9c1.83,6.18,11,42.4-16.01,71.07l-78.03,76.22
	c0,0-24.2,22.99-60.49,14.52s-44.16-27.22-44.16-27.22l26.62-25.41c0,0,19.74,27.36,53.8,13.72c8.93-3.58,16.85-9.3,23.36-16.38
	l50.61-55.12c6.14-6.69,10.33-15,11.63-23.99c1.88-12.98-1.48-30.29-25.07-44.05c-43.55-25.41-66.54,19.36-66.54,19.36L167.03,50.04
	z"/>
<path d="M161.3,277.48l-15.24,16.39c-10.37,11.16-23.83,19.12-38.74,22.28c-11.76,2.49-26.16,2.63-42.18-3.3
	c-38.7-14.32-49.76-48.08-51.5-54.29c-0.18-0.64-0.35-1.27-0.53-1.91c-1.74-6.21-10.33-42.57,17.15-70.8l79.24-74.97
	c0,0,24.56-22.6,60.72-13.55s43.72,27.92,43.72,27.92l-27.02,24.98c0,0-19.3-27.67-53.58-14.57c-8.99,3.44-17,9.03-23.62,16.01
	l-51.48,54.31c-6.25,6.59-10.57,14.84-12.01,23.8c-2.08,12.95,1,30.31,24.37,44.45c43.14,26.1,66.84-18.29,66.84-18.29L161.3,277.48
	z"/>
</svg>
