<?xml version="1.0" encoding="utf-8"?>
<!-- Generator: Adobe Illustrator 24.3.0, SVG Export Plug-In . SVG Version: 6.00 Build 0)  -->
<svg version="1.1" id="Layer_1" xmlns="http://www.w3.org/2000/svg" xmlns:xlink="http://www.w3.org/1999/xlink" x="0px" y="0px"
	 viewBox="0 0 275.2 326" style="enable-background:new 0 0 275.2 326;" xml:space="preserve">
<g id="Sri_Lankan_Rupee">
	<path d="M110.7,89.9c9.3,6.5,19.1,11.8,27,19.1c32.3,30.4,31.2,81.6-1.7,111.5c-32.6,29.7-83.8,25.4-111.3-9.4
		c-27.2-34.4-19.7-84.9,16.4-110c14.7-10.2,29.2-20.7,44.1-30.6c22.9-15.3,44-32.7,62.5-53.3c7.4-8.3,16.5-9.1,23.3-2.7
		c7,6.5,6.4,15.7-1.2,24C151.8,58,132.9,76.5,110.7,89.9z M84.1,117.6c-25.2,0-45.7,20.3-45.8,45.3c-0.1,25.6,20.3,46.3,45.5,46.3
		c25.6,0,46.1-20.2,46.1-45.7C129.9,138,109.6,117.7,84.1,117.6z"/>
	<path d="M215.6,178.8c-8.3,0-15.5,0.2-22.6,0c-10.4-0.3-17-6.3-17.1-15.4c-0.1-8.9,6.7-15.2,17.1-15.3c14.1-0.2,28.2-0.2,42.3,0
		c13.5,0.2,19.8,9.4,15.6,22.3c-8.2,24.9-16.6,49.8-24.8,74.7c-7.1,21.6,3.6,38.2,26.2,40.6c9.7,1,16,7.6,15.5,16.3
		c-0.5,8.9-8,14.9-18,14.4c-39.1-2.1-65.5-39.9-53.9-77.3c5.2-16.8,11.1-33.5,16.7-50.2C213.4,185.9,214.3,182.9,215.6,178.8z"/>
</g>
</svg>
