<?xml version="1.0" encoding="utf-8"?>
<!-- Generator: Adobe Illustrator 24.3.0, SVG Export Plug-In . SVG Version: 6.00 Build 0)  -->
<svg version="1.1" id="Layer_1" xmlns="http://www.w3.org/2000/svg" xmlns:xlink="http://www.w3.org/1999/xlink" x="0px" y="0px"
	 viewBox="0 0 327.7 325" style="enable-background:new 0 0 327.7 325;" xml:space="preserve">
<style type="text/css">
	.st0{fill:#4E5A61;}
	.st1{fill:#5F6C75;}
	.st2{fill:#7E8B96;}
	.st3{fill:#909BA6;}
	.st4{fill:#A2ABB8;}
	.st5{fill:#B9C3CD;}
	.st6{fill:#C8D2DC;}
	.st7{fill:#DCE6EB;}
	.st8{fill:#E9EDF1;}
</style>
<circle class="st0" cx="171" cy="50" r="37.4"/>
<ellipse transform="matrix(0.5995 -0.8004 0.8004 0.5995 -33.3724 96.9235)" class="st1" cx="80.2" cy="81.8" rx="35.7" ry="35.7"/>
<ellipse transform="matrix(0.3829 -0.9238 0.9238 0.3829 -121.7754 140.7638)" class="st2" cx="44.5" cy="161.5" rx="33.5" ry="33.5"/>
<ellipse transform="matrix(0.3357 -0.942 0.942 0.3357 -181.7176 225.6824)" class="st3" cx="69.1" cy="241.7" rx="32.5" ry="32.5"/>
<ellipse transform="matrix(7.300119e-02 -0.9973 0.9973 7.300119e-02 -152.1222 407.7741)" class="st4" cx="143.3" cy="285.7" rx="29.4" ry="29.4"/>
<ellipse transform="matrix(7.300119e-02 -0.9973 0.9973 7.300119e-02 -67.1356 478.0231)" class="st5" cx="223.6" cy="275.1" rx="29.4" ry="29.4"/>
<ellipse transform="matrix(0.9868 -0.1622 0.1622 0.9868 -31.7239 47.8207)" class="st6" cx="277.1" cy="218.3" rx="28.3" ry="28.3"/>
<ellipse transform="matrix(0.4442 -0.8959 0.8959 0.4442 29.2894 338.7769)" class="st7" cx="287.7" cy="145.8" rx="25.8" ry="25.8"/>
<ellipse transform="matrix(4.643301e-02 -0.9989 0.9989 4.643301e-02 160.9584 327.4883)" class="st8" cx="252" cy="79.4" rx="23.3" ry="23.3"/>
</svg>
