<?xml version="1.0" encoding="utf-8"?>
<!-- Generator: Adobe Illustrator 24.3.0, SVG Export Plug-In . SVG Version: 6.00 Build 0)  -->
<svg version="1.1" id="Layer_1" xmlns="http://www.w3.org/2000/svg" xmlns:xlink="http://www.w3.org/1999/xlink" x="0px" y="0px"
	 viewBox="0 0 287.15 325" style="enable-background:new 0 0 287.15 325;" xml:space="preserve">
<path d="M114.41,149.22h115.81l-44.11-42.92c-2.21-2.15-3.83-4.86-4.47-7.87c-0.82-3.86-0.41-9.11,4.53-14.67
	c9.88-11.12,22.64,3.29,22.64,3.29l64.64,65.46c0,0,11.94,10.29-0.41,22.23c-12.35,11.94-67.52,67.52-67.52,67.52
	s-8.65,9.47-19.76,0.82c-6.95-5.4-4.89-12.58-2.37-17.2c1.2-2.21,2.76-4.2,4.54-5.97l41.88-41.88l-116.51-0.41c0,0-6.4,0-10.39-6.3
	c-3.1-4.89-3.22-11.2-0.1-16.08c1.67-2.61,4.37-5.05,8.72-5.82C112.48,149.26,113.45,149.22,114.41,149.22z"/>
<path d="M196.87,37.24L67.92,37.63c-3.12,0.01-6.25-0.06-9.37-0.12c-5.5-0.11-20.18,1.48-20.18,21.55c0,22.51,0.34,173.9,0.4,200.59
	c0,1.96-0.06,3.92-0.15,5.88c-0.26,5.82,0.77,23.32,22.39,23.66c25.94,0.41,130.92,0,130.92,0s15.64-0.41,17.29,13.59
	c0.93,7.87-4.27,11.84-8.99,13.8c-3.07,1.28-6.39,1.84-9.71,1.83l-131.65-0.38c-10.48-0.03-20.79-3.17-29.27-9.32
	c-8.4-6.09-16.58-16.09-19.49-32.42c-0.69-3.85-0.96-7.76-0.95-11.67l0.4-205.15c0,0-2-36.35,31.81-47.82
	c5.71-1.94,11.73-2.82,17.76-2.83l133.22-0.4c0,0,16.47-1.24,16.47,14S196.87,37.24,196.87,37.24z"/>
</svg>
