<?xml version="1.0" encoding="utf-8"?>
<!-- Generator: Adobe Illustrator 24.3.0, SVG Export Plug-In . SVG Version: 6.00 Build 0)  -->
<svg version="1.1" id="Layer_1" xmlns="http://www.w3.org/2000/svg" xmlns:xlink="http://www.w3.org/1999/xlink" x="0px" y="0px"
	 viewBox="0 0 319.3 325" style="enable-background:new 0 0 319.3 325;" xml:space="preserve">
<g>
	<path d="M158.7,10.6c-84,0-152.1,68.1-152.1,152.1s68.1,152.1,152.1,152.1s152.1-68.1,152.1-152.1S242.7,10.6,158.7,10.6z
		 M157,243.5c0,0.2,0,0.3,0,0.3c-0.1,0-0.2-0.1-0.3-0.1c0,0,0,0,0,0c0,0,0,0,0,0C99.5,212.8,40,148,85.6,106.2
		c33.7-30.9,72.1,16.3,72.1,16.3c0,0,0,0,0,0.1c2.4-2.8,39.5-46,72.1-16.1C275.3,148.4,214.3,212.7,157,243.5z"/>
</g>
</svg>
