<?xml version="1.0" encoding="utf-8"?>
<!-- Generator: Adobe Illustrator 24.3.0, SVG Export Plug-In . SVG Version: 6.00 Build 0)  -->
<svg version="1.1" id="Layer_1" xmlns="http://www.w3.org/2000/svg" xmlns:xlink="http://www.w3.org/1999/xlink" x="0px" y="0px"
	 viewBox="0 0 319.3 325" style="enable-background:new 0 0 319.3 325;" xml:space="preserve">
<g>
	<path d="M159.2,28.1c35.8,0,69.5,13.9,94.8,39.3c25.3,25.3,39.3,59,39.3,94.8c0,35.8-13.9,69.5-39.3,94.8
		c-25.3,25.3-59,39.3-94.8,39.3c-35.8,0-69.5-13.9-94.8-39.3c-25.3-25.3-39.3-59-39.3-94.8c0-35.8,13.9-69.5,39.3-94.8
		C89.7,42,123.4,28.1,159.2,28.1 M159.2,13.1c-82.3,0-149.1,66.8-149.1,149.1c0,82.3,66.8,149.1,149.1,149.1s149.1-66.8,149.1-149.1
		C308.4,79.9,241.6,13.1,159.2,13.1L159.2,13.1z"/>
</g>
<g>
	<path d="M107.9,176.6c-20.4-5.8-32.7-12.7-39.5-17.5c-5.2-3.7-9.1-8.4-11.2-13.8c-2.5-6.1-2.4-12.1,0.2-17.8
		c2.7-5.8,7.9-10,14.1-11.4c1.3-0.3,2.6-0.4,3.9-0.4c8.5,0,14.2,6,14.3,6.1l5.9,6.3l2.5-8.2c3.4-11.1,13-16.1,21.1-16.1
		c7.5,0,16.1,4.3,17.8,16.3C139.9,139.6,118.6,165.8,107.9,176.6z"/>
	<path d="M119.3,108.7c3.4,0,11.3,1.2,12.9,12c2.3,16.4-15.2,39-25.7,50.2c-18-5.5-29-11.6-35.1-16c-4.4-3.1-7.7-7.1-9.5-11.5
		c-2-4.9-1.9-9.4,0.1-13.9c2-4.4,6-7.6,10.6-8.6c1-0.2,1.9-0.3,2.9-0.3c5.9,0,10.2,4,10.7,4.5l11.7,13.4l5.2-17.3
		C105.5,112.6,113,108.7,119.3,108.7 M119.3,98.7c-10.8,0-22.1,6.8-25.9,19.7c0,0-7.1-7.7-18-7.7c-1.6,0-3.2,0.2-5,0.5
		c-7.7,1.7-14.3,7-17.6,14.2c-2.5,5.4-3.9,12.9-0.3,21.8c2.6,6.5,7.3,11.9,13,16c7.3,5.2,21,12.8,43.9,19.1c0,0,36.7-34.8,32.7-62.9
		C140.1,105.3,129.9,98.7,119.3,98.7L119.3,98.7z"/>
</g>
<g>
	<path d="M212.2,178.3L212.2,178.3C212.2,178.3,212.2,178.3,212.2,178.3z M210.2,176.3c-7.3-7.5-32.3-35-29.2-56.6
		c1.7-12,10.3-16.3,17.8-16.3c8.1,0,17.8,5,21.1,16.1l2.5,8.4l5.9-6.4c0,0,5.8-6.1,14.3-6.1c1.3,0,2.6,0.1,3.9,0.4
		c6.1,1.3,11.4,5.6,14.1,11.4c2.6,5.7,2.7,11.7,0.2,17.8c-2.2,5.3-6,10.1-11.2,13.7C242.9,163.6,230.6,170.4,210.2,176.3z"/>
	<path d="M198.8,98.4l0,10h0c6.3,0,13.7,3.9,16.4,12.5l5,17.5l11.8-13.6c0.5-0.5,4.8-4.5,10.7-4.5c0.9,0,1.9,0.1,2.9,0.3
		c4.6,1,8.6,4.2,10.6,8.6c2.1,4.5,2.1,9,0.1,13.9c-1.8,4.4-5.1,8.4-9.5,11.5c-6.2,4.4-17.1,10.5-35.1,16
		c-10.5-11.2-28.1-33.8-25.7-50.2c1.5-10.8,9.5-12,12.9-12L198.8,98.4 M198.8,98.4c-10.6,0-20.8,6.6-22.8,20.6
		c-4,28.1,32.7,62.9,32.7,62.9c22.9-6.2,36.6-13.9,43.9-19.1c5.7-4,10.3-9.5,13-16c3.6-8.9,2.2-16.4-0.3-21.8
		c-3.3-7.2-9.8-12.5-17.6-14.2c-1.7-0.4-3.4-0.5-5-0.5c-10.9,0-18,7.7-18,7.7C220.9,105.2,209.6,98.4,198.8,98.4L198.8,98.4z"/>
</g>
<path d="M100.8,209.6c0,0,48.2,17.4,109.7,1.3c0,0,9-3,4.3,8c-4.7,11-20.7,35.5-56.5,34.8c-34.8-0.7-49-16.2-59.3-33.9
	c-0.9-1.5-1.5-3.1-2-4.8C96.3,212.1,96.2,208.4,100.8,209.6z"/>
</svg>
