<?xml version="1.0" encoding="utf-8"?>
<!-- Generator: Adobe Illustrator 24.3.0, SVG Export Plug-In . SVG Version: 6.00 Build 0)  -->
<svg version="1.1" id="Layer_1" xmlns="http://www.w3.org/2000/svg" xmlns:xlink="http://www.w3.org/1999/xlink" x="0px" y="0px"
	 viewBox="0 0 376 325" style="enable-background:new 0 0 376 325;" xml:space="preserve">
<g>
	<path d="M332.2,37.1c-65.7-60.2-140.5,26.6-145.3,32.3c0-0.1,0-0.2,0-0.2c0,0-77.4-95.1-145.3-32.9
		c-91.7,84.2,28,214.7,143.4,276.7c0,0,0,0.1,0,0.1c0,0,0.1,0,0.1,0c0.2,0.1,0.3,0.2,0.5,0.3c0,0,0-0.2,0-0.6
		C301.1,250.9,424,121.2,332.2,37.1z M186,272.6c0,0-133.8-64.9-144.1-157.5c-1.4-12.2,0.6-24.7,6.2-35.6
		c7.4-14.5,22.5-29.9,52.9-24.3c9.8,1.8,19.2,5.6,27.7,10.9c14.2,8.8,40.8,27.2,52.8,47.8c2,3.4,6.7,3.9,9.4,0.9
		c14.1-16,52.3-54.4,91.6-48.7c49.4,7.2,45,50.6,45,50.6S329.9,196.6,186,272.6z"/>
</g>
</svg>
