<?xml version="1.0" encoding="utf-8"?>
<!-- Generator: Adobe Illustrator 24.3.0, SVG Export Plug-In . SVG Version: 6.00 Build 0)  -->
<svg version="1.1" id="Layer_1" xmlns="http://www.w3.org/2000/svg" xmlns:xlink="http://www.w3.org/1999/xlink" x="0px" y="0px"
	 viewBox="0 0 298.7 326" style="enable-background:new 0 0 298.7 326;" xml:space="preserve">
<path id="Litecoin" d="M134.1,248.2c53,0,105.3,0,158.2,0c-0.5,2.3-0.8,4.2-1.2,6c-5,19.2-10.2,38.4-15.1,57.7
	c-0.9,3.6-2.2,5.3-6.4,5.3c-84.4-0.1-168.8-0.1-253.2-0.1c-1.4,0-2.8-0.1-5.2-0.3c8.1-30.7,16.1-61,24.3-92.3
	c-10,3.7-19.1,7.1-29.2,10.9c0.7-2.9,1.2-4.9,1.8-6.9c3.7-13.8,7.4-27.7,11-41.5c0.8-3.2,2.2-5.2,5.6-6.3c6.9-2.4,13.7-5.4,20.6-7.7
	c3.5-1.2,5.1-3.1,6-6.6C63.3,119.7,75.6,73.3,87.9,27c1.3-5,2.5-10.1,4.1-15c0.4-1.3,2.3-3,3.5-3c33.5-0.1,67-0.1,100.5,0
	c0.3,0,0.6,0.3,1.5,0.8c-10.2,38.9-20.5,77.9-31.1,118.1c9.7-3.7,18.6-7.1,28.2-10.7c-0.2,1.8-0.2,3.2-0.5,4.4
	c-3.9,14.7-7.7,29.5-11.9,44.1c-0.7,2.3-3,4.8-5.2,5.7c-6.9,3.1-14.1,5.3-21,8.2c-1.7,0.7-3.9,2.4-4.3,4
	C145.7,204.8,140.1,226,134.1,248.2z"/>
</svg>
