<?xml version="1.0" encoding="utf-8"?>
<!-- Generator: Adobe Illustrator 24.3.0, SVG Export Plug-In . SVG Version: 6.00 Build 0)  -->
<svg version="1.1" id="Layer_1" xmlns="http://www.w3.org/2000/svg" xmlns:xlink="http://www.w3.org/1999/xlink" x="0px" y="0px"
	 viewBox="0 0 286.6 325" style="enable-background:new 0 0 286.6 325;" xml:space="preserve">
<path d="M229,311.8h-39.3c-26.8,0-48.6-21.8-48.6-48.6v-86.7c0-26.8,21.8-48.6,48.6-48.6H229c26.8,0,48.6,21.8,48.6,48.6v86.7
	C277.6,290,255.8,311.8,229,311.8z M189.7,142.3c-18.9,0-34.3,15.4-34.3,34.3v86.7c0,18.9,15.4,34.3,34.3,34.3H229
	c18.9,0,34.3-15.4,34.3-34.3v-86.7c0-18.9-15.4-34.3-34.3-34.3H189.7z"/>
<path d="M79,131.8H51.6c-11.6,0-21-9.4-21-21V61.4c0-11.6,9.4-21,21-21H79c11.6,0,21,9.4,21,21v49.5C99.9,122.4,90.5,131.8,79,131.8
	z M51.6,51.9c-5.3,0-9.5,4.3-9.5,9.5v49.5c0,5.3,4.3,9.5,9.5,9.5H79c5.3,0,9.5-4.3,9.5-9.5V61.4c0-5.3-4.3-9.5-9.5-9.5H51.6z"/>
<path d="M206.9,117.8c-30.2,0-54.7-24.5-54.7-54.7s24.5-54.7,54.7-54.7s54.7,24.5,54.7,54.7S237.1,117.8,206.9,117.8z M206.9,22.6
	c-22.3,0-40.4,18.1-40.4,40.4s18.1,40.4,40.4,40.4c22.3,0,40.4-18.1,40.4-40.4S229.2,22.6,206.9,22.6z"/>
<path d="M108,189h-83c-8.6,0-15.6-7-15.6-15.6c0-8.6,7-15.6,15.6-15.6h83c8.6,0,15.6,7,15.6,15.6C123.6,182,116.6,189,108,189z
	 M24.9,165.3c-4.4,0-8,3.6-8,8s3.6,8,8,8h83c4.4,0,8-3.6,8-8s-3.6-8-8-8H24.9z"/>
<path d="M105.7,291.4h-83c-8.6,0-15.6-7-15.6-15.6c0-8.6,7-15.6,15.6-15.6h83c8.6,0,15.6,7,15.6,15.6
	C121.4,284.4,114.3,291.4,105.7,291.4z M22.7,267.7c-4.4,0-8,3.6-8,8c0,4.4,3.6,8,8,8h83c4.4,0,8-3.6,8-8c0-4.4-3.6-8-8-8H22.7z"/>
<path d="M107.7,238.2h-83c-8.6,0-15.6-7-15.6-15.6c0-8.6,7-15.6,15.6-15.6h83c8.6,0,15.6,7,15.6,15.6
	C123.3,231.2,116.3,238.2,107.7,238.2z M24.6,214.5c-4.4,0-8,3.6-8,8c0,4.4,3.6,8,8,8h83c4.4,0,8-3.6,8-8c0-4.4-3.6-8-8-8H24.6z"/>
</svg>
