<?xml version="1.0" encoding="utf-8"?>
<!-- Generator: Adobe Illustrator 24.3.0, SVG Export Plug-In . SVG Version: 6.00 Build 0)  -->
<svg version="1.1" id="Layer_1" xmlns="http://www.w3.org/2000/svg" xmlns:xlink="http://www.w3.org/1999/xlink" x="0px" y="0px"
	 viewBox="0 0 323.9 325" style="enable-background:new 0 0 323.9 325;" xml:space="preserve">
<path d="M286.6,75.2l-246.9,0c-15.9,0-28.9-13-28.9-28.9l0-2.1c0-15.9,13-28.9,28.9-28.9l246.9,0c15.9,0,28.9,13,28.9,28.9l0,2.1
	C315.5,62.2,302.5,75.2,286.6,75.2z"/>
<path d="M285.1,310.4l-246.9,0c-15.9,0-28.9-13-28.9-28.9l0-2.1c0-15.9,13-28.9,28.9-28.9l246.9,0c15.9,0,28.9,13,28.9,28.9l0,2.1
	C314,297.3,301,310.4,285.1,310.4z"/>
<path d="M285.1,193.5l-246.9,0c-15.9,0-28.9-13-28.9-28.9l0-2.1c0-15.9,13-28.9,28.9-28.9l246.9,0c15.9,0,28.9,13,28.9,28.9l0,2.1
	C314,180.5,301,193.5,285.1,193.5z"/>
</svg>
