<?xml version="1.0" encoding="utf-8"?>
<!-- Generator: Adobe Illustrator 24.3.0, SVG Export Plug-In . SVG Version: 6.00 Build 0)  -->
<svg version="1.1" id="Layer_1" xmlns="http://www.w3.org/2000/svg" xmlns:xlink="http://www.w3.org/1999/xlink" x="0px" y="0px"
	 viewBox="0 0 330 325" style="enable-background:new 0 0 330 325;" xml:space="preserve">
<style type="text/css">
	.st0{fill-rule:evenodd;clip-rule:evenodd;}
</style>
<path d="M122.3,313.1H47.2c-19.5,0-35.3-15.8-35.3-35.3v-75.1c0-19.5,15.8-35.3,35.3-35.3h75.1c19.5,0,35.3,15.8,35.3,35.3v75.1
	C157.6,297.2,141.8,313.1,122.3,313.1z M47.2,182.3c-11.2,0-20.3,9.1-20.3,20.3v75.1c0,11.2,9.1,20.3,20.3,20.3h75.1
	c11.2,0,20.3-9.1,20.3-20.3v-75.1c0-11.2-9.1-20.3-20.3-20.3H47.2z"/>
<path d="M283.3,156.5h-75.1c-19.5,0-35.3-15.8-35.3-35.3V46c0-19.5,15.8-35.3,35.3-35.3h75.1c19.5,0,35.3,15.8,35.3,35.3v75.1
	C318.6,140.6,302.8,156.5,283.3,156.5z M208.2,25.7c-11.2,0-20.3,9.1-20.3,20.3v75.1c0,11.2,9.1,20.3,20.3,20.3h75.1
	c11.2,0,20.3-9.1,20.3-20.3V46c0-11.2-9.1-20.3-20.3-20.3H208.2z"/>
<path d="M122.9,156.5H47.8c-19.5,0-35.3-15.8-35.3-35.3V46c0-19.5,15.8-35.3,35.3-35.3h75.1c19.5,0,35.3,15.8,35.3,35.3v75.1
	C158.2,140.6,142.4,156.5,122.9,156.5z M47.8,25.7c-11.2,0-20.3,9.1-20.3,20.3v75.1c0,11.2,9.1,20.3,20.3,20.3h75.1
	c11.2,0,20.3-9.1,20.3-20.3V46c0-11.2-9.1-20.3-20.3-20.3H47.8z"/>
<rect x="250.4" y="171.3" class="st0" width="53" height="55.3"/>
<rect x="178.6" y="250.1" class="st0" width="53" height="55.3"/>
<g>
	<rect x="178.8" y="170.5" width="53.2" height="56.2"/>
</g>
<polygon points="275.5,251.6 243.3,305.9 314.2,305.9 "/>
</svg>
