<?xml version="1.0" encoding="utf-8"?>
<!-- Generator: Adobe Illustrator 24.3.0, SVG Export Plug-In . SVG Version: 6.00 Build 0)  -->
<svg version="1.1" id="Layer_1" xmlns="http://www.w3.org/2000/svg" xmlns:xlink="http://www.w3.org/1999/xlink" x="0px" y="0px"
	 viewBox="0 0 589 521.6" style="enable-background:new 0 0 589 521.6;" xml:space="preserve">
<g>
	<path d="M563.7,102C559.9,24.8,507,23,496.8,23.4c-2.3,0.1-4.6,0.1-6.8,0.1H100.1c-73.8,0-75.8,62.3-75.7,71.7c0,1.5,0,2.9,0,4.4
		c-0.3,27.1-2.7,216.2-1.4,264.3c1.4,51.8,74.2,49,74.2,49h226.9c0,0,126.1,98,152.7,86.8c26.6-11.2,23.8-84,23.8-84
		c60.2-12,63.5-54.1,63.2-65.7c-0.1-3.1-0.1-6.2,0-9.3C564.6,310.3,567.4,177.3,563.7,102z M467.1,437.6c0,9.5-10.8,15-18.5,9.4
		l-106.2-77.6H107.1c0,0-37.8,1.4-36.4-51.8c1-38.3,2.7-121.6,3.6-165.3c0.2-12.1,0.4-24.2-0.6-36.3c-1.2-15,0.9-45.2,37.6-46.3
		c44.6-1.3,308.5-0.2,355.6,0c3.5,0,7.1-0.2,10.6-0.5c9.8-0.9,37.2,1.6,37.2,58c0,68.6,0,200.3,0,200.3s1.4,46.2-47.6,56V437.6z"/>
	<rect x="243" y="152.4" width="165.3" height="32.2"/>
	<rect x="243" y="247.6" width="163.9" height="32.2"/>
	<rect x="164.5" y="200" width="240.9" height="32.2"/>
</g>
</svg>
