<?xml version="1.0" encoding="utf-8"?>
<!-- Generator: Adobe Illustrator 24.3.0, SVG Export Plug-In . SVG Version: 6.00 Build 0)  -->
<svg version="1.1" id="Layer_1" xmlns="http://www.w3.org/2000/svg" xmlns:xlink="http://www.w3.org/1999/xlink" x="0px" y="0px"
	 viewBox="0 0 376 325" style="enable-background:new 0 0 376 325;" xml:space="preserve">
<g>
	<path d="M362.2,177.1c-0.1-3.4-0.2-6.8-0.2-10.1l-0.4-103c0-0.8,0-1.6,0-2.3c0.1-5.6-1.3-41.4-44.9-43.7l-228-1.4
		c-5.4,0-10.5,2.5-13.5,7c-2.3,3.5-3.3,7.8,0.8,12.4c3,3.5,7.5,5.3,12,5.3l226.6-1c0,0,22.7-0.5,24.1,19.8
		c1.3,17.5,1.5,90.8,1.5,110.5c0,2.4-0.1,4.8-0.3,7.2c-0.3,4.1,0.3,12.4,10.7,13.5C361.4,192.2,362.3,181.9,362.2,177.1z"/>
	<path d="M311.2,88.7c-10.8-23.2-36.6-24.3-36.6-24.3s-178-1-219.5-1s-41.4,50.3-41.4,50.3L16.1,288c0.1,6.4,2.9,12.4,7.9,16.3
		c6.2,4.8,13.1,4.4,18.2,3c3.5-1,6.8-2.7,9.5-4.9l39.8-30l176.3-0.5c23.7-0.1,44.1-17,48.2-40.3c0-0.1,0-0.2,0-0.3
		c0.2-1.3,0.3-2.6,0.3-3.9l-1.3-120.1C315.1,100.9,313.9,94.6,311.2,88.7z M263.8,249.3H112.5c-5.4,0-10.8-0.2-16.2-0.5
		c-4.7-0.2-14.1,1-26.3,10.8l-31.1,24.6l-1-167.5c0-1.6,0-3.2-0.1-4.8c-0.2-4.7,0.3-23.3,19.3-25.1c20.5-1.9,190.5-0.2,209.4,0
		c0.8,0,1.6,0,2.5,0c4.1,0,23.9,1,23.9,21.8v115.4c0,0.5,0,1,0,1.4C293,229.3,292.3,250.7,263.8,249.3z"/>
	<circle cx="119.8" cy="169.5" r="11.8"/>
	<circle cx="166.2" cy="169.5" r="11.8"/>
	<circle cx="211.1" cy="169.5" r="11.8"/>
</g>
</svg>
