<?xml version="1.0" encoding="utf-8"?>
<!-- Generator: Adobe Illustrator 24.3.0, SVG Export Plug-In . SVG Version: 6.00 Build 0)  -->
<svg version="1.1" id="Layer_1" xmlns="http://www.w3.org/2000/svg" xmlns:xlink="http://www.w3.org/1999/xlink" x="0px" y="0px"
	 viewBox="0 0 376 325" style="enable-background:new 0 0 376 325;" xml:space="preserve">
<g>
	<path d="M346.8,211.6V60.9c0-5.7-0.6-11.4-2.4-16.9c-4.9-15.4-14.9-23.5-23.8-27.7c-6.8-3.3-14.4-4.7-22-4.7h-225
		c-39,0-43.1,39.8-43.1,39.8c-2.4-2.4-0.8,169.1-0.8,169.1C32.1,262,76.8,262,76.8,262H98v33.6c0,4.9,1.6,9.8,5,13.4
		c7.6,7.9,17,2.7,21.9-1c4.8-3.7,9.6-7.4,14.5-11l51.3-37.3h107.4c7.3,0,14.7-1.2,21.4-4.2C348,242.7,346.8,211.6,346.8,211.6z
		 M301.6,235.4c-3.4,1.1-7,1.4-10.5,1.4h-111c0,0-56.5,44.3-58.5,46.3V236H84c-10.1,0-19.9-4.7-25.4-13.2c-2.3-3.6-3.9-7.9-3.7-12.8
		c0.8-16.3,0-154.5,0-154.5S53.3,36,76.8,36h217.7c3.5,0,7.1,0.5,10.4,1.8c6.4,2.5,14.5,8.4,15,22.6c0.7,19.1,0.3,100.5,0.1,130.8
		c0,5.4,0.2,10.7,0.5,16.1C320.8,215,319.1,229.9,301.6,235.4z"/>
	<path d="M263.6,120.5H112.9c-0.1,0-0.3-0.1-0.3-0.3V90.7c0-0.1,0.1-0.3,0.3-0.3h150.7c0.1,0,0.3,0.1,0.3,0.3v29.5
		C263.8,120.4,263.7,120.5,263.6,120.5z"/>
	<path d="M264.4,179.1H108.8c-0.2,0-0.3-0.1-0.3-0.3v-30.3c0-0.2,0.1-0.3,0.3-0.3h155.6c0.2,0,0.3,0.1,0.3,0.3v30.3
		C264.7,179,264.5,179.1,264.4,179.1z"/>
</g>
</svg>
