<?xml version="1.0" encoding="utf-8"?>
<!-- Generator: Adobe Illustrator 24.3.0, SVG Export Plug-In . SVG Version: 6.00 Build 0)  -->
<svg version="1.1" id="Layer_1" xmlns="http://www.w3.org/2000/svg" xmlns:xlink="http://www.w3.org/1999/xlink" x="0px" y="0px"
	 viewBox="0 0 589 589" style="enable-background:new 0 0 589 589;" xml:space="preserve">
<g>
	<path d="M573.5,379.3c-0.2-3.5-0.3-7.1-0.3-10.6c-0.5-35.8-2.5-191.5,0.1-256.2c1.9-45.9-27.3-66-49.4-74.6
		c-10.9-4.3-22.5-6.3-34.2-6.1c-55.4,0.5-320.1,2.6-389.7-0.1c-77.9-3-85.4,65.9-85.4,65.9c-1.4-1.4-1.5,251.5-1.5,289
		c0,4.7,0.3,9.4,1,14.1c10.5,69.8,88.9,68.4,88.9,68.4h109.3c0,0,35.9,53.9,58.4,82.4c22.5,28.5,47.9-1.5,47.9-1.5l73.4-82.4h89.9
		C572.3,467.4,574.2,395.5,573.5,379.3z M496.9,410.5c-22.3,1.2-92.8,0.4-116.5,0.1c-3.7-0.1-7.4-0.4-11.2-0.8
		c-6.3-0.8-20.6,0.4-34.1,21.7c-18,28.5-42,58.3-42,58.3l-40.3-61.1c-1.3-2-2.6-4.1-3.8-6.2c-1.9-3.2-8.6-10.5-30.8-10.5
		c-28.5,0-121.3,0-121.3,0s-27,1.5-27-22.5c0-24-2.2-283.8,0-281.6c0,0-1.5-18,24-18l378.2,0c9,0,18-0.4,26.9-0.8
		c7-0.3,18.8,2.3,18.8,23.3l0,261.9c0,6.3,0.3,12.6,0.6,18.9C518.7,399,516.4,409.4,496.9,410.5z"/>
	<path d="M458.9,202.3H127.5c-0.3,0-0.6-0.3-0.6-0.6v-54.2c0-0.3,0.3-0.6,0.6-0.6h331.3c0.3,0,0.6,0.3,0.6,0.6v54.2
		C459.5,202.1,459.2,202.3,458.9,202.3z"/>
	<path d="M346.5,326.6h-219c-0.3,0-0.6-0.3-0.6-0.6v-54.2c0-0.3,0.3-0.6,0.6-0.6h219c0.3,0,0.6,0.3,0.6,0.6v54.2
		C347.1,326.4,346.9,326.6,346.5,326.6z"/>
	<circle cx="431.8" cy="297.4" r="29.2"/>
</g>
</svg>
