<?xml version="1.0" encoding="utf-8"?>
<!-- Generator: Adobe Illustrator 24.3.0, SVG Export Plug-In . SVG Version: 6.00 Build 0)  -->
<svg version="1.1" id="Layer_1" xmlns="http://www.w3.org/2000/svg" xmlns:xlink="http://www.w3.org/1999/xlink" x="0px" y="0px"
	 viewBox="0 0 376 325" style="enable-background:new 0 0 376 325;" xml:space="preserve">
<style type="text/css">
	.st0{display:none;}
</style>
<path d="M73.2,26.8c-2.3,3.5-3.3,7.9,0.8,12.5c3,3.5,7.5,5.3,12.1,5.3l228.1-1c0,0,22.8-0.5,24.3,19.9c1.3,17.6,1.5,91.4,1.5,111.2
	c0,2.4-0.1,4.8-0.3,7.2c-0.3,4.1,0.3,12.5,10.8,13.6c10.8,1.1,11.7-9.3,11.6-14.1c-0.1-3.4-0.2-6.8-0.2-10.2l-0.4-103.7
	c0-0.8,0-1.6,0-2.3c0.1-5.6-1.3-41.7-45.2-44L86.8,19.8C81.4,19.8,76.2,22.3,73.2,26.8z"/>
<path class="st0" d="M314.8,111.1c-0.1-6.4-1.3-12.8-4-18.7C299.9,69,274,67.9,274,67.9s-179.2-1-220.9-1s-41.7,50.6-41.7,50.6
	l2.4,175.5c0.1,6.4,2.9,12.5,8,16.4c6.2,4.8,13.2,4.4,18.3,3c3.5-1,6.8-2.7,9.6-4.9l40.1-30.2l177.5-0.5
	c23.9-0.1,44.4-17.1,48.5-40.6c0-0.1,0-0.2,0-0.3c0.2-1.3,0.3-2.6,0.3-3.9L314.8,111.1z M263.1,254.1H110.8
	c-5.4,0-10.9-0.2-16.3-0.5c-4.7-0.2-14.2,1-26.5,10.9l-31.3,24.8l-1-168.6c0-1.6,0-3.2-0.1-4.8c-0.2-4.7,0.3-23.5,19.4-25.3
	c20.6-1.9,191.8-0.2,210.8,0c0.8,0,1.6,0,2.5,0c4.1,0,24.1,1,24.1,21.9v116.2c0,0.5,0,1,0,1.4C292.5,233.9,291.8,255.5,263.1,254.1z
	"/>
<path d="M316.7,227l-2.3-117.4c-0.1-3.3-0.4-6.6-1.2-9.9c-7.6-31.5-43.5-32.1-43.5-32.1l-200.4-1c-3.8,0-7.6-0.1-11.4-0.2
	c-47.9-0.9-46.5,51.1-46.5,51.1L13,290c0.1,5.6,1.7,11.2,5,15.8c6.8,9.3,16.2,8.6,22.7,6.5c3.6-1.1,6.9-3,9.9-5.2l39.2-29.6
	l171.5-0.4c3.7,0,7.5-0.2,11.2-0.8C317.9,269.4,316.7,227,316.7,227z M113.7,186.7c-7.2,0-13.1-5.8-13.1-13.1s5.8-13.1,13.1-13.1
	c7.2,0,13.1,5.8,13.1,13.1S120.9,186.7,113.7,186.7z M164.9,186.7c-7.2,0-13.1-5.8-13.1-13.1s5.8-13.1,13.1-13.1s13.1,5.8,13.1,13.1
	S172.1,186.7,164.9,186.7z M214.4,186.7c-7.2,0-13.1-5.8-13.1-13.1s5.8-13.1,13.1-13.1c7.2,0,13.1,5.8,13.1,13.1
	S221.6,186.7,214.4,186.7z"/>
</svg>
