<?xml version="1.0" encoding="utf-8"?>
<!-- Generator: Adobe Illustrator 24.3.0, SVG Export Plug-In . SVG Version: 6.00 Build 0)  -->
<svg version="1.1" id="Layer_1" xmlns="http://www.w3.org/2000/svg" xmlns:xlink="http://www.w3.org/1999/xlink" x="0px" y="0px"
	 viewBox="0 0 327 325" style="enable-background:new 0 0 327 325;" xml:space="preserve">
<path d="M163.4,10.5c-84,0-152.2,68-152.2,151.9s68.1,151.9,152.2,151.9s152.2-68,152.2-151.9S247.4,10.5,163.4,10.5z M159.4,63.3
	c14.6,0,26.4,11.8,26.4,26.4s-11.8,26.4-26.4,26.4S133,104.4,133,89.8S144.8,63.3,159.4,63.3z M160.2,131.5
	c14.6,0,26.4,11.8,26.4,26.4s-11.8,26.4-26.4,26.4s-26.4-11.8-26.4-26.4S145.6,131.5,160.2,131.5z M161,255.6
	c-14.6,0-26.4-11.8-26.4-26.4s11.8-26.4,26.4-26.4s26.4,11.8,26.4,26.4S175.6,255.6,161,255.6z"/>
</svg>
