<?xml version="1.0" encoding="utf-8"?>
<!-- Generator: Adobe Illustrator 24.3.0, SVG Export Plug-In . SVG Version: 6.00 Build 0)  -->
<svg version="1.1" id="Layer_1" xmlns="http://www.w3.org/2000/svg" xmlns:xlink="http://www.w3.org/1999/xlink" x="0px" y="0px"
	 viewBox="0 0 229 325" style="enable-background:new 0 0 229 325;" xml:space="preserve">
<g>
	<path d="M151.42,12.1H79.45L21.52,50.57l28.51,94.14l5.21-6.11l-25.57-86l47.52-31.68l28.74,97.76h18.33l27.83-97.31l47.75,30.33
		l-26.03,88.03l6.56,4.98l27.16-95.27L151.42,12.1z M119.29,111.67h-8.83L96.88,62.79h36.44L119.29,111.67z M134.9,55.77H95.08
		L84.67,18.89h61.1L134.9,55.77z"/>
	<path d="M114.96,110.99c-55.35,0-100.23,44.87-100.23,100.23S59.6,311.45,114.96,311.45s100.23-44.87,100.23-100.23
		S170.31,110.99,114.96,110.99z M114.53,299.91c-48.99,0-88.7-39.71-88.7-88.7s39.71-88.7,88.7-88.7s88.7,39.71,88.7,88.7
		S163.52,299.91,114.53,299.91z"/>
	<g>
		<path d="M114.56,155.13c-10.37,0-20.09,2.81-28.44,7.73c-16.54,9.75-27.64,27.75-27.64,48.33c0,30.97,25.1,56.07,56.07,56.07
			s56.07-25.1,56.07-56.07C170.64,180.24,145.53,155.13,114.56,155.13z M114.56,256.74c-25.15,0-45.53-20.38-45.53-45.53
			c0-25.15,20.38-45.53,45.53-45.53c25.15,0,45.53,20.38,45.53,45.53C160.09,236.36,139.71,256.74,114.56,256.74z"/>
		<g>
			<g>
				<g>
					<path d="M90.12,163.58c0,0-5.54-6.05-1.62-12.95c2.36-4.17,7.01-6.43,11.78-6.14c4.97,0.3,10.68,2.78,8.74,13.13L90.12,163.58z
						"/>
					<path d="M108.48,157.67c0,0-2.57-7.79,3.84-12.48c3.86-2.82,9.04-2.98,13.27-0.76c4.41,2.31,8.6,6.92,2.57,15.57L108.48,157.67
						z"/>
					<path d="M126.95,159.48c0,0-0.6-8.18,6.75-11.17c4.43-1.81,9.49-0.7,13.06,2.48c3.71,3.32,6.67,8.8-1.29,15.72L126.95,159.48z"
						/>
					<path d="M142.42,166.07c0,0,2.06-7.93,9.98-8.41c4.77-0.28,9.21,2.39,11.56,6.54c2.45,4.33,3.49,10.48-6.27,14.48
						L142.42,166.07z"/>
					<path d="M156.43,176.44c0,0,5.21-6.34,12.6-3.43c4.46,1.75,7.35,6.04,7.74,10.81c0.41,4.96-1.24,10.97-11.78,10.5
						L156.43,176.44z"/>
				</g>
				<g>
					<path d="M166.26,193.73c0,0,6.95-4.35,13.03,0.76c3.67,3.07,5.05,8.07,3.89,12.71c-1.2,4.83-4.67,10-14.5,6.2L166.26,193.73z"
						/>
					<path d="M168.75,212.86c0,0,8.12-1.11,11.57,6.04c2.08,4.31,1.29,9.42-1.66,13.19c-3.08,3.91-8.37,7.2-15.77-0.31
						L168.75,212.86z"/>
					<path d="M163.6,230.69c0,0,8.15,0.9,9.77,8.67c0.97,4.68-1.03,9.46-4.81,12.39c-3.93,3.05-9.87,4.96-15.23-4.12L163.6,230.69z"
						/>
					<path d="M154.3,244.71c0,0,7.42,3.48,6.45,11.35c-0.58,4.75-4.02,8.62-8.54,10.17c-4.71,1.62-10.94,1.52-13.1-8.8L154.3,244.71
						z"/>
					<path d="M141.56,256.6c0,0,5.28,6.27,1.09,13.01c-2.53,4.06-7.28,6.14-12.03,5.65c-4.96-0.51-10.56-3.22-8.18-13.49
						L141.56,256.6z"/>
				</g>
			</g>
			<g>
				<g>
					<path d="M144.38,255.14c0,0,6.25,5.31,3.23,12.64c-1.82,4.42-6.15,7.26-10.92,7.57c-4.97,0.33-10.95-1.42-10.31-11.94
						L144.38,255.14z"/>
					<path d="M126.91,263.31c0,0,3.52,7.41-2.24,12.86c-3.48,3.29-8.6,4.09-13.07,2.41c-4.67-1.74-9.4-5.79-4.5-15.12L126.91,263.31
						z"/>
					<path d="M108.36,263.83c0,0,1.62,8.03-5.3,11.94c-4.17,2.35-9.33,1.89-13.26-0.83c-4.1-2.82-7.71-7.9-0.7-15.76L108.36,263.83z
						"/>
					<path d="M92.18,259.23c0,0-1.05,8.13-8.85,9.59c-4.7,0.88-9.44-1.22-12.3-5.05c-2.98-3.99-4.76-9.97,4.41-15.15L92.18,259.23z"
						/>
					<path d="M76.98,250.7c0,0-4.37,6.93-12.07,4.98c-4.64-1.18-8.05-5.06-9.03-9.75c-1.02-4.87-0.14-11.05,10.36-11.89L76.98,250.7
						z"/>
				</g>
				<g>
					<path d="M65.07,234.78c0,0-6.36,5.18-13.02,0.88c-4.02-2.59-6.02-7.37-5.45-12.12c0.58-4.95,3.39-10.51,13.61-7.97
						L65.07,234.78z"/>
					<path d="M60.2,216.11c0,0-7.92,2.11-12.23-4.55c-2.6-4.01-2.46-9.18,0-13.29c2.57-4.27,7.41-8.2,15.68-1.67L60.2,216.11z"/>
					<path d="M63.07,197.76c0,0-8.2,0.13-10.77-7.38c-1.55-4.53-0.15-9.51,3.23-12.9c3.52-3.52,9.17-6.14,15.63,2.18L63.07,197.76z"
						/>
					<path d="M70.54,182.71c0,0-7.81-2.51-7.82-10.45c-0.01-4.78,2.9-9.06,7.2-11.16c4.47-2.2,10.66-2.88,14.1,7.09L70.54,182.71z"
						/>
					<path d="M81.69,169.31c0,0-6.02-5.56-2.7-12.77c2-4.35,6.45-7,11.23-7.11c4.97-0.12,10.88,1.87,9.81,12.35L81.69,169.31z"/>
				</g>
			</g>
		</g>
	</g>
	<g>
		<g>
			<g>
				<g>
					<path d="M103.64,188.88c0,0-2.53-2.77-0.75-5.93c1.08-1.9,3.21-2.94,5.39-2.81c2.27,0.14,4.89,1.27,4,6.01L103.64,188.88z"/>
					<path d="M112.04,186.18c0,0-1.17-3.57,1.76-5.71c1.76-1.29,4.13-1.36,6.07-0.35c2.02,1.06,3.94,3.17,1.18,7.12L112.04,186.18z"
						/>
					<path d="M120.5,187c0,0-0.27-3.74,3.09-5.11c2.03-0.82,4.34-0.32,5.97,1.13c1.7,1.51,3.05,4.03-0.59,7.19L120.5,187z"/>
					<path d="M127.57,190.02c0,0,0.95-3.63,4.57-3.85c2.18-0.13,4.21,1.09,5.29,3c1.12,1.98,1.59,4.79-2.87,6.63L127.57,190.02z"/>
					<path d="M133.97,194.77c0,0,2.38-2.9,5.76-1.57c2.04,0.8,3.36,2.77,3.54,4.94c0.19,2.27-0.57,5.02-5.38,4.8L133.97,194.77z"/>
				</g>
				<g>
					<path d="M138.48,202.68c0,0,3.18-1.99,5.97,0.35c1.67,1.41,2.31,3.69,1.78,5.82c-0.54,2.21-2.14,4.58-6.63,2.84L138.48,202.68z
						"/>
					<path d="M139.61,211.43c0,0,3.72-0.5,5.29,2.77c0.95,1.97,0.59,4.31-0.76,6.03c-1.41,1.79-3.83,3.29-7.22-0.14L139.61,211.43z"
						/>
					<path d="M137.26,219.59c0,0,3.73,0.41,4.47,3.97c0.44,2.14-0.47,4.33-2.21,5.66c-1.8,1.39-4.51,2.27-6.97-1.89L137.26,219.59z"
						/>
					<path d="M133,226c0,0,3.39,1.59,2.95,5.19c-0.27,2.17-1.84,3.95-3.91,4.66c-2.15,0.75-5,0.69-5.99-4.03L133,226z"/>
					<path d="M127.18,231.44c0,0,2.42,2.87,0.5,5.95c-1.16,1.86-3.32,2.8-5.51,2.58c-2.27-0.23-4.83-1.47-3.74-6.17L127.18,231.44z"
						/>
				</g>
			</g>
			<g>
				<g>
					<path d="M128.47,230.77c0,0,2.86,2.42,1.48,5.79c-0.83,2.03-2.81,3.32-5,3.46c-2.27,0.15-5.01-0.65-4.72-5.46L128.47,230.77z"
						/>
					<path d="M120.48,234.52c0,0,1.61,3.39-1.03,5.88c-1.59,1.5-3.93,1.87-5.98,1.1c-2.14-0.8-4.3-2.65-2.06-6.92L120.48,234.52z"/>
					<path d="M111.99,234.75c0,0,0.74,3.67-2.42,5.46c-1.9,1.07-4.26,0.86-6.07-0.38c-1.87-1.29-3.53-3.61-0.32-7.21L111.99,234.75z
						"/>
					<path d="M104.59,232.64c0,0-0.48,3.72-4.05,4.39c-2.15,0.4-4.32-0.56-5.62-2.31c-1.36-1.83-2.18-4.55,2.02-6.93L104.59,232.64z
						"/>
					<path d="M97.63,228.74c0,0-2,3.17-5.52,2.28c-2.12-0.54-3.68-2.32-4.13-4.46c-0.47-2.23-0.06-5.05,4.75-5.45L97.63,228.74z"/>
				</g>
				<g>
					<path d="M92.18,221.46c0,0-2.91,2.37-5.96,0.4c-1.84-1.19-2.75-3.37-2.49-5.55c0.27-2.26,1.55-4.81,6.23-3.64L92.18,221.46z"/>
					<path d="M89.95,212.91c0,0-3.63,0.96-5.6-2.08c-1.19-1.84-1.13-4.2,0-6.07c1.17-1.95,3.39-3.75,7.18-0.76L89.95,212.91z"/>
					<path d="M91.27,204.53c0,0-3.75,0.05-4.93-3.38c-0.71-2.07-0.07-4.35,1.48-5.9c1.61-1.61,4.19-2.81,7.15,0.99L91.27,204.53z"/>
					<path d="M94.68,197.63c0,0-3.57-1.15-3.58-4.79c-0.01-2.19,1.34-4.15,3.29-5.11c2.04-1.01,4.88-1.32,6.45,3.24L94.68,197.63z"
						/>
					<path d="M99.78,191.5c0,0-2.76-2.55-1.24-5.84c0.92-1.99,2.95-3.2,5.13-3.25c2.28-0.05,4.98,0.85,4.49,5.66L99.78,191.5z"/>
				</g>
			</g>
		</g>
		<path d="M114.75,185.86c-13.98,0-25.31,11.01-25.31,24.58s11.33,24.58,25.31,24.58c13.98,0,25.31-11.01,25.31-24.58
			C140.05,196.87,128.72,185.86,114.75,185.86z M115.76,228.26c-9.01,0-16.31-7.3-16.31-16.31c0-9.01,7.3-16.31,16.31-16.31
			s16.31,7.3,16.31,16.31C132.08,220.95,124.77,228.26,115.76,228.26z"/>
	</g>
	<path d="M62.33,113.41c0,0,16.13-11.85,25.75-10.22L74.12,54.15L51.73,71.73L62.33,113.41z"/>
	<path d="M167.05,108.29c0,0-14.51-10.65-23.15-9.19L156.45,55l20.13,15.81L167.05,108.29z"/>
</g>
</svg>
