<?xml version="1.0" encoding="utf-8"?>
<!-- Generator: Adobe Illustrator 24.3.0, SVG Export Plug-In . SVG Version: 6.00 Build 0)  -->
<svg version="1.1" id="Layer_1" xmlns="http://www.w3.org/2000/svg" xmlns:xlink="http://www.w3.org/1999/xlink" x="0px" y="0px"
	 viewBox="0 0 271 325" style="enable-background:new 0 0 271 325;" xml:space="preserve">
<g>
	<path d="M136.12,60.53c-31.38,0-56.82,25.53-56.82,57.02s25.44,57.02,56.82,57.02s56.82-25.53,56.82-57.02
		S167.5,60.53,136.12,60.53z M136.12,167.66c-27.58,0-49.93-22.43-49.93-50.11s22.36-50.11,49.93-50.11
		c27.58,0,49.93,22.43,49.93,50.11S163.7,167.66,136.12,167.66z"/>
	<path d="M221.46,106.02l19.78-19.16l-25.96-7.42l12.36-26.57l-30.28,4.94V29.39l-23.48,12.36l-4.33-24.1L153.52,36.4l-12.09-21.43
		l-12.05,21.22l-17.92-18.54l-6.18,24.72L83.65,33.1l-2.47,24.72L57.7,45.46l1.79,26.09l-28.72,7.16l19.52,22.37l-19.51,18.19
		l21.98,10.86L36.07,153l24.72,2.47l-10.51,24.1l27.19-2.47l-1.85,27.19l24.1-11.74l4.33,25.96l21.01-17.3l13.9,22.36l11.44-22.36
		l20.39,16.07l6.18-24.1l22.25,8.65v-23.48l22.25,1.85l-6.18-24.1l21.63-5.56L221.47,132l19.78-11.61L221.46,106.02z M136.18,184.51
		c-37.2,0-67.36-30.16-67.36-67.36s30.16-67.36,67.36-67.36s67.36,30.16,67.36,67.36S173.38,184.51,136.18,184.51z"/>
	<path d="M48.31,210.56l-33.87,65.95l43.87-9.19l16.63,41.48l43.31-80.41l-10.51-4.94l0,0c-5.64-3.65-13.19-1.66-16.31,4.29
		l-21.38,40.82l-5.58-11.4l-15.43,2.13L75,209.85l-9.27-4.33l-12.36-5.56l-1.24,2.47l-3.44,7.45c-0.2,0.44-0.44,0.87-0.73,1.27
		C47.05,212.44,49.86,207.53,48.31,210.56z"/>
	<path d="M219.69,214.26l33.87,65.95l-43.87-9.19l-16.63,41.48l-43.31-80.41l10.51-4.94l0,0c5.64-3.65,13.19-1.66,16.31,4.29
		l21.38,40.82l5.58-11.4l15.43,2.13L193,213.55l9.27-4.33l12.36-5.56l1.24,2.47l3.44,7.45c0.2,0.44,0.44,0.87,0.73,1.27
		C220.95,216.14,218.14,211.24,219.69,214.26z"/>
	<polygon points="134.92,78.39 125,103.79 97.84,108.51 116.38,124.51 113.19,149.83 134.44,135.66 156.02,149.83 152.15,126.22 
		172.22,107.33 145.07,104.97 	"/>
</g>
</svg>
