<?xml version="1.0" encoding="utf-8"?>
<!-- Generator: Adobe Illustrator 24.3.0, SVG Export Plug-In . SVG Version: 6.00 Build 0)  -->
<svg version="1.1" id="Layer_1" xmlns="http://www.w3.org/2000/svg" xmlns:xlink="http://www.w3.org/1999/xlink" x="0px" y="0px"
	 viewBox="0 0 261 325" style="enable-background:new 0 0 261 325;" xml:space="preserve">
<path d="M130.54,45.68c-41.86,0-75.79,33.93-75.79,75.79s33.93,75.79,75.79,75.79s75.79-33.93,75.79-75.79S172.4,45.68,130.54,45.68
	z M132.5,182.24c-33.2,0-60.12-26.92-60.12-60.12S99.29,62,132.5,62s60.12,26.92,60.12,60.12S165.7,182.24,132.5,182.24z"/>
<polygon points="130.54,79.08 120.08,110.36 86.93,110.36 113.55,129.96 103.1,163.93 130.67,142.36 157.32,162.62 147.52,131.92 
	174.31,111.01 141.64,110.36 "/>
<path d="M233.77,111.66c-4.57-7.19-12.41-7.19-8.49-27.44s-2.61-20.25-15.03-24.83c-12.41-4.57-10.45-0.65-17.63-20.68
	c-7.17-20.03-20.92-8.72-32.96-9.04c-12.04-0.33-29.77-25.15-39.57-11.43s-18.95,10.45-33.15,8.47c-6.4-0.9-10.9,1.93-13.93,5.31
	c-2.96,3.31-4.68,7.51-5.27,11.9c-0.6,4.51-3.85,13.1-19.52,15.48C26.66,62.66,34.5,76.38,34.5,76.38s9.8,18.29-5.23,31.39
	s-7.19,17.61,0,26.11s12.41,17.64,5.88,32.01c-4.9,10.78,7.84,16.78,14.52,19.11c1.67,0.58,3.4,0.99,5.15,1.29
	c3.42,0.6,12.22,3.63,14.31,18.8c2.61,18.95,15.68,13.07,27.44,10.45c8.45-1.88,13.53,1.98,15.72,4.3c1.5,1.59,3.08,3.1,4.82,4.44
	c17.21,13.16,21.31,5.61,31.73-4.82c11.11-11.11,10.45-5.23,25.48-1.93c9.19,2.01,13.98-3.17,16.32-7.5c1.04-1.92,1.72-4,2.15-6.15
	c0.6-3.01,3.25-12.32,13.54-17.71c12.41-6.51,20.91-4.6,19.6-19.63s-9.15-13.07,5.23-30.05S238.34,118.85,233.77,111.66z
	 M217.64,133.99c-12.45,14.71-5.66,13.01-4.53,26.03c1.13,13.01-6.23,11.37-16.98,17c-8.92,4.68-11.21,12.73-11.73,15.34
	c-0.37,1.86-0.96,3.66-1.86,5.32c-2.03,3.76-6.18,8.25-14.14,6.5c-13.01-2.86-12.45-7.94-22.07,1.67
	c-9.03,9.03-12.58,15.57-27.48,4.17c-1.5-1.15-2.87-2.46-4.17-3.84c-1.89-2.01-6.29-5.35-13.62-3.72
	c-10.19,2.26-21.5,7.36-23.77-9.06c-1.81-13.14-9.43-15.76-12.39-16.28c-1.52-0.27-3.01-0.61-4.46-1.12
	c-5.78-2.02-16.82-7.21-12.58-16.56c5.66-12.45,1.13-20.37-5.1-27.73s-13.01-11.27,0-22.61s4.53-27.19,4.53-27.19
	S40.5,70.03,59.17,67.2c13.58-2.06,16.39-9.49,16.91-13.41c0.51-3.81,2-7.45,4.56-10.32c2.62-2.93,6.53-5.38,12.07-4.6
	c12.3,1.72,20.23,4.55,28.71-7.33s23.85,9.62,34.28,9.9c10.43,0.28,22.34-9.52,28.55,7.83s4.51,13.96,15.27,17.91
	c10.75,3.96,16.41,3.96,13.01,21.5c-3.4,17.54,3.4,17.54,7.36,23.77C223.87,118.71,230.09,119.27,217.64,133.99z"/>
<path d="M60.63,202.48c0,0-30.71,61.41-48.35,81.67l45.73-15.03l14.36,37.82L95.26,226C95.26,226,56.71,238.41,60.63,202.48z"/>
<path d="M200.29,201.87c0,0,30.71,61.41,48.35,81.67l-45.73-15.03l-14.36,37.82l-22.88-80.94
	C165.67,225.39,204.21,237.8,200.29,201.87z"/>
</svg>
