<?xml version="1.0" encoding="utf-8"?>
<!-- Generator: Adobe Illustrator 24.3.0, SVG Export Plug-In . SVG Version: 6.00 Build 0)  -->
<svg version="1.1" id="Layer_1" xmlns="http://www.w3.org/2000/svg" xmlns:xlink="http://www.w3.org/1999/xlink" x="0px" y="0px"
	 viewBox="0 0 376 326" style="enable-background:new 0 0 376 326;" xml:space="preserve">
<g id="malaysia__Ringgit">
	<path d="M227.2,143.4c0,34.6,0,69.2,0,103.8c0,2.2,0.1,4.3-0.1,6.5c-0.5,6.9-3,9.3-9.7,9.5c-5,0.1-10-0.1-15-0.1
		c-6,0.1-8.7-3.2-9.1-8.8c-0.3-4.3-0.1-8.7-0.1-13c0-54.8,0-109.6,0-164.4c0-11.9,2.7-14.6,14.3-14.7c1.3,0,2.6-0.1,3.9-0.1
		c18.7-0.5,24.2,3.1,30.8,20.3c8.7,22.6,17.1,45.3,25.8,67.9c4.1,10.6,8.7,21.1,13.6,33c1.8-3.6,3.3-6.3,4.4-9
		c12-31.3,23.9-62.6,35.9-94c5.4-14,10.9-17.9,25.7-18c3.9,0,7.8-0.3,11.7,0c7.5,0.5,10.5,3.7,10.7,11.1c0.1,2.4,0,4.8,0,7.2
		c0,56.6,0,113.1,0.1,169.7c0,10.8-2.1,13-12.8,13c-3.5,0-6.9,0.2-10.4,0c-8.3-0.3-10.7-2.8-10.8-11.1c0-34.5,0-68.9,0-103.4
		c0-1.7,0-3.4,0-5.2c-0.4-0.2-0.7-0.3-1.1-0.5c-0.9,1.9-1.9,3.8-2.7,5.8c-10.4,25.2-20.9,50.4-31.1,75.7c-2.6,6.4-6.2,9.6-13.1,8.7
		c-1.3-0.2-2.6,0-3.9,0c-21.6-0.1-17.7,2.1-25.9-17.7c-8.7-21-17-42.1-25.5-63.2c-1.3-3.1-3-6.1-4.6-9.2
		C228,143.1,227.6,143.2,227.2,143.4z"/>
	<path d="M107.6,178.5c16.9,23.5,33.8,46.8,50.3,70.3c1.9,2.8,3.2,7.7,2,10.4c-1,2.3-6,2.8-9.3,4c-0.4,0.1-0.9-0.1-1.3,0
		c-17,3.3-27.6-4.4-36.5-18.5c-9.2-14.6-20.6-27.8-31.5-41.3c-4.3-5.4-9.6-10-14.7-14.6c-7-6.5-15.4-8.4-25.5-6.2c0,3.4,0,7,0,10.6
		c0,19.5,0,39,0,58.5c0,9.2-2.3,11.4-11.6,11.5c-4.3,0-8.7,0-13-0.1c-8.3,0-10.8-2.4-10.8-10.9c0-50.9,0-101.8,0-152.8
		c0-9.3,0.3-18.6,0-28c-0.1-6.3,2.7-9.5,8.8-9.5c27.3,0.1,54.6-0.5,81.9,0.8c25,1.2,45.8,20.9,51,45.7c5.5,26.8-5.2,52.3-27.5,64.7
		C115.8,175.5,111.2,177,107.6,178.5z M41.6,96.8c0,16.9,0,33.4,0,51c16,0,31.5,0.4,47-0.1c14-0.5,24.5-11.2,25.1-24.2
		c0.7-13.5-8-25.5-21.5-26.4C75.5,95.9,58.7,96.8,41.6,96.8z"/>
</g>
</svg>
