<?xml version="1.0" encoding="utf-8"?>
<!-- Generator: Adobe Illustrator 24.3.0, SVG Export Plug-In . SVG Version: 6.00 Build 0)  -->
<svg version="1.1" id="Layer_1" xmlns="http://www.w3.org/2000/svg" xmlns:xlink="http://www.w3.org/1999/xlink" x="0px" y="0px"
	 viewBox="0 0 376 287.6" style="enable-background:new 0 0 376 287.6;" xml:space="preserve">
<style type="text/css">
	.st0{fill:#666666;}
</style>
<g>
	<path class="st0" d="M366.8,227.2c0,0,0-194.9,0-206.5S353.5,9.4,353.5,9.4s-272.4,0-286.1,0s-14,14-14,14V65c0,0-19.1,0-32.4,0
		C9.4,65,9,76.3,9,79.1c0,1.2,0,2.4,0,3.5v156.9c1,37.9,34.5,38.2,34.5,38.2h278.9C369.6,276.3,366.8,227.2,366.8,227.2z
		 M53.9,245.7c0,0,0,9.6-9.6,9.6c-2.8,0-5.1-0.8-6.9-2c-4-2.5-6.3-7.1-6.2-11.9c0.4-25.3,2.1-153.2,0.8-153.2h21.8V245.7z
		 M342.9,231.6c0,0-1.4,23.2-22.8,23.7H74.4l2.3-10c0,0,0.5-213.9-0.5-213h266.7V231.6z"/>
	<path class="st0" d="M196.6,131.9H111c-0.9,0-1.6-0.7-1.6-1.6V67.5c0-0.9,0.7-1.6,1.6-1.6h85.6c0.9,0,1.6,0.7,1.6,1.6v62.9
		C198.2,131.2,197.5,131.9,196.6,131.9z"/>
	<path class="st0" d="M315.5,87.3h-93.1c-0.3,0-0.5-0.2-0.5-0.5V65.1c0-0.3,0.2-0.5,0.5-0.5h93.1c0.3,0,0.5,0.2,0.5,0.5v21.7
		C316.1,87.1,315.8,87.3,315.5,87.3z"/>
	<path class="st0" d="M316,131.5h-93.6c-0.3,0-0.5-0.2-0.5-0.5v-20.8c0-0.3,0.2-0.5,0.5-0.5H316c0.3,0,0.5,0.2,0.5,0.5V131
		C316.5,131.2,316.3,131.5,316,131.5z"/>
	<path class="st0" d="M315.5,177.4H102.7c-0.3,0-0.5-0.2-0.5-0.5v-21.2c0-0.3,0.2-0.5,0.5-0.5h212.9c0.3,0,0.5,0.2,0.5,0.5v21.2
		C316.1,177.2,315.8,177.4,315.5,177.4z"/>
	<path class="st0" d="M315.6,221.1H104.9c-0.3,0-0.5-0.2-0.5-0.5v-20.4c0-0.3,0.2-0.5,0.5-0.5h210.6c0.3,0,0.5,0.2,0.5,0.5v20.4
		C316.1,220.9,315.8,221.1,315.6,221.1z"/>
</g>
</svg>
