<?xml version="1.0" encoding="utf-8"?>
<!-- Generator: Adobe Illustrator 24.3.0, SVG Export Plug-In . SVG Version: 6.00 Build 0)  -->
<svg version="1.1" id="Layer_1" xmlns="http://www.w3.org/2000/svg" xmlns:xlink="http://www.w3.org/1999/xlink" x="0px" y="0px"
	 viewBox="0 0 347.9 325" style="enable-background:new 0 0 347.9 325;" xml:space="preserve">
<style type="text/css">
	.st0{stroke:#000000;stroke-miterlimit:10;}
</style>
<path class="st0" d="M295.4,88.8l0-79.7l-241.2,0l0,79.7l-44,8.3l34.8,165l0,55.7l260.8,0.9l0-50.5l32.7-170.7L295.4,88.8z M73.8,30
	l202.5-0.4l0.9,56.2l-12.6-2.6l-7-34.8L73.8,86.2L73.8,30z M45.9,168.5l-12.6-55.3l209.4-41.8l10.9,57H45.9L45.9,168.5z
	 M285.4,298.7H62.9c0,0,2-150.9,1.3-150.2h221.2L285.4,298.7z M273.2,129.3l-3.9-25.3l48.3,9.1l-11.8,54l0-37.9H273.2z"/>
<rect x="112.4" y="183.3" class="st0" width="50.6" height="50.6"/>
<rect x="197.5" y="175.9" class="st0" width="68.8" height="19.2"/>
<rect x="100" y="252.5" class="st0" width="166.7" height="19.2"/>
<rect x="197.5" y="213.8" class="st0" width="68.8" height="19.2"/>
</svg>
