<?xml version="1.0" encoding="utf-8"?>
<!-- Generator: Adobe Illustrator 24.3.0, SVG Export Plug-In . SVG Version: 6.00 Build 0)  -->
<svg version="1.1" id="Layer_1" xmlns="http://www.w3.org/2000/svg" xmlns:xlink="http://www.w3.org/1999/xlink" x="0px" y="0px"
	 viewBox="0 0 376 325" style="enable-background:new 0 0 376 325;" xml:space="preserve">
<path d="M358.2,32.1c-3.4-6.7-8.6-11.3-13.8-14.3c-7-4.1-15-6.1-23-6.1H133.6c-11.9,0.2-20,5.6-25.3,11.8c-6.2,7.2-9.4,16.5-9.4,26
	v216.3c0,9.6-3.7,19-10.7,25.6c-5.4,5.1-13.1,9.1-24,8.4c-15.9-1-23.1-12.1-26.3-21.1c-1.8-5-2.6-10.4-2.6-15.7V139.1
	c0-3.7-1.7-7.3-4.7-9.4c-7.5-5.1-15,4.1-15,4.1V265c0,57.1,53.6,54,53.6,54h240.1c6.6,0,13.1-1,19.3-3.3c32.6-12,33-47.2,33-47.2
	V46.4C361.5,41.5,360.5,36.5,358.2,32.1z M342.1,56.1v213.8c-4,28.1-33.4,30.7-33.4,30.7H108.2c10.1-7.5,10.5-32,10.5-32V48.6
	c1.3-14.9,13.6-16.7,13.6-16.7h190.1C350,33.2,342.1,56.1,342.1,56.1z"/>
<path d="M68.2,276.4h-4.8c-4.6,0-8.3-3.8-8.3-8.3v-155c0-4.6,3.8-8.3,8.3-8.3h4.8c4.6,0,8.3,3.8,8.3,8.3v155
	C76.6,272.7,72.8,276.4,68.2,276.4z"/>
<path d="M293.5,195.7h-127c-4.3,0-7.8-3.5-7.8-7.8v-4.5c0-4.3,3.5-7.8,7.8-7.8h127c4.3,0,7.8,3.5,7.8,7.8v4.5
	C301.3,192.1,297.8,195.7,293.5,195.7z"/>
<path d="M294.5,240H166.4c-4.5,0-8.2-3.7-8.2-8.2v-4.7c0-4.5,3.7-8.2,8.2-8.2h128.1c4.5,0,8.2,3.7,8.2,8.2v4.7
	C302.6,236.3,299,240,294.5,240z"/>
<path d="M293.4,141.3H175.8c-12.1,0-22-9.8-22-22V78.9c0-12.1,9.8-22,22-22h117.6c12.1,0,22,9.8,22,22v40.5
	C315.3,131.4,305.5,141.3,293.4,141.3z M175.8,75c-2.1,0-3.9,1.8-3.9,3.9v40.5c0,2.1,1.8,3.9,3.9,3.9h117.6c2.1,0,3.9-1.8,3.9-3.9
	V78.9c0-2.1-1.8-3.9-3.9-3.9H175.8z"/>
</svg>
