<?xml version="1.0" encoding="utf-8"?>
<!-- Generator: Adobe Illustrator 24.3.0, SVG Export Plug-In . SVG Version: 6.00 Build 0)  -->
<svg version="1.1" id="Layer_1" xmlns="http://www.w3.org/2000/svg" xmlns:xlink="http://www.w3.org/1999/xlink" x="0px" y="0px"
	 viewBox="0 0 376 325" style="enable-background:new 0 0 376 325;" xml:space="preserve">
<g>
	<path d="M358,270.5v-201c-0.6-21.2-19.7-20.2-19.7-20.2h-17.8v-15c-0.6-20.9-15.2-22.6-21-22.5c-3.7,0.1-7.4,0.2-11.2,0.2H38.3
		C17.5,12.1,18,31.9,18,31.9c-0.6,0.6-0.1,212.5,0,236.7c0,1.9,0.1,3.7,0.2,5.6c3.8,38.4,42.1,38.7,42.1,38.7h252
		c3.3,0,6.7-0.2,10-0.8C358.7,306,358,270.5,358,270.5z M307.2,292.9H66.4c0,0-27.4-0.8-27.4-27.4S37.8,35,38.4,34.4h257.9v223.9
		c0,0-2,27.6,32.6,24.7C329,283,327.5,292.9,307.2,292.9z M342.9,267.3h-21.3c0,0-11.1,0.4-10.4-8c0,0,0-195.4,0-195.1h31.7V267.3z"
		/>
	<polygon points="75,95.8 94.1,129.3 106.9,129.3 106.9,75.5 94.1,75.5 94.1,108.9 75,75.5 62.1,75.5 62.1,129.2 75,129.2 	"/>
	<polygon points="159.6,119.3 135.5,119.3 135.5,106.4 155.8,106.4 155.8,96.8 135.5,96.8 135.5,85.5 159.7,85.5 159.7,75.5 
		122.5,75.5 122.5,129.3 159.6,129.3 	"/>
	<polygon points="193.9,129.3 201,98.7 208.2,129.3 221.6,129.3 233,75.5 220.1,75.5 214,109.2 206.5,75.5 195.5,75.5 188.1,109.2 
		182,75.5 169.1,75.5 180.5,129.3 	"/>
	<path d="M265.9,84.7c2.2,0,4.1,0.6,5.4,1.8c1.4,1.2,2.1,3,2.1,5.1h12.9c0-3.4-0.8-6.3-2.5-8.8c-1.8-2.5-4.1-4.5-7.2-5.9
		c-3-1.4-6.5-2.1-10.4-2.1c-4,0-7.6,0.6-10.7,1.9c-3.2,1.3-5.6,3.1-7.4,5.3c-1.8,2.2-2.6,4.9-2.6,7.8c0,6,3.5,10.6,10.5,14.1
		c2.1,1,4.9,2.1,8.3,3.3c3.4,1.1,5.8,2.2,7.1,3.3c1.4,1,2.1,2.5,2.1,4.4c0,1.7-0.7,3-1.9,3.9c-1.2,0.9-2.9,1.4-5,1.4
		c-3.4,0-5.8-0.7-7.3-2.1c-1.5-1.3-2.2-3.5-2.2-6.3h-13c0,3.5,0.8,6.7,2.5,9.4c1.8,2.7,4.4,4.9,7.9,6.4c3.5,1.6,7.5,2.3,11.9,2.3
		c6.2,0,11-1.3,14.6-4c3.5-2.7,5.3-6.4,5.3-11.1c0-5.9-2.9-10.5-8.7-13.8c-2.3-1.3-5.4-2.6-9.1-3.8c-3.6-1.2-6.3-2.3-7.7-3.5
		c-1.5-1.1-2.2-2.3-2.2-3.7c0-1.6,0.7-2.9,2.1-3.9C261.8,85.1,263.5,84.7,265.9,84.7z"/>
	<path d="M207.5,232.7c-2,0.3-2.4,0.1-3.4-0.9c-8.1-8.6-15.7-16.4-23.1-24c-5.3-5.4-10.5-10.7-15.9-16.1
		c-6.4-6.5-13.1-13.3-19.5-19.9c-0.6-0.7-1-1.7-1.1-2.4c-0.6-6.5-3.5-10.4-8.7-11.5c-5.2-1.1-9.7,1.4-12.7,7.1c-3,5.8-6,11.7-9,17.5
		c-1.4,2.7-2.7,5.3-4.1,8l-6.4,12.7c-5.2,10.3-10.4,20.4-15.6,30.7c-2.9,5.7-2.1,11.1,2.1,14.5c4.4,3.5,9.2,3.5,14.1,0
		c0.5-0.4,0.9-0.6,1.1-0.6c6.8,1.2,13.7,2.5,20.4,3.7l3.6,0.7c-0.5,14.6,3.6,20.8,14.7,23c4.6,0.9,8.3,1.4,11.4,1.4
		c9.1,0,12.8-4.4,17.1-16.5l3.2,0.6c4.1,0.7,8.1,1.5,12.1,2.1c1.7,0.3,2.4,0.7,3.5,2.4c1.8,3.1,5.6,5.6,8.8,5.9
		c3.1,0.2,7.5-2.1,9.2-4.9c4.1-6.5,7.4-13.1,9.9-19.4c1.2-3.2,0.4-8.3-1.8-10.9C215.6,233.2,210.9,232.2,207.5,232.7z M102,233
		c-0.6,1.1-1.2,2.3-1.8,3.5l-1.3,2.6c-0.8,1.7-1.2,2-1.3,2c-0.1,0-0.3-0.1-0.7-0.3c-0.7-0.4-0.9-0.5,0.3-2.8
		c3.3-6.3,6.5-12.8,9.8-19.1l7.9-15.7c5.4-10.5,10.7-21.1,16.1-31.6l0.3-0.5c0.6-1.2,1.1-2.3,1.9-3.1c0.1-0.1,0.5-0.1,0.6-0.1
		c0.2,0.2,0.5,0.6,0.7,0.9l-1.2,2.5c-1.2,2.6-2.5,5.1-3.7,7.6c-7.9,15.6-16,31.3-23.9,46.8L102,233z M159.7,265.4
		c-1.7,1.2-4.5,1.5-8.9,0.7c-0.4-0.1-0.8-0.1-1.2-0.2c-0.7-0.1-1.3-0.2-1.9-0.3c-4-0.8-6.4-2-7.6-3.6c-1.1-1.7-1.2-4.2-0.5-8
		l23.1,4.1C162.2,262,161.3,264.3,159.7,265.4z M198.5,242.7c-0.9,1.5-1.7,3.2-2.3,4.8c-1.1,2.4-2.1,4.9-3.6,5.8
		c-1.4,0.7-4.5,0-7.3-0.7c-1.2-0.4-2.5-0.7-3.8-0.9c-21.9-3.9-44.2-8-65.8-11.9l-4.9-0.9c-0.1-0.1-0.2-0.1-0.3-0.1l29-56.7
		c1.8,1.7,3.5,3.3,5.2,4.9c5.4,4.9,11,10.2,16.3,15.4c7.2,7.3,14.5,14.7,21.5,21.9c5,5.1,10.3,10.5,15.4,15.8
		C199.3,241.2,199.2,241.4,198.5,242.7z M210.1,243.9c-0.7,1.3-1.3,2.7-2,4c-2.1,4-4.1,8.1-6.3,11.9c-0.1,0.1-0.4,0.3-0.7,0.4
		c0-0.2-0.1-0.4-0.1-0.6c2.3-5.2,5-10.5,8.1-16.2c0.2-0.1,0.7-0.4,1.3-0.7C210.3,243.2,210.3,243.6,210.1,243.9z"/>
	<path d="M87.3,195.5c0.6,0.3,1,0.4,1.6,0.4c1,0,2.1-0.4,2.9-0.8l0.2-0.1c1.2-0.4,2.1-1.3,2.4-2.4c0.5-1.2,0.3-2.4-0.4-3.5l-0.1-0.2
		c-0.7-1.1-1.3-2.1-2.4-2.7c-9.2-4.8-17-8.6-24.4-12c-1.5-0.7-3.1,0-4.1,0.5c-1.7,0.7-2.6,2.6-2.2,4.5c0.2,1.1,0.6,2.8,2.1,3.6
		C71.6,187.6,79.6,191.8,87.3,195.5z"/>
	<path d="M77,214.2c-2.4-0.3-4.8-0.3-7.1-0.2c-0.9,0-1.8,0-2.7,0h-2.3v0.6c-0.4,0-0.7,0-1,0c-2.8,0.1-5.8,0.2-8.7,0.6
		c-1.6,0.3-2.7,1.5-3.4,2.2c-1.3,1.5-1.3,3.9,0.2,5.4c0.8,0.7,2,2,3.6,2c7.4-0.2,14.7-0.6,21.8-0.9c1.6-0.1,2.7-1.4,3.4-2.1
		c0.7-0.8,1.1-1.9,1-3c0-1.1-0.6-2.1-1.4-2.8C79.5,215.2,78.4,214.4,77,214.2z"/>
	<path d="M91.7,142.6c-1.7,1-2.8,4.3-1.7,6.2c3.7,6.3,7.8,12.9,12.3,19.8c0.7,1.3,2.5,1.8,3.9,1.8c0.6,0,1.1-0.1,1.5-0.2
		c1.4-0.5,2.1-1.6,2.6-2.3c0.6-0.8,0.7-2,0.6-3c-0.1-0.5-0.2-0.9-0.5-1.4l-2.1-3.5c-3.4-5.3-6.7-10.9-10.3-16.2
		C96.9,142,93.4,141.6,91.7,142.6z"/>
	<path d="M84.8,164.7c-1.1,0.3-2.1,1.1-2.5,2.2c-0.6,1.1-1.3,3-0.2,4.6c1.8,2.3,4,4.4,6.4,5.7c0.7,0.4,1.3,0.5,2,0.5
		c1,0,2-0.3,2.9-0.6L94,177c1.4-0.4,2.5-1.6,2.8-3c0.4-1.7-0.3-3.3-1.7-4.2l-6.9-4.6C87.2,164.5,85.9,164.4,84.8,164.7z"/>
	<path d="M71.5,197c-0.6-0.1-1.2-0.1-1.9-0.2c-0.9-0.2-1.9,0.1-2.6,0.6l-0.1,0.1c-1,0.7-2.9,1.9-2.9,3.8c0,5,4.3,5.5,6.2,5.7
		c0.6,0.1,1.1,0.2,1.5,0.3c0.5,0.2,0.9,0.3,1.4,0.3c1.3,0,2.6-0.6,3.6-1c0.9-0.5,1.7-1.4,2.1-2.4c0.4-1.1,0.3-2.2-0.3-3.2
		c-0.6-1-1.3-2.2-2.5-2.9C74.6,197.3,73.2,197.1,71.5,197z"/>
	<rect x="175.6" y="150.5" width="104.6" height="15"/>
	<rect x="196.5" y="177.6" width="83.1" height="12.9"/>
</g>
</svg>
