<?xml version="1.0" encoding="utf-8"?>
<!-- Generator: Adobe Illustrator 24.3.0, SVG Export Plug-In . SVG Version: 6.00 Build 0)  -->
<svg version="1.1" id="Layer_1" xmlns="http://www.w3.org/2000/svg" xmlns:xlink="http://www.w3.org/1999/xlink" x="0px" y="0px"
	 viewBox="0 0 372.1 325" style="enable-background:new 0 0 372.1 325;" xml:space="preserve">
<style type="text/css">
	.st0{fill:#666666;}
</style>
<g>
	<path class="st0" d="M310.2,10.4h-178c0,0-33,0-33.7,34.9c0,0-3.9,58.2-1.9,58.2H44.9c0,0-30.4,1.3-30.4,29.1s0,130.7,0,130.7
		s-1,30.9,29.8,44.2c7.9,3.4,16.5,5,25.1,4.9l238.3-0.6c0,0,47.9,2.6,48.5-58.9V41.5C356.2,41.5,354.9,7.8,310.2,10.4z M98.6,261.5
		c0,17.5-14.9,36.2-36.9,34.9c-9.2-0.5-16-6.1-20.8-12.5c-6.4-8.4-9.6-18.7-9.7-29.2c-0.1-27.8-0.5-104.7,0.1-116.8
		c0.6-14.9,15.5-14.2,15.5-14.2h51.8C98.6,123.7,98.6,244,98.6,261.5z M339.1,51.3c-0.2,6.6-0.4,13.2-0.4,19.8v173.2
		c0,4.3-0.3,8.5-0.9,12.7c-6.3,39-35.3,35-35.3,35H108.3c8.3-16,8.9-29.1,8.6-34.7c-0.2-5.2-0.2-10.4-0.2-15.7V51.8
		c0-11.6,5.7-17.2,10.8-19.7c3-1.5,6.3-2.3,9.7-2.3c19.3-0.2,154.3-1.2,179.5,0C337.1,30.8,339.3,44.5,339.1,51.3z"/>
	<path class="st0" d="M278.5,90.2v38H176.7v-38H278.5 M289.1,69.9h-123c-5.3,0-9.7,4.4-9.7,9.7v59.1c0,5.3,4.4,9.7,9.7,9.7h123
		c5.3,0,9.7-4.4,9.7-9.7V79.7C298.8,74.3,294.4,69.9,289.1,69.9L289.1,69.9z"/>
	<path class="st0" d="M297.4,191.6H157c-0.3,0-0.6-0.2-0.6-0.6v-18.3c0-0.3,0.2-0.6,0.6-0.6h140.4c0.3,0,0.6,0.2,0.6,0.6v18.3
		C297.9,191.4,297.7,191.6,297.4,191.6z"/>
	<path class="st0" d="M297.7,235.6H157.5c-0.3,0-0.6-0.3-0.6-0.6v-20.3c0-0.3,0.3-0.6,0.6-0.6h140.3c0.3,0,0.6,0.3,0.6,0.6V235
		C298.4,235.3,298.1,235.6,297.7,235.6z"/>
</g>
</svg>
