<?xml version="1.0" encoding="utf-8"?>
<!-- Generator: Adobe Illustrator 24.3.0, SVG Export Plug-In . SVG Version: 6.00 Build 0)  -->
<svg version="1.1" id="Layer_1" xmlns="http://www.w3.org/2000/svg" xmlns:xlink="http://www.w3.org/1999/xlink" x="0px" y="0px"
	 viewBox="0 0 376 314.1" style="enable-background:new 0 0 376 314.1;" xml:space="preserve">
<style type="text/css">
	.st0{fill:#666666;}
</style>
<g>
	<g>
		<path class="st0" d="M316.2,98.8l0,191.8l-256.1,0l0-191.8L316.2,98.8 M318.5,86L57.8,86c-5.8,0-10.6,4.8-10.6,10.6l0,196.4
			c0,5.8,4.8,10.6,10.6,10.6l260.7,0c5.8,0,10.6-4.8,10.6-10.6l0-196.4C329,90.7,324.3,86,318.5,86L318.5,86z"/>
	</g>
	<path class="st0" d="M158.6,152.6l0,48.2l-57.1,0l0-48.2L158.6,152.6 M163.6,137.1l-67.2,0c-5.7,0-10.4,4.7-10.4,10.4l0,58.3
		c0,5.7,4.7,10.4,10.4,10.4l67.2,0c5.7,0,10.4-4.7,10.4-10.4l0-58.3C174,141.8,169.3,137.1,163.6,137.1L163.6,137.1z"/>
	<path class="st0" d="M281.1,168.3l-80.8,0l0-23.2l80.9,0c0.4,0,0.7,0.3,0.7,0.7l0,21.8C281.8,167.9,281.5,168.3,281.1,168.3z"/>
	<path class="st0" d="M292.9,210.8l-93.7,0l0-23.2l93.8,0c0.4,0,0.7,0.3,0.7,0.7l0,21.8C293.7,210.4,293.4,210.8,292.9,210.8z"/>
	<path class="st0" d="M292.4,261.3l-208.4,0l0-23.2l208.5,0c0.4,0,0.7,0.3,0.7,0.7l0,21.8C293.2,261,292.9,261.3,292.4,261.3z"/>
	<path class="st0" d="M202.5,42.1c3.2,6.3,8.1,18.4,12.7,30.3l-98.8,0.4c36.1-12.9,71.5-25.5,84.1-30
		C201.2,42.7,201.8,42.4,202.5,42.1 M34.3,102.1c-0.1,0.8-0.1,1.6-0.1,2.4c-0.2,4.6-0.2,12.7-0.2,22.5l-8.3-21.9
		C27.9,104.3,30.8,103.3,34.3,102.1 M205,24.8c-1.6,0-2.9,0.5-3.9,1c-1.9,1-3.8,1.9-5.8,2.6C169.1,37.7,25.6,88.9,15.9,92.1
		c-10.8,3.6-6.5,13.6-6.5,13.6l40.9,108.3c0,0-1.4-88.9-0.7-109c0.5-14.8,7.7-16.7,11.4-16.7c0.2,0,0.4,0,0.5,0
		c3.1,0.2,6.3,0.2,9.5,0.2c1,0,1.9,0,2.9,0l163.6-0.7c0,0-15.8-43.7-22.9-55.9C211.2,26.3,207.8,24.8,205,24.8L205,24.8z"/>
	<path class="st0" d="M245.5,69.6l15.7,4.1l-14.1,0L245.5,69.6 M340.5,94.5l0.7,0.2c3.6,1,7.8,2,12.1,2.9c-0.1,0.5-0.2,1.2-0.4,1.9
		c-1.6,6.3-6.4,24.1-12.1,45.3l0-46.7v-0.1l0-0.1C340.8,96.7,340.7,95.6,340.5,94.5 M222.4,49.1l15.1,38.7l79-0.2c0.1,0,0.2,0,0.3,0
		c9.9,0,10.1,10.4,10.1,10.4l0,151.1c0,0,35-126.9,39.8-146.3c3.6-14.5-3.9-17.9-7.9-18.6c-4.7-0.9-9.2-2-13.8-3.2L222.4,49.1
		L222.4,49.1z"/>
	<path class="st0" d="M279.6,24.7l0,24.8l-45.3-11.8c-0.8-1.9-1.7-4-2.8-6.2c-1.4-2.6-2.8-4.9-4.2-6.9l50.6,0
		C278.3,24.8,279,24.8,279.6,24.7 M162.8,24.8c-20.8,7.6-46.5,17.1-64.2,23.7l0-23.7L162.8,24.8 M281.6,9.3c-0.2,0-0.3,0-0.5,0
		c-1.1,0-2.3,0-3.4,0l-185.5,0c-8.8,0-9.2,8.8-9.2,11.2c0,0.7,0,1.3,0,2l0,48.1c0,0,104.3-38.7,118-43.2c1-0.3,2-0.5,3-0.5
		c11.8,0,18.3,23.8,18.3,23.8L295,69.5c0,0,0-29.6,0-45.7C295,10.4,284.9,9.3,281.6,9.3L281.6,9.3z"/>
</g>
</svg>
