<?xml version="1.0" encoding="utf-8"?>
<!-- Generator: Adobe Illustrator 24.3.0, SVG Export Plug-In . SVG Version: 6.00 Build 0)  -->
<svg version="1.1" id="Layer_1" xmlns="http://www.w3.org/2000/svg" xmlns:xlink="http://www.w3.org/1999/xlink" x="0px" y="0px"
	 viewBox="0 0 291.6 325" style="enable-background:new 0 0 291.6 325;" xml:space="preserve">
<style type="text/css">
	.st0{fill:#666666;}
</style>
<g>
	<path class="st0" d="M143.8,7L8.6,88.3L8.6,234l137.6,82.1l136.4-79.7V90.4C282.6,90.4,143.8,3.4,143.8,7z M253,222.4l-106.4,62.3
		L38.7,223.2V99.4l106.8-62.3l107.9,61.9L253,222.4z"/>
	<path class="st0" d="M58.3,186.6l0-49.4c0-2,0.4-4.1,1.2-5.9c0.8-1.8,2.1-3.6,4.2-4.4c0.8-0.3,1.6-0.4,2.4-0.4l10.1,0.2
		c0.4,0,0.8,0,1.1-0.1c1-0.1,3.8,0.4,6.8,7.4c3.8,8.9,14,33.8,14,33.8l0-31.3c0-5.3,4.2-9.7,9.6-9.8c0.1,0,0.2,0,0.2,0
		c6.5,0,7.1,6.5,7,9c0,1.5-0.1,2.9-0.1,4.4l0,44.3c0,0.9,0,1.8,0,2.7c0,2.2-0.5,9.2-8.1,9.2l-7.3,0c-2.8,0-5.5-0.9-7.6-2.8
		c-1-0.9-1.9-2.2-2.5-3.8c-1.9-5.3-14.1-34.5-14.1-34.5l0,32.2c0,1.9-0.5,3.8-1.5,5.4c-1.2,1.9-3.4,3.8-7.2,3.8
		c-4.3,0-6.4-2.8-7.4-5.1C58.6,189.8,58.3,188.2,58.3,186.6z"/>
	<path class="st0" d="M129.6,136.6c0-2.4,0.6-4.9,1.8-7c1.1-1.9,2.8-3.6,5.2-3.6c4.6,0,29.4,0.3,36.1,0.4c2,0,3.9,0.6,5.5,1.8
		c1.5,1.2,3,3.1,3,6.1c0,3.3-2.2,5.4-4.3,6.6c-2,1.1-4.3,1.7-6.6,1.7l-24.4,0v14.5l18.1,0c0,0,7.9,0,8.3,7.7c0.1,3-0.9,5.1-2.2,6.6
		c-1.7,1.9-4.2,2.9-6.8,2.8l-17.3-0.5v15.1c0,0,0,6.6-7.7,7.5c-4.2,0.5-6.4-1.7-7.5-3.9c-0.8-1.5-1.2-3.3-1.2-5V136.6z"/>
	<path class="st0" d="M204.9,142.8l-8.2,0c-1.7,0-3.5-0.3-5.1-1c-2.3-1-4.8-3-4.8-6.9c0-3.1,1.3-5.1,2.8-6.4c1.7-1.5,4-2.3,6.2-2.3
		l33.5,0c1.5,0,2.9,0.2,4.3,0.7c2.3,0.8,5.2,2.5,5.4,6.1c0.4,6.2-2.8,10.2-11.3,10.2h-6.4l0,44.3c0,0,0.9,8.7-8.5,8.7
		c-8,0-8.4-6.8-8.3-9c0-0.7,0-1.3,0-2C204.5,177.7,204.4,142.4,204.9,142.8z"/>
</g>
</svg>
