<?xml version="1.0" encoding="utf-8"?>
<!-- Generator: Adobe Illustrator 24.3.0, SVG Export Plug-In . SVG Version: 6.00 Build 0)  -->
<svg version="1.1" id="Layer_1" xmlns="http://www.w3.org/2000/svg" xmlns:xlink="http://www.w3.org/1999/xlink" x="0px" y="0px"
	 viewBox="0 0 284.9 325" style="enable-background:new 0 0 284.9 325;" xml:space="preserve">
<g>
	<path d="M8.6,84.6C52.2,59.5,95.8,34.3,139.3,9.2c2.1-1.2,3.7-1.5,6-0.2c43.7,25.2,87.3,50.5,131,75.6c0,51.6,0,103.1,0,154.7
		c-43.4,25-86.8,50.2-130.2,75.2c-1,0.6-2,1.4-3,2.2c-0.5,0-0.9,0-1.4,0c-1-0.7-1.9-1.6-2.9-2.2c-43.4-25-86.8-50.2-130.2-75.2
		C8.6,187.7,8.6,136.2,8.6,84.6z M265,162.3c0-21.7-0.1-43.5,0.1-65.2c0-4.2-1.5-6.8-5.1-8.9c-37.5-21.5-75-43.1-112.4-65
		c-3.6-2.1-6.6-2.2-10.3-0.1C100,45,62.5,66.6,25,88.2c-3.8,2.2-5.3,4.8-5.3,9.2c0.1,43,0.1,86.2,0,129.2c0,4.4,1.6,7,5.3,9.2
		c37.6,21.6,75.2,43.2,112.6,65c3.5,2,6.2,1.9,9.6,0c37.6-21.8,75.3-43.6,112.9-65.3c3.4-2,4.9-4.4,4.8-8.4
		C264.9,205.5,265,183.9,265,162.3z"/>
	<path d="M142.4,33.7c0.7,0,1.5,0.2,2.3,0.7c35.6,20.6,71.3,41.2,107,61.8c1.8,1,2.2,2.2,2.2,4.1c-0.1,20.6,0,41.3,0,62
		c0,20.3,0,40.6,0.1,61c0,2.4-0.8,3.7-2.8,4.8c-35.3,20.3-70.7,40.7-106,61.2c-1,0.6-1.8,0.9-2.7,0.9c-0.8,0-1.6-0.3-2.6-0.8
		C104.5,268.8,69,248.4,33.6,228c-2-1.1-2.6-2.4-2.6-4.6c0.1-40.9,0.1-82,0-122.9c0-2.1,0.6-3.3,2.5-4.3
		c35.6-20.4,71.2-40.9,106.7-61.6C140.9,34,141.7,33.7,142.4,33.7 M64,122.3c1.3,0,2.7-0.5,4.3-1.4c23.7-13.6,47.5-27.3,71.1-41
		c1.1-0.6,2.1-1,3-1s1.8,0.3,2.9,0.9c15.6,9.1,31.2,18.1,47,27.2c8.2,4.7,16.4,9.5,24.7,14.2c1.2,0.7,2.3,1,3.5,1
		c3,0,5.5-2.3,5.6-6.5c-1-1-2.4-3.2-4.4-4.4c-25-14.5-50.1-28.9-75-43.5c-1.5-0.9-2.9-1.3-4.3-1.3c-1.5,0-2.9,0.5-4.4,1.4
		c-8.3,4.9-16.6,9.7-24.9,14.5c-16.7,9.7-33.5,19.3-50.3,29c-3.8,2.2-4.9,5.2-2.9,8.3C60.8,121.4,62.2,122.3,64,122.3 M136.8,189.8
		c3,0,5.4-2.5,5.5-5.9c0.1-4.5,0-9,0.1-13.6c0-0.9,0.2-1.8,0.3-2.7c4.2,0,8.3,0,12.4,0c2.8,0,5.6,0,8.4,0c4.1,0,6.7-2.2,6.8-5.5
		c0.1-3.3-2.6-5.5-6.6-5.6c-0.8,0-1.6,0-2.4,0c-1.3,0-2.6,0-3.8,0l0,0c-3,0-5.9,0-8.9,0c-2,0-4,0-6,0c0-3.9,0-7.2,0-11.1
		c1,0,1.8,0,2.7,0c0.5,0,0.9,0,1.4,0c0.1,0,0.2,0,0.3,0c3.3,0,6.5,0,9.8,0c2.5,0,5.1,0,7.6-0.1c3.5-0.1,6-2.5,6-5.5
		c0-3-2.5-5.5-6-5.5c-4.5,0-9-0.1-13.5-0.1c-4.4,0-8.8,0-13.3,0.1c-3.7,0-6.1,2.2-6.1,5.7c-0.1,14.7-0.1,29.4,0,44.3
		C131.3,187.4,133.9,189.7,136.8,189.8L136.8,189.8 M186.4,145.3c2,0,4,0,6.2,0c0,1.6,0,2.9,0,4.1c0,11.4,0,22.7,0,34.1
		c0,3.8,2.4,6.3,5.5,6.3l0,0c3.1,0,5.4-2.6,5.6-6.3c0.1-2.4,0-4.9,0-7.3c0-10.2,0-20.3,0-30.9c2.3,0,4.3,0,6.3,0c1.2,0,2.4,0,3.6,0
		c4-0.1,6.7-2.2,6.7-5.5c0.1-3.3-2.6-5.6-6.6-5.6c-5.2,0-10.4,0-15.6,0c-5.2,0-10.4,0-15.6,0c-4,0-6.6,2.4-6.6,5.6
		c0.1,3.2,2.7,5.4,6.7,5.5C183.8,145.3,185.2,145.3,186.4,145.3 M109,167.5c-1.3-1.6-2-2.4-2.7-3.3c-6.7-8.9-13.4-17.8-20-26.7
		c-1.3-1.8-2.8-3.2-4.9-3.2c-0.6,0-1.2,0.1-1.8,0.3c-3.1,1.1-4,3.5-4,6.6c0,13.9,0,27.8,0,41.7c0,4.2,2.2,6.9,5.5,6.9h0.1
		c3.3-0.1,5.4-2.8,5.5-7.1c0-7.7,0-15.3,0-23c0-0.8,0.2-1.6,0.3-2.9c1.1,1.4,1.8,2.3,2.5,3.2c6.8,9,13.5,18,20.3,27
		c1.2,1.6,2.7,2.8,4.7,2.8c0.5,0,1-0.1,1.6-0.3c2.6-0.8,4.1-2.8,4.1-5.5c0.1-14.7,0.1-29.5,0-44.3c0-3.3-2.6-5.6-5.4-5.7
		c0,0,0,0-0.1,0c-2.9,0-5.2,2.3-5.5,5.6c-0.1,0.9,0,1.9,0,2.8C109,150.5,109,158.5,109,167.5 M142.5,245c-1.1,0-2.1-0.4-3.3-1.1
		c-23.2-13.5-46.6-26.9-69.9-40.3c-1.5-0.8-3-1.5-3.9-1.9c-3.6,0-5.5,1.4-6.2,4.1c-0.9,3.3,0.9,5.2,3.5,6.7
		c25,14.4,50,28.8,74.9,43.4c1.7,1,3.3,1.5,4.8,1.5c1.6,0,3.1-0.5,4.8-1.5c24.7-14.4,49.6-28.6,74.4-42.9c0.9-0.5,1.8-1.1,2.6-1.8
		c2-2.1,2.4-4.5,0.8-6.9c-1.1-1.7-2.6-2.4-4.3-2.4c-0.7,0-1.4,0.1-2.1,0.4c-1.2,0.4-2.2,1.2-3.3,1.8c-23.1,13.4-46.4,26.7-69.5,40.2
		C144.5,244.7,143.5,245,142.5,245 M142.4,27.4c-1.9,0-3.7,0.5-5.6,1.6c-35.5,20.5-71.1,41-106.6,61.6c-3.8,2.2-5.6,5.4-5.6,9.8
		c0.1,40.9,0.1,82,0,122.9c0,4.5,1.9,7.8,5.8,10.1c35.5,20.4,71.3,41,106.3,61.4c1.9,1.1,3.8,1.7,5.7,1.7s3.9-0.6,5.9-1.7
		c35.3-20.4,70.6-40.8,106-61.2c4.1-2.3,6-5.7,6-10.3c-0.1-15.6-0.1-31.2-0.1-46.9v-14.1v-13.3c0-16.2,0-32.4,0-48.7
		c0-1.6,0-6.5-5.4-9.6c-35.6-20.5-71.3-41-106.9-61.7C146.1,27.9,144.3,27.4,142.4,27.4L142.4,27.4z"/>
</g>
</svg>
