<?xml version="1.0" encoding="utf-8"?>
<!-- Generator: Adobe Illustrator 24.3.0, SVG Export Plug-In . SVG Version: 6.00 Build 0)  -->
<svg version="1.1" id="Layer_1" xmlns="http://www.w3.org/2000/svg" xmlns:xlink="http://www.w3.org/1999/xlink" x="0px" y="0px"
	 viewBox="0 0 361.2 326" style="enable-background:new 0 0 361.2 326;" xml:space="preserve">
<path d="M97.7,214.2c0,2.8,0,4.8,0,6.7c0,30.6-0.1,61.2,0.1,91.8c0,4.6-1.1,6.3-6,6.2c-13.5-0.3-27-0.3-40.5,0
	c-4.5,0.1-5.6-1.6-5.5-5.7c0.1-30.9,0-61.9,0-92.8c0-1.9,0-3.9,0-6.2c-11.1,0-21.6-0.2-32.1,0.1c-4.3,0.1-5.9-1.3-5.7-5.6
	c0.2-8.4,0.2-16.8,0-25.2c-0.1-3.8,1.2-5.2,5.2-5.2c9.4,0.2,18.8,0,28.1,0.1c3.2,0.1,4.7-0.7,4.6-4.3c-0.2-8.7-0.1-17.4-0.1-26.6
	c-10.6,0-20.6,0-30.6,0c-7.2,0-7.2,0-7.2-7.4c0-7.6,0.2-15.1-0.1-22.7c-0.1-4.2,1.2-5.8,5.6-5.7c10.5,0.3,21,0.1,32.3,0.1
	c0-3,0-5.7,0-8.5c0-29.9,0.1-59.9-0.1-89.8c0-4.9,1.3-6.6,6.4-6.4c13.5,0.3,27,0.2,40.5,0c3.3,0,5.4,1.1,7.3,3.8
	c23.4,32.4,47.1,64.6,70.5,97c2,2.8,4.1,4.1,7.6,4c26.7-0.1,53.3-0.1,80-0.1c1.6,0,3.2-0.2,5.4-0.3c0-2.4,0-4.5,0-6.6
	c0-30.4,0-60.9,0-91.3c0-6.4,0-6.4,6.6-6.4c13.2,0,26.3,0.2,39.5-0.1c4.6-0.1,5.9,1.5,5.9,5.9c-0.1,31.4-0.1,62.8-0.1,94.3
	c0,1.3,0,2.6,0,4.6c9.6,0,18.9,0,28.3,0c10.5,0,9.4-1.2,9.5,9.6c0,6.7-0.3,13.5,0.1,20.2c0.3,4.9-1.6,6.2-6.3,6.1
	c-8.7-0.3-17.4-0.1-26.2-0.1c-1.6,0-3.2,0.1-5.1,0.2c0,10.2,0,20.2,0,30.6c10.3,0,20.3,0,30.3,0c7.2,0,7.2,0,7.2,7
	c0,7.7-0.2,15.5,0.1,23.2c0.1,4.2-1.1,5.8-5.6,5.7c-10.5-0.3-21-0.1-32.2-0.1c0,2.1,0,3.8,0,5.5c0,31.1-0.1,62.2,0,93.3
	c0,4.4-1.1,6.1-5.8,6c-13.6-0.3-27.3-0.2-41,0c-3.3,0-5.4-0.9-7.4-3.7c-23.4-32.4-47-64.6-70.4-97c-2.2-3-4.4-4.1-8.1-4.1
	c-26.3,0.2-52.6,0.1-79,0.1C102,214.2,100.2,214.2,97.7,214.2z M161.4,178.1c-7.4-10.2-14.3-19.8-21.3-29.2
	c-0.6-0.8-2.3-1.3-3.4-1.3c-11.8-0.1-23.7-0.1-35.5,0c-1.1,0-3.2,1.2-3.2,1.9c-0.2,9.4-0.1,18.9-0.1,28.5
	C119.1,178.1,139.7,178.1,161.4,178.1z M263.1,147.9c-21,0-41.8,0-63.3,0c7.3,10.1,14,19.6,21.1,28.8c0.8,1.1,3.2,1.5,4.8,1.6
	c7.7,0.2,15.5,0.1,23.2,0.1c4.7,0,9.4,0,14.2,0C263.1,167.8,263.1,158,263.1,147.9z M248.2,214.5c4,5.5,7.3,10.2,10.7,14.7
	c0.6,0.8,2,1.5,2.8,1.3c0.7-0.2,1.5-1.7,1.6-2.6c0.2-4.4,0.1-8.8,0.1-13.4C258.3,214.5,253.8,214.5,248.2,214.5z M112.9,111.5
	c-4-5.5-7.4-10.4-11.1-15.1c-1.9-2.3-3.7-1.3-3.9,1.3c-0.3,4.5-0.1,9-0.1,13.8C103,111.5,107.4,111.5,112.9,111.5z"/>
</svg>
