<?xml version="1.0" encoding="utf-8"?>
<!-- Generator: Adobe Illustrator 24.3.0, SVG Export Plug-In . SVG Version: 6.00 Build 0)  -->
<svg version="1.1" id="Layer_1" xmlns="http://www.w3.org/2000/svg" xmlns:xlink="http://www.w3.org/1999/xlink" x="0px" y="0px"
	 viewBox="0 0 321.4 325" style="enable-background:new 0 0 321.4 325;" xml:space="preserve">
<path d="M310.4,277.3c-0.3-9.3-0.4-18.6-0.7-29.8V84.1l-24.1,0l-0.2,22.3v0.2v169.2c-0.7,10.1-7.5,8.6-7.5,8.6s-229.1,0-235.9,0
	s-7.9-9.4-7.9-9.4V110.7l0,0.4l0.4-26.8l-21-0.2c-1.2-1.2-1.7,196.3-1.7,196.3c-1.4,31.7,30.6,32.6,36.3,32.6c0.9,0,1.8,0,2.7,0
	h222.8c4.8,0,9.6-0.7,14.2-2.2C308.9,303.5,310.7,285.3,310.4,277.3z"/>
<path d="M140.6,215.8l-2.1-1.6c-5.7-4.3-6.9-12.5-2.6-18.2L269.4,18.7c4.3-5.7,12.5-6.9,18.2-2.6l2.1,1.6c5.7,4.3,6.9,12.5,2.6,18.2
	L158.8,213.3C154.5,219,146.3,220.1,140.6,215.8z"/>
<path d="M254.8,254.6H65.9c-2.9,0-5.4-2.4-5.4-5.4v-7.4c0-2.9,2.4-5.4,5.4-5.4h188.9c2.9,0,5.4,2.4,5.4,5.4v7.4
	C260.2,252.2,257.8,254.6,254.8,254.6z"/>
<rect x="13.4" y="75.6" width="149.1" height="21.1"/>
</svg>
