<?xml version="1.0" encoding="utf-8"?>
<!-- Generator: Adobe Illustrator 24.3.0, SVG Export Plug-In . SVG Version: 6.00 Build 0)  -->
<svg version="1.1" id="Layer_1" xmlns="http://www.w3.org/2000/svg" xmlns:xlink="http://www.w3.org/1999/xlink" x="0px" y="0px"
	 viewBox="0 0 355.1 325" style="enable-background:new 0 0 355.1 325;" xml:space="preserve">
<path d="M236.6,99.5l-13.5,7.9V52.8c0-4-1-8-3.1-11.4c-2-3.2-5-6.2-9.5-6.2H41.6c-3.1,0-6.2,0.7-9,2.1c-2.9,1.5-5.8,4-5.8,7.7v233.9
	c0,2.2-0.1,4.4-0.2,6.5c-0.2,3.2,0.5,9.8,8.6,10.8c10,1.3,157,0.2,175.7,0c2.3,0,4.6-0.6,6.4-1.9c2.3-1.6,4.6-4.4,4.8-9.3v-65.3
	l14-10.7v62.1c0,4.4,0.1,8.8,0.2,13.3c0.2,6.5-1.2,21.3-16.6,26.1c-2.7,0.8-5.5,1.2-8.3,1.2H38c-5.7,0-11.3-1.6-15.9-4.9
	c-5.4-3.8-10.7-10.7-11.1-22.6V47.3c0-4.8,1-9.5,3.1-13.8c3.3-6.7,10.1-14.2,24-14.2h168.5c5.7,0,11.4,1.4,16.4,4.3
	c6.7,3.9,13.7,11.4,13.2,25.1L236.6,99.5z"/>
<path d="M125.6,199.1l-25.2,57.8l56.9-7C157.3,249.9,123.8,236.9,125.6,199.1z"/>
<path d="M136,191.2c0,0,4.8,40.9,34.2,47.9L295.2,148c0,0-35.7-21.4-32.9-51.3L136,191.2z"/>
<path d="M274.8,88.3c0,0,0.9,31.7,32.6,50.4l32.6-21.4c0,0,15.4-39.6-31.2-54.1L274.8,88.3z"/>
<rect x="54.1" y="67.6" width="45.2" height="44"/>
<rect x="53.4" y="133.1" width="94.2" height="19.6"/>
<rect x="52.9" y="169.4" width="45.2" height="16.8"/>
</svg>
