<?xml version="1.0" encoding="utf-8"?>
<!-- Generator: Adobe Illustrator 24.3.0, SVG Export Plug-In . SVG Version: 6.00 Build 0)  -->
<svg version="1.1" id="Layer_1" xmlns="http://www.w3.org/2000/svg" xmlns:xlink="http://www.w3.org/1999/xlink" x="0px" y="0px"
	 viewBox="0 0 325.4 325" style="enable-background:new 0 0 325.4 325;" xml:space="preserve">
<style type="text/css">
	.st0{fill:#F91111;}
</style>
<g>
	<path class="st0" d="M162.5,47.6c63.4,0,114.9,51.3,114.9,114.5c0,63.1-51.5,114.5-114.9,114.5S47.6,225.2,47.6,162.1
		C47.6,98.9,99.2,47.6,162.5,47.6 M162.5,11.4c-83.4,0-151.1,67.4-151.1,150.6s67.6,150.6,151.1,150.6s151.1-67.4,151.1-150.6
		S246,11.4,162.5,11.4L162.5,11.4z"/>
	<path class="st0" d="M111.3,83.1l-28.4,28.4l50.1,50.1l-50.8,50.8l29.9,29.9l51.2-51.2l49,49l27.7-27.7l-49.3-49.3l51.2-51.2
		l-29.2-29.2l-51,51C161.9,133.7,110.9,82.7,111.3,83.1z"/>
</g>
</svg>
