<?xml version="1.0" encoding="utf-8"?>
<!-- Generator: Adobe Illustrator 24.3.0, SVG Export Plug-In . SVG Version: 6.00 Build 0)  -->
<svg version="1.1" id="Layer_1" xmlns="http://www.w3.org/2000/svg" xmlns:xlink="http://www.w3.org/1999/xlink" x="0px" y="0px"
	 viewBox="0 0 326.7 325" style="enable-background:new 0 0 326.7 325;" xml:space="preserve">
<g>
	<path d="M38.3,179.5V97.7c0-0.2-0.2-0.4-0.4-0.4H12.1c-0.2,0-0.4,0.2-0.4,0.4v81.8c0,0.2,0.2,0.4,0.4,0.4h25.8
		C38.1,180,38.3,179.8,38.3,179.5z"/>
	<path d="M313.8,97.6H288c-0.2,0-0.4,0.2-0.4,0.4V181c0,0.2,0.2,0.4,0.4,0.4h25.8c0.2,0,0.4-0.2,0.4-0.5V98
		C314.2,97.8,314,97.6,313.8,97.6z"/>
	<path d="M267.7,206.1c0,0-12.4,0.2-13.2-16.3c-0.8-16.5-0.1-55.2-0.1-55.2s-0.7-74.4-71.9-92.3c0,0,5.2-28.8-16.8-30.6
		c-7.3-0.6-11.9,2.4-14.7,6.8c-2.8,3.2-4.5,7.3-4.5,11.8v2.9c-0.4,4.5-0.1,8-0.1,8s-59,7-75.1,71.2l-2.9,68.1
		c0,0,4.3,25.6-12.6,25.6c0,0-27-1.4-28.8,25.6c-1.8,27,17.2,32.7,17.2,32.7s2.5,4.6,25.2,4.6c22.9,0,59.8-0.4,59.8-0.4
		s-4.3,40.8,31.5,43.2C196.5,314.2,193,268,193,268h75.6c0,0,26.9-1.5,27.3-31.7C296.3,206.1,267.7,206.1,267.7,206.1z M263.3,242.3
		H59c-9.8-3.2,0-10.9,0-10.9c36.8,2.5,35.1-34,35.1-34v-66.7c12.7-71.2,71.9-61.4,71.9-61.4c64.6,7.7,60.8,67.4,60.8,67.4v61.7
		c1.1,33.3,35.8,34,35.8,34C275.2,238.1,263.3,242.3,263.3,242.3z"/>
</g>
</svg>
