<?xml version="1.0" encoding="utf-8"?>
<!-- Generator: Adobe Illustrator 24.3.0, SVG Export Plug-In . SVG Version: 6.00 Build 0)  -->
<svg version="1.1" id="Layer_1" xmlns="http://www.w3.org/2000/svg" xmlns:xlink="http://www.w3.org/1999/xlink" x="0px" y="0px"
	 viewBox="0 0 327.8 325" style="enable-background:new 0 0 327.8 325;" xml:space="preserve">
<g>
	<path d="M284.7,238c5.5,0,10.6-0.1,15.6,0c7.4,0.2,13.5,5.7,14.3,12.7c0.9,7.7-3.3,14.5-10.6,16.6c-1.8,0.5-3.7,0.6-5.6,0.6
		c-89.8,0-179.6,0-269.3,0c-8.8,0-15.2-5.2-16.1-12.8c-1-8,3.7-15.4,11.3-16.8c4.3-0.8,8.9-0.4,13.4-0.5c1.6,0,3.2,0,5.3,0
		c0-1.8,0-3.2,0-4.6c0-23.4-0.1-46.7,0-70.1c0.2-51.5,30.3-95.6,78.2-113.9c8.7-3.3,18-5.2,27.7-7.8c0-5-0.2-10.6,0-16.2
		c0.3-7.5,6.5-13.5,13.9-13.9c7.8-0.4,14.8,4.8,15.8,12.2c0.5,4,0.2,8,0.3,12c0,2.2,0,4.4,0,6.7c13.5,1.8,26.1,5.2,37.8,11.3
		c44.3,23.3,67,60.1,68,110c0.5,23.1,0.1,46.2,0.1,69.4C284.7,234.5,284.7,235.9,284.7,238z M254.5,237.7c0-1.6,0-2.9,0-4.1
		c0-23.1,0.1-46.2-0.1-69.4c0-6-0.5-12-1.4-17.9c-7.6-47.3-55.4-81.5-102.6-73.5c-45.9,7.8-77.1,44.7-77.1,91.3
		c0,23.2,0,46.5,0,69.7c0,1.3,0,2.5,0,4C133.7,237.7,193.8,237.7,254.5,237.7z"/>
	<path d="M163.9,313.3c-10.3,0-20.5,0.1-30.8,0c-7.5-0.1-13.5-5.7-14.5-13c-1-7.2,3.5-14.2,10.6-16.4c1.2-0.4,2.5-0.6,3.8-0.6
		c20.5,0,41-0.1,61.5,0c6.6,0,12,4.4,13.9,10.6c1.9,6.2-0.2,13.1-5.7,16.5c-2.8,1.7-6.3,2.7-9.6,2.8
		C183.5,313.5,173.7,313.3,163.9,313.3C163.9,313.3,163.9,313.3,163.9,313.3z"/>
</g>
</svg>
