<?xml version="1.0" encoding="utf-8"?>
<!-- Generator: Adobe Illustrator 24.3.0, SVG Export Plug-In . SVG Version: 6.00 Build 0)  -->
<svg version="1.1" id="Layer_1" xmlns="http://www.w3.org/2000/svg" xmlns:xlink="http://www.w3.org/1999/xlink" x="0px" y="0px"
	 viewBox="0 0 290.98 325" style="enable-background:new 0 0 290.98 325;" xml:space="preserve">
<path d="M62.95,53.71c0,0-35.81,35.81-34.87,82.99c0.05,2.42-0.78,4.82-2.51,6.52c-1.53,1.5-3.91,2.72-7.55,2.37
	c-8.5-0.81-8.09-10.52-8.09-10.52s0.39-50.91,36.2-90.27c2.39-2.63,5.76-4.24,9.31-4.16c2.16,0.05,4.53,0.69,6.7,2.57
	C68.21,48.45,62.95,53.71,62.95,53.71z"/>
<path d="M224.12,53.31c0,0,35.81,35.81,34.87,82.99c-0.05,2.42,0.78,4.82,2.51,6.52c1.53,1.5,3.91,2.72,7.55,2.37
	c8.5-0.81,8.09-10.52,8.09-10.52s-0.39-50.91-36.2-90.27c-2.39-2.63-5.76-4.24-9.31-4.16c-2.16,0.05-4.53,0.69-6.7,2.57
	C218.86,48.04,224.12,53.31,224.12,53.31z"/>
<path d="M277.46,268.35c-0.23-3.22-1.78-6.2-4.12-8.42c-3.87-3.67-11.68-12.02-19.49-25.91c-10.18-18.12-15.96-38.36-17.39-59.09
	c-0.6-8.71-0.89-19.5-0.29-31.78c1.62-33.19-18.62-72.45-48.16-87.02c0,0-12.55-6.07-17.81-6.88V36.6c0-7.18-2.58-14.2-7.51-19.42
	c-3.56-3.77-8.68-7.07-15.96-7.98c-19.43-2.43-28.33,13.76-29.14,23.07c-0.81,9.31-1.21,16.59-1.21,16.59s-41.41,12-58.35,54.88
	c-4.09,10.35-6.12,21.39-6.4,32.51c-0.13,5.22-0.2,12.65-0.01,22.29c0.39,20.14,1.15,55.49-32.51,96.82
	c-1.98,2.44-4.12,4.75-6.27,7.04c-2.08,2.21-5.13,6.55-1.69,10.28c3.99,4.32,9.34,4.55,11.13,4.49c1.01-0.03,2.03-0.03,3.04-0.03
	l74.06,0.39c0,0,8.9,34,40.47,36.02c31.57,2.02,42.5-20.24,47.76-35.62h80.43c1.73,0,3.45-0.36,4.98-1.15
	C275.32,275.57,277.81,273.16,277.46,268.35z M146.33,25.78c10.93,3.64,6.88,19.43,6.88,19.43h-17
	C132.97,41.57,135.4,22.14,146.33,25.78z M147.54,296.14c-14.57,0-23.07-5.67-28.33-18.21h49.38
	C168.59,277.93,162.11,296.14,147.54,296.14z M38.67,259.72c13.76-18.21,33.19-51.8,30.76-102.8c-1.97-41.43,8.34-56.42,12.28-60.58
	c1.13-1.19,2.21-2.41,3.23-3.7c6.47-8.2,30.7-34.77,69.48-29.62c45.73,6.07,65.57,50.59,63.95,68.8c-0.9,10.11-0.8,23.97-0.53,34.29
	c0.64,24.84,6.51,49.32,17.53,71.59c6.98,14.11,13.36,22.41,13.36,22.41L38.67,259.72z"/>
</svg>
