<?xml version="1.0" encoding="utf-8"?>
<!-- Generator: Adobe Illustrator 24.3.0, SVG Export Plug-In . SVG Version: 6.00 Build 0)  -->
<svg version="1.1" id="Layer_1" xmlns="http://www.w3.org/2000/svg" xmlns:xlink="http://www.w3.org/1999/xlink" x="0px" y="0px"
	 viewBox="0 0 361.53 325" style="enable-background:new 0 0 361.53 325;" xml:space="preserve">
<path d="M250,219.02c8.15-46.73,26.19-55.47,11.37-97.83c-3.08-8.8-7.65-17.04-13.81-24.05c-1.74-1.98-3.6-3.87-5.46-5.38
	c0,0,3.28-37.77-31.06-38.81c-5.35-0.16-10.63,1.41-14.87,4.67c-3.49,2.68-7.1,6.69-8.4,12.31c0,0-21.18-2.7-43.14,10.1
	c-14.22,8.29-24.91,21.45-30.81,36.81c-8.3,21.57-32.85,72.53-83.71,86.47c-1.65,0.45-1.77,2.75-0.18,3.39l225.68,91.23
	c2.92,1.18,5.74-1.88,4.32-4.69C253.5,280.59,243.85,254.32,250,219.02z M184.12,97.75c-0.63,0.23-1.27,0.44-1.9,0.66
	c-3.68,1.24-29.55,11.74-33,63.49c-3.72,55.73-42.73,63.16-52.95,36.69c0,0,15.79,0.93,32.05-53.41
	c13.78-46.07,44.59-52.75,53.64-53.71c1.85-0.2,3.72-0.1,5.52,0.36C190.46,92.59,193.4,94.31,184.12,97.75z"/>
<path d="M130.64,267.79l65.95,25.54c0,0-14.4,29.72-44.59,17.65C121.17,298.64,130.64,267.79,130.64,267.79z"/>
<path d="M94.95,13.59c-12.23,7.33-64.23,42.06-81.72,111.84c-0.28,1.13-0.55,2.26-0.85,3.38c-0.77,2.9-3.33,15.29,9.42,15.1
	c3.11-0.05,6.15-0.87,8.96-2.21l0.04-0.02c4.65-2.22,7.83-6.65,8.52-11.76c2.2-16.46,10.77-54.54,43.84-79.96
	c33.47-25.73,31.13-30.32,29.76-32.83c-0.55-1.01-1.45-2.03-2.27-2.84c-1.11-1.1-3.44-1.63-6.07-2.28
	C101.3,11.19,97.84,11.86,94.95,13.59z"/>
<path d="M322.07,90.48c7.1,12.36,35.58,68.04,16.83,137.49c-0.3,1.12-0.62,2.24-0.91,3.36c-0.74,2.9-4.55,14.98-15.58,8.59
	c-2.69-1.56-4.95-3.76-6.74-6.29l-0.03-0.04c-2.98-4.21-3.6-9.63-1.7-14.42c6.1-15.44,17.19-52.87,0.71-91.19
	c-16.68-38.79-12.64-43.16-9.98-43.17c1.15,0,2.29-0.09,3.39-0.39c1.51-0.42,3.77-0.72,6.38-0.01
	C317.69,85.29,320.39,87.56,322.07,90.48z"/>
<path d="M85.08,118.71c-0.75,3.13-2.04,6.11-3.96,8.69c-3.37,4.52-8.79,9.29-12.67,0.64c-5.82-12.99,12.59-63.57,48.89-74.23
	c3.21-0.94,6.62-1.1,9.88-0.32c4.77,1.14,9.33,4.19-0.25,12.32C112.12,78.4,94.09,80.97,85.08,118.71z"/>
<path d="M286.62,198.78c-1.11,3.02-1.69,6.22-1.52,9.42c0.31,5.63,2.17,12.61,10.2,7.55c12.05-7.59,24.75-59.89,0.44-88.88
	c-2.15-2.56-4.9-4.59-8.04-5.74c-4.6-1.69-10.09-1.68-6.62,10.39C286.45,150.24,300.03,162.37,286.62,198.78z"/>
</svg>
