<?xml version="1.0" encoding="utf-8"?>
<!-- Generator: Adobe Illustrator 24.3.0, SVG Export Plug-In . SVG Version: 6.00 Build 0)  -->
<svg version="1.1" id="Layer_1" xmlns="http://www.w3.org/2000/svg" xmlns:xlink="http://www.w3.org/1999/xlink" x="0px" y="0px"
	 viewBox="0 0 305.6 325" style="enable-background:new 0 0 305.6 325;" xml:space="preserve">
<style type="text/css">
	.st0{fill:#51545A;}
</style>
<g>
	<path class="st0" d="M300.3,49.8c-1.6-17-11.6-32.3-26.8-40.1c-12.3-6.3-29.8-8.9-50.6,6c0,0-52.5-28.3-103.4,10.8L78,61.4
		C71.2,67,63.6,71.6,55.3,74.6C50,76.5,43.8,78,37.8,78c-12.7,0-31,15-31.9,37.3c-0.5,11.6,4.1,22.8,12.3,31.2l131.4,134.7
		c6.7,6.9,14.9,12.3,23.9,15.6c12.8,4.7,30.2,6.3,44.3-9.1c5-5.4,8.2-12.1,9.6-19.3c1.9-9.6,5.9-25.8,11.8-32.4c1.8-2,3.6-4,5.2-6.1
		l29.9-39c2.5-3.2,4.9-6.4,7.5-9.4c6.6-7.8,28.2-39.4,10.6-98.9C292.4,82.7,302.2,69.8,300.3,49.8z M265.6,86.4
		c0.7,1.4,1.4,2.7,2,4.1c20.5,47-5.1,77.5-5.1,77.5l-46.3,58.6c-4.3,6.1-6.9,13.9-8.3,19.7c-0.8,3.2-1.3,6.5-1.6,9.9
		c-0.4,4.2-2.2,13.2-10.7,17.8c-6,3.3-12.8,1.3-17.7-1.2c-3.5-1.8-6.7-4.2-9.5-7L56.2,153.5c-4-4-8.3-7.9-12.5-11.7
		c-5-4.4-12.9-13.4-12.5-25.8c0.4-15.3,15-16.1,19.4-16c1,0,2,0,3-0.2c14.5-3.1,44.3-24.6,59.7-36.1c5-3.8,9.7-8,14.3-12.3
		c29.2-27.5,70-23.8,82.6-15.1c11.1,7.7,20.1,2.6,22.8,0.6c1.4-1,2.8-2,4.3-2.9c20.4-12.1,27.1,2.3,32.5,2.8
		c5.7,0.5,11.3,23.2,1,33.4C262.7,78.4,264.5,84.2,265.6,86.4z"/>
	<path class="st0" d="M61.1,229.8c-0.3,1.7-0.8,3.4-1.3,5c-2.9,10.2-8.7,40.8,17.1,64.4c27.6,25.4,56.9,18,63.5,15.9
		c0.8-0.3,1.6-0.5,2.4-0.7c2.8-0.8,10.3-4,10.3-15.7c0-14.4-20.6-7.2-20.6-7.2s-28.9,11.4-44.5-14.5c-4.6-7.6-6.8-16.5-6.8-25.5
		c0-5.4,0.5-11.2,2.4-12.6c3.6-2.6,5.7-17.5-8.7-17.5C64.1,221.5,61.6,227,61.1,229.8z"/>
</g>
</svg>
