<?xml version="1.0" encoding="utf-8"?>
<!-- Generator: Adobe Illustrator 24.3.0, SVG Export Plug-In . SVG Version: 6.00 Build 0)  -->
<svg version="1.1" id="Layer_1" xmlns="http://www.w3.org/2000/svg" xmlns:xlink="http://www.w3.org/1999/xlink" x="0px" y="0px"
	 viewBox="0 0 270.8 325" style="enable-background:new 0 0 270.8 325;" xml:space="preserve">
<g>
	<path d="M246,162.7c-3.8-3.5-9.3-8.4-16.8-14.8c-14.4-12.3-20.6-26.7-22.9-33.8c-1.5-4.5-3.1-9-4.8-13.3l0-0.1
		c-1.7-4.2-3.6-8.3-5.9-12.1C169.3,44.5,116.2,41,116.2,41s-9.5-42.8-42.1-30.9S55.6,58.2,55.6,58.2c-36.5,26.5-46.4,72.3-39.1,99.4
		c7.3,27.3,2.8,44.4,2.8,44.4l-7,24.4c-2.1,7.3-3,14.8-2.3,22.3c2.2,23.3,16.8,30.9,29.4,33.1c8,1.4,16.3,0.7,24.1-1.5l173.3-49.8
		c0,0,17.6-4.8,22.4-25c0.1-0.6,0.3-1.2,0.4-1.9C262.7,188.6,257.3,173.2,246,162.7z M43.9,264c-2.6,0-5.3-0.5-7.5-1.7
		c-5.9-3.2-7.9-9.1-8.5-14.5c-0.5-4.9,0.3-9.8,2-14.3c6.9-17.6,12.3-46.6,9.1-60c-1.9-7.9-3.3-17.8-4.2-25.1
		c-1.3-11.2-0.6-22.4,2.8-33.2c3.5-11.1,8.8-19.9,14.8-27c16.3-19.2,41-28.6,66.2-27.3c53.2,2.8,68,50,71,61.8
		c0.5,2.3,1.3,4.5,2.2,6.5c8.5,17.7,28,35.7,35.2,41.7c1.2,1.1,2.5,2.2,3.9,3.1c3.2,2.6,11.9,10.1,11.8,20.9c0,6.7-3.4,11.1-6.7,14
		c-2.6,2.3-5.7,3.8-9.1,4.8c-20.7,5.9-166.7,47.7-170.6,49C53.2,263.9,47.4,264.1,43.9,264z M80.9,28c15.4-2.6,15.8,14.6,15.8,14.6
		c-7.8,0.8-23.9,7-23.9,7S65.4,30.6,80.9,28z"/>
	<path d="M152.3,261c-3-0.6-5.1-0.1-6.8,0.9c-3.3,2.1-4.4,6.4-2.9,10.1c1.1,2.8,1.2,8.3-7.5,17.3c-5.2,5.4-10.7,6.9-15.6,6.7
		c-7-0.3-13.4-4.1-17.3-10.1c-3.1-4.6-8.6-10.6-14.8-6.7c-5.2,3.3-5.9,7.6-5.4,10.9c0.4,2.4,1.4,4.7,3,6.5
		c5.2,6.3,25.1,27.3,48.9,17.9c27.9-10.8,27.4-38.3,27.4-38.3S162.3,262.9,152.3,261z"/>
	<path d="M109.2,92.8c7.8,1,21.5,4,32.5,13.3c10.4,8.8,15.9,22.1,18.6,30.6c2.1,6.7,10.9,6.9,11.4,0.1c0.2-3.4-0.1-7.9-1.4-14.1
		c-3.7-17.7-18.4-29.4-29.1-35.8c-7.7-4.6-16.2-7.6-24.6-7.7c-4.4,0.1-8.6,0.7-11.3,3C101.8,85.3,104.4,92.2,109.2,92.8z"/>
</g>
</svg>
