<?xml version="1.0" encoding="utf-8"?>
<!-- Generator: Adobe Illustrator 24.3.0, SVG Export Plug-In . SVG Version: 6.00 Build 0)  -->
<svg version="1.1" id="Layer_1" xmlns="http://www.w3.org/2000/svg" xmlns:xlink="http://www.w3.org/1999/xlink" x="0px" y="0px"
	 viewBox="0 0 328.9 325" style="enable-background:new 0 0 328.9 325;" xml:space="preserve">
<style type="text/css">
	.st0{fill:#51545A;}
</style>
<g>
	<path class="st0" d="M320,218c-8.3-37.9-49.6-40.8-49.6-40.8l-0.8-39.3c-0.2-9.4-1.5-18.8-4.2-27.8c-16.9-56.9-72.8-70-72.8-70
		s4.4-34-27.2-34.5c-31.6-0.5-28.7,34-28.7,34C104.1,49,85.2,67.9,74.3,86c-9.8,16.3-14.7,35.1-14.7,54.1l0,36.1
		c0,0-49.1,2.4-51.5,52.5c-1.4,28.8,15.7,42.5,30.4,48.9c8.7,3.8,18.2,5.5,27.7,5.5h53.6c0,0,13.6,36.4,46.2,36.4
		c32.6,0,43.7-35.5,43.7-35.5h55.5c19.8,0,38.6-10.1,48.7-27.1C320.2,246.4,323.3,233.2,320,218z M165.5,19.8
		c15.1,1.5,12.6,17,12.6,17l-24.3,0C153.8,36.8,150.4,18.3,165.5,19.8z M166,304c-21.4,0-28.7-20.4-28.7-20.4h57.3
		C194.6,283.6,187.4,304,166,304z M297.6,254c0,0-7.8,14.6-37.4,15.1H63.9c0,0-23.9-0.3-35-19.9c-6.4-11.3-6.5-25.3-0.4-36.7
		c4.7-8.8,14-17.9,31.9-19.1c0,0,15.5-1.9,15.5-14.1c0-7.5-0.2-21.4-0.3-31c-0.2-15.8,2.9-31.5,9.7-45.8
		c7.7-16.2,21.3-33.9,45.5-43.3c23.2-9.1,49.3-8.3,72,2.1c21,9.6,44.8,29.5,51.1,70.9c1,6.4,1.4,12.9,1.4,19.3v28.6
		c0,0-0.5,12.6,16,12.6s27.2,15.5,27.2,15.5S312.7,228.2,297.6,254z"/>
	<path class="st0" d="M171.8,109.5c8.4,3.7,30.6,16.4,29.7,48.8c-0.2,7.1,7.7,10.8,12.5,5.8c0.1-0.1,0.1-0.2,0.2-0.2
		c7.4-8-1-59.4-41.5-69.4c-2.3-0.6-4.8,0.2-6.2,2.3c-0.9,1.3-1.4,3.1-0.8,5.6C166.5,105.6,168.8,108.2,171.8,109.5z"/>
</g>
</svg>
