<?xml version="1.0" encoding="utf-8"?>
<!-- Generator: Adobe Illustrator 24.3.0, SVG Export Plug-In . SVG Version: 6.00 Build 0)  -->
<svg version="1.1" id="Layer_1" xmlns="http://www.w3.org/2000/svg" xmlns:xlink="http://www.w3.org/1999/xlink" x="0px" y="0px"
	 viewBox="0 0 336.2 325" style="enable-background:new 0 0 336.2 325;" xml:space="preserve">
<g>
	<path d="M175.2,111.7c-1.5-0.8-2.9-1.7-3.9-3c-2.2-2.6-4.2-7.1,0-13.5c6.9-10.5,36,11.7,42.1,27.5c6.1,15.8,15.8,37.2-2.4,42.1
		C192.9,169.6,211.9,130.3,175.2,111.7z"/>
	<path d="M320.9,214.6c-4-44.5-43.5-50.3-43.5-50.3c5.5-111.8-78.8-122.1-78.8-122.1S199.6,11.9,169,9c-30.6-3-33.7,30.2-33.7,30.2
		C40.7,63.7,60,160.8,60,160.8s-46.8,2-46.8,62.8s66.3,60.5,66.3,60.5l42.7,0c5.1,13.7,11.9,33.6,47.4,33.7s50.2-35.4,50.2-35.4
		l37.3,0C296,281.4,324.9,259,320.9,214.6z M168.4,28.5c12.9,1.2,11.6,15.7,11.6,15.7l-22.4,0C157.6,44.2,155.5,27.3,168.4,28.5z
		 M168.6,295.9c-20.4-0.1-27.4-19.8-27.4-19.8l56.2-0.3C197.4,275.8,189,296,168.6,295.9z M290.1,244.4c0,0-6.3,13.2-34.5,13.9
		c-28.2,0.8-93.3,0-93.3,0l-87.6,0c0,0-34.5-0.9-36.9-34.4c-2.4-33.6,33.7-35.3,33.7-35.3s13.7-1.1,14.3-13
		c0.5-11.1-0.5-22.4-0.3-27.5c0-0.7,0.1-1.4,0.1-2.1c0-8.1,2-60.5,48.1-80.1c21-9,44.9-9,66-0.2c23,9.5,50,31.9,51.5,84.4l0,13.2
		c0,3.7-0.1,7.4-0.3,11.1c-0.1,3.9,1.3,11.8,15,13.7c18.2,2.4,25.1,14.3,25.1,14.3S303.8,219.2,290.1,244.4z"/>
</g>
</svg>
