<?xml version="1.0" encoding="utf-8"?>
<!-- Generator: Adobe Illustrator 24.3.0, SVG Export Plug-In . SVG Version: 6.00 Build 0)  -->
<svg version="1.1" id="Layer_1" xmlns="http://www.w3.org/2000/svg" xmlns:xlink="http://www.w3.org/1999/xlink" x="0px" y="0px"
	 viewBox="0 0 270.6 325" style="enable-background:new 0 0 270.6 325;" xml:space="preserve">
<style type="text/css">
	.st0{fill:#51545A;}
</style>
<g>
	<g>
		<path class="st0" d="M251.9,176.2c-3.4-3.9-8.3-9.3-15.1-16.4c-13-13.7-17.6-28.6-19.2-35.9c-1-4.6-2.1-9.2-3.4-13.7l0-0.1
			c-1.2-4.3-2.7-8.6-4.6-12.6C188.3,51,136,41.9,136,41.9S131.1-1.5,97.5,6.8c-33.6,8.3-23.4,45.8-23.4,45.8
			c-39,22.4-53.6,66.8-49.2,94.5c4.4,27.8-1.9,44.3-1.9,44.3l-9.5,23.5c-2.8,7-4.5,14.4-4.6,21.9c-0.3,23.3,13.4,32.4,25.7,35.9
			c7.8,2.2,16.1,2.4,24.1,1l177.1-31.2c0,0,18-2.9,24.8-22.4c0.2-0.6,0.4-1.2,0.6-1.8C265.8,203.7,262,187.8,251.9,176.2z
			 M102.3,25.3c15.6-1,14.1,16.1,14.1,16.1c-7.8,0-24.4,4.4-24.4,4.4S86.7,26.3,102.3,25.3z M245.1,208c-0.7,6.6-4.5,10.7-8.1,13.2
			c-2.8,2-6.1,3.2-9.5,3.8c-21.2,3.7-170.3,29.8-174.4,30.7c-3,0.7-8.8,0.2-12.3-0.2c-2.6-0.3-5.2-1.1-7.3-2.5
			c-5.5-3.8-6.9-9.9-6.9-15.3c0-4.9,1.3-9.7,3.5-14c8.7-16.7,17.1-44.9,15.3-58.6c-1.1-8-1.4-18-1.5-25.3
			c-0.1-11.2,1.8-22.3,6.3-32.6c4.6-10.6,10.8-18.8,17.5-25.2c18.2-17.3,43.7-24.1,68.5-20.1c52.5,8.4,62.2,56.7,63.9,68.8
			c0.3,2.3,0.8,4.6,1.5,6.7c6.6,18.5,24,38.3,30.5,45.1c1.1,1.2,2.3,2.4,3.5,3.5C238.5,188.9,246.3,197.3,245.1,208z"/>
		<path class="st0" d="M78.2,292.2c-1.4-2-2.2-4.4-2.3-6.8c-0.1-3.3,1-7.5,6.5-10.2c6.6-3.2,11.4,3.3,14,8.2
			c3.2,6.3,9.2,10.8,16.1,11.8c4.9,0.7,10.5-0.2,16.2-5c9.6-8,10.1-13.5,9.3-16.4c-1.1-3.8,0.4-8,3.9-9.7c1.7-0.8,3.9-1.1,6.8-0.2
			c9.7,2.9,7.3,16.1,7.3,16.1s-2.4,27.3-31.2,35.1C100.2,321.9,82.7,299,78.2,292.2z"/>
	</g>
	<path class="st0" d="M120.8,81.6c-3.8,2.7-1.9,9.8,2.8,10.9c7.6,1.8,20.9,6.2,30.8,16.6c9.4,9.8,13.4,23.6,15.2,32.3
		c1.4,6.9,10.1,8,11.3,1.3c0.6-3.3,0.7-7.8,0.1-14.1c-1.8-17.9-15.2-31.1-25.1-38.6c-7.2-5.4-15.3-9.2-23.6-10.2
		C127.9,79.4,123.7,79.6,120.8,81.6z"/>
</g>
</svg>
