<?xml version="1.0" encoding="utf-8"?>
<!-- Generator: Adobe Illustrator 24.3.0, SVG Export Plug-In . SVG Version: 6.00 Build 0)  -->
<svg version="1.1" id="Layer_1" xmlns="http://www.w3.org/2000/svg" xmlns:xlink="http://www.w3.org/1999/xlink" x="0px" y="0px"
	 viewBox="0 0 292.5 325" style="enable-background:new 0 0 292.5 325;" xml:space="preserve">
<style type="text/css">
	.st0{fill:#51545A;}
</style>
<g>
	<path class="st0" d="M237.6,14.8l-9.7,22c1.1,0.5,2.5,1.2,2.8,2c1.1,2.8-0.2,9.4-2.1,13.6l-8.5,15.8L234,80.6c2.1,2,30,30,19.8,71
		c-1,4-2.5,8.4-4.7,13.4l-16.8,38.2c-5.9,13.4-8.2,28.1-6.7,42.7l4.3,42.1c0,0.4,0.1,0.8,0.1,1.2l-54.2-23.8l-17-7.9l-11.4,14.9
		c-1.1,1.2-14.4,16.4-26.5,11.1c-0.3-0.1-0.5-0.2-0.8-0.4c-17.1-8.5-17.4-17-16.5-31.3l1-16.8l-15.4-6.8l-53.2-23.4
		c0.7-1.2,1.8-2.4,3.3-3.5l33.8-26c7.9-6,14.2-13.5,18.8-22.3l32.4-61.2l0,0.1l0.1-0.3c0.6-1,5.6-9.7,15.3-17.4
		c12.7-10.1,27.8-14.3,45-12.5l22.2,3.3l3.8-22c0.6-2.1,2.6-6.3,4.9-7.6c1.8-1,5.4-0.9,9.7,0.4c1,0.3,1.9,0.6,2.6,1L237.6,14.8
		 M237.6,14.8c-1.7-0.7-3.5-1.4-5.5-2c-37.3-11-45,25-45,25c-59-6.2-84.1,42.7-84.1,42.7l-32.4,61.2c-3,5.6-7.1,10.6-12.2,14.5
		l-33.8,26c-4.3,3.3-7.9,7.4-10.4,12.3c-4.5,9.1-3.2,16.4-0.4,21.5c2.5,4.8,6.8,8.4,11.8,10.6l53.9,23.7c-1,16.6-1,39,29.9,54.3
		c0.6,0.3,1.2,0.6,1.8,0.9c30,13.2,54.9-18,54.9-18l56.7,24.9c3.4,1.5,7,2.4,10.7,2.4c10.3-0.1,15.6-6.8,18.2-13.1
		c2.1-5,2.7-10.6,2.2-16l-4.3-42.1c-1.1-10.4,0.6-20.9,4.8-30.5l16.8-38.2c2.5-5.6,4.6-11.3,6.1-17.3c14.1-56.8-26.8-94.4-26.8-94.4
		S267.4,27.9,237.6,14.8L237.6,14.8z"/>
	<polygon class="st0" points="98.5,232.4 158.7,257.4 149.3,279.3 88.6,253.8 	"/>
	<path class="st0" d="M202.4,45l30.6,11.6l-5.8,17.7c0,0-19.1-9-39-11.9L202.4,45z"/>
	<path class="st0" d="M214,89.6c-1.5,3.3-5.3,4.8-8.7,3.6c-10.2-3.4-46.6-12.2-66.1,26.7c0,0-2.7,7-9.5,2.1
		c-6.8-5,0.9-26.2,24.6-40.8c20.2-12.5,46-4.6,53-2c1.7,0.6,3.4,1.6,4.7,2.9c1.7,1.7,3.4,4.3,2,7.4C214,89.5,214,89.6,214,89.6z"/>
	<path class="st0" d="M183.5,229.9L55.2,173.5c-0.2-0.1-0.3-0.3-0.2-0.5l7.2-16.5c0.1-0.2,0.3-0.3,0.5-0.2L191,212.8
		c0.2,0.1,0.3,0.3,0.2,0.5l7.9,23.5C199,236.9,183.6,230,183.5,229.9z"/>
</g>
</svg>
