<?xml version="1.0" encoding="utf-8"?>
<!-- Generator: Adobe Illustrator 24.3.0, SVG Export Plug-In . SVG Version: 6.00 Build 0)  -->
<svg version="1.1" id="Layer_1" xmlns="http://www.w3.org/2000/svg" xmlns:xlink="http://www.w3.org/1999/xlink" x="0px" y="0px"
	 viewBox="0 0 324.9 325" style="enable-background:new 0 0 324.9 325;" xml:space="preserve">
<style type="text/css">
	.st0{fill:#51545A;}
</style>
<path class="st0" d="M24.1,84.3L10.8,62.7l85.3-52.3l13.2,21.6L24.1,84.3z M293,215l-52.2,84.6l21.5,13.3l52.2-84.6L293,215z
	 M275.9,194.6l-62.3,101.1c-5.8,9.8-15.7,16.3-27,17.7c-1.6,0.2-3.2,0.3-4.8,0.3c-9.8,0-19.1-3.9-26-10.8l-12.2-12.2
	c-27.2,19-64.7,12.4-83.8-14.8c-14.5-20.7-14.5-48.3,0-69l-38.1-38.1c-14.4-14.4-14.4-37.7,0-52.1c1.7-1.7,3.7-3.3,5.7-4.7
	l98.3-60.1c38.1-24.4,87.5-21.9,122.9,6.2l24-24l17.9,17.9l-24.1,24.1C293.3,109.9,297,156.8,275.9,194.6L275.9,194.6z M125,272
	l-46.7-46.8c-7.1,13.4-4.6,30,6.2,40.7C95.4,276.3,111.6,278.7,125,272z M240.5,84.4c-26.9-27.1-69.1-31.8-101.3-11.1l-98.2,60
	c-2.7,1.9-4.5,4.9-4.7,8.2c-0.4,3.4,0.9,6.9,3.3,9.3l134,134.1c2.5,2.6,6.1,3.8,9.6,3.3c3.5-0.4,6.7-2.5,8.5-5.6l62.3-101
	C271.7,149.8,266.2,110.2,240.5,84.4L240.5,84.4z"/>
</svg>
