<?xml version="1.0" encoding="utf-8"?>
<!-- Generator: Adobe Illustrator 24.3.0, SVG Export Plug-In . SVG Version: 6.00 Build 0)  -->
<svg version="1.1" id="Layer_1" xmlns="http://www.w3.org/2000/svg" xmlns:xlink="http://www.w3.org/1999/xlink" x="0px" y="0px"
	 viewBox="0 0 345.3 325" style="enable-background:new 0 0 345.3 325;" xml:space="preserve">
<style type="text/css">
	.st0{fill:#51545A;}
</style>
<g>
	<path class="st0" d="M273.4,245.7H95.3c20.2-27.9,13.4-89.4,13.4-89.4c1.6-68.4,63.9-66.4,63.9-66.4c54.2,4.5,59.1,56.2,59.1,56.2
		v50.6c2,19.8,16.4,17.3,16.4,17.3c13.5-2.1,12.4-16.1,12.4-16.1v-55.8c-6.5-58.7-60.1-73.3-60.1-73.3C219.1,13.2,168.5,13,168.5,13
		c-46.5,7.3-28.4,55.8-28.4,55.8c-64.4,27.4-59.9,85.9-59.9,85.9c4,72.4-17.4,94.3-17.4,94.3c-19,23.5,6.7,24.8,6.7,24.8h64.2
		c-6,13.9,9.2,46,42,42.8c32.8-3.2,32-43.3,32-43.3h60.7c0,0,13.8,0.8,16.6-11.8S273.4,245.7,273.4,245.7z M177.6,38.7
		c10.3,4.7-1.2,25.3-1.2,25.3h-11.5l-4-11.7C155.2,38.5,167.3,34,177.6,38.7z M170.6,292.6c-18.6,2.4-12.9-18.9-12.9-18.9h25.1
		C182.8,273.7,189.2,290.2,170.6,292.6z"/>
	<g>
		<path class="st0" d="M21.1,151.8c-4.3,0-8.1-2.9-9.2-7.2c-17.4-69,34.7-98.7,35.3-99c4.6-2.5,10.4-0.9,12.9,3.7
			c2.5,4.6,0.9,10.4-3.7,12.9c-1.8,1-39.7,23.4-26.1,77.8c1.3,5.1-1.8,10.3-6.9,11.5C22.6,151.7,21.9,151.8,21.1,151.8z"/>
	</g>
	<g>
		<path class="st0" d="M323,154.5c4.3,0,8.1-2.9,9.2-7.2c17.4-69-34.7-98.7-35.3-99c-4.6-2.5-10.4-0.9-12.9,3.7
			c-2.5,4.6-0.9,10.4,3.7,12.9c1.8,1,39.7,23.4,26.1,77.8c-1.3,5.1,1.8,10.3,6.9,11.5C321.5,154.4,322.2,154.5,323,154.5z"/>
	</g>
</g>
</svg>
