<?xml version="1.0" encoding="utf-8"?>
<!-- Generator: Adobe Illustrator 24.3.0, SVG Export Plug-In . SVG Version: 6.00 Build 0)  -->
<svg version="1.1" id="Layer_1" xmlns="http://www.w3.org/2000/svg" xmlns:xlink="http://www.w3.org/1999/xlink" x="0px" y="0px"
	 viewBox="0 0 329.9 326" style="enable-background:new 0 0 329.9 326;" xml:space="preserve">
<path id="nepalese_rupee" d="M196.3,315.7c-6.5-5.1-11.9-8.6-16.5-12.9c-32.9-31.1-66.7-61.5-98-94.2
	c-13.1-13.7-22.6-31.7-30.5-49.2c-10.3-23,0.4-37.8,25.8-39c8.5-0.4,17.1-0.5,25.5,0.5c8.1,0.9,12.6-2,13.1-9.9
	c1.4-22.1,2.6-44.1,3.9-68.4c-13,0-23,0-32.9,0c-17.8,0-35.7-0.6-53.5,0.3c-9.5,0.4-15.2-2.1-18.4-11.4c-2-6-5.4-11.5-9.2-19.3
	c6.5-0.4,11.1-0.9,15.7-0.9c90.4,0,180.8,0.3,271.2-0.4c12.4-0.1,19.8,2.9,23.5,14.8c1.5,4.8,4.3,9.2,7.7,16.2
	c-59.1,0-115.9,0-174,0c1,20.5,2,39.2,3,59.5c26.6-19.8,53.2-19.3,79.9-3.1c5.8,3.5,11.5,7.8,16.4,12.5c27.5,26.7,44.2,60.4,62.3,94
	c-5.9,3.9-10.9,7.2-16.3,10.8c-8-14.9-15-29.5-23.6-43.1c-7.5-11.9-16-23.5-25.6-33.7c-13.5-14.4-31.2-20.5-50.9-17.2
	c-8.1,1.4-16.5,4.8-23.2,9.5c-13.9,10-16.7,29.9-7.1,40.8c9.3,10.6,27.9,10.1,40.3-1.9c5.7-5.6,10.1-12.5,15.8-19.8
	c3.7,2.8,7.9,5.8,12,8.9c14,10.7,14.4,13.8,3.8,27.9c-24.5,32.4-72.5,26.2-93.8-12.1c-1.9-3.5-3.5-7.2-5.6-11.5
	c-12.7,9.1-25,18-38.4,27.6c33.5,36.4,75.3,60.9,118.3,86C210.4,289.5,203.9,301.5,196.3,315.7z"/>
</svg>
