<?xml version="1.0" encoding="utf-8"?>
<!-- Generator: Adobe Illustrator 24.3.0, SVG Export Plug-In . SVG Version: 6.00 Build 0)  -->
<svg version="1.1" id="Layer_1" xmlns="http://www.w3.org/2000/svg" xmlns:xlink="http://www.w3.org/1999/xlink" x="0px" y="0px"
	 viewBox="0 0 318.64 325" style="enable-background:new 0 0 318.64 325;" xml:space="preserve">
<path d="M6.5,11.68v302.64h152.99V11.68H6.5z M64.98,236.02h-38v-38h38V236.02z M64.98,163h-38v-38h38V163z M64.98,87.34h-38v-38h38
	V87.34z M140.97,238.66h-38v-38h38V238.66z M140.97,163h-38v-38h38V163z M140.97,87.34h-38v-38h38V87.34z"/>
<rect x="178.3" y="106.17" width="132.82" height="18.83"/>
<polygon points="178.3,139.87 311.12,139.87 311.12,314.32 271.47,314.32 271.47,238.66 215.97,238.66 215.97,314.32 178.3,314.32 
	"/>
</svg>
