<?xml version="1.0" encoding="utf-8"?>
<!-- Generator: Adobe Illustrator 24.3.0, SVG Export Plug-In . SVG Version: 6.00 Build 0)  -->
<svg version="1.1" id="Layer_1" xmlns="http://www.w3.org/2000/svg" xmlns:xlink="http://www.w3.org/1999/xlink" x="0px" y="0px"
	 viewBox="0 0 376 325" style="enable-background:new 0 0 376 325;" xml:space="preserve">
<path d="M235.1,187.3c0,0,41.8-29,41-75.6c-0.6-35-13.9-69.6-48.8-87.8C201,10.2,169.9,8.8,142.4,20C117,30.4,88.9,53.8,84.6,106.8
	c0,0-3.2,45.1,40.2,80.5c0,0-78.8,33-81.3,125.5h28.2c0,0,7.2-110.2,110.2-109.4S290.6,312,290.6,312h27.4
	C317.9,312,318.7,226.7,235.1,187.3z M181.5,176.2c-38.2,0-69.2-31-69.2-69.2s31-69.2,69.2-69.2s69.2,31,69.2,69.2
	S219.7,176.2,181.5,176.2z"/>
</svg>
