<?xml version="1.0" encoding="utf-8"?>
<!-- Generator: Adobe Illustrator 24.3.0, SVG Export Plug-In . SVG Version: 6.00 Build 0)  -->
<svg version="1.1" id="Layer_1" xmlns="http://www.w3.org/2000/svg" xmlns:xlink="http://www.w3.org/1999/xlink" x="0px" y="0px"
	 viewBox="0 0 318.6 325" style="enable-background:new 0 0 318.6 325;" xml:space="preserve">
<path d="M158.8,32.9c34.1,0,61.8,27.7,61.8,61.8c0,34.1-27.7,61.8-61.8,61.8s-61.8-27.7-61.8-61.8C97.1,60.7,124.8,32.9,158.8,32.9
	 M158.8,12.3c-45.5,0-82.5,36.9-82.5,82.5c0,45.5,36.9,82.5,82.5,82.5c45.5,0,82.5-36.9,82.5-82.5C241.3,49.2,204.4,12.3,158.8,12.3
	L158.8,12.3z"/>
<path d="M246.1,174.9v21.8c3,0,8.6,0,17.8,15.6c6.6,11.1,12,26.2,15.2,36.7c-5.9,5-14.7,11.8-25.9,18.5
	c-28.6,17.1-59.1,25.7-90.5,25.7c-40.7,0-82.3-14.9-123.8-44.3c1.8-6.5,4.5-14.8,8.4-22.9c8.5-18,18.4-27.1,29.3-27.1
	c3,0,6.4,0.6,10,1.8c28.1,9.5,53.4,14,77.2,14c24.1,0,46-4.7,69.2-14.7c5.1-2.2,9.7-3.4,13.2-3.4L246.1,174.9 M246.1,174.9
	c-6.4,0-13.6,1.6-21.8,5.2c-16.5,7.2-35.7,12.9-60.5,12.9c-19.5,0-42.5-3.6-70.2-12.9c-6.1-2-11.7-3-16.9-3
	c-48.9,0-62.1,80.8-62.1,80.8c55.4,42.7,105.7,57,148.2,57c86.5,0,141.1-59.3,141.1-59.3s-8.3-32.8-21.1-54.5
	C273.5,185.6,262.5,174.9,246.1,174.9L246.1,174.9z"/>
</svg>
