<?xml version="1.0" encoding="utf-8"?>
<!-- Generator: Adobe Illustrator 24.3.0, SVG Export Plug-In . SVG Version: 6.00 Build 0)  -->
<svg version="1.1" id="Layer_1" xmlns="http://www.w3.org/2000/svg" xmlns:xlink="http://www.w3.org/1999/xlink" x="0px" y="0px"
	 viewBox="0 0 259 325" style="enable-background:new 0 0 259 325;" xml:space="preserve">
<g>
	<g>
		<path d="M53.76,151.4l96.16-110.59l56.62,46.33l-51.48,65.03c7.57-0.13,14.33-0.27,19.85-0.4l55.81-66.68l-82.7-68.05
			L23.93,162.56l2.79,2.35C31.41,157.35,39.61,151.48,53.76,151.4z"/>
	</g>
	<path d="M138.51,80.6c-16.55,0-29.97,13.19-29.97,29.47c0,16.27,13.42,29.47,29.97,29.47c16.55,0,29.97-13.19,29.97-29.47
		C168.48,93.79,155.06,80.6,138.51,80.6z M138.51,135.34c-14.19,0-25.7-11.31-25.7-25.27c0-13.96,11.51-25.27,25.7-25.27
		c14.19,0,25.7,11.31,25.7,25.27S152.7,135.34,138.51,135.34z"/>
	<path d="M133.67,92.12c0,0-5.23,2.09-6.28,4.19l-3.14-2.61l-4.19,5.75l3.14,2.09c0,0-5.23,8.29,1.57,14.61
		c6.8,6.33,17.27-2.05,17.27-2.05s2.09-1.05,3.14,0c1.05,1.05,0,4.41,0,4.41s-3.14,3.96-8.37,5.01l4.94,7.19c0,0,7.62-1.96,7.62-5.1
		l3.14,3.14l5.23-5.23l-4.19-4.19c0,0,5.23-9.42-2.09-14.66c-7.33-5.23-15.7,2.09-15.7,2.09s-4.19,3.14-5.23,0
		c-1.05-3.14,8.37-7.19,8.37-7.19L133.67,92.12z"/>
</g>
<path d="M215.53,143.77l-172.38,0c-14.88,0-27.05,12.17-27.05,27.05l0,110.61c0,14.88,12.17,27.05,27.05,27.05l172.38,0
	c14.88,0,27.05-12.17,27.05-27.05l0-110.61C242.58,155.94,230.4,143.77,215.53,143.77z M88.16,282.75c-5.36,0-10.1-2.77-12.87-6.94
	c-2.77,4.17-7.51,6.94-12.87,6.94c-8.49,0-15.44-6.95-15.44-15.44c0-8.49,6.95-15.44,15.44-15.44c5.36,0,10.1,2.77,12.87,6.94
	c2.77-4.17,7.51-6.94,12.87-6.94c8.49,0,15.44,6.95,15.44,15.44S96.65,282.75,88.16,282.75z M214.27,190.09l-167.29,0
	c-8.49,0-15.44-6.95-15.44-15.44c0-8.49,6.95-15.44,15.44-15.44l167.29,0c8.49,0,15.44,6.95,15.44,15.44
	C229.71,183.14,222.76,190.09,214.27,190.09z"/>
</svg>
