<?xml version="1.0" encoding="utf-8"?>
<!-- Generator: Adobe Illustrator 24.3.0, SVG Export Plug-In . SVG Version: 6.00 Build 0)  -->
<svg version="1.1" id="Layer_1" xmlns="http://www.w3.org/2000/svg" xmlns:xlink="http://www.w3.org/1999/xlink" x="0px" y="0px"
	 viewBox="0 0 376 270.5" style="enable-background:new 0 0 376 270.5;" xml:space="preserve">
<g id="peru">
	<path d="M367.5,237.1c-7.2,17.6-17.9,24.4-33.1,21.3c-12.9-2.6-21.2-12.7-21.3-26c-0.2-13.2,8.4-24,21.4-27
		c12.7-2.9,25.6,3.7,30.7,15.6c0.7,1.6,1.5,3.2,2.3,4.9C367.5,229.6,367.5,233.4,367.5,237.1z"/>
	<path d="M81.3,266.4c-22.5-0.3-44.3-4.2-64.7-14.3c-6.9-3.4-9.5-7.8-6.6-15.3c2.5-6.4,4.3-13.1,6.6-19.6c3.1-8.9,7.3-10.5,15.9-6
		C53,222,74.6,226.8,97.8,222.6c15.3-2.7,26.1-11.9,28.4-24.3c2.8-14.4-2.7-26.2-17.3-34.3c-9.2-5.1-19.5-8.2-29-13
		C66,143.9,51.1,137.9,39,128.3C1.7,98.9,6.3,44.1,47,19.3C71.2,4.6,97.8,2.8,124.8,6.6c11.9,1.7,23.4,6.3,35,10.1
		c6,2,7.9,6.5,5.5,12.8c-2.7,6.9-4.8,14.1-7.4,21c-3,7.8-7.2,9.5-15,5.8c-17.8-8.5-36.4-11.6-55.7-7.3C75.6,51.4,66.5,57.6,64,70.1
		C61.7,82,66.1,91.3,78.6,98.5c9.4,5.4,19.7,9.2,29.5,13.9c11.3,5.3,22.9,10,33.6,16.3c25.9,15.3,37.4,38.6,34.2,68.5
		c-3,28.3-18.3,48.1-44.1,59.8C115.8,264.2,98.7,266.4,81.3,266.4z"/>
	<path d="M302.7,8.4c20.1,0,20,0,12.1,19c-30.9,74.5-62,148.9-92.6,223.5c-3.6,8.8-7.9,13.7-18,12c-3.9-0.7-8-0.1-11.9-0.1
		c-8.7-0.2-10.3-2.5-6.8-10.8c12.5-30.4,25.1-60.8,37.6-91.2c18.8-45.6,37.6-91.2,56.5-136.8C287.6,4.8,282.9,9,302.7,8.4z"/>
</g>
</svg>
