<?xml version="1.0" encoding="utf-8"?>
<!-- Generator: Adobe Illustrator 24.3.0, SVG Export Plug-In . SVG Version: 6.00 Build 0)  -->
<svg version="1.1" id="Layer_1" xmlns="http://www.w3.org/2000/svg" xmlns:xlink="http://www.w3.org/1999/xlink" x="0px" y="0px"
	 viewBox="0 0 294.8 326" style="enable-background:new 0 0 294.8 326;" xml:space="preserve">
<path id="philipines_1_" d="M37,141.1c-7.4,0-14.2-0.1-21.1,0c-7.8,0.1-9.3-1.3-9.4-9c-0.1-4.4-0.2-8.8,0.1-13.2
	c0.4-5.3,1.9-6.7,7.2-6.8c6-0.1,12,0.1,18,0.2c1.6,0,3.1-0.1,5-0.2c0-4.8,0-9.2,0-14.5c-3.8,0-7.5,0-11.3,0c-4.2,0-8.5,0-12.7,0
	c-3.9,0-6-2-6.1-5.9c-0.1-5.1-0.3-10.2-0.1-15.4c0.2-5.9,1.9-7.5,7.8-7.6c5.7-0.1,11.4,0.3,17.1,0.3c1.7,0,3.4-0.2,5.5-0.3
	c0-7.6,0-14.7,0-21.9c0-10.2,0-20.5,0-30.7c0-5.5,1.9-7.5,7.3-7.5c39.5,0,79-0.3,118.5,0.1c41.1,0.5,70.1,20.2,87.3,57.3
	c1.1,2.3,2.4,2.9,4.7,2.8c8.5-0.1,17-0.1,25.5,0c5.9,0,7.5,1.8,7.5,7.7c0,4.4,0.1,8.8,0,13.2c-0.1,6.2-1.7,7.8-7.8,7.8
	c-7.4,0-14.8,0-22.5,0c0,5.1,0,9.5,0,14.6c7.2,0,14.3,0,21.4,0c7.6,0,8.8,1.3,8.8,8.9c0,4.2,0.2,8.5,0,12.7c-0.2,5.4-2,7-7.3,7.1
	c-8.5,0.1-17,0.1-25.5,0c-2.7-0.1-4,0.8-5.2,3.4c-13.6,30.1-36.5,49.2-69,55.1c-13.1,2.4-26.8,1.8-40.3,2
	c-18.1,0.2-36.3-0.2-54.4-0.3c-1.6,0-3.2,0.1-5.3,0.2c0,2,0,3.7,0,5.4c0,34.1,0,68.2,0,102.3c0,7.5-1.5,8.9-9,8.9
	c-8.8,0-17.6,0-26.3,0c-7,0-8.6-1.6-8.6-8.5c0-53.8,0-107.7,0-161.5C37,145.8,37,143.6,37,141.1z M81.2,112c44.1,0,87.8,0,132.2,0
	c0-3.3-0.3-6.4,0.1-9.4c0.4-4.1-1.2-5.1-5.2-5.1c-40.8,0.1-81.6,0.1-122.4,0.1c-1.6,0-3.1,0.2-4.7,0.3
	C81.2,102.8,81.2,107.3,81.2,112z M200.4,68.7c-10.5-10.7-22.2-15.9-36.1-16c-26.3-0.1-52.6,0-79,0c-1.4,0-2.8,0.2-4.1,0.2
	c0,5.6,0,10.6,0,15.8C120.8,68.7,160,68.7,200.4,68.7z M81.1,156.8c0.7,0.2,1.1,0.4,1.5,0.4c28.2,0,56.5,0.2,84.7-0.2
	c11-0.2,20.8-4.6,29.1-11.9c1.1-1,2.1-2.2,3.6-3.8c-40.2,0-79.4,0-118.9,0C81.1,146.6,81.1,151.6,81.1,156.8z"/>
</svg>
