<?xml version="1.0" encoding="utf-8"?>
<!-- Generator: Adobe Illustrator 24.3.0, SVG Export Plug-In . SVG Version: 6.00 Build 0)  -->
<svg version="1.1" id="Layer_1" xmlns="http://www.w3.org/2000/svg" xmlns:xlink="http://www.w3.org/1999/xlink" x="0px" y="0px"
	 viewBox="0 0 320.1 325" style="enable-background:new 0 0 320.1 325;" xml:space="preserve">
<style type="text/css">
	.st0{stroke:#000000;stroke-miterlimit:10;}
</style>
<path class="st0" d="M14.9,143.5c0.5,0.4,1.3,1.2,1.7,1.6l36.1,35.6c10.9,9.8,23.3-10.9,23.3-10.9l36.2,37.2
	c-9.3,50.7,0.5,75.5,12.4,91.6c8.9,12,16.4,6.6,19.6,3.1c3.9-4.2,7.9-8.2,12-12.2l57.9-56.1l67.7,67.7c1.9,1.9,3.7,3.8,5.5,5.7
	c3.4,3.5,12.5,11.4,19.9,2.7c7.2-8.4,0.7-16.3-2.5-19.3c-1.9-1.8-3.8-3.6-5.6-5.4l-68.4-68.9c0,0,48.1-48.6,63.6-63.6
	c15.5-15,5.2-23.3,5.2-23.3c-26.4-27.9-94.7-14-94.7-14l-36.2-36.7l8.3-9.3c7.6-8,2.2-14.3-0.1-16.3c-0.8-0.8-1.7-1.5-2.4-2.3
	c-6-6.2-27.8-28.6-33.7-34.6c-1.6-1.6-3.3-3-5.3-3.9c-7.1-3.4-11.9,0.1-14.2,2.7c-1.9,2.2-5.1,5.6-7.2,7.7l-95.8,94.4
	c-2.7,2.7-5,5.9-6.3,9.5C8,136.1,13.1,141.9,14.9,143.5z M39.8,130.1l89.5-90.5l23.5,23.5l-7.4,6c-5.8,4.8-6.3,13.6-0.9,18.8
	c0.1,0.1,0.2,0.2,0.3,0.2c7.4,7,35.5,35,44.1,43.5c1.1,1.1,2.2,2.3,3.3,3.5c2,2.2,7.8,7,18.3,4.1c13.5-3.6,42.4-7.8,63.6,1.6
	l-133.5,133c0,0-10-19.1-2.7-54.3c0.6-3.1,1.5-6.2,2.5-9.2c1.1-3.8,2.2-12.4-7.5-21.3c-10.4-9.6-32.1-31.7-40.2-40.2
	c-1.5-1.6-3-3.2-4.4-4.9c-2.5-3-8.9-8.5-18.1-1.5c-1.4,1-2.6,2.2-3.7,3.6l-5,5.8L39.8,130.1z"/>
</svg>
