<?xml version="1.0" encoding="utf-8"?>
<!-- Generator: Adobe Illustrator 24.3.0, SVG Export Plug-In . SVG Version: 6.00 Build 0)  -->
<svg version="1.1" id="Layer_1" xmlns="http://www.w3.org/2000/svg" xmlns:xlink="http://www.w3.org/1999/xlink" x="0px" y="0px"
	 viewBox="0 0 376 301" style="enable-background:new 0 0 376 301;" xml:space="preserve">
<g id="Pakistani_Rupee_1_">
	<path d="M8.1,79.6c8.3,0,16.7,0,25.7,0c0-24.5,0-47.8,0-71.4c1.7-0.3,2.8-0.7,3.9-0.7c33.6,0.1,67.1-0.8,100.6,0.7
		c28.5,1.2,52.8,12.6,66.6,39.1c5,9.5,7.3,20.5,11.2,32c7.7,0,16.8,0.4,25.8-0.1c6.6-0.4,8.3,2,7.9,8.2c-0.5,6.9-0.5,13.9,0,20.8
		c0.4,6.2-2,7.8-7.8,7.5c-7.9-0.4-15.8-0.3-23.7,0.1c-1.9,0.1-5.1,1.9-5.5,3.5c-5.1,22.9-17.3,40.5-38.6,52.8
		C191,211,207.8,250,225,290.2c-20.9,0-40.5,0.1-60-0.2c-1.6,0-3.7-3.1-4.6-5.2c-12.9-30.5-25.7-61-38.2-91.7
		c-1.8-4.4-3.8-6.3-8.7-6c-7.1,0.5-14.3,0.1-22.1,0.1c0,34.3,0,68.1,0,102.5c-19.2,0-37.8,0-57.2,0c0-57.6,0-115.5,0-173.3
		c-9.3-0.8-17.7-1.5-26.1-2.2C8.1,102.6,8.1,91.1,8.1,79.6z M155.4,78.7c-2.7-12.7-10.6-21.9-22.2-22.9c-13.7-1.1-27.5-0.3-41.6-0.3
		c0,7.7,0,15.2,0,23.1C112.9,78.7,133.9,78.7,155.4,78.7z M91.6,138.5c14.1,0,27.5,0.9,40.7-0.3c12.1-1.1,21-11.1,22.4-22.3
		c-20.9,0-41.9,0-63.1,0C91.6,123.7,91.6,131.1,91.6,138.5z"/>
	<path d="M367.9,251.6c-10.1,28.2-27.1,40.4-57.9,41.9c-13.9,0.7-27.3-1-39.7-7.5c-19.2-10.1-28.9-26.3-30.3-48.2
		c14.4,0,28.4,0,42.7,0c0.2,1.9,0.4,3.8,0.7,5.6c2.9,15.3,19.4,23,33.3,15.4c8.7-4.8,10.2-18.1,2.1-24.3c-6-4.6-13-7.9-19.8-11.4
		c-8.9-4.6-18.2-8.4-27.1-13.1c-20.5-10.8-29.8-28-26.2-50.9c3.4-21.5,17-34.8,37.4-40.9c18-5.3,36.2-4.4,53.4,3.1
		c17.4,7.6,28.2,20.8,30.2,40.2c0.2,1.9,0.8,3.7,1.2,5.5c0,0.5,0,1,0,1.4c-15.2,0-30.4,0-45.5,0c-0.2-1.9-0.3-2.8-0.4-3.8
		c-1.2-10.7-5.9-15.8-15.3-16.6c-8.5-0.8-15.3,3.2-17.6,10.4c-2.8,8.5,0.1,15.1,10.1,20.2c9.1,4.7,18.6,8.6,28,12.7
		c19.1,8.4,36,19,40.7,41.5C367.9,239.2,367.9,245.4,367.9,251.6z"/>
</g>
</svg>
