<?xml version="1.0" encoding="utf-8"?>
<!-- Generator: Adobe Illustrator 24.3.0, SVG Export Plug-In . SVG Version: 6.00 Build 0)  -->
<svg version="1.1" id="Layer_1" xmlns="http://www.w3.org/2000/svg" xmlns:xlink="http://www.w3.org/1999/xlink" x="0px" y="0px"
	 viewBox="0 0 330.7 326" style="enable-background:new 0 0 330.7 326;" xml:space="preserve">
<g id="Polish_Zloty">
	<path d="M325.2,106.2c-1.5,4.3-4.6,7.2-8.2,9.8c-13.9,10.3-27.6,20.7-41.5,31c-1.9,1.4-2.7,2.9-2.7,5.4
		c0.1,52.8,0.1,105.5,0.1,158.3c0,6.7-1.1,7.8-7.7,7.8c-10.7,0-21.4,0-32.2,0c-5.5,0-7-1.5-7-7.1c0-41,0-82,0-123c0-1.2,0-2.4,0-4.1
		c-1.4,1-2.3,1.6-3.2,2.2c-10.9,8.2-21.8,16.4-32.7,24.5c-8.2,6-18.8,2.1-20.7-7.5c-1.1-5.6,1.3-9.9,5.8-13.2
		c10.3-7.7,20.6-15.5,31-23.2c5.8-4.4,11.6-8.8,17.5-13.1c1.8-1.3,2.4-2.7,2.4-4.9c-0.1-44.6,0-89.3,0-133.9c0-6.5,1.2-7.8,7.9-7.8
		c10.7,0,21.4,0,32.2,0c5.4,0,6.9,1.4,6.9,6.8c0,32.9,0,65.8,0,98.6c0,1.1,0,2.2,0,4c1.3-0.9,2.2-1.5,3.1-2.1
		c8.6-6.4,17.5-12.5,25.6-19.4c8-6.7,18.5-7.1,23.6,5.1C325.2,102.4,325.2,104.3,325.2,106.2z"/>
	<path d="M120.4,142.7c-1.9,0-3.1,0-4.4,0c-31.4,0-62.9,0-94.3,0c-6.7,0-7.7-1.1-7.7-7.8c0-8.3,0-16.7,0-25c0-4.9,1.5-6.4,6.3-6.4
		c51.2,0,102.4,0,153.6,0c4.7,0,6.3,1.6,6.3,6.5c0,6.3-0.1,12.7,0.1,19c0.1,2.9-0.8,5.2-2.6,7.4C150.3,172,123,207.6,95.6,243.1
		c-8.8,11.4-17.8,22.5-26.8,33.8c-0.5,0.6-1,1.3-1.8,2.4c1.7,0,2.8,0,3.8,0c34.4,0,68.9,0,103.3,0c6.4,0,7.6,1.2,7.6,7.7
		c0,8.3,0,16.7,0,25c0,5.2-1.6,6.6-6.8,6.6c-54.3,0-108.6,0-163,0c-5,0-6.6-1.6-6.6-6.4c0-6.1-0.2-12.3,0.1-18.4
		c0.1-1.9,0.8-4.2,1.9-5.7c37.2-47.7,72.7-96.9,111.6-143.3C119.4,144.2,119.7,143.8,120.4,142.7z"/>
</g>
</svg>
