<?xml version="1.0" encoding="utf-8"?>
<!-- Generator: Adobe Illustrator 24.3.0, SVG Export Plug-In . SVG Version: 6.00 Build 0)  -->
<svg version="1.1" id="Layer_1" xmlns="http://www.w3.org/2000/svg" xmlns:xlink="http://www.w3.org/1999/xlink" x="0px" y="0px"
	 viewBox="0 0 376 325" style="enable-background:new 0 0 376 325;" xml:space="preserve">
<g>
	<g>
		<g>
			<g>
				<path d="M350.4,177.2l-35.5-0.7c-3.7,0-6.6-3.2-6.5-6.8l0.1-5.2c0-3.7,3.2-6.6,6.8-6.5l35.5,0.7c3.7,0,6.6,3.2,6.5,6.8l-0.1,5.2
					C357,174.4,354,177.3,350.4,177.2z"/>
			</g>
			<g>
				<path d="M322,235.7l-30.9-17.5c-3.2-1.8-4.3-5.9-2.5-9.1l2.6-4.5c1.8-3.2,5.9-4.3,9.1-2.5l30.9,17.5c3.2,1.8,4.3,5.9,2.5,9.1
					l-2.6,4.5C329.2,236.4,325.1,237.5,322,235.7z"/>
			</g>
			<g>
				<path d="M332.8,115.2l-30.5,18.1c-3.1,1.9-7.2,0.9-9.1-2.4l-2.7-4.6c-1.9-3.1-0.9-7.2,2.4-9.1l30.5-18.1
					c3.1-1.9,7.2-0.9,9.1,2.4l2.7,4.6C337,109.2,335.9,113.4,332.8,115.2z"/>
			</g>
		</g>
		<g>
			<path d="M56.5,118.1c0,0-28.3,0-40,25.5c-5,11-5.2,23.8-0.8,35.1c4.8,12.3,15.4,27.3,39,29l41.2,0.8l2.3-89.6L56.5,118.1z
				 M73.2,181.6c0,0-34.1,2.6-36.4-11.9c-2.3-14.5,5.3-31.3,37.2-27.3L73.2,181.6z"/>
		</g>
		<g>
			<path d="M263.9,142.2l1.1-54.5c0.1-4.7-0.5-9.4-2.2-13.8c-2.5-6.8-7.6-14.6-17.9-13.3c-8.5,0.9-13.6,5.2-16.8,9.3
				c-8.7,11.4-19.4,21.2-32.3,27.6c-34.8,17.5-72.9,22.1-72.9,22.1l-2.6,88.4c31.2,5.3,56.4,16.8,73.7,26.8
				c11.9,6.9,22.1,16.4,30.5,27.3c3.1,4,8.2,8,16.6,8.9c10.9,1.3,16-7.6,18.2-14.7c1.1-3.7,1.7-7.6,1.8-11.5l1-52.3
				c27.3,2.7,28.6-24.2,28.6-24.2C291.6,140.6,263.9,142.2,263.9,142.2z M233.9,234c0,0-40-40.7-87.6-45.7l0.3-45.1
				c0,0,68.1-16.2,89.7-44L233.9,234z"/>
		</g>
	</g>
</g>
</svg>
