<?xml version="1.0" encoding="utf-8"?>
<!-- Generator: Adobe Illustrator 24.3.0, SVG Export Plug-In . SVG Version: 6.00 Build 0)  -->
<svg version="1.1" id="Layer_1" xmlns="http://www.w3.org/2000/svg" xmlns:xlink="http://www.w3.org/1999/xlink" x="0px" y="0px"
	 viewBox="0 0 376 325" style="enable-background:new 0 0 376 325;" xml:space="preserve">
<style type="text/css">
	.st0{display:none;}
</style>
<image style="display:none;overflow:visible;" width="1000" height="828" xlink:href="8D2DC68.jpg"  transform="matrix(0.9392 0.3434 -0.3434 0.9392 -224.9967 -400.471)">
</image>
<g>
	<path d="M307.4,73.8v179.5H115.6V73.8H307.4 M324.7,56.5H98.3v214h226.4V56.5L324.7,56.5z"/>
	<path d="M137.7,233.8c-2.2,0-4.4-0.8-6.1-2.5c-3.4-3.4-3.4-8.8,0-12.2l57.6-57.6c3.4-3.4,8.8-3.4,12.2,0l52.2,52.2
		c3.4,3.4,3.4,8.8,0,12.2c-3.4,3.4-8.8,3.4-12.2,0l-46.1-46.1l-51.5,51.5C142.1,232.9,139.9,233.8,137.7,233.8z"/>
	<polygon points="236.6,177.2 261.3,150.8 300.9,191.3 293,203.6 260.4,171 246.3,185.1 	"/>
	<path d="M164.8,102.9c8.2,0,14.8,6.5,14.8,14.4c0,7.9-6.7,14.4-14.8,14.4c-8.2,0-14.8-6.5-14.8-14.4
		C150,109.4,156.7,102.9,164.8,102.9 M164.8,89.1c-15.8,0-28.6,12.6-28.6,28.2c0,15.6,12.8,28.2,28.6,28.2
		c15.8,0,28.6-12.6,28.6-28.2C193.5,101.7,180.6,89.1,164.8,89.1L164.8,89.1z"/>
</g>
<path class="st0" d="M224.2,33.8l49.9,135.7l-156.8,57.6L67.5,91.5L224.2,33.8 M232,17.2L50.8,83.7l58.8,160.1l181.2-66.6L232,17.2
	L232,17.2z"/>
<polygon points="98.3,174.4 98.3,212.7 50.8,83.7 98.3,66.1 98.3,80.4 67.5,91.5 "/>
<polygon points="125,56.4 232,17.2 246.5,56.4 232.9,56.4 223,33 163.1,56.4 "/>
</svg>
