<?xml version="1.0" encoding="utf-8"?>
<!-- Generator: Adobe Illustrator 24.3.0, SVG Export Plug-In . SVG Version: 6.00 Build 0)  -->
<svg version="1.1" id="Layer_1" xmlns="http://www.w3.org/2000/svg" xmlns:xlink="http://www.w3.org/1999/xlink" x="0px" y="0px"
	 viewBox="0 0 376 325" style="enable-background:new 0 0 376 325;" xml:space="preserve">
<style type="text/css">
	.st0{display:none;}
</style>
<image style="display:none;overflow:visible;enable-background:new    ;" width="1003" height="1003" xlink:href="DEF9F49.jpg"  transform="matrix(0.6048 0 0 0.6048 -118.7099 -179.212)">
</image>
<path class="st0" d="M323.2,265l-4.7-184c-0.4-6.6-3.3-7.4-5.2-7.2c-2.2,0.2-4.4,0.4-6.6,0.4h-29.3c2.3-8.5-4-9.8-6.5-9.9
	c-1-0.1-2.1-0.1-3.1-0.3L247,61.7c-3.1-0.3-6.3-0.7-9.4-1.3c-2.5-0.4-6.8-0.5-7.2,4c-0.5,6.4,3.6,6.9,3.6,6.9l32.7,3.6l-18.9,176.7
	l-191-21.4L81.2,53.9l77.4,8.9l27.1,34c0,0,4.3,6.4,8.9,3.6c1.8-1.1,2.6-2.6,2.9-4c0.4-1.9-0.2-3.8-1.4-5.3l-21.6-26.5l34,3.6
	c0,0,3.6,0.5,4.6-4.9s-5.4-6.1-5.4-6.1l-44.5-5.1l-17.1-22c3.6-0.8,12.3-17.6,13.5-22.7c1.3-5.1-2-13.5-2-13.5s-3.1-6.9-7.7-12
	s-6.4-8.2-24.3-9.7C107.8-29.3,100.3-14.5,96-7.1c-1.4,2.5-2.1,5.2-2.4,7.8c-0.5,4.8,0.5,9.6,2.5,14c1.6,3.5,4.2,8.6,7.6,13
	c5.9,7.7,15.1,7.4,15.1,7.4h17.1l11.7,15.6l-69.2-8.2c-6.6-0.3-7.7,6.6-7.7,6.6L46.2,229.6c-1,9.2,3.4,10.6,5.3,10.7
	c1.3,0.1,2.5,0.2,3.8,0.3l54.8,6.1v21.2c0.2,7.5,4.8,8.2,7.1,8.1c1.9-0.1,3.9-0.2,5.8-0.2l195.1-3C324,272.7,323.2,265,323.2,265z
	 M133.9,24.7c-1.3,0-2.7,0-4,0.1c-1.5,0.1-3.9,0.1-7.8,0.1c-9.7-0.2-11.6-8-16.2-14s-0.2-12.1-0.2-12.1l4.6-7.8
	c2.8-6.5,9-7.6,11.9-7.7c1.3-0.1,2.5-0.2,3.8-0.3c12.8-1.5,15.5,5.3,15.5,5.3s3.7,5.8,6.3,10.7c0.6,1.2,1,2.5,1.1,3.6
	c0.3,2.6-0.4,5.2-1.8,7.5c-0.7,1.2-2,3.4-4.2,7.8C139.9,23.6,136.1,24.6,133.9,24.7z M120.8,264.8c0,0,0.8-16.6,0-16.6l128.4,14.5
	L120.8,264.8z M254.6,263c0,0,4.1-3.1,4.1-7.4l17.9-170.8l32.4-0.3l3.8,178L254.6,263z"/>
<polygon class="st0" points="179.6,169 208.2,146.9 240.7,193.4 230.8,204.3 204,166.8 187.8,178.4 "/>
<path d="M122.9,83.9c8.1,1.3,13.6,8.8,12.3,16.6s-8.9,13.1-17,11.8s-13.6-8.8-12.3-16.6C107.2,87.9,114.8,82.6,122.9,83.9
	 M125.2,70.3c-15.6-2.6-30.3,7.8-32.9,23.1c-2.5,15.4,8,29.9,23.6,32.5c15.6,2.6,30.3-7.8,32.9-23.1
	C151.3,87.5,140.8,72.9,125.2,70.3L125.2,70.3z"/>
<path d="M318.6,82.8c0,0,1.1-8.5-11.9-8.5h-29.3c0,0,3.7-10.2-9.6-10.2L239.5,61c0,0-10.2-3.1-8.9,5.4c0,0-0.9,4.6,3.3,5
	s32.7,3.6,32.7,3.6l-18.9,176.7l-191-21.4L81.2,53.9l127.1,14.3c0,0,3.7,0.5,4.6-4.9c0.9-5.4-5.4-6.1-5.4-6.1L82.7,42.7
	c0,0-11.1-1.9-12,6.4c-0.9,8.2-24.5,180.5-24.5,180.5s-3.8,9.8,9.1,11s54.8,6.1,54.8,6.1V266c0,0-2.5,10.6,9.8,9.5l193-3.1
	c0,0,10.6,3.9,10.4-7.4L318.6,82.8z M120.8,264.8v-16.6l126.4,14.7L120.8,264.8z M254.6,262.5c0,0,4.7-2.6,4.1-6.9l17.9-170.8
	l32.4-0.3l3.8,178H254.6z"/>
<image style="display:none;overflow:visible;" width="512" height="512" xlink:href="DEF9F4B.jpg"  transform="matrix(1 0 0 1 -70.7447 -97.5957)">
</image>
<path d="M61.8,177.5l19.3-14.5c0,0,15.6-14.1,34.1,2.1l8.3,10.7c0,0,1.3,3.8,9.4-2.5c8-6.3,60.1-46.9,60.1-46.9s14.8-9.6,29.2,2.7
	l37.1,46.5l-2,16.6l-40.9-52.7c0,0-8.2-7-15.8-4.1l-67.6,52l12.5,16.3c0,0,2.6,6-2.8,8.1c-5.4,2.1-9-3.2-9-3.2l-26.8-34.4
	c0,0-6.7-9-16.7-3.9l-30.4,23.7C59.8,194.1,61.9,176.6,61.8,177.5z"/>
</svg>
