<?xml version="1.0" encoding="utf-8"?>
<!-- Generator: Adobe Illustrator 24.3.0, SVG Export Plug-In . SVG Version: 6.00 Build 0)  -->
<svg version="1.1" id="Layer_1" xmlns="http://www.w3.org/2000/svg" xmlns:xlink="http://www.w3.org/1999/xlink" x="0px" y="0px"
	 viewBox="0 0 327.06 325" style="enable-background:new 0 0 327.06 325;" xml:space="preserve">
<circle cx="162.95" cy="186.78" r="12.5"/>
<path d="M230.68,222.83c0.17-7.92,0.54-30.72-0.07-57.71c-0.76-33.59-26.34-33.59-26.34-33.59l-0.91-17.13
	c-0.69-12.99-7.03-25.14-17.59-32.74c-7.15-5.14-16.75-8.81-29.21-7.38c-16.6,1.91-25.67,11.17-30.58,19.94
	c-3.81,6.8-5.68,14.51-5.68,22.31v15c-27.48,5.34-26.02,32.45-26.02,32.45l0.06,60.31c-1,16.37,9.98,17.24,12.74,17.21
	c0.89-0.01,1.79-0.03,2.68-0.03h105.22c1.97,0,3.95-0.23,5.85-0.78c9.4-2.72,10.08-10.3,9.93-13.46
	C230.68,225.76,230.64,224.3,230.68,222.83z M163.04,97.18c19.09,0,17.94,16.6,17.94,16.6l0.01,18.13h-36.66l0-1.53v-17.18
	C144.34,113.21,143.96,97.18,163.04,97.18z M205.03,218.94h-85.89v-52.56c0-4.78,3.88-8.66,8.66-8.66h69.52c4.26,0,7.7,3.45,7.7,7.7
	V218.94z"/>
<path d="M269.92,238.79c0,0-0.38,0.79-0.74,2.06c-1.06,3.81-1.85,11.91,8.82,15.69c12.23,4.34,22.76-19.46,25.48-26.24
	c0.43-1.06,0.86-2.12,1.31-3.17c5-11.73,36.48-94.52-34.13-169.81C194.46-23.92,89.8,30.25,89.8,30.25s-115.68,62.04-69.77,188.7
	c20.49,56.54,59.01,81.9,95.37,92.64c38.23,11.3,79.32,7.74,115.38-9.26l11.43-5.38c0,0,14.23-10.56-5.51-22.49
	c0,0-52.71,34.01-113.6,14.74c-35.48-11.23-63.72-38.09-78.08-72.43c-10.11-24.16-16.22-56.93-2.95-94.25
	c28-78.73,108.38-84.92,108.38-84.92s87.62-4.13,125.26,67.94S269.92,238.79,269.92,238.79z"/>
<path d="M162.13,211.69h-0.09c-1.56,0-2.83-1.27-2.83-2.83v-14.99c0-1.56,1.27-2.83,2.83-2.83h0.09c1.56,0,2.83,1.27,2.83,2.83
	v14.99C164.96,210.41,163.69,211.69,162.13,211.69z"/>
</svg>
