<?xml version="1.0" encoding="utf-8"?>
<!-- Generator: Adobe Illustrator 24.3.0, SVG Export Plug-In . SVG Version: 6.00 Build 0)  -->
<svg version="1.1" id="Layer_1" xmlns="http://www.w3.org/2000/svg" xmlns:xlink="http://www.w3.org/1999/xlink" x="0px" y="0px"
	 viewBox="0 0 324 325" style="enable-background:new 0 0 324 325;" xml:space="preserve">
<path d="M65.22,227.26c0,0,8.93-24.85,42.72-30.29c0,0,30.68,24.85,70.67,2.72c0,0,20.19,7.77,23.3,14.37v8.93
	c0,0-11.65,3.49-11.65,14.76s-0.39,58.25-0.39,58.25l-36.89,21.37c0,0-83.1-15.16-125.04-126.22c0,0-11.42-21.8-14.85-78.77
	S9.67,50.74,9.67,50.74s82.81,9.01,139.78-42.89c0,0,74.25,51.77,141.49,45.7c0,0,3.27,72.85-9.34,116.74l-21.48-4.2
	c0,0,12.14-26.62,8.87-96.2c0,0-56.28,6.07-118.5-39.23c0,0-45.41,42.96-119.19,39.69C31.31,70.35,28.62,174.03,65.22,227.26z"/>
<circle cx="147.2" cy="161.8" r="34.01"/>
<path d="M311.06,306.95c-0.01-0.59-0.02-1.18-0.02-1.77v-60.34c0-13.08-9.83-10.9-9.83-10.9c0.25-3.42,0.15-7.57-0.07-11.28
	c-0.95-16.28-11.15-30.71-26.38-36.54c-0.32-0.12-0.65-0.24-0.97-0.36c-10.01-3.59-21.05-3.44-30.92,0.53
	c-28.82,11.58-26.03,47.65-26.03,47.65c-10.27-0.62-9.78,5.92-9.78,5.92s1.68,30.51,0.13,55.41c-1.28,20.55,7.6,22.22,10.75,22.18
	l6.13-0.1h78.69C310.68,317.36,311.09,309.04,311.06,306.95z M247.37,298.7l5.92-19.61c0,0-11.68-7.86-6.05-17.74
	c3.78-6.62,12.25-9.16,18.85-5.36c2.37,1.36,4.54,3.52,5.86,6.94c0.9,2.34,1.21,4.88,0.94,7.37c-0.39,3.57-2.05,8.39-8.08,8.78
	l8.19,19.61H247.37z M287.84,235.19h-57.59v-7.82c0-10.96,5.62-21.28,15.09-26.79c5.99-3.48,13.74-5.36,23.2-2.44
	C293.75,205.93,287.84,235.19,287.84,235.19z"/>
</svg>
