<?xml version="1.0" encoding="utf-8"?>
<!-- Generator: Adobe Illustrator 24.3.0, SVG Export Plug-In . SVG Version: 6.00 Build 0)  -->
<svg version="1.1" id="Layer_1" xmlns="http://www.w3.org/2000/svg" xmlns:xlink="http://www.w3.org/1999/xlink" x="0px" y="0px"
	 viewBox="0 0 330.13 325" style="enable-background:new 0 0 330.13 325;" xml:space="preserve">
<path d="M252.59,227.34c0,0,0-48.34,0-60.7c0-12.37-12.75-12.93-12.75-12.93l-72.79,0c0.56-42.44-3.65-48.06-3.65-48.06
	s-8.43-26.17-42.44-26.17s-40.19,30.67-40.19,30.67s-7.31,23.04,5.9,23.89c13.21,0.84,13.21-11.8,13.21-11.8s3.37-27.82,26.14-22.2
	c22.76,5.62,20.23,24.17,20.23,24.17l-0.28,29.79c-21.08,0.28-18.83,13.49-18.83,13.49s0,43.56,0.56,61.55
	c0.56,17.99,19.67,14.4,19.67,14.4l93.02,0C255.3,240.4,252.59,227.34,252.59,227.34z M204.46,198.47c-0.99,3.6-3.29,7.19-8.18,9.19
	l-0.28,8.43c0,0,0.01,0.16-0.01,0.45c-0.4,7.75-11.5,8.9-13.48,1.4c-0.21-0.8-0.32-1.69-0.28-2.69l0.28-7.59
	c0,0-15.46-12.37-2.53-25.85c7.24-7.56,14.05-4.88,18.63-1.07C203.8,185.06,206.25,191.95,204.46,198.47z"/>
<path d="M272.85,237.73c0,0-0.39,0.8-0.74,2.08c-1.07,3.84-1.87,12,8.89,15.82c12.32,4.37,22.94-19.61,25.68-26.44
	c0.43-1.07,0.86-2.14,1.32-3.2c5.03-11.82,36.76-95.25-34.4-171.13C196.8-27.02,91.32,27.56,91.32,27.56S-25.26,90.08,21,217.73
	c20.65,56.98,59.47,82.54,96.11,93.36c38.53,11.38,79.94,7.8,116.27-9.33l11.52-5.43c0,0,14.34-10.64-5.55-22.67
	c0,0-53.12,34.27-114.48,14.85c-35.76-11.32-64.22-38.39-78.69-72.99c-10.19-24.35-16.35-57.38-2.97-94.98
	c28.22-79.34,109.23-85.58,109.23-85.58s88.31-4.16,126.24,68.47S272.85,237.73,272.85,237.73z"/>
</svg>
