<?xml version="1.0" encoding="utf-8"?>
<!-- Generator: Adobe Illustrator 24.3.0, SVG Export Plug-In . SVG Version: 6.00 Build 0)  -->
<svg version="1.1" id="Layer_1" xmlns="http://www.w3.org/2000/svg" xmlns:xlink="http://www.w3.org/1999/xlink" x="0px" y="0px"
	 viewBox="0 0 376 303.6" style="enable-background:new 0 0 376 303.6;" xml:space="preserve">
<g>
	<path d="M130.3,240.9c22.4-12.9,44.6-25.8,67-38.7c3.8-2.2,3.8-7.7,0-9.9l-67.1-38.7c-3.8-2.2-8.6,0.6-8.6,5v77.4
		C121.7,240.3,126.5,243.1,130.3,240.9z"/>
	<path d="M294.1,166.4c0-21.2,0-42.3,0-63.5c-18.9,0-37.9,0-56.8,0c-7.8,5.5-17.3,8.7-27.5,8.7c-10.2,0-19.7-3.2-27.5-8.7
		c-13.3,0-26.6,0-39.9,0c-6.7,6.7-16,10.9-26.3,10.9c-10.3,0-19.5-4.2-26.3-10.9c-25.7,0-51.3,0-77,0c0,61.7,0,123.2,0,184.8
		c93.8,0,187.5,0,281.2,0c0-23.8,0-47.5,0-71.2l69.1,42.3V131.1L294.1,166.4z M26.5,110.1c9.4,0,18.5,0,27.9,0c0,9.3,0,18.5,0,28
		c-9.3,0-18.5,0-27.9,0C26.5,128.8,26.5,119.6,26.5,110.1z M54.4,157c0,9.3,0,18.6,0,28c-9.3,0-18.5,0-27.9,0c0-9.3,0-18.5,0-28
		C35.8,157,45,157,54.4,157z M54.5,278.8c-9.3,0-18.5,0-28,0c0-9.3,0-18.5,0-27.9c9.3,0,18.4,0,28,0
		C54.5,260.3,54.5,269.4,54.5,278.8z M54.5,231.9c-9.4,0-18.6,0-28.1,0c0-0.9,0-1.8,0-2.6c0-7.8,0-15.6,0-23.4
		c0-1.4,0.3-2.1,1.9-2.1c8.4,0.1,16.7,0.1,25.1,0.1c0.3,0,0.6,0.1,1.2,0.1C54.5,213.4,54.5,222.6,54.5,231.9z M237.8,269
		c-56.3,0-112.5,0-168.8,0c0-49.2,0-98.3,0-147.5c56.3,0,112.5,0,168.8,0C237.8,170.8,237.8,219.8,237.8,269z M280.4,204
		c0,9.3,0,18.5,0,27.9c-9.3,0-18.5,0-27.9,0c0-9.3,0-18.5,0-27.9C261.7,204,271,204,280.4,204z M252.4,185c0-9.3,0-18.5,0-27.9
		c9.3,0,18.5,0,27.9,0c0,9.2,0,18.5,0,27.9C271.1,185,261.9,185,252.4,185z M280.4,278.9c-9.3,0-18.5,0-27.9,0c0-9.4,0-18.6,0-28
		c9.3,0,18.5,0,27.9,0C280.4,260.2,280.4,269.4,280.4,278.9z M280.6,135.4c0,0.8,0,1.7,0,2.7c-9.5,0-18.6,0-28.1,0
		c0-9.3,0-18.5,0-27.9c0.6-0.1,1.2-0.2,1.8-0.2c8,0,15.9,0,23.9-0.1c1.9,0,2.5,0.5,2.5,2.5C280.5,120.1,280.6,127.7,280.6,135.4z
		 M349.7,234.9l-55.6-32c0-7.2,0-14.3,0-21.5l55.6-27.1V234.9z"/>
	<path d="M142.4,102.9c6.7-6.7,10.9-16,10.9-26.2c0-20.5-16.7-37.2-37.2-37.2C95.7,39.5,79,56.2,79,76.7c0,10.2,4.2,19.5,10.9,26.2
		c6.7,6.7,16,10.9,26.3,10.9C126.4,113.8,135.7,109.7,142.4,102.9z M93.6,76.7c0-12.4,10.1-22.5,22.5-22.5
		c12.4,0,22.5,10.1,22.5,22.5c0,12.4-10.1,22.5-22.5,22.5C103.7,99.2,93.6,89.1,93.6,76.7z"/>
	<path d="M209.8,15.7c-26.5,0-48,21.5-48,48c0,16.2,8.1,30.6,20.5,39.3c7.8,5.5,17.3,8.7,27.5,8.7s19.7-3.2,27.5-8.7
		c12.4-8.7,20.5-23.1,20.5-39.3C257.8,37.2,236.2,15.7,209.8,15.7z M209.8,97c-18.4,0-33.4-15-33.4-33.4c0-18.4,15-33.4,33.4-33.4
		c18.4,0,33.4,15,33.4,33.4C243.1,82,228.2,97,209.8,97z"/>
</g>
</svg>
