<?xml version="1.0" encoding="utf-8"?>
<!-- Generator: Adobe Illustrator 24.3.0, SVG Export Plug-In . SVG Version: 6.00 Build 0)  -->
<svg version="1.1" id="Layer_1" xmlns="http://www.w3.org/2000/svg" xmlns:xlink="http://www.w3.org/1999/xlink" x="0px" y="0px"
	 viewBox="0 0 242 325" style="enable-background:new 0 0 242 325;" xml:space="preserve">
<path d="M226.53,86.96c-0.73-24.01-62.56-26.42-62.56-26.42s1.45-24.5,0-36.14c-1.27-10.18-12.34-10.37-15.08-10.25
	c-0.6,0.02-1.19,0.04-1.79,0.06c-7.59,0.11-49.79,0.67-61.69,0.01c-10.77-0.6-11.65,9.02-11.62,12.45c0.01,1.14,0.01,2.28-0.04,3.43
	c-0.18,5-0.55,17.15,0.02,23.41c0.73,8-4.36,10.18-8.73,9.46c-4.36-0.73-31.28,5.09-41.46,10.91c-6.69,3.82-7.73,8.89-7.65,11.93
	c0.04,1.72,0.06,3.45-0.11,5.16c-0.79,7.8,5.52,13.25,11.02,16.47c3.24,1.9,6.74,3.31,10.36,4.26
	c91.35,23.99,162.85,1.97,175.11-2.24c1.11-0.38,2.23-0.7,3.36-1.04C228.56,104.55,226.53,86.96,226.53,86.96z M145.06,59.32H92.68
	V33.13h52.38V59.32z"/>
<path d="M211.05,135.7c-3.84,5.09-51.45,9.46-100.18,9.46s-80.02-9.46-80.02-9.46c-4.36-3.64,5.09,122.21,5.09,141.85
	s12.37,24.73,12.37,24.73c30.55,16.73,107.66,13.82,135.31,5.09c21.31-6.73,23.6-20.38,23.53-26.28c-0.04-3.48-0.03-6.96,0.15-10.45
	C208.87,240.5,214.36,131.31,211.05,135.7z M177.48,246.34c0,0,8.55,6.53,2.15,12.94l-14.65,15.57c0,0-6.29,7.33-13.68,0
	l-26.32-26.56l-30.01,29.82c0,0-2.78,4.98-10.56-2.8s-14.65-16.02-14.65-16.02s-6.87-2.29,0.92-10.98
	c7.78-8.7,27.33-27.01,27.33-27.01L69.3,192.46c0,0-4.12-2.71,0-8.68l15.11-16.5c0,0,6.12-6.87,13.13,0
	c7.01,6.87,27.16,27.47,27.16,27.47l26.55-27.01c0,0,5.49-8.24,11.44-1.83S178.65,182,178.65,182s8.64,4.97,0,11.84L152,221.31
	L177.48,246.34z"/>
</svg>
