<?xml version="1.0" encoding="utf-8"?>
<!-- Generator: Adobe Illustrator 24.3.0, SVG Export Plug-In . SVG Version: 6.00 Build 0)  -->
<svg version="1.1" id="Layer_1" xmlns="http://www.w3.org/2000/svg" xmlns:xlink="http://www.w3.org/1999/xlink" x="0px" y="0px"
	 viewBox="0 0 376 266.8" style="enable-background:new 0 0 376 266.8;" xml:space="preserve">
<path d="M69.8,60.4l23.4-23.9c2.3-2.4,4.1-5.3,4.9-8.5c1.2-4.7,1-11.3-5.9-18c-11.2-10.8-24.1,1-27.1,4.1c-0.7,0.7-1.4,1.4-2.1,2.1
	l-48,47.1c0,0-14.6,14.1-0.9,28.2c12.6,13,47.7,47.8,53.1,53.1c0.6,0.6,1.2,1.1,1.8,1.5c3.6,2.4,15.4,8.8,25.3-2.6
	c11.9-13.7-3.1-26.9-3.1-26.9L70.7,96.5L274.9,97c0,0,50.3,0.4,58.7,53.4c8.4,52.9-41,75-67,73.2H155.8c0,0-19.9-1.3-20.7,17.6
	s20.7,18.1,20.7,18.1h113.4c0,0,85.1,1.3,100.6-84.3c0,0,12-82.6-66.2-108.6c-12.6-4.2-25.8-6.1-39.1-6.1H69.8z"/>
</svg>
