<?xml version="1.0" encoding="utf-8"?>
<!-- Generator: Adobe Illustrator 24.3.0, SVG Export Plug-In . SVG Version: 6.00 Build 0)  -->
<svg version="1.1" id="Layer_1" xmlns="http://www.w3.org/2000/svg" xmlns:xlink="http://www.w3.org/1999/xlink" x="0px" y="0px"
	 viewBox="0 0 376 260.1" style="enable-background:new 0 0 376 260.1;" xml:space="preserve">
<path d="M76.1,88.4l43.2-43.7c0,0,14.7-12.8,2.5-29.5s-29.5-0.5-29.5-0.5L19.8,87.3c-2.6,2.6-5.2,5-7.8,7.5
	c-4.1,3.9-12.6,15.6,6.2,34.9c23.6,24.1,71.2,72.2,71.2,72.2s14.2,16.2,31.4,2.9c17.2-13.3-2.5-32.4-2.5-32.4l-43.2-43.2H281
	c1.7,0,3.4,0,5.1-0.1c7.4-0.1,41.9,1.6,42.3,43.2l0.5,55.5c0,0-1,20.1,17.7,24.1c9.9,2.1,15.8-4.8,19.1-11.8
	c2.7-5.6,3.9-11.7,3.9-17.9v-51.8c0,0,3.9-80-90.8-81.5L76.1,88.4z"/>
</svg>
