<?xml version="1.0" encoding="utf-8"?>
<!-- Generator: Adobe Illustrator 24.3.0, SVG Export Plug-In . SVG Version: 6.00 Build 0)  -->
<svg version="1.1" id="Layer_1" xmlns="http://www.w3.org/2000/svg" xmlns:xlink="http://www.w3.org/1999/xlink" x="0px" y="0px"
	 viewBox="0 0 333.1 325" style="enable-background:new 0 0 333.1 325;" xml:space="preserve">
<g>
	<path d="M165.4,10.7c-83.9,0-151.8,68-151.8,151.8s68,151.8,151.8,151.8c83.9,0,151.8-68,151.8-151.8S249.3,10.7,165.4,10.7z
		 M192.2,49L186,194.2h-39.9L139.9,49H192.2z M185.2,262.9c-5.2,4.6-11.7,6.9-19.5,6.9c-7.8,0-14.3-2.3-19.5-6.9
		c-5.2-4.6-7.8-10.5-7.8-17.7c0-7.2,2.6-13.1,7.8-17.7c5.2-4.6,11.7-6.9,19.5-6.9c7.8,0,14.3,2.3,19.5,6.9
		c5.2,4.6,7.8,10.5,7.8,17.7C193,252.3,190.4,258.2,185.2,262.9z"/>
</g>
</svg>
