<?xml version="1.0" encoding="utf-8"?>
<!-- Generator: Adobe Illustrator 24.3.0, SVG Export Plug-In . SVG Version: 6.00 Build 0)  -->
<svg version="1.1" id="Layer_1" xmlns="http://www.w3.org/2000/svg" xmlns:xlink="http://www.w3.org/1999/xlink" x="0px" y="0px"
	 viewBox="0 0 376 245.11" style="enable-background:new 0 0 376 245.11;" xml:space="preserve">
<path d="M260.51,10.85l-36.96,38.57H96.59v110.35h54.64l-73.39,72.85L4.65,160.3h53.36V49.42c0,0-0.97-33.09,33.26-38.05
	c2.68-0.39,5.39-0.52,8.1-0.52H260.51z"/>
<path d="M114.34,234.51l37.04-38.5l126.96,0.25l0.22-110.35l-54.64-0.11l73.53-72.71l73.04,72.46l-53.36-0.11l-0.22,110.89
	c0,0,0.91,33.09-33.33,37.98c-2.68,0.38-5.39,0.51-8.1,0.5L114.34,234.51z"/>
</svg>
