<?xml version="1.0" encoding="utf-8"?>
<!-- Generator: Adobe Illustrator 24.3.0, SVG Export Plug-In . SVG Version: 6.00 Build 0)  -->
<svg version="1.1" id="Layer_1" xmlns="http://www.w3.org/2000/svg" xmlns:xlink="http://www.w3.org/1999/xlink" x="0px" y="0px"
	 viewBox="0 0 264.3 325" style="enable-background:new 0 0 264.3 325;" xml:space="preserve">
<path d="M175.3,10.1L10.8,9.6v306.6h244.6v-226L175.3,10.1z M184.4,51l32.7,31h-32.7V51z M233.4,292.7H36.6V33.5h123.7
	c0,0,1.2,44.5,0,60c-0.8,10.5,5.3,11.8,9.3,11.6c4.8-0.3,9.5-0.6,14.3-0.6h49.5V292.7z"/>
<path d="M138.8,77.6H72.7c-4.2,0-7.6-3.4-7.6-7.6l0,0c0-4.2,3.4-7.5,7.6-7.5h66.1c4.1,0,7.6,3.4,7.6,7.5l0,0
	C146.4,74.2,143,77.6,138.8,77.6z"/>
<path d="M139.2,112.7h-67c-3.9,0-7.1-3.2-7.1-7.1l0,0c0-3.9,3.2-7.1,7.1-7.1h67c3.9,0,7.1,3.2,7.1,7.1l0,0
	C146.4,109.5,143.2,112.7,139.2,112.7z"/>
<path d="M193.1,262.9H72.7c-4.2,0-7.6-3.4-7.6-7.6l0,0c0-4.1,3.4-7.6,7.6-7.6h120.4c4.1,0,7.6,3.4,7.6,7.6l0,0
	C200.7,259.5,197.3,262.9,193.1,262.9z"/>
<polygon points="63.1,214.3 121.9,155.1 148.4,181.3 182.3,148.2 174.1,148.2 174.6,131.9 210.5,131.9 210.5,169.4 193.8,169.4 
	192.5,160 148.4,205.4 123.5,178.8 74.1,226.2 "/>
</svg>
