<?xml version="1.0" encoding="utf-8"?>
<!-- Generator: Adobe Illustrator 24.3.0, SVG Export Plug-In . SVG Version: 6.00 Build 0)  -->
<svg version="1.1" id="Layer_1" xmlns="http://www.w3.org/2000/svg" xmlns:xlink="http://www.w3.org/1999/xlink" x="0px" y="0px"
	 viewBox="0 0 330 325" style="enable-background:new 0 0 330 325;" xml:space="preserve">
<path d="M164.5,23.1c76.5,0,138.7,62.2,138.7,138.7S241,300.6,164.5,300.6S25.8,238.3,25.8,161.8S88,23.1,164.5,23.1 M164.5,4.4
	C77.6,4.4,7.2,74.9,7.2,161.8s70.5,157.4,157.4,157.4s157.4-70.5,157.4-157.4S251.5,4.4,164.5,4.4L164.5,4.4z"/>
<path d="M91.7,151.7L63,180.4l65.2,65.2L255,118.8l-29.4-29.4l-98.1,98.1C127.4,187.5,91.7,151.4,91.7,151.7z"/>
</svg>
