<?xml version="1.0" encoding="utf-8"?>
<!-- Generator: Adobe Illustrator 24.3.0, SVG Export Plug-In . SVG Version: 6.00 Build 0)  -->
<svg version="1.1" id="Layer_1" xmlns="http://www.w3.org/2000/svg" xmlns:xlink="http://www.w3.org/1999/xlink" x="0px" y="0px"
	 viewBox="0 0 256.5 326" style="enable-background:new 0 0 256.5 326;" xml:space="preserve">
<path id="Russian_Ruble" d="M52.8,215c-8.9,0-17.9,0-26.9,0c-4.9,0-9.7-0.2-14.6-0.2c-2.7,0-3.7-1.3-3.9-3.9
	c-1-11-0.7-11.5,10.1-11.6c10.1-0.1,20.2,0,30.4,0c1.6,0,3.2,0,5,0c0-6.5,0-12.6,0-19.1c-1.3-0.1-2.6-0.2-3.9-0.2
	c-12.2-0.1-24.5-0.2-36.7-0.1c-3.6,0-4.9-1.4-4.9-4.8c-0.1-13-0.3-10.3,9.9-10.6c11.7-0.4,23.5-0.1,35.6-0.1
	c0.1-1.3,0.3-2.4,0.2-3.5c-0.2-35.7-0.4-71.5-0.7-107.2c-0.1-5.5-0.6-11-1.5-16.4c-1.8-11-10.4-18.6-21.6-19.4
	c-5.7-0.4-11.5-0.6-17.2-0.8c-3.2-0.1-4.4-1.3-4.3-4.6c0.1-3,0.5-5,4.3-5c16.1,0,32.2-0.3,48.4-0.2c27.7,0.1,55.5,0.1,83.2,0.7
	c20.8,0.5,41.1,4.3,59.6,14.3c56.5,30.6,52.5,95.6,24.8,127.6c-12,13.9-27.5,21.6-44.9,26.2c-17.3,4.6-35,3.7-52.5,3.8
	c-10.7,0.1-21.5,0-32.5,0c0,6.5,0,12.6,0,19.3c1.3,0,2.6,0,4,0c39.5,0,79,0.1,118.5,0.1c3.2,0,6.5,0.3,9.7,0.3
	c2.6,0,3.5,1.3,3.5,3.7c0.2,13.4,0.8,11.4-10.3,11.4c-40.5,0.3-81,0.2-121.5,0.2c-1.2,0-2.5,0-3.9,0c-0.1,0.9-0.4,1.6-0.4,2.3
	c0.3,21.7,0.5,43.5,1.1,65.2c0.2,7.3,1.8,14.4,7.8,19.7c5.2,4.6,11.1,7,18,7.4c5.1,0.2,10.2,0.6,15.4,0.7c3.1,0,3.4,2,3.4,4.2
	c0,2.3,0,4.6-3.4,4.6c-13.5,0.1-27,0.3-40.5,0.3c-27.7,0-55.5-0.1-83.2-0.1c-1.2,0-2.5,0-3.7-0.1c-4.3-0.3-6.1-3-4.4-7
	c0.4-0.8,1.8-1.7,2.8-1.7c4.9-0.4,9.7-0.6,14.6-0.8c7.2-0.3,13.2-3.1,18.7-7.6c6.1-5,7.6-11.9,7.8-19.1c0.4-22.1,0.7-44.2,0.9-66.4
	C53.1,216.1,53,215.7,52.8,215z M98,164c0.9,0.1,1.7,0.3,2.4,0.3c12.5-0.1,25-0.2,37.5-0.4c3.5-0.1,7.1-0.2,10.4-1.1
	c21.8-5.9,36.1-19.8,42.7-41.2c5.1-16.6,4.3-33.7,0-50.4c-5.7-22.6-20-36.9-42.9-42.2c-16.1-3.7-32-2-47.9,1.5
	c-2.7,0.6-2.4,2.4-2.4,4.3c0,42,0,84,0,126C97.8,161.7,98,162.8,98,164z"/>
</svg>
