<?xml version="1.0" encoding="utf-8"?>
<!-- Generator: Adobe Illustrator 24.3.0, SVG Export Plug-In . SVG Version: 6.00 Build 0)  -->
<svg version="1.1" id="Layer_1" xmlns="http://www.w3.org/2000/svg" xmlns:xlink="http://www.w3.org/1999/xlink" x="0px" y="0px"
	 viewBox="0 0 366.6 326" style="enable-background:new 0 0 366.6 326;" xml:space="preserve">
<g id="Saudi_Riyal">
	<g>
		<path d="M48.5,172.7c-1.1,2.8-2,5.4-3,7.9c-4.1,10.7-7.2,21.7-8.3,33.3c-1.6,17.3,5.4,31.6,19.5,38.5c10.2,5,21,4.9,31.7,1.8
			c22.8-6.5,37.2-23.9,40.3-48.5c3.1-23.8,2.7-47.7,1.5-71.6c-1.1-21.7-2.7-43.3-4.1-64.9c-0.4-6.2-0.8-12.4-1.4-18.6
			c-0.1-1.1-0.8-2.4-1.6-3.2c-8.8-8.7-9.7-16-2.7-26.4c2.9-4.3,6.3-8.4,9.9-13.1c0.5,2,0.8,3.4,1.1,4.7c2.6,11,9.4,19.1,18.1,25.9
			c2.4,1.9,5,3.5,7.4,5.3c4.5,3.4,5.2,7.1,1.9,11.7c-2.4,3.2-5.3,6-7.7,9.2c-1,1.3-1.8,3.2-1.7,4.7c1,16.6,2.3,33.2,3.5,49.8
			c2,29.8,4,59.7,2,89.6c-0.6,9.2-1.8,18.5-3.9,27.5c-4.4,19-15.4,33.6-32.4,43.2c-23.7,13.4-48.9,15.7-74.6,6.7
			c-30-10.6-42.6-36.2-33.3-66.5c4.7-15.2,12.9-28.5,22.6-40.9C37.2,173.9,42.6,173.4,48.5,172.7z"/>
		<path d="M170.3,87.1c8.7-9.6,17.2-18.9,26.3-28.9c1,6,2,11.3,2.7,16.6c2.5,18.2,3,36.5,3.1,54.8c0,18.9-0.1,37.7,0.1,56.6
			c0,3.4,0.8,7,2.1,10c2.1,4.8,6.2,7.4,11.5,7.4c17.8,0,35.6,0.2,53.4,0c10.1-0.1,13.8-5.2,11.5-15.1c-0.4-1.7-0.9-3.5-1.6-5.1
			c-5.1-11.7-12.1-22.1-23.2-29.5c3.6-6.3,7.3-12.6,11.3-19.5c2.4,2.2,4.7,4.1,6.7,6.4c11.5,13,19,28,22.4,45
			c1.3,6.4,1.8,13.3,1,19.7c-1.9,15.5-12.5,24.8-28.9,25.5c-14.5,0.6-29.1,0.3-43.6,0.4c-4.6,0-9.3,0.1-13.9-0.1
			c-17.2-0.9-26.9-9.7-29.2-26.9c-0.7-5-1.1-10.1-1.1-15.1c-0.1-20.7-0.2-41.5,0-62.2C181,112.7,177.8,99.4,170.3,87.1z"/>
		<path d="M315.3,181.5c3.8-6.3,7.4-12.5,11.2-18.9c15.9,13.1,28,28.3,31.4,49c3.2,19.4-1.8,37.3-12.9,52.9
			c-25.7,36.1-60.8,54.9-105.5,53.5c-17.7-0.6-33.6-7.2-47.5-18.3c-0.5-0.4-0.9-0.8-1.5-1.4c2.8,0,5.3,0,7.8,0
			c44.2,0.2,82.9-14.1,115.9-43.6c8.1-7.2,14.6-15.7,18.9-25.8c6.8-16.2,3.4-30.6-10.2-41.9C320.5,185.1,318,183.5,315.3,181.5z"/>
		<path d="M254.7,260.8c-0.8,1.2-1.3,2.4-2.2,3.2c-4.8,4.9-9.6,9.7-14.5,14.5c-2.4,2.3-4.1,2.3-6.5,0c-4.9-4.8-9.7-9.6-14.5-14.5
			c-2.3-2.4-2.3-4.1,0-6.5c4.8-4.9,9.6-9.7,14.5-14.5c2.4-2.3,4.1-2.3,6.5,0c4.9,4.8,9.7,9.6,14.5,14.5
			C253.4,258.4,253.9,259.6,254.7,260.8z"/>
		<path d="M171.4,260.8c0.6-1.1,1-2.3,1.8-3c4.9-5,9.9-10,14.9-15c2-2,4.1-2.1,6.1-0.1c5,5,10,9.9,14.9,14.9c2,2,2.1,4.1,0.1,6.1
			c-5,5-9.9,10-14.9,14.9c-2,2-4.1,2.1-6.1,0.1c-5-4.9-10-9.9-14.9-14.9C172.4,263.1,172,261.9,171.4,260.8z"/>
	</g>
</g>
</svg>
