<?xml version="1.0" encoding="utf-8"?>
<!-- Generator: Adobe Illustrator 24.3.0, SVG Export Plug-In . SVG Version: 6.00 Build 0)  -->
<svg version="1.1" id="Layer_1" xmlns="http://www.w3.org/2000/svg" xmlns:xlink="http://www.w3.org/1999/xlink" x="0px" y="0px"
	 viewBox="0 0 376 325" style="enable-background:new 0 0 376 325;" xml:space="preserve">
<path d="M264.47,78.63L188.13,7.09l-75.57,70.21v10.16l7.07-7.07v69.77h137.34l-0.88-69.77l8.39,7.95V78.63z M186.64,134.94
	c-20.18,0-36.54-16.36-36.54-36.54c0-20.18,16.36-36.54,36.54-36.54c20.18,0,36.54,16.36,36.54,36.54
	C223.18,118.58,206.82,134.94,186.64,134.94z"/>
<path d="M181.01,87.19v16.61h22.18c1.65,0,2.99-1.34,2.99-2.99v0c0-1.33-1.08-2.42-2.42-2.42h-15.25V84.53
	c0-1.84-1.77-3.16-3.53-2.64l0,0C182.62,82.57,181.01,84.74,181.01,87.19z"/>
<path d="M9.45,157.07v159.31h148.34v-55.94c0,0,5.51-23.37,30.72-23.72c25.21-0.35,31.23,24.43,31.23,24.43s0,53.1,0,53.81
	c0,0.71,147.63,1.42,147.63,1.42V157.07H9.45z M38.48,205.23c0-5.66,4.63-10.28,10.28-10.28h12.89c5.66,0,10.28,4.63,10.28,10.28
	v12.89c0,5.66-4.63,10.28-10.28,10.28H48.77c-5.66,0-10.28-4.63-10.28-10.28V205.23z M73.35,275.47c0,5.66-4.63,10.28-10.28,10.28
	H50.18c-5.66,0-10.28-4.63-10.28-10.28v-12.89c0-5.66,4.63-10.28,10.28-10.28h12.89c5.66,0,10.28,4.63,10.28,10.28V275.47z
	 M129.29,275.47c0,5.66-4.63,10.28-10.28,10.28h-12.89c-5.66,0-10.28-4.63-10.28-10.28v-12.89c0-5.66,4.63-10.28,10.28-10.28H119
	c5.66,0,10.28,4.63,10.28,10.28V275.47z M129.29,218.12c0,5.66-4.63,10.28-10.28,10.28h-12.89c-5.66,0-10.28-4.63-10.28-10.28
	v-12.89c0-5.66,4.63-10.28,10.28-10.28H119c5.66,0,10.28,4.63,10.28,10.28V218.12z M281.2,275.47c0,5.66-4.63,10.28-10.28,10.28
	h-12.89c-5.66,0-10.28-4.63-10.28-10.28v-12.89c0-5.66,4.63-10.28,10.28-10.28h12.89c5.66,0,10.28,4.63,10.28,10.28V275.47z
	 M281.2,216.35c0,5.66-4.63,10.28-10.28,10.28h-12.89c-5.66,0-10.28-4.63-10.28-10.28v-12.89c0-5.66,4.63-10.28,10.28-10.28h12.89
	c5.66,0,10.28,4.63,10.28,10.28V216.35z M333.92,275.47c0,5.66-4.63,10.28-10.28,10.28h-12.89c-5.66,0-10.28-4.63-10.28-10.28
	v-12.89c0-5.66,4.63-10.28,10.28-10.28h12.89c5.66,0,10.28,4.63,10.28,10.28V275.47z M334.98,216.35c0,5.66-4.63,10.28-10.28,10.28
	h-12.89c-5.66,0-10.28-4.63-10.28-10.28v-12.89c0-5.66,4.63-10.28,10.28-10.28h12.89c5.66,0,10.28,4.63,10.28,10.28V216.35z"/>
</svg>
