<?xml version="1.0" encoding="utf-8"?>
<!-- Generator: Adobe Illustrator 24.3.0, SVG Export Plug-In . SVG Version: 6.00 Build 0)  -->
<svg version="1.1" id="Layer_1" xmlns="http://www.w3.org/2000/svg" xmlns:xlink="http://www.w3.org/1999/xlink" x="0px" y="0px"
	 viewBox="0 0 328 325" style="enable-background:new 0 0 328 325;" xml:space="preserve">
<style type="text/css">
	.st0{fill:#51545A;}
</style>
<g>
	<path class="st0" d="M308.8,274.9l-61.7-61.7h-5.5c-4.3,0-8.4-1.7-11.4-4.7l-11.3-11.3c18.4-24.6,22.9-51,22.1-73
		c-1.4-37.6-19.6-73-50.8-94.2c-39.2-26.5-81.3-20-81.3-20S35.5,20.3,14.3,91c-21.2,70.8,25.1,140.2,86.8,151.1
		C162.9,253.1,195,219,195,219c0.4,0,6.3,6.6,10.8,11.7c3.2,3.6,5,8.3,5,13.1v5.7l61.9,61.9c5.2,5.2,12,8.5,19.3,8.8
		c6.1,0.3,13-1.4,18.8-8c5.3-6.1,6.8-12.5,6.6-18C317.2,287,314,280.1,308.8,274.9z M125.9,215.8c-49.6,0-89.7-40.2-89.7-89.7
		s40.2-89.7,89.7-89.7c49.6,0,89.7,40.2,89.7,89.7S175.4,215.8,125.9,215.8z"/>
	<path class="st0" d="M105.4,76.7C94,81.5,73,94.7,70.7,128.1c-0.4,6-5.5,10.6-11.4,10.5c-0.1,0-0.2,0-0.3,0
		c-4.8-0.2-7.5-3.5-8.9-6.7c-1.4-3.2-1.8-6.7-1.4-10.2c1.6-13.2,10.7-58.1,60.1-69.3c0,0,12.5-3.2,14.2,10
		c1.1,9.2-4.4,11.4-7.8,11.8C111.9,74.7,108.5,75.4,105.4,76.7z"/>
</g>
</svg>
