<?xml version="1.0" encoding="utf-8"?>
<!-- Generator: Adobe Illustrator 24.3.0, SVG Export Plug-In . SVG Version: 6.00 Build 0)  -->
<svg version="1.1" id="Layer_1" xmlns="http://www.w3.org/2000/svg" xmlns:xlink="http://www.w3.org/1999/xlink" x="0px" y="0px"
	 viewBox="0 0 376 325" style="enable-background:new 0 0 376 325;" xml:space="preserve">
<path d="M330.9,267.3c-11.7-12.1-23.4-24.2-35.8-35.5c-7.7-7-8.6-12.4-4.2-22.7c8.5-20.3,10-29.1,14-51c0.2,0.9,0.5-0.8,0.8-3.6
	c1.2-9.4,1.3-18.8,0.1-28.2c-9-66.5-65.3-116.8-134.5-116.9C96.1,9.2,35,69.5,34.6,144.2C34,246.8,141.8,312.9,233.7,266
	c10.4-5.3,16.4-5.3,24.2,3.5c11.1,12.6,23.4,24.2,35.5,35.7c13.4,12.7,29.3,13.4,40.3,2.3C344.6,296.6,343.6,280.5,330.9,267.3z
	 M168.4,235.9c-50.8,0-92-41.9-92-93.5c0-51.6,41.2-93.5,92-93.5c50.8,0,92,41.9,92,93.5C260.4,194.1,219.2,235.9,168.4,235.9z"/>
</svg>
