<?xml version="1.0" encoding="utf-8"?>
<!-- Generator: Adobe Illustrator 24.3.0, SVG Export Plug-In . SVG Version: 6.00 Build 0)  -->
<svg version="1.1" id="Layer_1" xmlns="http://www.w3.org/2000/svg" xmlns:xlink="http://www.w3.org/1999/xlink" x="0px" y="0px"
	 viewBox="0 0 589 589" style="enable-background:new 0 0 589 589;" xml:space="preserve">
<g>
	<path d="M574,546c-0.4,1-0.8,2-1.1,3c-7.6,26-38.1,34-57.7,14.9c-22-21.4-43.8-42.9-65.6-64.5c-9.2-9.2-18.1-18.8-26.5-27.6
		c15.3-15.4,31.2-31.2,47.3-47.4c0.7,0.7,2.2,1.9,3.5,3.3c28.4,27.8,56.6,55.8,85.2,83.5c6.8,6.6,12.1,13.8,14.9,22.8
		C574,538,574,542,574,546z"/>
	<path d="M489.5,254.9c0.2,130.6-105.4,236.4-236.6,236.9C122.6,492.4,16.1,386.2,15.8,255.4c-0.3-130.8,106-237.2,236.9-237.2
		C383.5,18.3,489.3,124,489.5,254.9z M252.4,84.1c-94.5,0.3-171,77-170.7,171.2C82.1,350,158.8,426.4,253.4,426
		c94.3-0.4,170.5-77.3,170.1-171.7C423.2,160.2,346.3,83.8,252.4,84.1z"/>
</g>
</svg>
