<?xml version="1.0" encoding="utf-8"?>
<!-- Generator: Adobe Illustrator 24.3.0, SVG Export Plug-In . SVG Version: 6.00 Build 0)  -->
<svg version="1.1" id="Layer_1" xmlns="http://www.w3.org/2000/svg" xmlns:xlink="http://www.w3.org/1999/xlink" x="0px" y="0px"
	 viewBox="0 0 324.4 325" style="enable-background:new 0 0 324.4 325;" xml:space="preserve">
<style type="text/css">
	.st0{fill:#51545A;}
</style>
<g>
	<path class="st0" d="M224.8,192.8l82.6,82.6c2.6,2.6,4.8,5.7,6.3,9.1c2.8,6.5,4.3,16.4-5.3,26c-16.2,16.2-34.1-2.1-34.1-2.1
		l-82.1-82.1C192.1,226.3,218.4,212,224.8,192.8z"/>
	<path class="st0" d="M122.4,32.1c49.3,0,89.5,40.1,89.5,89.5s-40.1,89.5-89.5,89.5s-89.5-40.1-89.5-89.5S73,32.1,122.4,32.1
		 M122.4,8.3C59.8,8.3,9.1,59,9.1,121.6s50.7,113.3,113.3,113.3s113.3-50.7,113.3-113.3S184.9,8.3,122.4,8.3L122.4,8.3z"/>
	<path class="st0" d="M69.9,70.8c0,0-47.8,46.5,0.9,103.7c0,0,5.1,4.7,10.7,0c2.3-2,2.9-4.3,2.8-6.3c-0.1-2.5-1.3-4.8-3.1-6.6
		c-4.6-4.4-17.7-19.2-15.5-42.6c1.9-20.6,11-32.3,15.8-37.1c3.5-3.5,3.3-9.5-0.7-12.4c-0.2-0.2-0.4-0.3-0.7-0.4
		C74.6,65.7,69.9,70.8,69.9,70.8z"/>
</g>
</svg>
