<?xml version="1.0" encoding="utf-8"?>
<!-- Generator: Adobe Illustrator 24.3.0, SVG Export Plug-In . SVG Version: 6.00 Build 0)  -->
<svg version="1.1" id="Layer_1" xmlns="http://www.w3.org/2000/svg" xmlns:xlink="http://www.w3.org/1999/xlink" x="0px" y="0px"
	 viewBox="0 0 319.2 325" style="enable-background:new 0 0 319.2 325;" xml:space="preserve">
<style type="text/css">
	.st0{fill:#51545A;}
</style>
<g>
	<path class="st0" d="M25.5,200.5c0,0,55.3,90.1,161.6,42.8c5.5-2.4,11.9-1.2,16.2,3.1l56.7,56.7c3.8,3.8,8.2,7.1,13,9.4
		c8.5,4.2,20.9,7.1,31.3-2.8c8.9-8.5,8.7-19.1,6.2-27.5c-2.1-7.4-6.3-14-11.8-19.4l-54-53.3c-6.5-6.4-7.8-16.4-3.1-24.2
		c9.9-16.6,22.7-48.7,8.3-89.4c-15-42.3-51.2-73.9-95.1-82.9C125.6,7,89.1,9.6,51.9,38.5C-32,103.5,25.5,200.5,25.5,200.5z
		 M42.5,133.9c0-50.1,40.6-90.7,90.7-90.7c50.1,0,90.7,40.6,90.7,90.7c0,50.1-40.6,90.7-90.7,90.7C83,224.5,42.5,183.9,42.5,133.9z"
		/>
	<path class="st0" d="M175.9,119.5c0,0-16.2-39-60-33.6c-3.8,0.5-7.5,1.4-11.2,2.7c-4.2,1.4-12.1,2.7-16.1-4.9
		c-3.1-5.8-0.2-10.6,3-13.9c2.8-2.8,6.2-4.6,10-5.7c9.1-2.7,31.9-7.3,57.2,2.7c13.2,5.3,24.8,14,33,25.6c2.9,4,5.5,8.6,6.9,13.2
		c4.1,13.3-12.2,23.6-22.5,14.2C176.1,119.7,176,119.6,175.9,119.5z"/>
</g>
</svg>
