<?xml version="1.0" encoding="utf-8"?>
<!-- Generator: Adobe Illustrator 24.3.0, SVG Export Plug-In . SVG Version: 6.00 Build 0)  -->
<svg version="1.1" id="Layer_1" xmlns="http://www.w3.org/2000/svg" xmlns:xlink="http://www.w3.org/1999/xlink" x="0px" y="0px"
	 viewBox="0 0 331.06 325" style="enable-background:new 0 0 331.06 325;" xml:space="preserve">
<path d="M317.08,272.84c-7.6-10.98-37.59-39-49.77-50.21c-2.42-2.23-4.72-4.58-7.01-6.95c-3.68-3.82-12.98-10.73-28.59-4.72
	l-9.6-10.13c0,0,58.15-67.76,2.66-147.79C171.44-23.89,69.3,14.04,54.83,29.42c-1.59,1.69-3.21,3.35-4.9,4.96
	c-12.65,12-53.65,56.7-37.85,119.11c8.33,32.88,30.26,60.85,60.04,77.07c30.35,16.54,76.5,26.88,130.24-10.53l9.6,10.13
	c0,0-6.94,13.34,4.81,25.08l50.94,51.44c1.57,1.58,3.08,3.21,4.61,4.83c0.21,0.23,0.45,0.48,0.72,0.74
	c8.45,8.29,22.07,8.08,30.56-0.17l10.89-10.57c3.66-3.55,6.13-8.2,6.72-13.26C321.72,283.85,320.98,278.47,317.08,272.84z
	 M127.74,223.65c-56.25,0-101.85-43.81-101.85-97.85s45.59-97.85,101.85-97.85s101.85,43.81,101.85,97.85
	S183.98,223.65,127.74,223.65z"/>
<path d="M67.92,94.65c0,0-2.13,88.03,93.9,89.63c0,0-42.15,30.95-83.23-5.87S67.92,94.65,67.92,94.65z"/>
</svg>
