<?xml version="1.0" encoding="utf-8"?>
<!-- Generator: Adobe Illustrator 24.3.0, SVG Export Plug-In . SVG Version: 6.00 Build 0)  -->
<svg version="1.1" id="Layer_1" xmlns="http://www.w3.org/2000/svg" xmlns:xlink="http://www.w3.org/1999/xlink" x="0px" y="0px"
	 viewBox="0 0 322.9 325" style="enable-background:new 0 0 322.9 325;" xml:space="preserve">
<style type="text/css">
	.st0{fill:#51545A;}
</style>
<g>
	<g>
		<path class="st0" d="M308.2,280.9l-59-59c44.1-59,32.1-142.5-26.9-186.7S79.8,3.1,35.7,62.1S3.6,204.6,62.6,248.7
			c47.4,35.4,112.4,35.4,159.8,0l59,59c7.4,7.4,19.4,7.4,26.8,0C315.6,300.3,315.6,288.3,308.2,280.9L308.2,280.9z M142.9,237.4
			c-52.4,0-94.9-42.5-94.9-94.9s42.5-94.9,94.9-94.9s94.9,42.5,94.9,94.9C237.8,194.8,195.3,237.3,142.9,237.4z"/>
	</g>
	<path class="st0" d="M76.1,135.3c0,0,9.6,44.7,52.9,59.7c43.3,15,74.8-25.1,74.8-25.1s-8.7,32.9-42.7,42.9
		c-24.8,7.3-51.3-1.5-67.9-21.2C82.3,178.9,73.2,160.4,76.1,135.3z"/>
</g>
</svg>
