<?xml version="1.0" encoding="utf-8"?>
<!-- Generator: Adobe Illustrator 24.3.0, SVG Export Plug-In . SVG Version: 6.00 Build 0)  -->
<svg version="1.1" id="Layer_1" xmlns="http://www.w3.org/2000/svg" xmlns:xlink="http://www.w3.org/1999/xlink" x="0px" y="0px"
	 viewBox="0 0 376 325" style="enable-background:new 0 0 376 325;" xml:space="preserve">
<g>
	<path d="M257.5,253.1c-61.9,49.8-149.6,32.6-192.2-24.8C24.3,173.1,31.2,96,82,48.6c49.2-45.9,127.1-47.4,178-4.2
		c54.1,45.9,65.2,127.9,18.7,187.2c0.8,0.9,1.6,1.8,2.5,2.7c17.3,17.3,34.6,34.5,51.8,51.9c8.5,8.6,5.4,22-5.8,25.3
		c-6.2,1.8-11.4-0.1-15.9-4.7c-17.1-17.2-34.2-34.3-51.3-51.4C259.2,254.7,258.3,253.9,257.5,253.1z M68.5,147.7
		c0,57.8,47.1,104.8,104.9,104.7c57.7-0.1,104.6-47,104.6-104.6c0-57.8-46.8-104.8-104.7-104.9C115.6,42.7,68.4,89.9,68.5,147.7z"/>
	<path d="M263.3,143.4c-0.4,3-0.3,6.1-1.2,8.9c-2.1,6.8-9.2,11.1-16.2,10.1c-7.4-1.1-12.7-7.1-12.8-14.8c-0.2-13.4-4-25.6-12.2-36.2
		c-11.9-15.4-27.8-23.1-47.1-23.8c-7.8-0.3-13.4-4.5-15-11.3c-2.3-9.8,4.7-18.6,15-18.5c23.2,0.2,43.4,8.1,60.4,23.9
		C252.1,98.4,261.5,119.1,263.3,143.4z"/>
</g>
</svg>
