<?xml version="1.0" encoding="utf-8"?>
<!-- Generator: Adobe Illustrator 24.3.0, SVG Export Plug-In . SVG Version: 6.00 Build 0)  -->
<svg version="1.1" id="Layer_1" xmlns="http://www.w3.org/2000/svg" xmlns:xlink="http://www.w3.org/1999/xlink" x="0px" y="0px"
	 viewBox="0 0 292.7 325" style="enable-background:new 0 0 292.7 325;" xml:space="preserve">
<g>
	<path d="M277.9,276.2l-52.2-64l-5.1-0.5c-4.1-0.4-7.7-2.3-10.2-5.5l-9.6-11.8c19.6-21.4,26.4-45.8,27.7-66.7
		c2.2-35.5-11.5-70.6-38.8-93.5C155.2,5.5,114.9,7.6,114.9,7.6s-70.1,2.7-96.8,67.3c-26.6,64.6,10.3,134.4,67.3,150.5
		c57.1,16.3,90.6-12.8,90.6-12.8c0.4,0,5.3,6.8,9.1,12c2.7,3.7,3.9,8.2,3.4,12.8l-0.5,5.3l52.4,64.2c4.4,5.3,10.5,9.1,17.3,10.1
		c5.7,0.9,12.4-0.1,18.4-5.8c5.5-5.2,7.6-11.1,7.9-16.3C284.6,288.4,282.2,281.6,277.9,276.2z M111.3,203.2
		c-46.7-4.7-80.6-46.4-75.9-93c4.7-46.5,46.4-80.6,92.9-75.9c46.7,4.7,80.6,46.4,75.9,93C199.6,173.9,157.9,207.9,111.3,203.2z"/>
	<path d="M111.8,161.6c-27.4-15.5-29.9-38.7-29.3-50.5c0.1-3.1,0.9-6.3,1.8-9.2c1.1-3.1,1.5-8.7-6.8-11.5
		c-11.9-3.8-14.3,8.1-14.3,8.1c-10.7,46.6,23.7,72.6,34.2,79.3c2.8,1.8,5.9,2.8,9.2,2.9c3.3,0.1,7.2-0.8,9.3-4.8
		c0-0.1,0.1-0.2,0.1-0.3C118.6,170.6,116.7,164.4,111.8,161.6z"/>
</g>
</svg>
