<?xml version="1.0" encoding="utf-8"?>
<!-- Generator: Adobe Illustrator 24.3.0, SVG Export Plug-In . SVG Version: 6.00 Build 0)  -->
<svg version="1.1" id="Layer_1" xmlns="http://www.w3.org/2000/svg" xmlns:xlink="http://www.w3.org/1999/xlink" x="0px" y="0px"
	 viewBox="0 0 322.4 325" style="enable-background:new 0 0 322.4 325;" xml:space="preserve">
<path d="M83.9,97L68.5,81.6c-2.5-2.5-4-5.8-4.1-9.4c-0.1-3.3,1-7.3,5.1-11.4c7.4-7.6,16.6-16.7,20.6-20.6c2.4-2.4,5.5-4.1,8.8-4.8
	c4.1-0.8,9.4-0.4,14.3,4.5c9.9,9.9,13.1,13.4,13.1,13.4l19.6-8.3l0.3-19c0,0-1.1-12.6,13.1-15.3l33,0.3c0,0,13.7,0.8,14.2,14
	c0.5,13.1,0.3,19,0.3,19l20.1,8.6l15.6-14c0,0,8.3-7.5,17.2-0.3c8.9,7.2,23.9,23.3,23.9,23.3s10.5,10.7-1.1,22.3l-11.8,11.5l8,20.9
	l13.3,0.2c1.3,0,2.7,0,4,0c2.8,0,13.4,0.6,15.8,12.2c0.3,1.4,0.4,2.9,0.4,4.4c0,4.4,0,16.9,0,23.7c0,2.1,0.1,4.2,0.3,6.2
	c0.2,2.4-0.3,6.9-4.9,10.5c-2.5,1.9-5.6,2.9-8.7,2.9l-20.7,0.5l-8,20.4l12.5,12.8c3.4,3.4,5.2,8.2,4.6,13c-0.4,3.1-1.7,6.6-5.1,9.7
	l-19.1,19.8c-1.9,2-4.2,3.6-6.9,4.5c-0.2,0.1-0.4,0.1-0.6,0.2c-5,1.5-10.3,0-14-3.7l-17.8-17.8c0,0-2.5-2.3,1.5-6c2-1.9,4-2,5.5-1.7
	c1.2,0.3,2.3,1,3.2,1.8l14.2,14.2l22.3-22.3l-10.7-10.7c-2.2-2.2-3.5-5.3-3.4-8.4c0-2.3,0.5-5.4,2-9.1c2.9-7.6,5.7-15.3,7.2-19.6
	c1.3-3.7,3.5-7.1,6.6-9.6c2.6-2.1,5.9-3.8,9.8-3.4c9.1,1.1,16.6,0.8,16.6,0.8v-31.4h-17.4c0,0-13.2,2.1-18.4-12.4
	c-1.2-3.3-2.3-6.6-3.6-9.9l-0.5-1.3c-0.6-1.5-1.2-2.9-1.8-4.3c-1.4-3.3-4.7-13.3,3.5-20.6l11.5-11.5L253,53l-13,13
	c0,0-7.9,8.7-18.9,4.7l-19.6-7.9c-1.3-0.5-2.5-1-3.8-1.5c-2.6-1-10.5-4.9-10.7-15V26.4l-25-0.5V34c0,3.8,0.1,7.7,0.2,11.5
	c0.1,3.4-0.6,9.5-6.1,13.7c-1.1,0.8-2.2,1.4-3.4,1.9l-15.5,6.4c-3.4,1.4-7,2.1-10.7,1.9c-3.7-0.2-7.7-1.3-10.1-4.8L103,51.1L84.1,70
	c0,0,10.6,9,14.9,16c1.1,1.7,1.4,3.7,1.2,5.6C99.3,99.4,89.5,102.5,83.9,97z"/>
<path d="M102,315.7c-6.1,0-11.6-4.1-13.3-10.1L85,291.9l-9.6-4.7L60.1,295c-5.8,2.9-12.9,1.4-17-3.6l-13.4-16.7
	c-3.4-4.2-4-10-1.5-14.8l5.9-11.7l-0.9-5.1l-12.7-2.1C13.8,240,9,234.3,9,227.5v-26.6c0-6.4,4.3-11.9,10.5-13.4l12.5-3l3-9.1
	l-6.9-10.3c-3.8-5.7-2.9-13.2,2.2-17.8L48,131.2c4.5-4.1,11.3-4.8,16.5-1.5l10.5,6.5l8.3-3.4l2.6-12.1c1.4-6.4,7.2-11,13.8-10.8
	l24,0.6c6.1,0.1,11.4,4.4,13,10.3l3.3,12.8l8.5,3.9l13.8-6.5c5.4-2.6,11.8-1.4,15.9,3l14.1,15.1c4,4.2,4.8,10.5,2.2,15.7l-7.2,13.9
	l1,3.5l16.5,6.5c5.3,2.1,8.8,7.4,8.7,13.1l-0.6,23.6c-0.2,6-4.1,11.1-9.8,12.8l-13.3,4l-1.9,6.5l5.1,14.1c1.8,4.9,0.7,10.3-2.9,14.1
	c-2.8,2.9-6.8,7.2-10.3,10.9c-7.4,7.7-8.8,9.1-12.5,9.1c-1.9,0-2.3,0-20.4-7.6l-8.1,2.3l-3.6,12.9c-1.6,5.6-6.5,9.6-12.3,10
	l-20.1,1.3C102.6,315.7,102.3,315.7,102,315.7z M75.4,271.2c2.1,0,4.2,0.5,6.1,1.4l11.4,5.6c3.5,1.7,6.2,4.9,7.2,8.7l3.5,13l17-1.1
	l3.5-12.6c1.3-4.6,4.9-8.2,9.5-9.5l9.9-2.8c3-0.9,6.2-0.7,9.1,0.5c5.9,2.5,10.3,4.3,13.1,5.4c2.5-2.6,6.6-6.9,12.3-12.9l-4.9-13.5
	c-1-2.7-1.1-5.7-0.3-8.5l2.4-8.2c1.3-4.5,4.8-8,9.3-9.4l12.9-3.9l0.5-20.7l-16.1-6.3c-3.9-1.5-7-4.9-8.2-9l-1.5-5.2
	c-1-3.4-0.6-7,1-10.1l6.9-13.4l-12.1-12.9l-13.3,6.3c-3.7,1.7-7.9,1.8-11.6,0.1l-10.3-4.7c-3.8-1.7-6.5-5-7.6-9l-3.2-12.2l-20.8-0.5
	l-2.5,11.6c-1,4.4-4,8.1-8.2,9.8L80,151.2c-4.1,1.7-8.7,1.3-12.4-1.1l-10.1-6.3l-15.3,14l6.5,9.7c2.4,3.6,3,7.9,1.6,12l-3.7,11.1
	c-1.5,4.5-5.2,7.9-9.8,9l-12,2.9v23.3l12.4,2c5.7,0.9,10.3,5.4,11.3,11.1l1.3,7.1c0.5,2.9,0.1,6-1.3,8.7l-5.7,11.1l11.6,14.4
	l14.7-7.5C71.1,271.7,73.2,271.2,75.4,271.2z"/>
<path d="M107.5,261.2c-26.8,0-48.5-21.8-48.5-48.5s21.8-48.5,48.5-48.5c26.8,0,48.5,21.8,48.5,48.5S134.3,261.2,107.5,261.2z
	 M107.5,179.9c-18.1,0-32.8,14.7-32.8,32.8s14.7,32.8,32.8,32.8s32.8-14.7,32.8-32.8S125.6,179.9,107.5,179.9z"/>
<path d="M155.7,106.2c-1.6,0.7-3.2,1.3-4.9,1.5c-2.5,0.3-5.6,0-7.5-2.8c-3.4-5-0.9-8,5-11.2s35.8-17.6,63.5-0.2s28.4,44,28.4,44
	s1.4,23-11.8,41.9c-2.1,3-5.8,4.7-9.4,3.8c-2.3-0.5-4.5-2.1-5.1-5.6c-0.5-2.8,0.2-5.6,1.8-7.9c5.5-8.1,20.5-35-2.9-56.6
	c-0.5-0.4-0.9-0.9-1.4-1.3C207.9,108.5,187.8,90.8,155.7,106.2z"/>
</svg>
