<?xml version="1.0" encoding="utf-8"?>
<!-- Generator: Adobe Illustrator 24.3.0, SVG Export Plug-In . SVG Version: 6.00 Build 0)  -->
<svg version="1.1" id="Layer_1" xmlns="http://www.w3.org/2000/svg" xmlns:xlink="http://www.w3.org/1999/xlink" x="0px" y="0px"
	 viewBox="0 0 325.3 325" style="enable-background:new 0 0 325.3 325;" xml:space="preserve">
<g>
	<path d="M101.3,119.5l24.4,0.6c0.6,0,1.2,0,1.7,1.5l3.3,12.9l1.4,5.4l5.1,2.3l8.6,3.9l5.1,2.3l5-2.5l11.7-5.7
		c0.9-0.5,1.7-0.7,2.4-0.7c1,0,1.9,0.5,2.3,0.7c2.1,2.5,8.1,9.5,14.8,15.6c0,0.3-0.1,1-0.4,1.6l-7.3,14l-2.2,4.2l1.3,4.5l1,3.5
		l1.8,6.3l6.3,1.8c0.1,0,6.3,1.8,14.8,5.9c1.3,0.6,1.9,1.3,2,2c-0.1,1.3-0.8,15.1-0.6,24.6c-0.2,0.4-1.2,1.1-2,1.5l-12.9,3.9
		l-6.1,1.8l-1.8,6.2l-1.9,6.6L178,248l1.3,3.6l5.3,14.5c0.3,0.8-1.1,2.1-1,2.1c0,0,0,0,0,0l-0.8,0.6l-0.7,0.8
		c-0.1,0.1-7.4,8.4-12.3,13.3c-0.2,0.2-0.3,0.3-0.5,0.4l-16.1-6l-3.6-1.4l-3.7,1.1l-8.2,2.3l-6.4,1.8l-1.8,6.4l-2.9,10.7
		c-0.7,2.8-1.9,3.6-2.8,3.7c-0.1,0-9.8,0.9-20.4,1.2c-0.6,0-1.1,0-1.6-1.5l-3.7-13.8l-1.4-5.2l-4.8-2.4l-9.7-4.7l-5.3-2.6l-5.3,2.7
		l-14.4,7.4c-0.6,0.1-1.2,0.2-1.7,0.2c-1.2,0-1.9-0.5-2.2-0.7l-12.6-15.7c-0.9-1.7-0.8-2.7-0.7-3l5.9-11.7l1.8-3.5l-0.7-3.9
		l-0.9-5.1l-2.3-13.3L33.1,230c-1.4-0.2-4.2-0.7-9-1.7c-1-0.2-2.1-0.4-2.2-2.2c0-0.2-0.2-15.3,0-26.5c0-1,0-1.8,1.5-2.2l12.6-3
		l6.4-1.5l2.1-6.3l3-9.2l1.8-5.5l-3.2-4.8l-7-10.4l-0.2-0.3l-0.2-0.2c-0.2-0.2-0.3-0.4-0.3-0.4c0.1-0.4,0.7-1.3,1-1.7l17.9-16.2
		l0.7-0.3l0.1-0.1c0.8,0,1.8,0.3,2.2,0.5l10.1,6.3l5.1,3.2l5.6-2.3l8.4-3.4l5.8-2.4l1.3-6.1l2.5-11.7
		C99.5,120.3,100,119.5,101.3,119.5 M101.3,107.6c-1.6,0-10.5,0.5-13.7,10.9L85,130.7l-8.4,3.4L66,127.6c0,0-3.5-1.9-7.9-1.9
		c-2.8,0-6,0.8-8.7,3.4l-17.9,16.2c0,0-9.4,8.4-2.2,18l7,10.4l-3,9.2l-12.6,3c0,0-10.4,2.1-10.6,13.5c-0.2,11.5,0,26.8,0,26.8
		s-0.1,11.1,11.6,13.6c9.1,1.9,11.8,2.1,12.5,2.1c0.2,0,0.3,0,0.3,0l0.9,5.1l-5.9,11.8c0,0-3.7,6.4,1.5,14.9l13.5,16.8
		c0,0,3.8,4.6,11.1,4.6c1.8,0,3.8-0.3,6.1-1l15.4-7.9l9.7,4.7l3.7,13.8c0,0,2.3,10.2,13,10.2c0.1,0,0.3,0,0.4,0
		c11.1-0.3,21.1-1.2,21.1-1.2s10-0.5,13.2-12.6l2.9-10.5l8.2-2.3l20.6,7.7c0,0,0,0,0.1,0c0.7,0,3.8-0.3,8.3-4.8
		c5.2-5.2,12.8-13.8,12.8-13.8s8.3-6.6,4.7-15.7l-5.1-14.2l1.9-6.6l13.4-4c0,0,10.1-3.5,9.9-12.9c-0.2-9.5,0.6-23.8,0.6-23.8
		s0.9-8.6-8.8-13.2c-9.6-4.6-16.6-6.6-16.6-6.6l-1-3.5l7.3-14c0,0,5.2-9-2.2-15.8c-7.4-6.8-14.2-15.2-14.2-15.2s-4.3-4.1-10.7-4.1
		c-2.4,0-5.1,0.6-8.1,2.2l-11.2,5.5l-8.6-3.9l-3.3-12.9c0,0-2.3-10.4-13.1-10.4l-24.2-0.6C101.5,107.6,101.4,107.6,101.3,107.6
		L101.3,107.6z"/>
	<path d="M108.7,174.3c20.7,0,37.6,16.9,37.6,37.6s-16.9,37.6-37.6,37.6s-37.6-16.9-37.6-37.6S88,174.3,108.7,174.3 M108.7,162.5
		c-27.3,0-49.4,22.1-49.4,49.4s22.1,49.4,49.4,49.4c27.3,0,49.4-22.1,49.4-49.4S136,162.5,108.7,162.5L108.7,162.5z"/>
	<path d="M227.4,180.2c-1.3,0-2.7-0.4-3.9-1.1c-3.5-2.2-4.5-6.7-2.4-10.2c0.9-1.5,22.9-37.6-5.3-62.2c-28.5-24.8-60.5-2.4-61.8-1.4
		c-3.3,2.4-7.9,1.6-10.3-1.7c-2.4-3.3-1.7-7.9,1.6-10.3c14.6-10.6,50.2-23.8,80.2,2.3c30.3,26.3,18.6,64.6,8.2,81.2
		C232.3,179,229.9,180.2,227.4,180.2z"/>
	<path d="M252.5,258.3c-1.8,0-3.6-0.6-5-1.9l-19.7-18c-3-2.7-3.2-7.4-0.5-10.4c2.7-3,7.4-3.2,10.4-0.5l14.6,13.4l21.4-20.3
		l-13.9-16.8c-1.8-2.2-2.2-5.1-1.1-7.7l13.8-31.1c1.1-2.5,3.5-4.2,6.2-4.4l21.3-1.6l-1-30.9l-24.5-1.9c-2.8-0.2-5.3-2-6.3-4.7
		l-10.7-27.7c-1-2.6-0.5-5.5,1.4-7.6l15.2-17.1l-20.3-19l-18.8,15.8c-2.1,1.8-5.1,2.2-7.7,1.1l-31.5-13.8c-2.5-1.1-4.2-3.6-4.4-6.3
		l-1.3-22.3l-25.8-0.7l-1.3,23.6c-0.2,2.8-1.9,5.2-4.4,6.4l-29.4,12.8c-2.7,1.2-5.9,0.6-8-1.4l-17.4-16.6L84.2,68.5l14.9,17.6
		c2.6,3.1,2.3,7.8-0.9,10.4c-3.1,2.6-7.8,2.3-10.4-0.9L68.5,72.9c-2.5-2.9-2.3-7.3,0.4-10l29.6-29.6c2.9-2.8,7.4-2.9,10.3-0.1
		l19.1,18.2l20.7-9l1.5-26.2c0.2-3.9,3.5-7,7.4-7c0.1,0,0.1,0,0.2,0l39.7,1c3.8,0.1,6.9,3.1,7.2,6.9l1.5,24.5l23.1,10.2l20.3-17.1
		c2.9-2.4,7.1-2.3,9.8,0.3l30.4,28.3c2.9,2.7,3.2,7.3,0.5,10.3l-17,19.1l7.4,19.1L307,114c3.8,0.3,6.7,3.4,6.8,7.1l1.4,44.6
		c0.1,4-2.9,7.3-6.8,7.6l-23.9,1.7l-10.2,22.9l15.4,18.6c2.5,3,2.2,7.4-0.6,10.1l-31.5,29.7C256.1,257.7,254.3,258.3,252.5,258.3z"
		/>
</g>
</svg>
