<?xml version="1.0" encoding="utf-8"?>
<!-- Generator: Adobe Illustrator 24.3.0, SVG Export Plug-In . SVG Version: 6.00 Build 0)  -->
<svg version="1.1" id="Layer_1" xmlns="http://www.w3.org/2000/svg" xmlns:xlink="http://www.w3.org/1999/xlink" x="0px" y="0px"
	 viewBox="0 0 324.43 325" style="enable-background:new 0 0 324.43 325;" xml:space="preserve">
<path d="M310.21,95.11c-0.69-0.66-1.38-1.32-2.05-2c-9.6-9.84-67.92-69.67-75.39-77.93c-8.14-9-12.43-6.43-12.43-6.43
	c-6.78,1.85-7.58,7.02-7.49,9.78c0.08,2.62,0.17,5.23,0.14,7.85l-0.36,33.38c0,0-57.01-2.57-96.45,41.15
	c-33.42,37.05-32.67,86.73-31.66,101.02c0.25,3.55,1.73,6.94,4.32,9.39c4.48,4.23,8.64,2.25,11.43-0.28
	c1.83-1.67,3.21-3.76,4.2-6.03c5.45-12.5,20.29-26.94,20.29-26.94c39.01-36.86,87.87-28.72,87.87-28.72l-0.38,34.91
	c-0.04,3.8,0.79,7.58,2.57,10.93c5.28,9.93,12.09,4.08,14.5,1.49c1.39-1.49,2.77-2.99,4.18-4.46l70.2-72.87
	c2.43-2.52,4.97-4.93,7.5-7.35C318.94,104.56,312.47,97.26,310.21,95.11z M231.48,168.21l0.86-25.72c0,0,0-12.43-10.72-12
	c-10.72,0.43-69.87-10.29-117.02,41.15c0,0,8.33-77.64,92.99-91.23c7.17-1.15,14.45-1.4,21.7-1.1c4.4,0.18,10.65-1,12.29-8.73
	c0.24-1.14,0.33-2.31,0.33-3.48V42.61l60.44,61.3L231.48,168.21z"/>
<path d="M87.34,78.62c0.97,0,1.93,0.03,2.89,0.05c1.73,0.04,6.46-0.62,7.5-8.63c1.29-9.86-9.43-10.29-9.43-10.29H46.52
	c-8.2,0-16.29,2.29-23.1,6.86c-7.98,5.36-15.91,14.57-15.7,30.01c0.43,30.86,0,180.89,0,180.89s-0.95,23.84,18.49,34.02
	c4.79,2.51,10.15,3.7,15.56,3.71l234.6,0.41c8.47,0.01,16.81-2.5,23.67-7.47c7.99-5.79,15.66-15.88,15.45-33.24V172.63
	c0-1.5-0.27-3-0.87-4.37c-1.17-2.66-3.91-5.88-10.27-5.63c-7.77,0.31-8.33,13.01-8.05,19.98c0.2,4.9,0.33,9.8,0.33,14.71v80.63
	c0,0,0,18.43-17.15,19.72c-17.15,1.29-238.33,0-238.33,0s-15,0.86-15-19.72s0.43-181.32,0.43-181.32s-1.29-18,18.86-18H87.34z"/>
</svg>
