<?xml version="1.0" encoding="utf-8"?>
<!-- Generator: Adobe Illustrator 24.3.0, SVG Export Plug-In . SVG Version: 6.00 Build 0)  -->
<svg version="1.1" id="Layer_1" xmlns="http://www.w3.org/2000/svg" xmlns:xlink="http://www.w3.org/1999/xlink" x="0px" y="0px"
	 viewBox="0 0 293.36 325" style="enable-background:new 0 0 293.36 325;" xml:space="preserve">
<path d="M261.48,129.13C293.18,31.86,277.01,20,277.01,20c-24.59-29.12-73.76,45.29-73.76,45.29c-64.06-14.88-113.23,0-113.23,0
	S36.32-9.12,16.91,16.76C-2.5,42.64,31.57,129.13,31.57,129.13c-21.18,40.82-21,67.89-20.71,73.23c0.05,1.01,0.09,2.02,0.14,3.04
	c3.57,83.34,104.27,110.3,140.06,107.49c30.69-2.4,81.96-14.67,116.9-62.11S261.48,129.13,261.48,129.13z M199.45,126.16
	c1.53-2.07,3.64-3.68,6.14-4.31c5.36-1.35,10.2,1.9,12.96,4.37c1.71,1.53,3.12,3.39,3.98,5.51c4.9,12.19-14.33,11.94-23.14,8.47
	C192.31,137.41,196.73,129.84,199.45,126.16z M182.26,174.42c0,0,16.97-12.94,35.37-19.55c12.65-4.55,14.3,1.64,14.09,5.96
	c-0.1,2.1-0.71,4.14-1.66,6.02c-9.03,17.95-38.17,21.26-47.8,18.5C172.19,182.47,182.26,174.42,182.26,174.42z M70.69,131.73
	c0.86-2.13,2.27-3.98,3.98-5.51c2.76-2.47,7.6-5.72,12.96-4.37c2.49,0.63,4.61,2.24,6.14,4.31c2.71,3.68,7.13,11.25,0.07,14.04
	C85.02,143.67,65.79,143.92,70.69,131.73z M75.43,155.15c18.4,6.61,35.37,19.55,35.37,19.55s10.06,8.05,0,10.93
	c-9.63,2.75-38.77-0.56-47.8-18.5c-0.95-1.88-1.56-3.92-1.66-6.02C61.13,156.8,62.77,150.61,75.43,155.15z M224.34,270.34
	c-45.07,31.98-105.06,32.99-152.09,3.96c-42.86-26.46-50.31-61.93-50.31-61.93c44.29-6.04,68.44,27.89,68.44,27.89
	s8.63-46.87,56-50.04c47.37-3.16,57.3,49.17,57.3,49.17c28.18-31.92,64.13-27.03,64.13-27.03
	C259.17,238.87,242.56,257.41,224.34,270.34z"/>
<path d="M143.72,239.55c-0.74-0.11-1.46-0.33-2.13-0.68c-3.38-1.77-13.26-8.12-13.26-22.18c0,0-1.15-10.06,16.53-10.06
	c9.07,0,14.17,1.89,16.98,3.73c2.22,1.45,3.42,4.01,3.21,6.65c-0.45,5.74-2.92,17.63-15.31,22.4v12.22c0,0,16.82,4.96,33.65,3.02
	c0,0,4.74,3.02,0,6.25c0,0-3.91,1.29-5.62,0.86l-10.77,21.35v-21.78c0,0-14.5-1.51-20.41-4.53c0,0-9.35,4.31-20.79,4.74v21.57
	l-10.55-21.78h-4.98c0,0-4.96-3.24,0-6.47c0,0,20.06,1.51,33-3.67L143.72,239.55L143.72,239.55z"/>
<path d="M134.99,275.02c-1.06,0.49-2.02,1.44-1.4,3.24c0.53,1.52,1.94,2.56,3.54,2.76c4.38,0.55,14.68,1.56,19.53-0.28
	c6.25-2.37,0.65-6.69,0-6.25c-0.62,0.42-9.44,1.83-18.56,0.2C137.05,274.51,135.95,274.57,134.99,275.02z"/>
</svg>
