<?xml version="1.0" encoding="utf-8"?>
<!-- Generator: Adobe Illustrator 24.3.0, SVG Export Plug-In . SVG Version: 6.00 Build 0)  -->
<svg version="1.1" id="Layer_1" xmlns="http://www.w3.org/2000/svg" xmlns:xlink="http://www.w3.org/1999/xlink" x="0px" y="0px"
	 viewBox="0 0 376 325" style="enable-background:new 0 0 376 325;" xml:space="preserve">
<g>
	<g>
		<path d="M189.2,27.5c36.3,0,70.4,14.1,96,39.8s39.8,59.8,39.8,96s-14.1,70.4-39.8,96s-59.8,39.8-96,39.8s-70.4-14.1-96-39.8
			s-39.8-59.8-39.8-96s14.1-70.4,39.8-96S152.9,27.5,189.2,27.5 M189.2,15.5c-81.6,0-147.8,66.2-147.8,147.8s66.2,147.8,147.8,147.8
			S337,245,337,163.4S270.8,15.5,189.2,15.5L189.2,15.5z"/>
	</g>
</g>
<path d="M235.6,108.9c-12.9,0-23.3,10.4-23.3,23.3s10.4,23.3,23.3,23.3s23.3-10.4,23.3-23.3S248.5,108.9,235.6,108.9z M235.6,136.5
	c-6.3,0-11.4-5.1-11.4-11.4c0-6.3,5.1-11.4,11.4-11.4s11.4,5.1,11.4,11.4C247,131.4,241.9,136.5,235.6,136.5z"/>
<path d="M144,109.4c-12.3,0-22.3,10-22.3,22.3s10,22.3,22.3,22.3c12.3,0,22.3-10,22.3-22.3S156.3,109.4,144,109.4z M144,135.9
	c-6.1,0-11-4.9-11-11s4.9-11,11-11s11,4.9,11,11S150.1,135.9,144,135.9z"/>
<g>
	<path d="M96.7,189.1c0.4,0.1,0.8,0.2,1.3,0.3c13.2,3.1,48.8,10.3,94.9,10.3c22.4,0,44.5-1.7,65.7-5.1c7.2-1.1,14.5-2.8,22.9-5
		c-3.9,15.3-9.9,27.9-18.2,38.5c-14.6,18.7-35.8,29.9-63.3,33.2c-4.1,0.5-8.3,0.8-12.3,0.8c-22.1,0-42.4-7.6-60.3-22.6
		c-14.9-12.5-25.6-29.9-30.3-48.9C96.9,190.1,96.8,189.6,96.7,189.1 M88.8,173.6c-7.3,0-7,9.6-4.4,20.2
		c5.3,21.7,17.4,41.3,34.6,55.7c15.5,13,38.4,25.7,68.7,25.7c4.5,0,9.1-0.3,13.9-0.9c72-8.9,88.6-64.2,93.6-86.1
		c2.4-10.6-1.7-13.4-6.5-13.4c-1.8,0-3.8,0.4-5.5,0.9c-8.8,2.5-17.6,4.7-26.6,6.2c-22.6,3.6-44.1,4.9-63.6,4.9
		c-44.7,0-79.1-7-91.9-10c-2.7-0.6-5.3-1.5-7.8-2.3C91.5,173.9,90,173.6,88.8,173.6L88.8,173.6z"/>
</g>
</svg>
