<?xml version="1.0" encoding="utf-8"?>
<!-- Generator: Adobe Illustrator 24.3.0, SVG Export Plug-In . SVG Version: 6.00 Build 0)  -->
<svg version="1.1" id="Layer_1" xmlns="http://www.w3.org/2000/svg" xmlns:xlink="http://www.w3.org/1999/xlink" x="0px" y="0px"
	 viewBox="0 0 376 325" style="enable-background:new 0 0 376 325;" xml:space="preserve">
<path d="M35.1,104.4v178.3c0,0-6,32.8,30.8,33.8c36.8,1,241.1,0,241.1,0s32.2,4,33.2-34.8c1-38.8,0-138.6,0-138.6s-2-20-20.9-17.3
	v8.7c0,0,8.9-2,9.9,14.9v131.2c0,0,1,16.9-20.9,23.9H69.9c0,0-20.9-1-21.9-17.9c-1-16.9-0.8-151.1-0.8-151.1l0.5-31.2L35.1,104.4
	L35.1,104.4z"/>
<path d="M289.7,163.5h-78.8c-8.1,0-14.7,6.6-14.7,14.7v34.1c0,8.1,6.6,14.7,14.7,14.7h78.8c8.1,0,14.7-6.6,14.7-14.7v-34.1
	C304.4,170.1,297.8,163.5,289.7,163.5z M230.4,214.1c-10.7,0-19.4-8.7-19.4-19.4c0-10.7,8.7-19.4,19.4-19.4s19.4,8.7,19.4,19.4
	C249.8,205.5,241.1,214.1,230.4,214.1z"/>
<path d="M165.8,273.8H78.3c-4.6,0-8.5-3.8-8.5-8.5v-7c0-4.6,3.8-8.5,8.5-8.5h87.4c4.6,0,8.5,3.8,8.5,8.5v7
	C174.2,270,170.4,273.8,165.8,273.8z"/>
<path d="M286.7,134.6c0,0,7.8-1,7.8,10.9s-3.9,132.2-3.9,132.2s1.9,22.7-8.5,24.8s-9.1,14.1-9.1,14.1l27.4-0.1
	c0,0,36.8-9.5,35.8-45.5c-1-36,0-118.2,0-118.2s3.3-23.6-31.6-23.3C269.6,129.7,286.7,134.6,286.7,134.6z"/>
<path d="M292.5,74c-9.8-0.8-49.9-1-93.6-0.9c0.9,9.3,0.8,18.7-1.4,25.7H95.2l17.9-2c0,0,24.8-8.9,46.9-23.6
	C111,73.6,67.5,74,67.5,74s-32.4-2-32.4,33.8c0,27.5,31.8,27.8,43.3,27.6c6.8-0.1,13.6-0.8,20.5-0.8h220.5v-34.1
	C319.3,100.5,316.3,76,292.5,74z"/>
<path d="M192.1,38.2c0,0,5.3,18.3,6.9,36.5l13,0.3c0,0-3-44.7-13.8-59.2C192.4,8,188,9.3,185,12.2c-2.5,2.5-3.7,6-3.5,9.6
	c1.8,30.1-48,51.7-48,51.7l21.9,0.4c2.8,0.1,5.5-0.8,7.8-2.4C176.5,62.3,188.1,51,192.1,38.2z"/>
</svg>
