<?xml version="1.0" encoding="utf-8"?>
<!-- Generator: Adobe Illustrator 24.3.0, SVG Export Plug-In . SVG Version: 6.00 Build 0)  -->
<svg version="1.1" id="Layer_1" xmlns="http://www.w3.org/2000/svg" xmlns:xlink="http://www.w3.org/1999/xlink" x="0px" y="0px"
	 viewBox="0 0 376 325" style="enable-background:new 0 0 376 325;" xml:space="preserve">
<g>
	<path d="M169,151c3.3,0,6.5,0,9.7,0c0-5.2,0-10.4,0-15.5c2.2,0,4.2,0,6.4,0c0,5.2,0,10.4,0,15.5c3.1,0,6.1,0,9.4,0
		c0-5.2,0-10.4,0-15.8c1.9,0,3.6,0.1,5.3,0c4.9-0.2,9.6-1.1,13.9-3.7c7.4-4.6,9.4-11.7,9.1-19.8c-0.2-4.4-1.9-8.2-5.3-11.1
		c-2.1-1.8-4.7-3.1-7.1-4.6c0.7-0.6,1.7-1.3,2.6-2.2c6.8-6.3,7.2-18.9-2.1-24.4c-4.7-2.8-9.7-4.2-15-4.8c-1.2-0.1-1.5-0.5-1.5-1.7
		c0.1-4,0-8.1,0-12.1c0-0.6,0-1.2,0-1.9c-3.3,0-6.3,0-9.6,0c0,5.1,0,10.2,0,15.2c-2.2,0-4.2,0-6.4,0c0-5.1,0-10.2,0-15.2
		c-3.3,0-6.4,0-9.6,0c0,5.1,0,10.1,0,15.3c-6.5,0-12.8,0-19.2,0c0,3.4,0,6.6,0,10c2.8,0,5.5-0.1,8.2,0c2.7,0.1,3.7,1.2,3.7,3.8
		c0,14.2,0,28.5,0,42.7c0,3-1.3,4.3-4.4,4.3c-2.2,0-4.3,0-6.5,0c0,3.4,0,6.6,0,10l0.2,0.2c6.1,0,12.2,0,18.4,0
		C169,140.7,169,145.8,169,151z M198,76.5c5.6,2.4,6.6,8.7,2.4,13.4c-3.2,3.7-7.7,3.8-10.6,3.8c-3.8,0-10.7,0.1-14.6,0.1
		c0-6.4-0.1-12.6-0.1-19C180.5,75,192.9,74.3,198,76.5z M199,104.4c1.2,0.4,2.4,0.9,3.4,1.6c4,2.8,4.4,10.3,0.8,14.3
		c-2.6,2.9-7.6,3.6-11.2,3.8c-4.5,0.2-12,0.4-16.7,0.4c0-6.9-0.3-13.9-0.3-20.8C181.5,104,192.7,102.4,199,104.4z"/>
	<path d="M67.6,64.7c0.8-0.3,1.5-0.4,1.5-0.4L94,64.1c0.4,11,1.9,23.2,3.8,35.1c4.8,3.5,10.1,6.6,15.9,9.1
		c-5.4-24.7-7.9-48.8-6.8-66.4c0,0-3.5-9.3,12.4-12.6l128.1,0c0,0,11.8-0.4,12.4,11.9c0.4,7.6-0.6,58-14.8,103.4
		c4.1,1.5,8.1,3.8,11.8,7.1c12.4-38.7,15.9-87.8,15.9-87.8l24.6,0.1c12.2,3.3,9.7,12.5,9.7,12.5c-7.9,43.3-29.6,69.4-43.8,82.5
		c2.1,3,4.1,6.4,6,10.4c0.2,0.4,0.3,0.7,0.4,1.1c21.1-18.9,47-50.1,50.8-92.1c0,0,3.6-26.9-24.5-28.1l-23,0c0,0,4.5-31.4-19.9-34.7
		l-135.2-0.5c0,0-28.1,0.8-24.6,35.2l-21.1,0c0,0-5,0-10.6,2.1l0.5,1.1C62,53.7,63.8,58.1,67.6,64.7z"/>
	<path d="M137.4,244c0.6,6.4,0.6,12.5,0.3,18c11.5,11.2,23.8,21.6,37.3,30.7c8.2,5.6,16.7,10.8,26.2,14.1c7.1,2.5,14.3,3.6,21.8,2.4
		c3.1-0.5,6.1-1.6,9.2-2.2c4.1-0.8,7.9-1.9,11.6-3.3c-1-1.9-1.9-3.8-2.7-5.7c-3.8,1.4-7.8,2.4-12.1,3.1c-1.7,0.2-3,0-4.4-1.4
		c-19.5-19.9-39.3-39.6-58.7-59.6c-26.7-27.6-52.6-55.9-77.6-85c-3-3.4-5.9-6.9-8.9-10.4c-0.1-0.1,0-0.2-0.1-0.5
		c3,0.7,6,1.4,8.9,2.1c6.7,1.5,13.3,3.1,20,4.6c2.6,0.6,3.8-0.5,4.3-3.1c0.5-2.7,1.2-5.3,1.9-7.9c1.2-4.4,2.5-8.7,3.8-13.3
		c0.4,0.4,0.9,0.7,1.3,1.2c15.2,15.5,30.4,30.9,45.6,46.4c6.5,6.6,13.1,13.1,19.7,19.6c0.6,0.7,1.2,1.7,1.3,2.6
		c0.8,7.1,2.5,13.8,6.6,19.7c7.8,11.5,18.4,17.7,32.4,18c0.7,0,1.7,0.4,2.2,0.9c4.7,4.6,9.4,9.2,14.2,13.9c1-2.2,2.1-4.2,3.1-5.8
		c-1.1-1.1-2.3-2.2-3.4-3.3c-2.2-2.2-4.3-4.6-6.5-6.9c0.5-0.2,1.1-0.4,1.8-0.6c9.4-2.9,16.7-8.5,21.3-17.4c1.5-2.9,2.5-6.1,3.7-9.2
		c2.4-6.4,3.1-13.1,2-19.9c-2.6-16.6-16-29.9-32.9-32.4c-16.7-2.5-33.6,6.4-40.7,21.6c-1.6,3.5-2.6,7.2-3.9,10.9
		c-0.3-0.3-0.8-0.7-1.2-1.1c-15-15.2-30-30.4-45-45.6c-6.4-6.5-12.9-13-19.3-19.5c-1-1.1-2.2-1.6-3.7-1.3c-4.6,0.9-9.3,1.6-13.9,2.5
		c-1.6,0.3-2.6-0.2-3.7-1.4c-17.5-19.1-33.2-39.6-49.1-60c-0.6-0.8-0.4-1.3-0.1-2.1c0.7-1.6,1.4-3.3,1.5-5
		c0.3-5.6-3.1-10.3-8.8-12.2c-7.8-2.5-14.8-0.6-21,4.6c-5.5,4.6-8.7,10.4-8,17.8c0.7,7.2,7.5,13,14.4,12.1c1.2-0.1,1.8,0.2,2.6,1
		c14.2,17.4,28.4,34.7,42.6,52c1,1.2,1.9,2.4,3,3.7c-2.3,1-4.5,1.8-6.5,2.8c-3.9,1.9-7,4.8-8.2,9.1c-0.8,2.8-1.2,5.8-1.1,8.7
		c0.1,6.3,2.9,11.8,6.1,17c2.2,3.7,4.5,7.3,6.8,10.9c3.9,0.5,8.5,1.4,13.3,2.6c-4.8-7.1-9.6-14.4-13.9-21.9
		c-3.1-5.3-4.3-10.9-2.7-17.4c46.6,55.5,96.4,107.5,147.4,158.6c-1.6-0.3-3.2-0.5-4.7-0.8c-10-2.3-18.8-7-27.2-12.6
		c-7.2-4.8-13.4-10.8-19.6-16.7C156.1,262.7,146.6,253.5,137.4,244z M218.4,223.9c-18.2-4-28.4-20.5-25.9-36
		c18.8,14.2,39.6,19.4,62.7,15.6C252.2,217.1,233.7,227.3,218.4,223.9z M235,160.7c13.6,4.4,20.9,16.8,21.9,25.5
		c-20.8,1.7-39.3-3.9-55.8-16.6C208,161.5,221.5,156.4,235,160.7z M196.7,175.2c0.1-0.2,0.3-0.4,0.5-0.7
		c17.8,13.7,37.8,19.8,60.4,17.9c-0.1,1.2-0.1,2.4-0.4,3.4c-0.1,0.4-0.8,0.8-1.3,0.9c-7.7,1.8-15.5,2.2-23.3,1.2
		c-14-1.7-26.5-6.9-37.4-16c-1.1-0.9-1.3-1.6-0.6-2.8C195.4,177.9,196,176.5,196.7,175.2z M33.8,65.5c-1.3-1.6-2.6-2.3-4.8-1.7
		c-2.2,0.6-4.6,0.7-6.7-0.6c-2.2-1.3-3-3.2-2.3-5.6c2-6.6,9.9-13.7,18.8-12c1.5,0.3,3.1,1,4.3,2c2.4,1.8,2.7,4.8,1,7.3
		c-0.2,0.3-0.4,0.6-0.7,0.9c-1.6,2-1.6,3.2,0,5.3c4.1,5.3,8.2,10.6,12.3,15.9c13,16.8,26.3,33.4,40.8,48.9c1.3,1.4,2.6,1.8,4.4,1.5
		c3.5-0.6,7.1-1,11.1-1.5c-1.8,6.3-3.5,12.2-5.3,18.5c-9.4-2.3-18.8-4.5-28.5-6.8c1.2-0.5,2.2-0.9,3.1-1.4c1.2-0.6,2.4-1,3.4-1.7
		c2.4-1.5,2.7-3.3,0.9-5.5c-5.7-7.3-11.4-14.6-17.2-21.8C56.9,93.2,45.3,79.3,33.8,65.5z"/>
	<path d="M130.5,248.2c0-33.4-26.7-60.5-59.7-60.5c-11,0-21.2,3.1-30.1,8.3C23,206.5,11,225.9,11,248.2c0,33.4,26.7,60.5,59.7,60.5
		c3.7,0,7.3-0.4,10.9-1C109.4,302.5,130.5,277.8,130.5,248.2z M97.9,260.2l-10.6-4.1l-2.9-18.9l9.5-9.5l18.3,2.4l2.9,21.9
		L97.9,260.2z M123.9,257.3l-5.3-5.2l-3.6-22.6l3.6-5.8C127.4,237.2,123.9,257.3,123.9,257.3z M94.9,200.5l-5.9,2.9l-21.9-3.6
		l-4.7-4.7C84.9,192.3,94.9,200.5,94.9,200.5z M67,203.5l22,2.9l1.8,19.5l-8.9,8.9l-19-3.4l-4.1-11.9L67,203.5z M50.4,220.4L56,221
		l4,12L57,239l-5.8,11.2L40,250.8l-13-13l10.7-18.6L50.4,220.4z M34.1,209.4l1.2,8.3L25.2,236l-6.5,3.6
		C18.7,239.6,19.9,222.4,34.1,209.4z M23.4,271.5h7.4L46.5,288l0.6,7.7C47.1,295.7,29.9,286.2,23.4,271.5z M64.8,277.4l-17.1,8.9
		l-14.8-16l8.3-16.6l10.6-1.2l13.6,14.2L64.8,277.4z M67.8,278.2l0.4-8.1l0.1-2.8l17.7-8.9l11.5,4.4l2.1,18.8l-19.5,9.9l-7-7.5
		L67.8,278.2z M78.7,300.9l0.3-0.7l2.6-6.6c6.7-1.5,20.5-9.8,20.5-9.8l7.1,1.2c-9.1,12.9-26.8,15.5-29.9,15.8
		C78.9,300.9,78.7,300.9,78.7,300.9z"/>
	<path d="M362.3,210.2c-4.2-13.1-3.4-12.2-16.6-16.5c-3.7-1.2-7.8-1.6-11.6-2.4c-3.3,0-6.6,0-9.9,0c-5.7,1.2-11.5,1.7-16.9,3.7
		c-17.5,6.2-31.3,15.9-41.5,28.8c-8,10.1-13.8,22.2-17.1,36.6c-0.6,2.5-0.8,5.1-1.2,7.7c0,3.3,0,6.6,0,9.9c0.8,4.1,1.8,8.3,2.5,12.4
		c1.7,8.9,7,14.1,15.8,15.8c4.1,0.8,8.3,1.7,12.4,2.5c3.3,0,6.6,0,9.9,0c0.8-0.2,1.6-0.3,2.3-0.4c4.8-0.9,9.8-1.5,14.3-3.1
		c31.4-11.1,51.3-32.8,58.8-65.4c0.6-2.5,0.8-5.1,1.2-7.7c0-3.1,0-6.3,0-9.4C364,218.4,363.6,214.2,362.3,210.2z M288.3,300.8
		c-1.6,0.1-3.3,0.3-4.9,0.3c-7.5,0-14.7-1.4-21.4-4.5c-0.9-0.4-1.8-1.2-2.2-2c-4.5-9.3-5.4-19.2-4.2-29.4c0-0.3,0.2-0.6,0.3-0.8
		c10.2,10.2,20.4,20.5,30.8,30.8c1.8,1.8,3.5,3.5,5.3,5.3C290.7,300.6,289.5,300.7,288.3,300.8z M354.1,246.6
		c-9,25.1-26,42.2-51.1,51.2c-0.4,0.1-0.8,0.3-1.4,0.5c-0.5-0.4-1-0.7-1.5-1.2c-3.4-3.4-6.7-6.8-10.1-10.1
		c-10.3-10.3-20.7-20.6-30.9-31c-0.6-0.6-1-2.1-0.7-2.9c2.6-7.4,6.1-14,10.1-20c9.8-14.4,23.5-24.8,41.3-31.1
		c0.8-0.3,2.4,0.2,3.1,0.9c13.5,13.4,26.9,26.9,40.4,40.3C354.4,244.2,354.6,245.2,354.1,246.6z M356.8,234.1c0,0.3-0.2,0.6-0.3,0.7
		C344.8,223,333,211.3,321,199.2c4.7,0,9.5-0.5,14,0.1c5.1,0.7,10,2.5,15,4c1,0.3,2.1,1.3,2.6,2.3
		C356.9,214.7,357.7,224.2,356.8,234.1z"/>
	<path d="M327.4,234c-2-2.2-3.6-3.9-5.5-6c-1.5,1.8-2.9,3.5-5,6c-2.7-2.8-4.9-5.1-6.7-7c-1.6,1.5-3.3,3.1-5.2,4.9
		c2.2,2.1,4.5,4.2,6.7,6.3c-2.2,2.2-4.2,4.2-6.4,6.5c-2.2-2.4-4.3-4.6-6.5-7c-2,2-3.7,3.8-5.8,5.9c2.3,2.2,4.6,4.4,6.7,6.4
		c-2,2-3.9,4-6.4,6.6c-2.1-2.4-4.2-4.8-5.9-6.9c-2,1.9-3.8,3.6-5.8,5.6c2.2,2.1,4.5,4.2,7.2,6.8c-1.9,1.4-3.7,2.8-5.6,4.2
		c2.2,2.2,3.9,3.9,6.4,6.3c1.3-1.9,2.7-3.8,4.5-6.4c2.6,3.1,4.7,5.4,6.5,7.5c1.9-2,3.6-3.7,5.5-5.7c-2.1-1.9-4.4-4-6.6-6
		c2.2-2.3,4.1-4.3,6.3-6.7c2.2,2.4,4.3,4.7,6.3,7c2-1.9,3.8-3.6,5.9-5.6c-2.5-2.2-4.8-4.3-6.9-6.3c2.2-2.2,4.2-4.2,6.6-6.5
		c2,2.2,4,4.5,6,6.7c2-1.9,3.7-3.6,5.8-5.6c-2.3-2.1-4.6-4.3-7.4-7C324.2,236.5,326,235.1,327.4,234z"/>
</g>
</svg>
