<?xml version="1.0" encoding="utf-8"?>
<!-- Generator: Adobe Illustrator 24.3.0, SVG Export Plug-In . SVG Version: 6.00 Build 0)  -->
<svg version="1.1" id="Layer_1" xmlns="http://www.w3.org/2000/svg" xmlns:xlink="http://www.w3.org/1999/xlink" x="0px" y="0px"
	 viewBox="0 0 376 298.2" style="enable-background:new 0 0 376 298.2;" xml:space="preserve">
<g>
	<g>
		<rect x="13.1" y="268.2" width="349.7" height="17.2"/>
		<g>
			<path d="M87,251.3H50.1v-62H87V251.3z M60.7,240h15.7v-39.3H60.7V240z"/>
		</g>
		<g>
			<path d="M146.6,251.3h-38.8V175h38.8V251.3z M118.4,240H136v-53.7h-17.6V240z"/>
		</g>
		<g>
			<path d="M206.8,251.3h-40.1V144.9h40.1V251.3z M177.3,240h18.9v-83.8h-18.9V240z"/>
		</g>
		<g>
			<path d="M269.6,251.3H227V103.1h42.6V251.3z M237.6,240H259V114.5h-21.4V240z"/>
		</g>
		<g>
			<path d="M331.1,251.3h-43.9V27.9h43.9V251.3z M297.8,240h22.7V39.2h-22.7V240z"/>
		</g>
	</g>
	<path d="M54.9,167.3l48.9-48.9c2.6-2.6,6.8-2.6,9.5,0l28.6,28.6c3.3,3.3,8.7,2.8,11.4-0.9l75.4-104l2.3,31.4c0,0,0.7,8.4,7.2,7.7
		c6.5-0.7,6.1-15.2,6.1-15.2l-2.5-45.5c0,0,1.1-8.7-10.8-7.6C219.1,14,175,19,175,19s-4.3,9.8,6.1,9.8c10.5,0,39-1.4,39-1.4
		L155,118.6c-2.8,3.9-8.4,4.4-11.8,1.1l-27.7-26.4c-2.7-2.5-6.9-2.5-9.4,0.2l-49.9,51.3L54.9,167.3z"/>
</g>
</svg>
