<?xml version="1.0" encoding="utf-8"?>
<!-- Generator: Adobe Illustrator 24.3.0, SVG Export Plug-In . SVG Version: 6.00 Build 0)  -->
<svg version="1.1" id="Layer_1" xmlns="http://www.w3.org/2000/svg" xmlns:xlink="http://www.w3.org/1999/xlink" x="0px" y="0px"
	 viewBox="0 0 376 325" style="enable-background:new 0 0 376 325;" xml:space="preserve">
<path d="M98.4,54.2L110.8,43c0.7-0.6,1.3-1.3,1.8-2.1c0,0,0-0.1,0.1-0.1c2.6-4.3,1.9-9.8-1.5-13.5l-11.9-13c0,0-4.8-5.6-13.1-0.2
	C85,14.8,84,15.6,83,16.6l-54.3,53c-0.5,0.5-1.1,1-1.6,1.5c-1.2,1.1-3.8,4-0.3,7.8c3.9,4.3,48,48.1,56.3,56.3
	c1.6,1.6,3.5,2.7,5.6,3.3c2.5,0.7,5.7,0.8,8.8-1.6c4.5-3.5,10.8-9.6,13.8-12.6c1.9-1.9,3.2-4.2,3.7-6.9c0.5-2.9,0.1-6.6-3.6-9.6
	C104,101.8,99,95.6,99,95.6H268c1.8,0,4.8-0.1,6.6-0.1c6.4-0.2,27.1,1,34.1,22.3c0.9,2.8,1.5,5.7,1.8,8.7c0.4,4,2.3,13.8,11.6,14.8
	c11.7,1.3,32.1,4.3,29.5-18.6c-2.6-23-16.9-68.1-77.6-68.1S98.4,54.2,98.4,54.2z"/>
<path d="M277.7,269.7l-12.4,11.2c-0.7,0.6-1.3,1.3-1.8,2.1c0,0,0,0.1-0.1,0.1c-2.6,4.3-1.9,9.8,1.5,13.5l11.9,13
	c0,0,4.8,5.6,13.1,0.2c1.1-0.7,2.2-1.6,3.1-2.5l54.3-53c0.5-0.5,1.1-1,1.6-1.5c1.2-1.1,3.8-4,0.3-7.8c-3.9-4.3-48-48.1-56.3-56.3
	c-1.6-1.6-3.5-2.7-5.6-3.3c-2.5-0.7-5.7-0.8-8.8,1.6c-4.5,3.5-10.8,9.6-13.8,12.6c-1.9,1.9-3.2,4.2-3.7,6.9
	c-0.5,2.9-0.1,6.6,3.6,9.6c7.4,6.1,12.4,12.4,12.4,12.4l-168.9,0c-1.8,0-4.8,0.1-6.6,0.1c-6.4,0.2-27.1-1-34.1-22.3
	c-0.9-2.8-1.5-5.7-1.8-8.7c-0.4-4-2.3-13.8-11.6-14.8c-11.7-1.3-32.1-4.3-29.5,18.6s16.9,68.1,77.6,68.1
	C162.8,269.3,277.7,269.7,277.7,269.7z"/>
</svg>
