<?xml version="1.0" encoding="utf-8"?>
<!-- Generator: Adobe Illustrator 24.3.0, SVG Export Plug-In . SVG Version: 6.00 Build 0)  -->
<svg version="1.1" id="Layer_1" xmlns="http://www.w3.org/2000/svg" xmlns:xlink="http://www.w3.org/1999/xlink" x="0px" y="0px"
	 viewBox="0 0 321.66 325" style="enable-background:new 0 0 321.66 325;" xml:space="preserve">
<path d="M299.1,151.64c-0.95-0.93-1.9-1.86-2.84-2.81c-14.69-14.78-105.92-106.5-123.63-122.9c-13.92-12.89-25.98-13.86-31.6-13.41
	c-3.61,0.29-7.23,0.47-10.86,0.4c-16.96-0.33-59.12-0.96-88.16,0.16c-29.83,1.15-31.54,27.64-31.06,38.01
	c0.22,4.66,0.36,9.32,0.36,13.98c-0.02,18.42-0.1,57.89-0.42,77.2c-0.32,19.27,12.12,33.73,18.37,39.75
	c5.72,5.52,11.43,11.03,17.05,16.65l98.08,98.08c1.8,1.8,3.55,3.65,5.31,5.49c29.17,30.68,52.84,6.94,56.66,2.68
	c0.55-0.61,1.09-1.21,1.66-1.81c8.97-9.51,69.5-73.55,95.24-97.31C328.38,182.6,304.06,156.5,299.1,151.64z M69.29,102.63
	c-17.83,0-32.29-14.46-32.29-32.29s14.46-32.29,32.29-32.29s32.29,14.46,32.29,32.29S87.13,102.63,69.29,102.63z"/>
</svg>
