<?xml version="1.0" encoding="utf-8"?>
<!-- Generator: Adobe Illustrator 24.3.0, SVG Export Plug-In . SVG Version: 6.00 Build 0)  -->
<svg version="1.1" id="Layer_1" xmlns="http://www.w3.org/2000/svg" xmlns:xlink="http://www.w3.org/1999/xlink" x="0px" y="0px"
	 viewBox="0 0 203.3 326" style="enable-background:new 0 0 203.3 326;" xml:space="preserve">
<g id="Thailand_Baht">
	<path d="M116.8,41.6c13.3,1.1,26.3,3.2,38.3,9.1c21.3,10.5,32.5,27.9,32.8,51.5c0.3,22.8-8.4,41.2-29.3,52.5
		c-0.4,0.2-0.8,0.6-1.5,1.1c0.8,0.5,1.3,1.1,2,1.4c40,18,42.9,60.1,28.4,87.9c-12.4,23.6-33.6,34.2-59,38.1
		c-3.9,0.6-7.9,0.9-12.4,1.4c0,6.1,0,12.1,0,18c-0.1,9-5.7,15.1-13.9,15c-7.9-0.1-13.4-6-13.5-14.9c-0.1-6,0-11.9,0-18.4
		c-27.3,0-53.9,0-81,0c0-81,0-161.5,0-242.7c26.8,0,53.5,0,81,0c0-6.4-0.1-12.2,0-18c0.1-9.6,5.5-15.5,13.9-15.4
		c8.1,0.1,13.4,6.2,13.5,15.4c0.1,5.5,0.1,11,0.1,16.5C116.3,40.5,116.5,40.8,116.8,41.6z M88.3,248.3c0-24.5,0-48.7,0-72.9
		c-12.2,0-24,0-35.9,0c0,24.5,0,48.6,0,72.9C64.5,248.3,76.3,248.3,88.3,248.3z M88.4,138.9c0-20.4,0-40.7,0-60.9
		c-12.2,0-24.1,0-35.9,0c0,20.5,0,40.6,0,60.9C64.4,138.9,76,138.9,88.4,138.9z M116.3,247.1c22.9-2.2,32.6-18.3,32.2-37.1
		c-0.3-17-11.4-31.7-32.2-33.3C116.3,200.1,116.3,223.4,116.3,247.1z M116.4,137.7c18.2-2.3,28.2-15.3,26.3-33.4
		c-1.5-14.2-13.9-26.1-26.3-24.9C116.4,98.6,116.4,117.9,116.4,137.7z"/>
</g>
</svg>
