<?xml version="1.0" encoding="utf-8"?>
<!-- Generator: Adobe Illustrator 24.3.0, SVG Export Plug-In . SVG Version: 6.00 Build 0)  -->
<svg version="1.1" id="Layer_1" xmlns="http://www.w3.org/2000/svg" xmlns:xlink="http://www.w3.org/1999/xlink" x="0px" y="0px"
	 viewBox="0 0 224.2 325" style="enable-background:new 0 0 224.2 325;" xml:space="preserve">
<style type="text/css">
	.st0{fill:#666666;}
</style>
<g>
	<g>
		<path class="st0" d="M103.2,41.4l0.3,48.8l0,3.5c0,5.1,1,18,10.7,27.7c4.5,4.5,12.6,10,25.5,10c1.9,0,3.8-0.1,5.8-0.4
			c13.8-1.6,21.6-7.9,26.1-14.7c10.7,21.4,18.4,41.7,22.8,60.2c4,16.8,5.4,32.2,4.1,45.9c-2.2,22.9-11.2,33.9-13,35.8
			c-1.1,1.2-2.3,2.6-3.6,4.1c-20.4,24.2-43.5,36.5-68.6,36.5c-19.7,0-34.7-7.5-38.8-9.8c-1.4-0.8-2.7-1.5-3.9-2.1
			c-3.5-1.7-15.6-8.4-26.5-21.8c-13.7-16.8-20-37.6-18.9-61.8c1.4-27.8,12.5-61.3,32.3-96.8C72.9,79.2,88.2,60,88.3,59.9l0.2-0.3
			l0.2-0.3C88.8,59.3,94.2,52,101,44C101.8,43.1,102.5,42.2,103.2,41.4 M113.6,9.8c-10.4,0-39.3,38.8-39.3,38.8S11,127.5,7.4,202.6
			c-3.3,68,45.9,95.9,55.3,100.6c1.1,0.5,2.1,1.1,3.2,1.7c5.4,3,23.6,12.1,47.5,12.1c24.1,0,53.9-9.2,82.4-42.9
			c1-1.2,2.1-2.4,3.1-3.5c7.6-8.3,44.7-57.7-16.2-171.9c-1-1.8-2.1-3.5-3.3-5.2c-1.4-2-3.1-7.9-10-7.9c-0.9,0-1.9,0.1-3,0.3
			c-11,2.3,0.5,24.8-22.9,27.5c-1.3,0.2-2.6,0.2-3.7,0.2c-17.4,0-18.3-16.2-18.3-19.7l0-3.6l-0.4-55.8c0-4.3,0.1-8.6,0.3-12.9
			c0.1-3.2-0.6-8.4-6.4-11.4C114.7,9.9,114.2,9.8,113.6,9.8L113.6,9.8z"/>
		<path class="st0" d="M141.2,179.5l-38.1,38.9l-20.3-20.8c-1.4-1.5-3.2-2.5-5.2-3c-1.8-0.4-4-0.3-6.2,1.1c-0.5,0.3-1,0.7-1.4,1.2
			L50,216.8c0,0-7.5,7.5,0.8,13.9c0,0,5.3,5.3,13-2.4l11.8-11.8l20.3,20.3c1,1,2.2,1.9,3.5,2.4c2.1,0.8,5.1,1.3,8.3-1
			c0.5-0.4,1-0.8,1.4-1.2l45.1-45.1v17.1c0,2.2,0.6,4.4,1.8,6.2c1.2,1.7,3.1,3.4,5.9,3.4c5.7,0,9.3-1.6,10.1-8
			c0.1-0.8,0.1-1.5,0.1-2.3l0-35.1c0,0,0-7.8-6-10.8c-1.3-0.7-2.9-1-4.4-1l-35.7,0c0,0-9.8-0.6-9.8,9.6S129,179.3,141.2,179.5z"/>
	</g>
</g>
</svg>
