<?xml version="1.0" encoding="utf-8"?>
<!-- Generator: Adobe Illustrator 24.3.0, SVG Export Plug-In . SVG Version: 6.00 Build 0)  -->
<svg version="1.1" id="Layer_1" xmlns="http://www.w3.org/2000/svg" xmlns:xlink="http://www.w3.org/1999/xlink" x="0px" y="0px"
	 viewBox="0 0 328.5 325" style="enable-background:new 0 0 328.5 325;" xml:space="preserve">
<style type="text/css">
	.st0{fill:#666666;}
</style>
<path class="st0" d="M310.5,85.6c11.9-1.8,9.6-15,9.6-15s0-38.3,0-48.8c0-8.2-7.7-10.5-11.2-11.2c-0.9-0.2-1.7-0.2-2.6-0.2
	c-6.3,0.1-40.4,0.4-48.2,0c-8.7-0.5-11.9,7.8-11.9,7.8c-1.8,10.9,9.1,13.7,9.1,13.7l27.8,0.9l-36.9,36.9
	C188.2-10.2,114.8,9.5,79.3,24.5S-2.8,100.2,10.4,165S77,263.5,128,268.9c51.1,5.5,92.3-30.3,92.3-30.3l18.9,18.9
	c-11.9,11.4-1.8,19.6-1.8,19.6l26,26.4c0,0,23.3,24.2,42.4,5.5c11-10.8,9.8-22.1,6.8-29.8c-1.7-4.4-4.4-8.3-7.6-11.7
	c-4.7-4.8-16-16.4-26.5-26.9c-13.7-13.7-21.9,0.5-21.9,0.5L237,221.5c50.2-62.9,19.2-132.2,19.2-132.2l42.4-42.4l0,29.2
	C298.6,76,298.6,87.4,310.5,85.6z M270.3,256.2c-0.3,0,16,15.2,22.8,21.5c3.8,3.6,5.3,9.1,3.3,14c0,0,0,0.1-0.1,0.1
	c-0.8,2-2.4,3.7-4.2,4.8c-7.5,4.4-13.1-1.2-13.1-1.2L255,271.4L270.3,256.2z M107.5,36.4c0,0,73.4-26,122.7,49.2l-63.4,64.3
	c0,0-9.6,10.9-17.8,0.5l-28.5-32.2c-4.8-5.4-10.9-9.4-17.8-11.2c-8.3-2.2-19.1-2-29.4,7.8c-20.5,19.6-41.5,40.1-41.5,40.1
	S20.4,66.5,107.5,36.4z M211,217.9c-20.5,19.8-43.3,26.9-63.4,28.2c-36.9,2.4-72.5-14.3-95.4-43.4c-5.3-6.7-10-14.4-13.1-22.7
	l39.8-40.2c3-3,5.9-6.2,8.8-9.4c2.3-2.5,7.2-6,13.9-1.8c1.5,0.9,2.8,2.2,4,3.5l30.6,36.2c0.5,0.6,0.9,1.1,1.4,1.7
	c1.4,1.8,6.9,7.4,19.2,5.9c14.6-1.8,23.7-10.9,23.7-10.9l59.7-57.5C240.2,107.5,263.5,167.2,211,217.9z"/>
</svg>
