<?xml version="1.0" encoding="utf-8"?>
<!-- Generator: Adobe Illustrator 24.3.0, SVG Export Plug-In . SVG Version: 6.00 Build 0)  -->
<svg version="1.1" id="Layer_1" xmlns="http://www.w3.org/2000/svg" xmlns:xlink="http://www.w3.org/1999/xlink" x="0px" y="0px"
	 viewBox="0 0 323.5 325" style="enable-background:new 0 0 323.5 325;" xml:space="preserve">
<style type="text/css">
	.st0{fill:#666666;}
</style>
<path class="st0" d="M9.7,189l31.1-26.4c0,0,2.5-36.8,26.2-70.9c45.1-64.9,141.2-69.1,191.4-8c2.2,2.7,4.4,5.6,6.5,8.6
	c23.9,34.9,27.2,79.8,11.1,118.9c-10.2,24.9-29.2,51.5-64.3,65.8c-29.6,12.1-62.9,11.7-92.5-0.3c-22.5-9-48.8-25.7-66.9-56.2
	L98.8,174l54.1,54.1l77.5-77.5l0,26.4l26.4,0l0-68.9l-68.4,0l0,23.8l24.4,0l-60.9,60.9l-57.5-57.5L14.9,215
	c0,0,36.8,92.2,132.1,103.1s158-75.6,165.3-120.2s10.4-109.3-68.9-166.3S76,33.6,76,33.6S-5.8,87.5,9.7,189z"/>
</svg>
