<?xml version="1.0" encoding="utf-8"?>
<!-- Generator: Adobe Illustrator 24.3.0, SVG Export Plug-In . SVG Version: 6.00 Build 0)  -->
<svg version="1.1" id="Layer_1" xmlns="http://www.w3.org/2000/svg" xmlns:xlink="http://www.w3.org/1999/xlink" x="0px" y="0px"
	 viewBox="0 0 318.4 325" style="enable-background:new 0 0 318.4 325;" xml:space="preserve">
<g>
	<path d="M230.6,144.1c-0.8-0.6-83-59.1-67.1-127.4l1.5-6.4l-5.1,4.2c-0.5,0.4-46,38.3-37.7,92.2c0,0.1,1.6,15.2-4.5,21.9
		c-1.9,2.2-4.4,3.2-7.6,3.2c-3.6,0-6.2-1.4-7.9-4.3c-4.6-8-1.5-26.1,6.8-40.4l5-8.6l-8.2,5.6c-0.6,0.4-58.4,40.6-67.6,129.8
		l-0.7,6.4l22.3-22.4l0.1-0.7c0.1-0.3,6.9-33.6,25.5-59.2c3.4,4.1,11.2,12.1,21.6,13.9c7,1.2,13.8-0.7,20.3-5.6
		c9.2-6.9,14.6-18.1,15-30.8c0.2-6.8-0.3-16.9-3.5-26c-4.1-11.6,4.2-22,8.8-26.7c2.7,11.4,12.3,45,35.9,64.1
		c26.8,21.7,32.2,31,32.2,31.1l1.4,2.5l15.9-14.5L230.6,144.1z"/>
	<polygon points="10.6,260.2 23.9,273.5 98.7,198.7 156.1,252 264.8,151.5 294.5,176.1 307.8,101.3 234.1,112.5 256,134.6 
		158.1,229.4 100.7,169 	"/>
	<path d="M253.7,180.4l-0.7-4.1l-17.7,16.9l0.1,1c1.1,23-5.9,55.5-28.5,77.7c-16.7,16.3-38.3,23.7-64.4,21.9
		c-66.5-4.4-77.3-44-77.4-44.4l-1-4.1l-16.2,18.2l0.9,1.4c23.3,36.6,61.2,47,88.9,49.2c3.3,0.3,6.5,0.4,9.8,0.4
		c17,0,33.6-3.7,48.5-10.8C268.7,268.8,253.8,181.2,253.7,180.4z"/>
</g>
</svg>
