<?xml version="1.0" encoding="utf-8"?>
<!-- Generator: Adobe Illustrator 24.3.0, SVG Export Plug-In . SVG Version: 6.00 Build 0)  -->
<svg version="1.1" id="Layer_1" xmlns="http://www.w3.org/2000/svg" xmlns:xlink="http://www.w3.org/1999/xlink" x="0px" y="0px"
	 viewBox="0 0 246.3 326" style="enable-background:new 0 0 246.3 326;" xml:space="preserve">
<path id="Turkish_lira" d="M75.4,314.4c0-51,0-101.8,0-152.9c-22.3,5.3-44.5,10.6-66.7,16c0-10.9,0-21.6,0-32.5
	c22.2-5.3,44.4-10.6,66.6-16c0-11,0-21.9,0-33c-22.2,5.3-44.3,10.6-66.7,16c0-0.9,0-1.6,0-2.3c0-9.4,0-18.8,0-28.3
	c0-1.6,0.4-2.2,2-2.5c21-5,41.9-10,62.9-15c0.6-0.1,1.2-0.3,2-0.5c0-17.7,0-35.4,0-53.2c13.4,0,26.6,0,40,0c0,14.4,0,28.8,0,43.5
	c23.1-5.7,45.9-11.3,68.9-17c0,0.8,0.1,1.4,0.1,2c0,9.5,0,19.1,0,28.6c0,1.5-0.4,2-1.9,2.4c-21.6,5.3-43.2,10.6-64.8,15.9
	c-0.7,0.2-1.3,0.4-2.1,0.6c0,10.9,0,21.8,0,32.9c22.9-5.6,45.7-11.3,68.8-16.9c0,0.9,0,1.6,0,2.3c0,9.4-0.1,18.7,0,28.1
	c0,1.8-0.6,2.3-2.2,2.7c-21.7,5.3-43.3,10.6-65,16c-0.5,0.1-1.1,0.3-1.6,0.4c0,42.8,0,85.5,0,128.3c10.1-1.9,19.5-5.1,28.3-10.1
	c18.6-10.7,31.5-26.4,40.1-45.9c6.9-15.6,10.4-32,11.6-48.9c0.3-4.5,0.4-9,0.6-13.6c13.7,0,27.3,0,41.1,0c0.1,0.3,0.2,0.6,0.2,1
	c-0.2,28.6-5.3,56.1-19,81.5c-20.5,38-52.3,60.7-94.4,69c-15.8,3.1-31.7,3.5-47.7,1.5C76.3,314.5,76,314.5,75.4,314.4z"/>
</svg>
