<?xml version="1.0" encoding="utf-8"?>
<!-- Generator: Adobe Illustrator 24.3.0, SVG Export Plug-In . SVG Version: 6.00 Build 0)  -->
<svg version="1.1" id="Layer_1" xmlns="http://www.w3.org/2000/svg" xmlns:xlink="http://www.w3.org/1999/xlink" x="0px" y="0px"
	 viewBox="0 0 257.2 326" style="enable-background:new 0 0 257.2 326;" xml:space="preserve">
<path id="Ukrainian_hryvnia" d="M50.9,211.7c-14.7,0-29.1,0-43.6,0c0-11.2,0-22.2,0-33.5c0.5,0,0.9,0,1.4,0c22.4,0,44.8,0,67.2,0
	c1,0,1.7-0.3,2.5-0.9c11.9-9.4,23.7-18.8,35.6-28.2c0.4-0.3,0.8-0.7,1.5-1.2c-36.2,0-72.2,0-108.2,0c0-11.2,0-22.2,0-33.5
	c0.5,0,0.9,0,1.4,0c46.2,0,92.3,0,138.5,0c1.3,0,2.2-0.4,3.1-1.3c4.3-4.2,8.2-8.6,10.8-14.1c3.7-8,4.4-16.2,0.5-24.4
	c-2.9-6.1-7.8-10.2-13.7-13c-7.8-3.7-16.1-4.9-24.6-4.5c-18.7,0.9-33.2,10-44.9,24c-2.7,3.2-5,6.6-7.6,10c-13.9-9.5-27.9-19-42-28.6
	c0.1-0.2,0.2-0.4,0.4-0.6c11.7-18.4,27.2-32.6,46.8-42.2c10.8-5.3,22.1-8.7,34-10.6c11.5-1.8,23.1-2,34.7-0.8
	c14.4,1.4,28.2,5,41,11.9c10.4,5.6,19.2,13,25.7,23c6.6,10.3,9.7,21.6,9.3,33.8c-0.4,12.7-3.9,24.4-11,34.9c-0.5,0.7-1,1.4-1.6,2.4
	c14.2,0,28.1,0,42.1,0c0,11.2,0,22.2,0,33.5c-0.5,0-0.9,0-1.4,0c-23.3,0-46.5,0-69.8,0c-0.9,0-1.5,0.2-2.2,0.8
	c-11.9,9.7-23.8,19.3-35.8,28.9c-0.1,0.1-0.2,0.2-0.5,0.5c36.6,0,73.1,0,109.7,0c0,11.2,0,22.3,0,33.5c-0.5,0-0.9,0-1.4,0
	c-46.4,0-92.9,0-139.3,0c-1.2,0-2.1,0.3-3,1c-5.1,4.2-9.5,8.9-11.8,15.2c-3.2,8.9-3,17.6,2.1,25.8c3.1,5.1,7.9,8.2,13.3,10.5
	c5.6,2.3,11.5,3.4,17.4,3.8c6.2,0.5,12.3,0.4,18.4-0.6c10.7-1.8,20.3-6.2,28.9-12.8c7.1-5.5,13.1-12.2,18.3-19.5
	c0.2-0.3,0.4-0.6,0.7-1c14.6,9.8,29.2,19.6,43.9,29.6c-2.4,3.2-4.6,6.4-7.1,9.4c-11.6,14.3-26,25-42.7,32.7
	c-12,5.6-24.7,9.3-37.8,11.2c-12.8,1.9-25.6,1.9-38.4,0.4c-12.5-1.5-24.7-4.5-36.1-9.9C65.1,302.5,56.1,296,49,287
	c-7.2-9.1-11.2-19.5-12.1-31c-1.2-16.4,3.3-31,13.6-43.8C50.6,212.1,50.7,212,50.9,211.7z"/>
</svg>
