<?xml version="1.0" encoding="utf-8"?>
<!-- Generator: Adobe Illustrator 24.3.0, SVG Export Plug-In . SVG Version: 6.00 Build 0)  -->
<svg version="1.1" id="Layer_1" xmlns="http://www.w3.org/2000/svg" xmlns:xlink="http://www.w3.org/1999/xlink" x="0px" y="0px"
	 viewBox="0 0 219.7 326" style="enable-background:new 0 0 219.7 326;" xml:space="preserve">
<g id="us_dollar">
	<path d="M93.7,250.2c0-23.3,0.6-45-0.5-66.7c-0.2-4.6-5.5-10.3-9.9-12.9c-7-4.1-15.4-5.6-22.9-8.9C36.3,151,22,133.5,22.1,105.9
		c0.1-27.4,12.1-47.5,36.4-59.7c10.4-5.2,21.8-8.3,34.4-13C93.4,25.9,94,17.4,94.6,8h33.9c0.5,8.3,1.1,16.8,1.7,26.5
		c24.8,6,49.3,13.8,62.4,37.9c6.4,11.8,9.1,25.7,14.1,40.9h-40.3c-2.7-20.6-11.7-36.5-36.9-40.7c0,21.2-0.4,41.5,0.4,61.7
		c0.1,3.2,4.8,7.4,8.3,8.9c7.5,3.2,15.8,4.5,23.5,7.5c27.3,10.6,45.8,29.2,47.8,59.6c1.9,30.6-12.2,53.6-39,67.7
		c-12.3,6.5-26.2,9.9-40.4,15.1c-0.5,6.9-1,15-1.6,24.2H94.8c-0.4-4.6-1.4-8.7-0.9-12.6c1.3-11.4-2.9-15.7-14.6-18.6
		c-42.8-10.4-65.6-40.6-64.7-83.2h34.4C59.4,236.2,66.3,243.8,93.7,250.2z M130.1,251.1c24.5,0,41.4-14,41.4-33.9
		c0-19.1-16.7-32.4-41.4-32.7V251.1z M92.7,131v-58c-21.5,4.1-32,13.6-33,28.9C58.8,117,67.1,124.6,92.7,131z"/>
</g>
</svg>
