<?xml version="1.0" encoding="utf-8"?>
<!-- Generator: Adobe Illustrator 24.3.0, SVG Export Plug-In . SVG Version: 6.00 Build 0)  -->
<svg version="1.1" id="Layer_1" xmlns="http://www.w3.org/2000/svg" xmlns:xlink="http://www.w3.org/1999/xlink" x="0px" y="0px"
	 viewBox="0 0 274.89 325" style="enable-background:new 0 0 274.89 325;" xml:space="preserve">
<path d="M263.36,244.8c0-8.33-2.74-22.94-4.88-33.03c-2.49-11.8-7.42-23-14.74-32.59c-4.53-5.93-10.24-11.66-17.05-15.06
	c-18.86-9.43-25.15-8.91-38.77-1.57c-13.62,7.33-26.72,16.76-50.82,17.81c-24.1,1.05-41.91-15.19-48.72-20.43
	c-6.81-5.24-15.72-3.14-15.72-3.14c-53.99,8.48-58.95,80.79-59.24,102.06c-0.08,5.92,0.67,11.84,2.46,17.49
	c4.07,12.83,11.92,21.09,19.81,26.38c9.07,6.08,19.83,9.13,30.75,9.13l147.22,0c7.96,0,15.87-1.62,23.07-5.03
	C268.17,291.9,263.36,256.72,263.36,244.8z M246.6,261.04c-2.1,25.67-18.34,33-26.72,33l-142.49,0.49
	c-4.1,0.01-8.21,0.12-12.31,0.23c-8.26,0.23-31.54-1.66-33.27-30.06c-2.06-34.01,5-73.59,32.15-86.84c0.81-0.4,1.6-0.83,2.4-1.24
	c2.76-1.42,10.85-4.28,20.98,3.74c0,0,49.77,37.72,102.68-1.05c0,0,18.71-13.25,38.64,11.34c5.98,7.37,10.2,16,12.64,25.18
	C244.2,226.8,247.92,244.77,246.6,261.04z"/>
<path d="M137.48,11.03c-40.54,0-73.41,32.53-73.41,72.66c0,40.13,32.86,72.66,73.4,72.66c40.54,0,73.41-32.53,73.41-72.66
	C210.88,43.56,178.02,11.03,137.48,11.03z M137.48,136.98c-29.73,0-53.84-23.86-53.84-53.29c0-29.43,24.1-53.29,53.84-53.29
	c29.73,0,53.84,23.86,53.84,53.29C191.31,113.12,167.21,136.98,137.48,136.98z"/>
</svg>
