<?xml version="1.0" encoding="utf-8"?>
<!-- Generator: Adobe Illustrator 24.3.0, SVG Export Plug-In . SVG Version: 6.00 Build 0)  -->
<svg version="1.1" id="Layer_1" xmlns="http://www.w3.org/2000/svg" xmlns:xlink="http://www.w3.org/1999/xlink" x="0px" y="0px"
	 viewBox="0 0 376 263.49" style="enable-background:new 0 0 376 263.49;" xml:space="preserve">
<path d="M183.47,13.38C77.67,12.04,9.24,132.3,9.24,132.3c45.83,105.14,144.9,117.15,144.9,117.15
	c144.9,22.23,212.47-117.2,212.47-117.2C335.45,85.3,289.28,14.71,183.47,13.38z M188.36,223.43
	c-100.03,3.11-139.64-90.01-139.64-90.01s53.64-90.87,139.64-91.23s145.85,90.42,145.85,90.42S288.39,220.31,188.36,223.43z"/>
<path d="M210.94,138.63c-14.73-1.16-26.63-13.06-27.79-27.79c-1.11-14.07,7.4-26.32,19.64-30.89c-4.6-1.24-9.43-1.91-14.43-1.91
	c-31.45,0-56.78,26.22-55.32,58c1.31,28.37,24.33,51.4,52.71,52.71c31.78,1.46,58-23.87,58-55.32c0-4.99-0.67-9.83-1.91-14.43
	C237.27,131.23,225.02,139.74,210.94,138.63z"/>
</svg>
