<?xml version="1.0" encoding="utf-8"?>
<!-- Generator: Adobe Illustrator 24.3.0, SVG Export Plug-In . SVG Version: 6.00 Build 0)  -->
<svg version="1.1" id="Layer_1" xmlns="http://www.w3.org/2000/svg" xmlns:xlink="http://www.w3.org/1999/xlink" x="0px" y="0px"
	 viewBox="0 0 208.5 326" style="enable-background:new 0 0 208.5 326;" xml:space="preserve">
<g id="Vietnamese_dong">
	<path d="M15.1,316.5c0-9.8,0-19.6,0-29.9c54.3,0,108,0,162.2,0c0,9.9,0,19.9,0,29.9C123.3,316.5,69.2,316.5,15.1,316.5z"/>
	<path d="M140.6,101.3c0-12.3,0-24.7,0-37c0-1-0.2-2.1-0.3-3.7c-15.5,0-30.8,0-46.5,0l0-30.3l46.6,0l0-20.3l36.8,0l0,19.9l21.5,0
		l0,30.5l-21.1,0l0,207.4l-35.6,0c0-6.5,0-13.1,0-19.6c-0.5-0.4-1-0.8-1.6-1.1c-0.5,1.1-0.9,2.2-1.6,3.2
		c-13.4,18.1-32,23.6-53.5,21.9c-38.9-3.1-67-33.6-73.5-71.5c-4.6-27-3.2-53.7,9.3-78.7C40.1,84,79.6,73.9,112.5,82.7
		C123.8,85.7,132.7,92.4,140.6,101.3z M141.5,178.5C142,178.4,141.9,179.5,141.5,178.5c-0.8-15-2.5-26.8-6.4-39.5
		c-6-19-20.1-28.4-39.5-28.8c-18.8-0.5-33.5,8.7-40.6,26.8c-8.9,22.7-9.6,46-3.4,69c6.1,22.9,28.2,39.2,51.5,35.5
		c14.8-2.3,26-11.5,32.4-26.6C140.4,203.2,141.2,190.8,141.5,178.5z"/>
</g>
</svg>
