<?xml version="1.0" encoding="utf-8"?>
<!-- Generator: Adobe Illustrator 24.3.0, SVG Export Plug-In . SVG Version: 6.00 Build 0)  -->
<svg version="1.1" id="Layer_1" xmlns="http://www.w3.org/2000/svg" xmlns:xlink="http://www.w3.org/1999/xlink" x="0px" y="0px"
	 viewBox="0 0 322.5 325" style="enable-background:new 0 0 322.5 325;" xml:space="preserve">
<style type="text/css">
	.st0{fill:none;}
</style>
<g>
	<path class="st0" d="M150.6,93.9l-23.2-18c-1.3-1-3.1-0.7-4,0.6l-13.1,18c-1.4,1.9,0,4.5,2.3,4.5h36.3
		C151.5,99,152.7,95.6,150.6,93.9z"/>
	<path class="st0" d="M200.3,31.2L200.3,31.2c-1.8-2-4.7-2.4-6.9-1.1l-27.8,17.4c-1.4,0.5-1.2,1.7-0.7,2.8c0.5,1.1,1.4,2,2.4,2.7
		c7.3,5,51.1,34.8,55.5,39.8c4.8,5.4,10.6,5.8,15.7,5.8c2.8,0,3.4-1.9,3.5-3.7c0-1.5-0.5-2.9-1.3-4.1
		C234.8,82.2,202.7,34,200.3,31.2z"/>
	<path class="st0" d="M121.8,33.5c-1.6-1.2-3.1-2.5-4.7-3.9c-1-0.9-2.7-1.6-4.4,0.9c-2.5,3.8-43.2,54.9-48.4,61.6
		c-0.6,0.8-1.1,1.6-1.4,2.5c-0.6,1.9-0.5,4.6,4.6,4.6c7.8,0,23.8,0.3,23.8,0.3l24.1-32.6c3.8-5.1,10.8-6.4,16.1-3
		c0.1,0.1,0.2,0.1,0.3,0.2c8.5,5.8,51.4,34.4,51.4,34.4h17c0,0,5.4-0.7,2.4-4.8C200,90.3,137.6,44.9,121.8,33.5z"/>
	<path class="st0" d="M236,178.3c-5.8,0-20.8,5.4-20.4,23.5c0.2,9,4.8,14.2,9.3,17.1c3.8,2.5,8.3,3.6,12.8,3.6h60.9v-44.6
		C299.3,177.2,241.8,178.3,236,178.3z M247.3,208.9c-4.4,0-8.1-3.6-8.1-8.1c0-4.4,3.6-8.1,8.1-8.1s8.1,3.6,8.1,8.1
		C255.4,205.3,251.8,208.9,247.3,208.9z"/>
	<path class="st0" d="M147.9,208.8c0,0-10-12.1-26.6-10.1c-16.6,2-23.9,15.9-23.9,15.9l16.6-5l5.5,7.6l-25.3,7.9
		c-1.1,5.8,1.1,14.2,1.1,14.2l26.3-8.9l5.8,7.4l-27.4,9.5c2.6,3.6,6.2,6.3,9.2,8.2c4.2,2.6,8.8,4.2,13.7,4.5
		c6.1,0.4,11.3-1.2,15.4-3.2c7.9-3.9,13.8-10.9,16.3-19.4C159.4,221,147.9,208.8,147.9,208.8z"/>
	<path d="M303.3,164.7h-12c-4,0-7.3-3.3-7.3-7.3v-32.4c0,0,0.8-19.5-19.7-25.7c-2.9-0.9-5.4-2.7-7.1-5.2l-51-77.8
		c-0.8-1.3-2-2.4-3.4-3c-1.6-0.7-3.7-1-6,0.5c-3.6,2.5-29.6,17.9-39.9,23.9c-2.5,1.5-5.7,1.3-8-0.4l-28-20.8
		c-4.8-3.5-11.5-2.6-15.1,2L44.7,95.9c-1.4,1.7-3.5,2.8-5.7,2.8h-0.9c-4.7,0-9.4,1-13.6,3.1c-6,3-12.4,8.8-12.9,20.1v161.6
		c0,0-1.3,25,21.4,28.7c1.7,0.3,3.4,0.4,5.2,0.4l217.6,0c0,0,15.7,1,23.2-14.3c2.1-4.4,3.1-9.2,3.1-14.1v-25.7
		c0-3.4-2.3-6.4-5.6-7.1c-0.3,0-0.5-0.1-0.8-0.1c-3-0.3-4.4,1.6-5,3.1c-0.3,0.9-0.5,1.8-0.5,2.7v23.3c0,3-0.4,6.1-1.3,9
		c-1.5,4.8-4.8,10.5-11.4,10.5H37.6c0,0-9.7,0.4-12.9-10c-0.6-1.8-0.8-3.7-0.8-5.6V128.5c0-3.4,0.8-6.7,2.5-9.7
		c1.9-3.3,5.2-6.6,10.7-6.6c10.9,0,217.4,0,217.4,0s14.3-0.5,14.3,14.3v30.6c0,4-3.3,7.3-7.3,7.3h-22.6c-9.4,0-18.6,3.4-25.4,9.9
		c-5.4,5.2-9.9,12.8-9.4,23.7c1.4,26.3,18.2,38.1,29,38.1c10.9,0,66.3,0,66.3,0s11.3,1.4,11.3-11.3v-50.2c0-1,0-2,0.1-3
		C310.9,169.8,310.6,164.7,303.3,164.7z M148.8,99h-36.3c-2.3,0-3.6-2.6-2.3-4.5l13.1-18c0.9-1.3,2.7-1.5,4-0.6l23.2,18
		C152.7,95.6,151.5,99,148.8,99z M200.3,98.6h-17c0,0-42.9-28.6-51.4-34.4c-0.1-0.1-0.2-0.1-0.3-0.2c-5.3-3.5-12.4-2.1-16.1,3
		L91.3,99.6c0,0-16-0.3-23.8-0.3c-5.1,0-5.1-2.7-4.6-4.6c0.3-0.9,0.8-1.8,1.4-2.5c5.3-6.6,45.9-57.8,48.4-61.6
		c1.7-2.5,3.3-1.8,4.4-0.9c1.5,1.3,3,2.7,4.7,3.9c15.8,11.4,78.1,56.8,80.8,60.4C205.7,97.9,200.3,98.6,200.3,98.6z M238.4,98.6
		c-5.1,0-10.9-0.3-15.7-5.8c-4.4-5-48.2-34.8-55.5-39.8c-1-0.7-1.9-1.6-2.4-2.7c-0.5-1.1-0.7-2.2,0.7-2.8l27.8-17.4
		c2.2-1.4,5.1-1,6.8,1l0.1,0.1c2.5,2.8,34.6,51,40.3,59.6c0.8,1.2,1.3,2.6,1.3,4.1C241.8,96.7,241.2,98.6,238.4,98.6z M298.6,222.5
		h-60.9c-4.5,0-9-1.2-12.8-3.6c-4.6-2.9-9.1-8.1-9.3-17.1c-0.3-18,14.6-23.5,20.4-23.5c5.8,0,63.3-1,62.6-0.3V222.5z"/>
	<path d="M172.6,267.8V133.1l-18.9,4.7v64.3c0,0-16.8-27.5-43.7-20.6c-26.8,6.8-33.1,27.4-35.8,40l-18.9,5.8l4.2,8.9l14.2-4.2
		c0,0,0,7.9,2.1,13.2l-11,4.2l3.7,8.9l11-4.2c0,0,12.6,26.3,40.5,24.7c0,0,21.6-0.9,33.7-22.3v17L172.6,267.8z M138.4,256.8
		c-4.1,2-9.4,3.6-15.4,3.2c-4.9-0.3-9.6-2-13.7-4.5c-3-1.8-6.6-4.6-9.2-8.2l27.4-9.5l-5.8-7.4l-26.3,8.9c0,0-2.1-8.4-1.1-14.2
		l25.3-7.9l-5.5-7.6l-16.6,5c0,0,7.3-14,23.9-15.9c16.6-2,26.6,10.1,26.6,10.1s11.5,12.2,6.7,28.6
		C152.2,245.9,146.2,252.9,138.4,256.8z"/>
	<circle cx="247.3" cy="200.8" r="8.1"/>
</g>
</svg>
