<?xml version="1.0" encoding="utf-8"?>
<!-- Generator: Adobe Illustrator 24.3.0, SVG Export Plug-In . SVG Version: 6.00 Build 0)  -->
<svg version="1.1" id="Layer_1" xmlns="http://www.w3.org/2000/svg" xmlns:xlink="http://www.w3.org/1999/xlink" x="0px" y="0px"
	 viewBox="0 0 316.3 325" style="enable-background:new 0 0 316.3 325;" xml:space="preserve">
<path d="M254.4,204.6c4.1,0.1,7.3,3.4,7.1,7.5c-0.2,3.9-3.3,6.9-7.3,6.9c-4.1,0-7.2-3.3-7.1-7.5
	C247.3,207.6,250.5,204.6,254.4,204.6z"/>
<path d="M304.3,145.1c0-12.9-5.2-23.2-15.6-31c-1.4-1.1-2.5-3.5-2.6-5.4c-0.3-8.5,0.1-16.9-0.4-25.4c-1-17.2-14.5-31.6-31.7-33.2
	c-10.3-0.9-20.8-0.5-31.2-0.5c-3,0-4.8-0.9-6.3-3.6c-3.5-6.2-7.5-7.9-11.6-5.4c-4.3,2.5-4.4,6.7-0.7,13.1
	c9.3,15.8,11.7,32.5,6.5,50.1c-0.4,1.4-1.9,3.6-2.9,3.7c-6.9,0.2-13.8,0.2-20.7,0.2v0h-32.4c-0.7,0-1.3,0-2,0.1c-0.7,0-1.4,0-2.1,0
	c-0.7,0-1.4-0.1-2.1-0.1h-19.3c0,0,0,0,0,0c-0.4,0-0.7,0-1.1,0h-9.7l0,0c-7.1,0-14.1,0-21,0.1c-3.5,0.1-4.9-1.1-5.8-4.4
	c-8.2-28.4,5.1-59.6,31.8-72.7c19.4-9.6,39-9,58.1,1.1c0.5,0.3,1,0.6,1.5,0.9c4.6,2.4,8.6,1.5,10.8-2.4c2.2-3.8,0.8-7.7-3.7-10.4
	c-32.6-19.9-76.6-11.3-100,20.2c-4.5,6-8.2,11.3-16.7,9.4c0,0-0.1,0-0.1,0c-4.2,0.5-7,3.4-7.1,7.1c-0.1,3.7,2.5,6.7,6.4,7.4
	c1.5,0.3,3.1,0.3,4.6,0.5c-1,5.5-1.9,10.5-2.9,16c-6.6,0-13.1,0-19.6,0c-6.9,0-9.5,2.5-9.5,9.4c-0.1,5.6,0,11.2,0,17.2
	c-11.1-0.7-19.5-11.4-18.6-22.7c0.8-10.3,7.4-17.4,18.4-20.1c5.8-1.4,8.4-7.1,5.1-11.5c-2.5-3.4-6.1-3.3-9.7-2.5
	C23.7,54.3,12,69,11.9,86.7c-0.1,64-0.1,128.1,0,192.1c0,21.1,15.9,37,36.9,37.1c72.7,0.1,145.3,0.1,218,0
	c21.6,0,37.4-15.8,37.4-37.5C304.3,234,304.3,189.5,304.3,145.1z M253.2,64.7c9,0.7,16.4,8.8,17.9,18c0.3,2,0.3,4.1,0.3,6.2
	c0,6.2,0,12.4,0,18.6h-14.5c0-5.7,0-11.2,0-16.7c0-7.7-2.4-10.2-10-10.2c-6.2,0-12.4,0-18.7,0c-1-5.5-2-10.7-3-16.1
	C234.6,64.6,244,64,253.2,64.7z M241.8,95.5v12h-16.6c0.7-3.5,1.1-6.7,1.9-9.9c0.3-1.1,1.5-2,2.6-2.1
	C233.7,95.3,237.6,95.5,241.8,95.5z M60.2,96.7c8.9-0.9,5.8-0.6,14.7-1.4c0.8,4.1,1.6,8,2.4,12.2H60.2L60.2,96.7z M289.7,278.3
	c-0.2,14-9.3,23.1-23.4,23.1c-72.2,0.1-144.4,0.1-216.6,0c-13.6,0-23.1-8.9-23.1-22.4c-0.2-53.5-0.1-106.9-0.1-160.4
	c0-0.7,0.1-1.4,0.3-3.1c10.5,8.4,22.4,6.8,34.1,6.8c68.2,0,136.4,0,204.5,0c15.3,0,24.1,8.7,24.2,23.9c0.1,9.5,0,18.9,0,28.9
	c-2.1,0-3.7,0-5.3,0c-14.4,0-28.8,0.1-43.2,0c-4.6,0-8,1.6-11.1,5.7c-5.7,7.5-12.3,14.3-19.7,20.2c-11.3,9-11.2,12.6,0.2,21.7
	c7.5,5.9,14,12.9,19.9,20.4c3,3.8,6.2,5.3,10.5,5.2c14.4-0.1,28.8,0,43.2-0.1c1.6,0,3.2,0,5.2,0c0.2,1.4,0.4,2.5,0.4,3.7
	C289.7,260.8,289.8,269.5,289.7,278.3z M289.3,190v43.8c-1.8,0-3.5,0-5.2,0c-13.1,0-26.1,0.1-39.2-0.1c-1.9,0-4.3-1-5.7-2.4
	c-6.6-6.2-12.9-12.6-19.7-19.3c7.1-7.2,13.8-13.9,20.6-20.5c0.8-0.7,2-1.4,3.1-1.4C258.4,190,273.7,190,289.3,190z"/>
<path d="M139.3,152.4v55.1c0,0-14.4-23.5-37.4-17.7c-23,5.9-28.4,23.4-30.6,34.2L55,229l3.6,7.7l12.2-3.6c0,0,0,6.8,1.8,11.3
	l-9.5,3.6l3.2,7.7l9.5-3.6c0,0,10.8,22.5,34.7,21.2c0,0,18.5-0.7,28.8-19.1v14.6l16.2-5V148.4L139.3,152.4z M126.1,254.3
	c-3.5,1.7-8,3.1-13.2,2.7c-4.2-0.3-8.2-1.7-11.7-3.9c-2.6-1.6-5.6-3.9-7.9-7l23.4-8.1l-5-6.3l-22.5,7.7c0,0-1.8-7.2-0.9-12.2
	l21.6-6.8l-4.7-6.5l-14.2,4.3c0,0,6.2-12,20.5-13.6c14.2-1.7,22.8,8.7,22.8,8.7s9.8,10.4,5.8,24.5C138,244.9,132.9,251,126.1,254.3z
	"/>
</svg>
