<?xml version="1.0" encoding="utf-8"?>
<!-- Generator: Adobe Illustrator 24.3.0, SVG Export Plug-In . SVG Version: 6.00 Build 0)  -->
<svg version="1.1" id="Layer_1" xmlns="http://www.w3.org/2000/svg" xmlns:xlink="http://www.w3.org/1999/xlink" x="0px" y="0px"
	 viewBox="0 0 306.4 325" style="enable-background:new 0 0 306.4 325;" xml:space="preserve">
<path d="M294.3,47.1c-0.2-6.4-4.6-10.2-9-12.5c-3.9-2.1-8.2-3-12.6-3h-25.5l0-9.6c0.4-10-12.3-9.6-12.3-9.6s-150,0.4-161.8,0
	c-11.9-0.4-10.2,9.4-10.2,9.4v9.8C33.7,30.7,17.3,27,13.2,48.7c-2.4,12.9,0.2,27.2,2.7,36.7c2.5,9.4,6.7,18.2,12.7,25.8
	c20,25,46.8,22.3,46.8,22.3c8.2,13.5,22.9,28.3,39.7,34.8s22.5,25.4,21.7,45.5c-0.6,15.1-5.1,16.7-7.4,16.7
	c-1.5-0.1-3.1-0.2-4.6-0.1c-4.6,0.2-13.3,0.4-22.8-0.2c-13.9-0.8-14.8,11.1-14.8,11.1v20.5h132.7c0,0,0-11.5,0-19.7
	c0-2.7-1-4.9-2.2-6.5c-2.3-3-6-4.6-9.7-4.6h-26.6c-2,0-3.6-1-4.6-2.1c-1.2-1.2-1.9-2.7-2.3-4.3c-1.8-7.9-8.7-44.5,17.6-55.4
	c29.5-12.3,41.8-35.4,41.8-35.4C310.2,124.4,294.7,59.8,294.3,47.1z M62.8,115.1C25.5,97.5,32.1,57.3,32.1,52.8s4.1-5.3,4.1-5.3
	h26.6V115.1z M192.3,85.9c-0.6,1.4-1.8,2.6-3.1,3.3c-2.5,1.4-8.3,4.9-11.9,9.2c-4.6,5.6,3.3,17.3,3.9,23.5c0.6,6.2-8.8,9.8-15.7,2.3
	c-6.9-7.5-10.8-6.5-14-6.5s-9.8,12.7-20.2,7.8s-0.6-14.7,2.3-19.3c0-0.1,0.1-0.1,0.1-0.1c1.8-2.9,0.3-6.6-2.9-7.7
	C126.2,97,116,93,116,85.4c0-7.3,3.9-8.1,5.8-8c1.4,0.1,2.8,0.2,4.2,0.2h4.1c6.3,0,12.2-3.3,15.1-8.8c0.9-1.7,1.5-3.4,1.5-5.2
	c0-7.2,2.6-8.2,2.6-8.2s10.8-6.8,12.4,5.2c0,0.1,0,0.2,0.1,0.4c1.4,9.5,9.6,16.5,19.1,16.5h3.6c2.3,0,4.6,0.8,6.3,2.3
	C193.2,82,193.1,84.3,192.3,85.9z M275.4,76.2c-3.7,26.6-28.3,38.9-28.3,38.9V47.5c0,0,16,0.4,23.3,0
	C277.9,47.1,279.1,49.5,275.4,76.2z"/>
<path d="M58.8,307.3V292c0-8.8,7.2-16,16-16h156.7c9.4,0,17,7.6,17,17v14.4c0,1.6-1.3,2.9-2.9,2.9H61.8
	C60.2,310.2,58.8,308.9,58.8,307.3z"/>
</svg>
