<?xml version="1.0" encoding="utf-8"?>
<!-- Generator: Adobe Illustrator 24.3.0, SVG Export Plug-In . SVG Version: 6.00 Build 0)  -->
<svg version="1.1" id="Layer_1" xmlns="http://www.w3.org/2000/svg" xmlns:xlink="http://www.w3.org/1999/xlink" x="0px" y="0px"
	 viewBox="0 0 346.3 326" style="enable-background:new 0 0 346.3 326;" xml:space="preserve">
<g id="Zimbabwean_dollar">
	<path d="M338.9,213.5c-1.3,5.3-2.1,10.8-4,15.9c-8,22-24,34.8-46.7,39.8c-6.4,1.4-5.4-0.4-5.4,6.5c-0.1,9.8,0.1,19.6-0.2,29.4
		c-0.2,6.2-5.1,11-11.3,11.8c-5.8,0.7-11.8-3-13.5-8.8c-0.6-2-0.8-4.2-0.8-6.4c-0.1-9.4,0-18.8,0-28.2c0-1.2,0-2.3,0-3.1
		c-6.5-1.8-12.8-3-18.7-5.2c-20.2-7.4-30.9-22.9-35.1-43.3c-1.1-5.4-1.8-10.9-2-16.3c-0.4-8,5-13.6,12.9-14
		c7.1-0.4,12.9,5.1,13.9,12.6c0.8,6.3,1.4,12.7,3.5,18.6c4,11.2,13.2,18.1,25.6,20.3c0-1.1,0-2.2,0-3.2c0-21.8,0-43.6,0.1-65.4
		c0-2.5-0.9-3.4-3.1-4.3c-8.7-3.3-17.7-6.3-26-10.6c-13.7-7-20.9-18.8-22.5-34.1c-1.4-13-1.1-25.9,4.7-38
		c8.2-17.2,22.3-26.7,40.4-30.7c6.4-1.4,6.4-1.1,6.4-7.7c0-8.7-0.1-17.5,0-26.2c0.2-10,8.3-16.3,17-13.4c5.5,1.8,8.7,6.5,8.8,13
		c0.1,9.9,0,19.9,0,29.8c0,1.2,0,2.3,0,2.6c8.1,2.7,15.9,4.5,23.1,7.8c15.1,7,22.9,19.8,25.9,35.7c0.7,3.9,1.1,7.9,1.4,11.9
		c0.6,7.6-4.7,13.8-12.2,14.3c-7.5,0.5-13.8-4.7-14.4-12.2c-0.6-7.1-1.8-13.9-6.2-19.8c-4.3-5.8-10.2-9-17.4-10.7
		c-0.1,1.3-0.2,2.4-0.2,3.4c0,18.9,0,37.8-0.1,56.6c0,2.5,0.7,3.5,3.1,4.3c11,3.6,22.1,7.2,32,13.7c12.5,8.3,18.6,20.2,20.4,34.7
		c0.1,1.3,0.4,2.5,0.7,3.7C338.9,203.6,338.9,208.5,338.9,213.5z M283.1,243.7c6.1-0.7,12.2-3,16.3-6.1c9.7-7.4,12.9-17.6,12.6-29.3
		c-0.2-6.6-1.4-12.9-6.8-17.5c-6.4-5.3-14.1-8-22-10.9C283.1,201.4,283.1,222.5,283.1,243.7z M256.8,137.6c0-19.1,0-37.3,0-55.8
		c-6.6,1.4-12.3,3.8-17,8.3c-7.7,7.3-8.9,16.5-8,26.5c0.6,6.4,3.7,11,9.2,13.9C245.9,133.1,251.1,135.1,256.8,137.6z"/>
	<path d="M65.2,235.3c1.9,0,3.2,0,4.4,0c33.6,0,67.1,0,100.7,0c7.1,0,7.4,0.4,7.4,7.6c0,7.8,0,15.5,0,23.3c0,4.9-1.2,6-6.2,6
		c-10.7,0-21.4,0-32,0c-41.5,0-83.1,0-124.6,0c-6.8,0-7.5-0.7-7.5-7.7c0-5.3-0.1-10.6,0.1-15.9c0.1-1.7,0.6-3.7,1.6-5
		c35.6-45.9,71.3-91.8,107-137.7c1.1-1.4,2.3-2.8,4.1-4.9c-1.9,0-3.1,0-4.3,0c-31.1,0-62.2,0-93.2,0c-6.2,0-6.9-0.7-6.9-6.8
		c0-7.7,0-15.3,0-23c0-6.3,0.8-7.1,7-7.1c29.5,0,58.9,0,88.4,0c19.4,0,38.8,0,58.3,0c5.8,0,6.8,1.1,6.8,6.8c0,5.9,0.2,11.9-0.1,17.8
		c-0.1,2.1-0.8,4.5-2.1,6.2c-31.6,41.3-63.4,82.4-95.1,123.6C74.7,224,70.2,229.3,65.2,235.3z"/>
</g>
</svg>
